%FSLAX45Y45*%
G04 Gerber Fmt 4.5, Leading zero omitted, Abs format (unit mm)*
G04 Created by KiCad (PCBNEW (6.0.0)) date 2021-12-31 15:40:04*
%MOMM*%
%LPD*%
G01*
G04 APERTURE LIST*
%TA.AperFunction,Profile*%
%ADD10C,0.500000*%
%TD*%
%TA.AperFunction,Profile*%
%ADD11C,0.100000*%
%TD*%
%ADD12C,0.200000*%
%ADD13C,0.150000*%
G04 APERTURE END LIST*
D10*
X20100000Y-15500000D02*
X8900000Y-15500000D01*
X8500000Y-11100000D02*
X8500000Y-9900000D01*
X8500000Y-13900000D02*
X8500000Y-15100000D01*
D11*
X18800000Y-14000000D02*
X18800000Y-11000000D01*
D10*
X8500000Y-15100000D02*
G75*
G03*
X8900000Y-15500000I400000J0D01*
G01*
X8900000Y-9500000D02*
X20100000Y-9500000D01*
D11*
X18800000Y-14000000D02*
X19300000Y-14000000D01*
D10*
X8500000Y-11100000D02*
X9100000Y-11100000D01*
X20500000Y-9900000D02*
G75*
G03*
X20100000Y-9500000I-400000J0D01*
G01*
X8900000Y-9500000D02*
G75*
G03*
X8500000Y-9900000I0J-400000D01*
G01*
X20500000Y-9900000D02*
X20500000Y-15100000D01*
D11*
X19300000Y-11000000D02*
X19300000Y-14000000D01*
D10*
X9100000Y-13900000D02*
X8500000Y-13900000D01*
X20100000Y-15500000D02*
G75*
G03*
X20500000Y-15100000I0J400000D01*
G01*
D11*
X18800000Y-11000000D02*
X19300000Y-11000000D01*
D10*
X9100000Y-11100000D02*
X9100000Y-13900000D01*
D12*
D13*
X15225000Y-15165000D02*
X15375000Y-15315000D01*
X15375000Y-15165000D02*
X15225000Y-15315000D01*
D12*
X15325000Y-15175000D02*
X15275000Y-15175000D01*
X15325000Y-15305000D02*
X15275000Y-15305000D01*
X15275000Y-15175000D02*
G75*
G03*
X15275000Y-15305000I0J-65000D01*
G01*
X15325000Y-15305000D02*
G75*
G03*
X15325000Y-15175000I0J65000D01*
G01*
X15400000Y-14800000D02*
G75*
G03*
X15400000Y-14800000I-100000J0D01*
G01*
X8732619Y-15835476D02*
X8732619Y-15635476D01*
X8780238Y-15635476D01*
X8808810Y-15645000D01*
X8827857Y-15664048D01*
X8837381Y-15683095D01*
X8846905Y-15721190D01*
X8846905Y-15749762D01*
X8837381Y-15787857D01*
X8827857Y-15806905D01*
X8808810Y-15825952D01*
X8780238Y-15835476D01*
X8732619Y-15835476D01*
X8932619Y-15835476D02*
X8932619Y-15702143D01*
X8932619Y-15740238D02*
X8942143Y-15721190D01*
X8951667Y-15711667D01*
X8970714Y-15702143D01*
X8989762Y-15702143D01*
X9056429Y-15835476D02*
X9056429Y-15702143D01*
X9056429Y-15635476D02*
X9046905Y-15645000D01*
X9056429Y-15654524D01*
X9065952Y-15645000D01*
X9056429Y-15635476D01*
X9056429Y-15654524D01*
X9180238Y-15835476D02*
X9161190Y-15825952D01*
X9151667Y-15806905D01*
X9151667Y-15635476D01*
X9285000Y-15835476D02*
X9265952Y-15825952D01*
X9256429Y-15806905D01*
X9256429Y-15635476D01*
X9513571Y-15835476D02*
X9513571Y-15635476D01*
X9580238Y-15778333D01*
X9646905Y-15635476D01*
X9646905Y-15835476D01*
X9827857Y-15835476D02*
X9827857Y-15730714D01*
X9818333Y-15711667D01*
X9799286Y-15702143D01*
X9761190Y-15702143D01*
X9742143Y-15711667D01*
X9827857Y-15825952D02*
X9808810Y-15835476D01*
X9761190Y-15835476D01*
X9742143Y-15825952D01*
X9732619Y-15806905D01*
X9732619Y-15787857D01*
X9742143Y-15768809D01*
X9761190Y-15759286D01*
X9808810Y-15759286D01*
X9827857Y-15749762D01*
X9923095Y-15702143D02*
X9923095Y-15902143D01*
X9923095Y-15711667D02*
X9942143Y-15702143D01*
X9980238Y-15702143D01*
X9999286Y-15711667D01*
X10008810Y-15721190D01*
X10018333Y-15740238D01*
X10018333Y-15797381D01*
X10008810Y-15816428D01*
X9999286Y-15825952D01*
X9980238Y-15835476D01*
X9942143Y-15835476D01*
X9923095Y-15825952D01*
X10104048Y-15816428D02*
X10113571Y-15825952D01*
X10104048Y-15835476D01*
X10094524Y-15825952D01*
X10104048Y-15816428D01*
X10104048Y-15835476D01*
X10104048Y-15711667D02*
X10113571Y-15721190D01*
X10104048Y-15730714D01*
X10094524Y-15721190D01*
X10104048Y-15711667D01*
X10104048Y-15730714D01*
D13*
X8325000Y-16090000D02*
X8475000Y-16240000D01*
X8475000Y-16090000D02*
X8325000Y-16240000D01*
D12*
X8837381Y-16255476D02*
X8723095Y-16255476D01*
X8780238Y-16255476D02*
X8780238Y-16055476D01*
X8761190Y-16084048D01*
X8742143Y-16103095D01*
X8723095Y-16112619D01*
X8923095Y-16236428D02*
X8932619Y-16245952D01*
X8923095Y-16255476D01*
X8913571Y-16245952D01*
X8923095Y-16236428D01*
X8923095Y-16255476D01*
X9113571Y-16055476D02*
X9018333Y-16055476D01*
X9008810Y-16150714D01*
X9018333Y-16141190D01*
X9037381Y-16131667D01*
X9085000Y-16131667D01*
X9104048Y-16141190D01*
X9113571Y-16150714D01*
X9123095Y-16169762D01*
X9123095Y-16217381D01*
X9113571Y-16236428D01*
X9104048Y-16245952D01*
X9085000Y-16255476D01*
X9037381Y-16255476D01*
X9018333Y-16245952D01*
X9008810Y-16236428D01*
X9246905Y-16055476D02*
X9265952Y-16055476D01*
X9285000Y-16065000D01*
X9294524Y-16074524D01*
X9304048Y-16093571D01*
X9313571Y-16131667D01*
X9313571Y-16179286D01*
X9304048Y-16217381D01*
X9294524Y-16236428D01*
X9285000Y-16245952D01*
X9265952Y-16255476D01*
X9246905Y-16255476D01*
X9227857Y-16245952D01*
X9218333Y-16236428D01*
X9208810Y-16217381D01*
X9199286Y-16179286D01*
X9199286Y-16131667D01*
X9208810Y-16093571D01*
X9218333Y-16074524D01*
X9227857Y-16065000D01*
X9246905Y-16055476D01*
X9437381Y-16055476D02*
X9456429Y-16055476D01*
X9475476Y-16065000D01*
X9485000Y-16074524D01*
X9494524Y-16093571D01*
X9504048Y-16131667D01*
X9504048Y-16179286D01*
X9494524Y-16217381D01*
X9485000Y-16236428D01*
X9475476Y-16245952D01*
X9456429Y-16255476D01*
X9437381Y-16255476D01*
X9418333Y-16245952D01*
X9408810Y-16236428D01*
X9399286Y-16217381D01*
X9389762Y-16179286D01*
X9389762Y-16131667D01*
X9399286Y-16093571D01*
X9408810Y-16074524D01*
X9418333Y-16065000D01*
X9437381Y-16055476D01*
X9589762Y-16255476D02*
X9589762Y-16122143D01*
X9589762Y-16141190D02*
X9599286Y-16131667D01*
X9618333Y-16122143D01*
X9646905Y-16122143D01*
X9665952Y-16131667D01*
X9675476Y-16150714D01*
X9675476Y-16255476D01*
X9675476Y-16150714D02*
X9685000Y-16131667D01*
X9704048Y-16122143D01*
X9732619Y-16122143D01*
X9751667Y-16131667D01*
X9761190Y-16150714D01*
X9761190Y-16255476D01*
X9856429Y-16255476D02*
X9856429Y-16122143D01*
X9856429Y-16141190D02*
X9865952Y-16131667D01*
X9885000Y-16122143D01*
X9913571Y-16122143D01*
X9932619Y-16131667D01*
X9942143Y-16150714D01*
X9942143Y-16255476D01*
X9942143Y-16150714D02*
X9951667Y-16131667D01*
X9970714Y-16122143D01*
X9999286Y-16122143D01*
X10018333Y-16131667D01*
X10027857Y-16150714D01*
X10027857Y-16255476D01*
X10418333Y-16045952D02*
X10246905Y-16303095D01*
X10675476Y-16055476D02*
X10694524Y-16055476D01*
X10713571Y-16065000D01*
X10723095Y-16074524D01*
X10732619Y-16093571D01*
X10742143Y-16131667D01*
X10742143Y-16179286D01*
X10732619Y-16217381D01*
X10723095Y-16236428D01*
X10713571Y-16245952D01*
X10694524Y-16255476D01*
X10675476Y-16255476D01*
X10656429Y-16245952D01*
X10646905Y-16236428D01*
X10637381Y-16217381D01*
X10627857Y-16179286D01*
X10627857Y-16131667D01*
X10637381Y-16093571D01*
X10646905Y-16074524D01*
X10656429Y-16065000D01*
X10675476Y-16055476D01*
X10827857Y-16236428D02*
X10837381Y-16245952D01*
X10827857Y-16255476D01*
X10818333Y-16245952D01*
X10827857Y-16236428D01*
X10827857Y-16255476D01*
X10961190Y-16055476D02*
X10980238Y-16055476D01*
X10999286Y-16065000D01*
X11008810Y-16074524D01*
X11018333Y-16093571D01*
X11027857Y-16131667D01*
X11027857Y-16179286D01*
X11018333Y-16217381D01*
X11008810Y-16236428D01*
X10999286Y-16245952D01*
X10980238Y-16255476D01*
X10961190Y-16255476D01*
X10942143Y-16245952D01*
X10932619Y-16236428D01*
X10923095Y-16217381D01*
X10913571Y-16179286D01*
X10913571Y-16131667D01*
X10923095Y-16093571D01*
X10932619Y-16074524D01*
X10942143Y-16065000D01*
X10961190Y-16055476D01*
X11208809Y-16055476D02*
X11113571Y-16055476D01*
X11104048Y-16150714D01*
X11113571Y-16141190D01*
X11132619Y-16131667D01*
X11180238Y-16131667D01*
X11199286Y-16141190D01*
X11208809Y-16150714D01*
X11218333Y-16169762D01*
X11218333Y-16217381D01*
X11208809Y-16236428D01*
X11199286Y-16245952D01*
X11180238Y-16255476D01*
X11132619Y-16255476D01*
X11113571Y-16245952D01*
X11104048Y-16236428D01*
X11313571Y-16255476D02*
X11351667Y-16255476D01*
X11370714Y-16245952D01*
X11380238Y-16236428D01*
X11399286Y-16207857D01*
X11408809Y-16169762D01*
X11408809Y-16093571D01*
X11399286Y-16074524D01*
X11389762Y-16065000D01*
X11370714Y-16055476D01*
X11332619Y-16055476D01*
X11313571Y-16065000D01*
X11304048Y-16074524D01*
X11294524Y-16093571D01*
X11294524Y-16141190D01*
X11304048Y-16160238D01*
X11313571Y-16169762D01*
X11332619Y-16179286D01*
X11370714Y-16179286D01*
X11389762Y-16169762D01*
X11399286Y-16160238D01*
X11408809Y-16141190D01*
X11599286Y-16255476D02*
X11485000Y-16255476D01*
X11542143Y-16255476D02*
X11542143Y-16055476D01*
X11523095Y-16084048D01*
X11504048Y-16103095D01*
X11485000Y-16112619D01*
X11675476Y-16055476D02*
X11675476Y-16093571D01*
X11751667Y-16055476D02*
X11751667Y-16093571D01*
X12046905Y-16331667D02*
X12037381Y-16322143D01*
X12018333Y-16293571D01*
X12008809Y-16274524D01*
X11999286Y-16245952D01*
X11989762Y-16198333D01*
X11989762Y-16160238D01*
X11999286Y-16112619D01*
X12008809Y-16084048D01*
X12018333Y-16065000D01*
X12037381Y-16036428D01*
X12046905Y-16026905D01*
X12227857Y-16255476D02*
X12113571Y-16255476D01*
X12170714Y-16255476D02*
X12170714Y-16055476D01*
X12151667Y-16084048D01*
X12132619Y-16103095D01*
X12113571Y-16112619D01*
X12456428Y-16245952D02*
X12475476Y-16255476D01*
X12513571Y-16255476D01*
X12532619Y-16245952D01*
X12542143Y-16226905D01*
X12542143Y-16217381D01*
X12532619Y-16198333D01*
X12513571Y-16188809D01*
X12485000Y-16188809D01*
X12465952Y-16179286D01*
X12456428Y-16160238D01*
X12456428Y-16150714D01*
X12465952Y-16131667D01*
X12485000Y-16122143D01*
X12513571Y-16122143D01*
X12532619Y-16131667D01*
X12656428Y-16255476D02*
X12637381Y-16245952D01*
X12627857Y-16226905D01*
X12627857Y-16055476D01*
X12761190Y-16255476D02*
X12742143Y-16245952D01*
X12732619Y-16236428D01*
X12723095Y-16217381D01*
X12723095Y-16160238D01*
X12732619Y-16141190D01*
X12742143Y-16131667D01*
X12761190Y-16122143D01*
X12789762Y-16122143D01*
X12808809Y-16131667D01*
X12818333Y-16141190D01*
X12827857Y-16160238D01*
X12827857Y-16217381D01*
X12818333Y-16236428D01*
X12808809Y-16245952D01*
X12789762Y-16255476D01*
X12761190Y-16255476D01*
X12885000Y-16122143D02*
X12961190Y-16122143D01*
X12913571Y-16055476D02*
X12913571Y-16226905D01*
X12923095Y-16245952D01*
X12942143Y-16255476D01*
X12961190Y-16255476D01*
X13008809Y-16331667D02*
X13018333Y-16322143D01*
X13037381Y-16293571D01*
X13046905Y-16274524D01*
X13056428Y-16245952D01*
X13065952Y-16198333D01*
X13065952Y-16160238D01*
X13056428Y-16112619D01*
X13046905Y-16084048D01*
X13037381Y-16065000D01*
X13018333Y-16036428D01*
X13008809Y-16026905D01*
X13370714Y-16331667D02*
X13361190Y-16322143D01*
X13342143Y-16293571D01*
X13332619Y-16274524D01*
X13323095Y-16245952D01*
X13313571Y-16198333D01*
X13313571Y-16160238D01*
X13323095Y-16112619D01*
X13332619Y-16084048D01*
X13342143Y-16065000D01*
X13361190Y-16036428D01*
X13370714Y-16026905D01*
X13446905Y-16122143D02*
X13446905Y-16255476D01*
X13446905Y-16141190D02*
X13456428Y-16131667D01*
X13475476Y-16122143D01*
X13504048Y-16122143D01*
X13523095Y-16131667D01*
X13532619Y-16150714D01*
X13532619Y-16255476D01*
X13656428Y-16255476D02*
X13637381Y-16245952D01*
X13627857Y-16236428D01*
X13618333Y-16217381D01*
X13618333Y-16160238D01*
X13627857Y-16141190D01*
X13637381Y-16131667D01*
X13656428Y-16122143D01*
X13685000Y-16122143D01*
X13704048Y-16131667D01*
X13713571Y-16141190D01*
X13723095Y-16160238D01*
X13723095Y-16217381D01*
X13713571Y-16236428D01*
X13704048Y-16245952D01*
X13685000Y-16255476D01*
X13656428Y-16255476D01*
X13780238Y-16122143D02*
X13856428Y-16122143D01*
X13808809Y-16055476D02*
X13808809Y-16226905D01*
X13818333Y-16245952D01*
X13837381Y-16255476D01*
X13856428Y-16255476D01*
X14075476Y-16122143D02*
X14075476Y-16322143D01*
X14075476Y-16131667D02*
X14094524Y-16122143D01*
X14132619Y-16122143D01*
X14151667Y-16131667D01*
X14161190Y-16141190D01*
X14170714Y-16160238D01*
X14170714Y-16217381D01*
X14161190Y-16236428D01*
X14151667Y-16245952D01*
X14132619Y-16255476D01*
X14094524Y-16255476D01*
X14075476Y-16245952D01*
X14285000Y-16255476D02*
X14265952Y-16245952D01*
X14256428Y-16226905D01*
X14256428Y-16055476D01*
X14446905Y-16255476D02*
X14446905Y-16150714D01*
X14437381Y-16131667D01*
X14418333Y-16122143D01*
X14380238Y-16122143D01*
X14361190Y-16131667D01*
X14446905Y-16245952D02*
X14427857Y-16255476D01*
X14380238Y-16255476D01*
X14361190Y-16245952D01*
X14351667Y-16226905D01*
X14351667Y-16207857D01*
X14361190Y-16188809D01*
X14380238Y-16179286D01*
X14427857Y-16179286D01*
X14446905Y-16169762D01*
X14513571Y-16122143D02*
X14589762Y-16122143D01*
X14542143Y-16055476D02*
X14542143Y-16226905D01*
X14551667Y-16245952D01*
X14570714Y-16255476D01*
X14589762Y-16255476D01*
X14732619Y-16245952D02*
X14713571Y-16255476D01*
X14675476Y-16255476D01*
X14656428Y-16245952D01*
X14646905Y-16226905D01*
X14646905Y-16150714D01*
X14656428Y-16131667D01*
X14675476Y-16122143D01*
X14713571Y-16122143D01*
X14732619Y-16131667D01*
X14742143Y-16150714D01*
X14742143Y-16169762D01*
X14646905Y-16188809D01*
X14913571Y-16255476D02*
X14913571Y-16055476D01*
X14913571Y-16245952D02*
X14894524Y-16255476D01*
X14856428Y-16255476D01*
X14837381Y-16245952D01*
X14827857Y-16236428D01*
X14818333Y-16217381D01*
X14818333Y-16160238D01*
X14827857Y-16141190D01*
X14837381Y-16131667D01*
X14856428Y-16122143D01*
X14894524Y-16122143D01*
X14913571Y-16131667D01*
X14989762Y-16331667D02*
X14999286Y-16322143D01*
X15018333Y-16293571D01*
X15027857Y-16274524D01*
X15037381Y-16245952D01*
X15046905Y-16198333D01*
X15046905Y-16160238D01*
X15037381Y-16112619D01*
X15027857Y-16084048D01*
X15018333Y-16065000D01*
X14999286Y-16036428D01*
X14989762Y-16026905D01*
X8475000Y-16435000D02*
G75*
G03*
X8475000Y-16435000I-100000J0D01*
G01*
X8723095Y-16344524D02*
X8732619Y-16335000D01*
X8751667Y-16325476D01*
X8799286Y-16325476D01*
X8818333Y-16335000D01*
X8827857Y-16344524D01*
X8837381Y-16363571D01*
X8837381Y-16382619D01*
X8827857Y-16411190D01*
X8713571Y-16525476D01*
X8837381Y-16525476D01*
X8923095Y-16506428D02*
X8932619Y-16515952D01*
X8923095Y-16525476D01*
X8913571Y-16515952D01*
X8923095Y-16506428D01*
X8923095Y-16525476D01*
X9056429Y-16325476D02*
X9075476Y-16325476D01*
X9094524Y-16335000D01*
X9104048Y-16344524D01*
X9113571Y-16363571D01*
X9123095Y-16401667D01*
X9123095Y-16449286D01*
X9113571Y-16487381D01*
X9104048Y-16506428D01*
X9094524Y-16515952D01*
X9075476Y-16525476D01*
X9056429Y-16525476D01*
X9037381Y-16515952D01*
X9027857Y-16506428D01*
X9018333Y-16487381D01*
X9008810Y-16449286D01*
X9008810Y-16401667D01*
X9018333Y-16363571D01*
X9027857Y-16344524D01*
X9037381Y-16335000D01*
X9056429Y-16325476D01*
X9246905Y-16325476D02*
X9265952Y-16325476D01*
X9285000Y-16335000D01*
X9294524Y-16344524D01*
X9304048Y-16363571D01*
X9313571Y-16401667D01*
X9313571Y-16449286D01*
X9304048Y-16487381D01*
X9294524Y-16506428D01*
X9285000Y-16515952D01*
X9265952Y-16525476D01*
X9246905Y-16525476D01*
X9227857Y-16515952D01*
X9218333Y-16506428D01*
X9208810Y-16487381D01*
X9199286Y-16449286D01*
X9199286Y-16401667D01*
X9208810Y-16363571D01*
X9218333Y-16344524D01*
X9227857Y-16335000D01*
X9246905Y-16325476D01*
X9437381Y-16325476D02*
X9456429Y-16325476D01*
X9475476Y-16335000D01*
X9485000Y-16344524D01*
X9494524Y-16363571D01*
X9504048Y-16401667D01*
X9504048Y-16449286D01*
X9494524Y-16487381D01*
X9485000Y-16506428D01*
X9475476Y-16515952D01*
X9456429Y-16525476D01*
X9437381Y-16525476D01*
X9418333Y-16515952D01*
X9408810Y-16506428D01*
X9399286Y-16487381D01*
X9389762Y-16449286D01*
X9389762Y-16401667D01*
X9399286Y-16363571D01*
X9408810Y-16344524D01*
X9418333Y-16335000D01*
X9437381Y-16325476D01*
X9589762Y-16525476D02*
X9589762Y-16392143D01*
X9589762Y-16411190D02*
X9599286Y-16401667D01*
X9618333Y-16392143D01*
X9646905Y-16392143D01*
X9665952Y-16401667D01*
X9675476Y-16420714D01*
X9675476Y-16525476D01*
X9675476Y-16420714D02*
X9685000Y-16401667D01*
X9704048Y-16392143D01*
X9732619Y-16392143D01*
X9751667Y-16401667D01*
X9761190Y-16420714D01*
X9761190Y-16525476D01*
X9856429Y-16525476D02*
X9856429Y-16392143D01*
X9856429Y-16411190D02*
X9865952Y-16401667D01*
X9885000Y-16392143D01*
X9913571Y-16392143D01*
X9932619Y-16401667D01*
X9942143Y-16420714D01*
X9942143Y-16525476D01*
X9942143Y-16420714D02*
X9951667Y-16401667D01*
X9970714Y-16392143D01*
X9999286Y-16392143D01*
X10018333Y-16401667D01*
X10027857Y-16420714D01*
X10027857Y-16525476D01*
X10418333Y-16315952D02*
X10246905Y-16573095D01*
X10675476Y-16325476D02*
X10694524Y-16325476D01*
X10713571Y-16335000D01*
X10723095Y-16344524D01*
X10732619Y-16363571D01*
X10742143Y-16401667D01*
X10742143Y-16449286D01*
X10732619Y-16487381D01*
X10723095Y-16506428D01*
X10713571Y-16515952D01*
X10694524Y-16525476D01*
X10675476Y-16525476D01*
X10656429Y-16515952D01*
X10646905Y-16506428D01*
X10637381Y-16487381D01*
X10627857Y-16449286D01*
X10627857Y-16401667D01*
X10637381Y-16363571D01*
X10646905Y-16344524D01*
X10656429Y-16335000D01*
X10675476Y-16325476D01*
X10827857Y-16506428D02*
X10837381Y-16515952D01*
X10827857Y-16525476D01*
X10818333Y-16515952D01*
X10827857Y-16506428D01*
X10827857Y-16525476D01*
X10961190Y-16325476D02*
X10980238Y-16325476D01*
X10999286Y-16335000D01*
X11008810Y-16344524D01*
X11018333Y-16363571D01*
X11027857Y-16401667D01*
X11027857Y-16449286D01*
X11018333Y-16487381D01*
X11008810Y-16506428D01*
X10999286Y-16515952D01*
X10980238Y-16525476D01*
X10961190Y-16525476D01*
X10942143Y-16515952D01*
X10932619Y-16506428D01*
X10923095Y-16487381D01*
X10913571Y-16449286D01*
X10913571Y-16401667D01*
X10923095Y-16363571D01*
X10932619Y-16344524D01*
X10942143Y-16335000D01*
X10961190Y-16325476D01*
X11094524Y-16325476D02*
X11227857Y-16325476D01*
X11142143Y-16525476D01*
X11332619Y-16411190D02*
X11313571Y-16401667D01*
X11304048Y-16392143D01*
X11294524Y-16373095D01*
X11294524Y-16363571D01*
X11304048Y-16344524D01*
X11313571Y-16335000D01*
X11332619Y-16325476D01*
X11370714Y-16325476D01*
X11389762Y-16335000D01*
X11399286Y-16344524D01*
X11408809Y-16363571D01*
X11408809Y-16373095D01*
X11399286Y-16392143D01*
X11389762Y-16401667D01*
X11370714Y-16411190D01*
X11332619Y-16411190D01*
X11313571Y-16420714D01*
X11304048Y-16430238D01*
X11294524Y-16449286D01*
X11294524Y-16487381D01*
X11304048Y-16506428D01*
X11313571Y-16515952D01*
X11332619Y-16525476D01*
X11370714Y-16525476D01*
X11389762Y-16515952D01*
X11399286Y-16506428D01*
X11408809Y-16487381D01*
X11408809Y-16449286D01*
X11399286Y-16430238D01*
X11389762Y-16420714D01*
X11370714Y-16411190D01*
X11475476Y-16325476D02*
X11608809Y-16325476D01*
X11523095Y-16525476D01*
X11675476Y-16325476D02*
X11675476Y-16363571D01*
X11751667Y-16325476D02*
X11751667Y-16363571D01*
X12046905Y-16601667D02*
X12037381Y-16592143D01*
X12018333Y-16563571D01*
X12008809Y-16544524D01*
X11999286Y-16515952D01*
X11989762Y-16468333D01*
X11989762Y-16430238D01*
X11999286Y-16382619D01*
X12008809Y-16354048D01*
X12018333Y-16335000D01*
X12037381Y-16306428D01*
X12046905Y-16296905D01*
X12227857Y-16525476D02*
X12113571Y-16525476D01*
X12170714Y-16525476D02*
X12170714Y-16325476D01*
X12151667Y-16354048D01*
X12132619Y-16373095D01*
X12113571Y-16382619D01*
X12465952Y-16525476D02*
X12465952Y-16325476D01*
X12551667Y-16525476D02*
X12551667Y-16420714D01*
X12542143Y-16401667D01*
X12523095Y-16392143D01*
X12494524Y-16392143D01*
X12475476Y-16401667D01*
X12465952Y-16411190D01*
X12675476Y-16525476D02*
X12656428Y-16515952D01*
X12646905Y-16506428D01*
X12637381Y-16487381D01*
X12637381Y-16430238D01*
X12646905Y-16411190D01*
X12656428Y-16401667D01*
X12675476Y-16392143D01*
X12704048Y-16392143D01*
X12723095Y-16401667D01*
X12732619Y-16411190D01*
X12742143Y-16430238D01*
X12742143Y-16487381D01*
X12732619Y-16506428D01*
X12723095Y-16515952D01*
X12704048Y-16525476D01*
X12675476Y-16525476D01*
X12856428Y-16525476D02*
X12837381Y-16515952D01*
X12827857Y-16496905D01*
X12827857Y-16325476D01*
X13008809Y-16515952D02*
X12989762Y-16525476D01*
X12951667Y-16525476D01*
X12932619Y-16515952D01*
X12923095Y-16496905D01*
X12923095Y-16420714D01*
X12932619Y-16401667D01*
X12951667Y-16392143D01*
X12989762Y-16392143D01*
X13008809Y-16401667D01*
X13018333Y-16420714D01*
X13018333Y-16439762D01*
X12923095Y-16458809D01*
X13085000Y-16601667D02*
X13094524Y-16592143D01*
X13113571Y-16563571D01*
X13123095Y-16544524D01*
X13132619Y-16515952D01*
X13142143Y-16468333D01*
X13142143Y-16430238D01*
X13132619Y-16382619D01*
X13123095Y-16354048D01*
X13113571Y-16335000D01*
X13094524Y-16306428D01*
X13085000Y-16296905D01*
X13446905Y-16601667D02*
X13437381Y-16592143D01*
X13418333Y-16563571D01*
X13408809Y-16544524D01*
X13399286Y-16515952D01*
X13389762Y-16468333D01*
X13389762Y-16430238D01*
X13399286Y-16382619D01*
X13408809Y-16354048D01*
X13418333Y-16335000D01*
X13437381Y-16306428D01*
X13446905Y-16296905D01*
X13523095Y-16392143D02*
X13523095Y-16525476D01*
X13523095Y-16411190D02*
X13532619Y-16401667D01*
X13551667Y-16392143D01*
X13580238Y-16392143D01*
X13599286Y-16401667D01*
X13608809Y-16420714D01*
X13608809Y-16525476D01*
X13732619Y-16525476D02*
X13713571Y-16515952D01*
X13704048Y-16506428D01*
X13694524Y-16487381D01*
X13694524Y-16430238D01*
X13704048Y-16411190D01*
X13713571Y-16401667D01*
X13732619Y-16392143D01*
X13761190Y-16392143D01*
X13780238Y-16401667D01*
X13789762Y-16411190D01*
X13799286Y-16430238D01*
X13799286Y-16487381D01*
X13789762Y-16506428D01*
X13780238Y-16515952D01*
X13761190Y-16525476D01*
X13732619Y-16525476D01*
X13856428Y-16392143D02*
X13932619Y-16392143D01*
X13885000Y-16325476D02*
X13885000Y-16496905D01*
X13894524Y-16515952D01*
X13913571Y-16525476D01*
X13932619Y-16525476D01*
X14151667Y-16392143D02*
X14151667Y-16592143D01*
X14151667Y-16401667D02*
X14170714Y-16392143D01*
X14208809Y-16392143D01*
X14227857Y-16401667D01*
X14237381Y-16411190D01*
X14246905Y-16430238D01*
X14246905Y-16487381D01*
X14237381Y-16506428D01*
X14227857Y-16515952D01*
X14208809Y-16525476D01*
X14170714Y-16525476D01*
X14151667Y-16515952D01*
X14361190Y-16525476D02*
X14342143Y-16515952D01*
X14332619Y-16496905D01*
X14332619Y-16325476D01*
X14523095Y-16525476D02*
X14523095Y-16420714D01*
X14513571Y-16401667D01*
X14494524Y-16392143D01*
X14456428Y-16392143D01*
X14437381Y-16401667D01*
X14523095Y-16515952D02*
X14504048Y-16525476D01*
X14456428Y-16525476D01*
X14437381Y-16515952D01*
X14427857Y-16496905D01*
X14427857Y-16477857D01*
X14437381Y-16458809D01*
X14456428Y-16449286D01*
X14504048Y-16449286D01*
X14523095Y-16439762D01*
X14589762Y-16392143D02*
X14665952Y-16392143D01*
X14618333Y-16325476D02*
X14618333Y-16496905D01*
X14627857Y-16515952D01*
X14646905Y-16525476D01*
X14665952Y-16525476D01*
X14808809Y-16515952D02*
X14789762Y-16525476D01*
X14751667Y-16525476D01*
X14732619Y-16515952D01*
X14723095Y-16496905D01*
X14723095Y-16420714D01*
X14732619Y-16401667D01*
X14751667Y-16392143D01*
X14789762Y-16392143D01*
X14808809Y-16401667D01*
X14818333Y-16420714D01*
X14818333Y-16439762D01*
X14723095Y-16458809D01*
X14989762Y-16525476D02*
X14989762Y-16325476D01*
X14989762Y-16515952D02*
X14970714Y-16525476D01*
X14932619Y-16525476D01*
X14913571Y-16515952D01*
X14904048Y-16506428D01*
X14894524Y-16487381D01*
X14894524Y-16430238D01*
X14904048Y-16411190D01*
X14913571Y-16401667D01*
X14932619Y-16392143D01*
X14970714Y-16392143D01*
X14989762Y-16401667D01*
X15065952Y-16601667D02*
X15075476Y-16592143D01*
X15094524Y-16563571D01*
X15104048Y-16544524D01*
X15113571Y-16515952D01*
X15123095Y-16468333D01*
X15123095Y-16430238D01*
X15113571Y-16382619D01*
X15104048Y-16354048D01*
X15094524Y-16335000D01*
X15075476Y-16306428D01*
X15065952Y-16296905D01*
M02*
