G04 #@! TF.GenerationSoftware,KiCad,Pcbnew,(5.1.0)-1*
G04 #@! TF.CreationDate,2021-02-18T11:37:16+07:00*
G04 #@! TF.ProjectId,ESP32_BoardV1,45535033-325f-4426-9f61-726456312e6b,rev?*
G04 #@! TF.SameCoordinates,Original*
G04 #@! TF.FileFunction,Paste,Top*
G04 #@! TF.FilePolarity,Positive*
%FSLAX46Y46*%
G04 Gerber Fmt 4.6, Leading zero omitted, Abs format (unit mm)*
G04 Created by KiCad (PCBNEW (5.1.0)-1) date 2021-02-18 11:37:16*
%MOMM*%
%LPD*%
G04 APERTURE LIST*
%ADD10C,0.100000*%
%ADD11C,1.325000*%
%ADD12R,2.500000X2.300000*%
%ADD13R,0.900000X0.800000*%
%ADD14R,0.650000X0.400000*%
%ADD15C,1.250000*%
%ADD16C,0.600000*%
%ADD17R,5.000000X5.000000*%
%ADD18R,0.900000X2.000000*%
%ADD19R,2.000000X0.900000*%
%ADD20C,0.975000*%
%ADD21R,1.220000X0.650000*%
%ADD22C,1.925000*%
G04 APERTURE END LIST*
D10*
G36*
X187449505Y-94301204D02*
G01*
X187473773Y-94304804D01*
X187497572Y-94310765D01*
X187520671Y-94319030D01*
X187542850Y-94329520D01*
X187563893Y-94342132D01*
X187583599Y-94356747D01*
X187601777Y-94373223D01*
X187618253Y-94391401D01*
X187632868Y-94411107D01*
X187645480Y-94432150D01*
X187655970Y-94454329D01*
X187664235Y-94477428D01*
X187670196Y-94501227D01*
X187673796Y-94525495D01*
X187675000Y-94549999D01*
X187675000Y-95375001D01*
X187673796Y-95399505D01*
X187670196Y-95423773D01*
X187664235Y-95447572D01*
X187655970Y-95470671D01*
X187645480Y-95492850D01*
X187632868Y-95513893D01*
X187618253Y-95533599D01*
X187601777Y-95551777D01*
X187583599Y-95568253D01*
X187563893Y-95582868D01*
X187542850Y-95595480D01*
X187520671Y-95605970D01*
X187497572Y-95614235D01*
X187473773Y-95620196D01*
X187449505Y-95623796D01*
X187425001Y-95625000D01*
X185574999Y-95625000D01*
X185550495Y-95623796D01*
X185526227Y-95620196D01*
X185502428Y-95614235D01*
X185479329Y-95605970D01*
X185457150Y-95595480D01*
X185436107Y-95582868D01*
X185416401Y-95568253D01*
X185398223Y-95551777D01*
X185381747Y-95533599D01*
X185367132Y-95513893D01*
X185354520Y-95492850D01*
X185344030Y-95470671D01*
X185335765Y-95447572D01*
X185329804Y-95423773D01*
X185326204Y-95399505D01*
X185325000Y-95375001D01*
X185325000Y-94549999D01*
X185326204Y-94525495D01*
X185329804Y-94501227D01*
X185335765Y-94477428D01*
X185344030Y-94454329D01*
X185354520Y-94432150D01*
X185367132Y-94411107D01*
X185381747Y-94391401D01*
X185398223Y-94373223D01*
X185416401Y-94356747D01*
X185436107Y-94342132D01*
X185457150Y-94329520D01*
X185479329Y-94319030D01*
X185502428Y-94310765D01*
X185526227Y-94304804D01*
X185550495Y-94301204D01*
X185574999Y-94300000D01*
X187425001Y-94300000D01*
X187449505Y-94301204D01*
X187449505Y-94301204D01*
G37*
D11*
X186500000Y-94962500D03*
D10*
G36*
X187449505Y-97376204D02*
G01*
X187473773Y-97379804D01*
X187497572Y-97385765D01*
X187520671Y-97394030D01*
X187542850Y-97404520D01*
X187563893Y-97417132D01*
X187583599Y-97431747D01*
X187601777Y-97448223D01*
X187618253Y-97466401D01*
X187632868Y-97486107D01*
X187645480Y-97507150D01*
X187655970Y-97529329D01*
X187664235Y-97552428D01*
X187670196Y-97576227D01*
X187673796Y-97600495D01*
X187675000Y-97624999D01*
X187675000Y-98450001D01*
X187673796Y-98474505D01*
X187670196Y-98498773D01*
X187664235Y-98522572D01*
X187655970Y-98545671D01*
X187645480Y-98567850D01*
X187632868Y-98588893D01*
X187618253Y-98608599D01*
X187601777Y-98626777D01*
X187583599Y-98643253D01*
X187563893Y-98657868D01*
X187542850Y-98670480D01*
X187520671Y-98680970D01*
X187497572Y-98689235D01*
X187473773Y-98695196D01*
X187449505Y-98698796D01*
X187425001Y-98700000D01*
X185574999Y-98700000D01*
X185550495Y-98698796D01*
X185526227Y-98695196D01*
X185502428Y-98689235D01*
X185479329Y-98680970D01*
X185457150Y-98670480D01*
X185436107Y-98657868D01*
X185416401Y-98643253D01*
X185398223Y-98626777D01*
X185381747Y-98608599D01*
X185367132Y-98588893D01*
X185354520Y-98567850D01*
X185344030Y-98545671D01*
X185335765Y-98522572D01*
X185329804Y-98498773D01*
X185326204Y-98474505D01*
X185325000Y-98450001D01*
X185325000Y-97624999D01*
X185326204Y-97600495D01*
X185329804Y-97576227D01*
X185335765Y-97552428D01*
X185344030Y-97529329D01*
X185354520Y-97507150D01*
X185367132Y-97486107D01*
X185381747Y-97466401D01*
X185398223Y-97448223D01*
X185416401Y-97431747D01*
X185436107Y-97417132D01*
X185457150Y-97404520D01*
X185479329Y-97394030D01*
X185502428Y-97385765D01*
X185526227Y-97379804D01*
X185550495Y-97376204D01*
X185574999Y-97375000D01*
X187425001Y-97375000D01*
X187449505Y-97376204D01*
X187449505Y-97376204D01*
G37*
D11*
X186500000Y-98037500D03*
D12*
X191150000Y-102000000D03*
X195450000Y-102000000D03*
D13*
X202600000Y-112850000D03*
X202600000Y-114750000D03*
X204600000Y-113800000D03*
D14*
X164450000Y-111250000D03*
X164450000Y-109950000D03*
X162550000Y-110600000D03*
X164450000Y-110600000D03*
X162550000Y-109950000D03*
X162550000Y-111250000D03*
D10*
G36*
X196849504Y-114676204D02*
G01*
X196873773Y-114679804D01*
X196897571Y-114685765D01*
X196920671Y-114694030D01*
X196942849Y-114704520D01*
X196963893Y-114717133D01*
X196983598Y-114731747D01*
X197001777Y-114748223D01*
X197018253Y-114766402D01*
X197032867Y-114786107D01*
X197045480Y-114807151D01*
X197055970Y-114829329D01*
X197064235Y-114852429D01*
X197070196Y-114876227D01*
X197073796Y-114900496D01*
X197075000Y-114925000D01*
X197075000Y-115675000D01*
X197073796Y-115699504D01*
X197070196Y-115723773D01*
X197064235Y-115747571D01*
X197055970Y-115770671D01*
X197045480Y-115792849D01*
X197032867Y-115813893D01*
X197018253Y-115833598D01*
X197001777Y-115851777D01*
X196983598Y-115868253D01*
X196963893Y-115882867D01*
X196942849Y-115895480D01*
X196920671Y-115905970D01*
X196897571Y-115914235D01*
X196873773Y-115920196D01*
X196849504Y-115923796D01*
X196825000Y-115925000D01*
X195575000Y-115925000D01*
X195550496Y-115923796D01*
X195526227Y-115920196D01*
X195502429Y-115914235D01*
X195479329Y-115905970D01*
X195457151Y-115895480D01*
X195436107Y-115882867D01*
X195416402Y-115868253D01*
X195398223Y-115851777D01*
X195381747Y-115833598D01*
X195367133Y-115813893D01*
X195354520Y-115792849D01*
X195344030Y-115770671D01*
X195335765Y-115747571D01*
X195329804Y-115723773D01*
X195326204Y-115699504D01*
X195325000Y-115675000D01*
X195325000Y-114925000D01*
X195326204Y-114900496D01*
X195329804Y-114876227D01*
X195335765Y-114852429D01*
X195344030Y-114829329D01*
X195354520Y-114807151D01*
X195367133Y-114786107D01*
X195381747Y-114766402D01*
X195398223Y-114748223D01*
X195416402Y-114731747D01*
X195436107Y-114717133D01*
X195457151Y-114704520D01*
X195479329Y-114694030D01*
X195502429Y-114685765D01*
X195526227Y-114679804D01*
X195550496Y-114676204D01*
X195575000Y-114675000D01*
X196825000Y-114675000D01*
X196849504Y-114676204D01*
X196849504Y-114676204D01*
G37*
D15*
X196200000Y-115300000D03*
D10*
G36*
X196849504Y-111876204D02*
G01*
X196873773Y-111879804D01*
X196897571Y-111885765D01*
X196920671Y-111894030D01*
X196942849Y-111904520D01*
X196963893Y-111917133D01*
X196983598Y-111931747D01*
X197001777Y-111948223D01*
X197018253Y-111966402D01*
X197032867Y-111986107D01*
X197045480Y-112007151D01*
X197055970Y-112029329D01*
X197064235Y-112052429D01*
X197070196Y-112076227D01*
X197073796Y-112100496D01*
X197075000Y-112125000D01*
X197075000Y-112875000D01*
X197073796Y-112899504D01*
X197070196Y-112923773D01*
X197064235Y-112947571D01*
X197055970Y-112970671D01*
X197045480Y-112992849D01*
X197032867Y-113013893D01*
X197018253Y-113033598D01*
X197001777Y-113051777D01*
X196983598Y-113068253D01*
X196963893Y-113082867D01*
X196942849Y-113095480D01*
X196920671Y-113105970D01*
X196897571Y-113114235D01*
X196873773Y-113120196D01*
X196849504Y-113123796D01*
X196825000Y-113125000D01*
X195575000Y-113125000D01*
X195550496Y-113123796D01*
X195526227Y-113120196D01*
X195502429Y-113114235D01*
X195479329Y-113105970D01*
X195457151Y-113095480D01*
X195436107Y-113082867D01*
X195416402Y-113068253D01*
X195398223Y-113051777D01*
X195381747Y-113033598D01*
X195367133Y-113013893D01*
X195354520Y-112992849D01*
X195344030Y-112970671D01*
X195335765Y-112947571D01*
X195329804Y-112923773D01*
X195326204Y-112899504D01*
X195325000Y-112875000D01*
X195325000Y-112125000D01*
X195326204Y-112100496D01*
X195329804Y-112076227D01*
X195335765Y-112052429D01*
X195344030Y-112029329D01*
X195354520Y-112007151D01*
X195367133Y-111986107D01*
X195381747Y-111966402D01*
X195398223Y-111948223D01*
X195416402Y-111931747D01*
X195436107Y-111917133D01*
X195457151Y-111904520D01*
X195479329Y-111894030D01*
X195502429Y-111885765D01*
X195526227Y-111879804D01*
X195550496Y-111876204D01*
X195575000Y-111875000D01*
X196825000Y-111875000D01*
X196849504Y-111876204D01*
X196849504Y-111876204D01*
G37*
D15*
X196200000Y-112500000D03*
D10*
G36*
X187664703Y-111595722D02*
G01*
X187679264Y-111597882D01*
X187693543Y-111601459D01*
X187707403Y-111606418D01*
X187720710Y-111612712D01*
X187733336Y-111620280D01*
X187745159Y-111629048D01*
X187756066Y-111638934D01*
X187765952Y-111649841D01*
X187774720Y-111661664D01*
X187782288Y-111674290D01*
X187788582Y-111687597D01*
X187793541Y-111701457D01*
X187797118Y-111715736D01*
X187799278Y-111730297D01*
X187800000Y-111745000D01*
X187800000Y-112045000D01*
X187799278Y-112059703D01*
X187797118Y-112074264D01*
X187793541Y-112088543D01*
X187788582Y-112102403D01*
X187782288Y-112115710D01*
X187774720Y-112128336D01*
X187765952Y-112140159D01*
X187756066Y-112151066D01*
X187745159Y-112160952D01*
X187733336Y-112169720D01*
X187720710Y-112177288D01*
X187707403Y-112183582D01*
X187693543Y-112188541D01*
X187679264Y-112192118D01*
X187664703Y-112194278D01*
X187650000Y-112195000D01*
X186000000Y-112195000D01*
X185985297Y-112194278D01*
X185970736Y-112192118D01*
X185956457Y-112188541D01*
X185942597Y-112183582D01*
X185929290Y-112177288D01*
X185916664Y-112169720D01*
X185904841Y-112160952D01*
X185893934Y-112151066D01*
X185884048Y-112140159D01*
X185875280Y-112128336D01*
X185867712Y-112115710D01*
X185861418Y-112102403D01*
X185856459Y-112088543D01*
X185852882Y-112074264D01*
X185850722Y-112059703D01*
X185850000Y-112045000D01*
X185850000Y-111745000D01*
X185850722Y-111730297D01*
X185852882Y-111715736D01*
X185856459Y-111701457D01*
X185861418Y-111687597D01*
X185867712Y-111674290D01*
X185875280Y-111661664D01*
X185884048Y-111649841D01*
X185893934Y-111638934D01*
X185904841Y-111629048D01*
X185916664Y-111620280D01*
X185929290Y-111612712D01*
X185942597Y-111606418D01*
X185956457Y-111601459D01*
X185970736Y-111597882D01*
X185985297Y-111595722D01*
X186000000Y-111595000D01*
X187650000Y-111595000D01*
X187664703Y-111595722D01*
X187664703Y-111595722D01*
G37*
D16*
X186825000Y-111895000D03*
D10*
G36*
X187664703Y-112865722D02*
G01*
X187679264Y-112867882D01*
X187693543Y-112871459D01*
X187707403Y-112876418D01*
X187720710Y-112882712D01*
X187733336Y-112890280D01*
X187745159Y-112899048D01*
X187756066Y-112908934D01*
X187765952Y-112919841D01*
X187774720Y-112931664D01*
X187782288Y-112944290D01*
X187788582Y-112957597D01*
X187793541Y-112971457D01*
X187797118Y-112985736D01*
X187799278Y-113000297D01*
X187800000Y-113015000D01*
X187800000Y-113315000D01*
X187799278Y-113329703D01*
X187797118Y-113344264D01*
X187793541Y-113358543D01*
X187788582Y-113372403D01*
X187782288Y-113385710D01*
X187774720Y-113398336D01*
X187765952Y-113410159D01*
X187756066Y-113421066D01*
X187745159Y-113430952D01*
X187733336Y-113439720D01*
X187720710Y-113447288D01*
X187707403Y-113453582D01*
X187693543Y-113458541D01*
X187679264Y-113462118D01*
X187664703Y-113464278D01*
X187650000Y-113465000D01*
X186000000Y-113465000D01*
X185985297Y-113464278D01*
X185970736Y-113462118D01*
X185956457Y-113458541D01*
X185942597Y-113453582D01*
X185929290Y-113447288D01*
X185916664Y-113439720D01*
X185904841Y-113430952D01*
X185893934Y-113421066D01*
X185884048Y-113410159D01*
X185875280Y-113398336D01*
X185867712Y-113385710D01*
X185861418Y-113372403D01*
X185856459Y-113358543D01*
X185852882Y-113344264D01*
X185850722Y-113329703D01*
X185850000Y-113315000D01*
X185850000Y-113015000D01*
X185850722Y-113000297D01*
X185852882Y-112985736D01*
X185856459Y-112971457D01*
X185861418Y-112957597D01*
X185867712Y-112944290D01*
X185875280Y-112931664D01*
X185884048Y-112919841D01*
X185893934Y-112908934D01*
X185904841Y-112899048D01*
X185916664Y-112890280D01*
X185929290Y-112882712D01*
X185942597Y-112876418D01*
X185956457Y-112871459D01*
X185970736Y-112867882D01*
X185985297Y-112865722D01*
X186000000Y-112865000D01*
X187650000Y-112865000D01*
X187664703Y-112865722D01*
X187664703Y-112865722D01*
G37*
D16*
X186825000Y-113165000D03*
D10*
G36*
X187664703Y-114135722D02*
G01*
X187679264Y-114137882D01*
X187693543Y-114141459D01*
X187707403Y-114146418D01*
X187720710Y-114152712D01*
X187733336Y-114160280D01*
X187745159Y-114169048D01*
X187756066Y-114178934D01*
X187765952Y-114189841D01*
X187774720Y-114201664D01*
X187782288Y-114214290D01*
X187788582Y-114227597D01*
X187793541Y-114241457D01*
X187797118Y-114255736D01*
X187799278Y-114270297D01*
X187800000Y-114285000D01*
X187800000Y-114585000D01*
X187799278Y-114599703D01*
X187797118Y-114614264D01*
X187793541Y-114628543D01*
X187788582Y-114642403D01*
X187782288Y-114655710D01*
X187774720Y-114668336D01*
X187765952Y-114680159D01*
X187756066Y-114691066D01*
X187745159Y-114700952D01*
X187733336Y-114709720D01*
X187720710Y-114717288D01*
X187707403Y-114723582D01*
X187693543Y-114728541D01*
X187679264Y-114732118D01*
X187664703Y-114734278D01*
X187650000Y-114735000D01*
X186000000Y-114735000D01*
X185985297Y-114734278D01*
X185970736Y-114732118D01*
X185956457Y-114728541D01*
X185942597Y-114723582D01*
X185929290Y-114717288D01*
X185916664Y-114709720D01*
X185904841Y-114700952D01*
X185893934Y-114691066D01*
X185884048Y-114680159D01*
X185875280Y-114668336D01*
X185867712Y-114655710D01*
X185861418Y-114642403D01*
X185856459Y-114628543D01*
X185852882Y-114614264D01*
X185850722Y-114599703D01*
X185850000Y-114585000D01*
X185850000Y-114285000D01*
X185850722Y-114270297D01*
X185852882Y-114255736D01*
X185856459Y-114241457D01*
X185861418Y-114227597D01*
X185867712Y-114214290D01*
X185875280Y-114201664D01*
X185884048Y-114189841D01*
X185893934Y-114178934D01*
X185904841Y-114169048D01*
X185916664Y-114160280D01*
X185929290Y-114152712D01*
X185942597Y-114146418D01*
X185956457Y-114141459D01*
X185970736Y-114137882D01*
X185985297Y-114135722D01*
X186000000Y-114135000D01*
X187650000Y-114135000D01*
X187664703Y-114135722D01*
X187664703Y-114135722D01*
G37*
D16*
X186825000Y-114435000D03*
D10*
G36*
X187664703Y-115405722D02*
G01*
X187679264Y-115407882D01*
X187693543Y-115411459D01*
X187707403Y-115416418D01*
X187720710Y-115422712D01*
X187733336Y-115430280D01*
X187745159Y-115439048D01*
X187756066Y-115448934D01*
X187765952Y-115459841D01*
X187774720Y-115471664D01*
X187782288Y-115484290D01*
X187788582Y-115497597D01*
X187793541Y-115511457D01*
X187797118Y-115525736D01*
X187799278Y-115540297D01*
X187800000Y-115555000D01*
X187800000Y-115855000D01*
X187799278Y-115869703D01*
X187797118Y-115884264D01*
X187793541Y-115898543D01*
X187788582Y-115912403D01*
X187782288Y-115925710D01*
X187774720Y-115938336D01*
X187765952Y-115950159D01*
X187756066Y-115961066D01*
X187745159Y-115970952D01*
X187733336Y-115979720D01*
X187720710Y-115987288D01*
X187707403Y-115993582D01*
X187693543Y-115998541D01*
X187679264Y-116002118D01*
X187664703Y-116004278D01*
X187650000Y-116005000D01*
X186000000Y-116005000D01*
X185985297Y-116004278D01*
X185970736Y-116002118D01*
X185956457Y-115998541D01*
X185942597Y-115993582D01*
X185929290Y-115987288D01*
X185916664Y-115979720D01*
X185904841Y-115970952D01*
X185893934Y-115961066D01*
X185884048Y-115950159D01*
X185875280Y-115938336D01*
X185867712Y-115925710D01*
X185861418Y-115912403D01*
X185856459Y-115898543D01*
X185852882Y-115884264D01*
X185850722Y-115869703D01*
X185850000Y-115855000D01*
X185850000Y-115555000D01*
X185850722Y-115540297D01*
X185852882Y-115525736D01*
X185856459Y-115511457D01*
X185861418Y-115497597D01*
X185867712Y-115484290D01*
X185875280Y-115471664D01*
X185884048Y-115459841D01*
X185893934Y-115448934D01*
X185904841Y-115439048D01*
X185916664Y-115430280D01*
X185929290Y-115422712D01*
X185942597Y-115416418D01*
X185956457Y-115411459D01*
X185970736Y-115407882D01*
X185985297Y-115405722D01*
X186000000Y-115405000D01*
X187650000Y-115405000D01*
X187664703Y-115405722D01*
X187664703Y-115405722D01*
G37*
D16*
X186825000Y-115705000D03*
D10*
G36*
X192614703Y-115405722D02*
G01*
X192629264Y-115407882D01*
X192643543Y-115411459D01*
X192657403Y-115416418D01*
X192670710Y-115422712D01*
X192683336Y-115430280D01*
X192695159Y-115439048D01*
X192706066Y-115448934D01*
X192715952Y-115459841D01*
X192724720Y-115471664D01*
X192732288Y-115484290D01*
X192738582Y-115497597D01*
X192743541Y-115511457D01*
X192747118Y-115525736D01*
X192749278Y-115540297D01*
X192750000Y-115555000D01*
X192750000Y-115855000D01*
X192749278Y-115869703D01*
X192747118Y-115884264D01*
X192743541Y-115898543D01*
X192738582Y-115912403D01*
X192732288Y-115925710D01*
X192724720Y-115938336D01*
X192715952Y-115950159D01*
X192706066Y-115961066D01*
X192695159Y-115970952D01*
X192683336Y-115979720D01*
X192670710Y-115987288D01*
X192657403Y-115993582D01*
X192643543Y-115998541D01*
X192629264Y-116002118D01*
X192614703Y-116004278D01*
X192600000Y-116005000D01*
X190950000Y-116005000D01*
X190935297Y-116004278D01*
X190920736Y-116002118D01*
X190906457Y-115998541D01*
X190892597Y-115993582D01*
X190879290Y-115987288D01*
X190866664Y-115979720D01*
X190854841Y-115970952D01*
X190843934Y-115961066D01*
X190834048Y-115950159D01*
X190825280Y-115938336D01*
X190817712Y-115925710D01*
X190811418Y-115912403D01*
X190806459Y-115898543D01*
X190802882Y-115884264D01*
X190800722Y-115869703D01*
X190800000Y-115855000D01*
X190800000Y-115555000D01*
X190800722Y-115540297D01*
X190802882Y-115525736D01*
X190806459Y-115511457D01*
X190811418Y-115497597D01*
X190817712Y-115484290D01*
X190825280Y-115471664D01*
X190834048Y-115459841D01*
X190843934Y-115448934D01*
X190854841Y-115439048D01*
X190866664Y-115430280D01*
X190879290Y-115422712D01*
X190892597Y-115416418D01*
X190906457Y-115411459D01*
X190920736Y-115407882D01*
X190935297Y-115405722D01*
X190950000Y-115405000D01*
X192600000Y-115405000D01*
X192614703Y-115405722D01*
X192614703Y-115405722D01*
G37*
D16*
X191775000Y-115705000D03*
D10*
G36*
X192614703Y-114135722D02*
G01*
X192629264Y-114137882D01*
X192643543Y-114141459D01*
X192657403Y-114146418D01*
X192670710Y-114152712D01*
X192683336Y-114160280D01*
X192695159Y-114169048D01*
X192706066Y-114178934D01*
X192715952Y-114189841D01*
X192724720Y-114201664D01*
X192732288Y-114214290D01*
X192738582Y-114227597D01*
X192743541Y-114241457D01*
X192747118Y-114255736D01*
X192749278Y-114270297D01*
X192750000Y-114285000D01*
X192750000Y-114585000D01*
X192749278Y-114599703D01*
X192747118Y-114614264D01*
X192743541Y-114628543D01*
X192738582Y-114642403D01*
X192732288Y-114655710D01*
X192724720Y-114668336D01*
X192715952Y-114680159D01*
X192706066Y-114691066D01*
X192695159Y-114700952D01*
X192683336Y-114709720D01*
X192670710Y-114717288D01*
X192657403Y-114723582D01*
X192643543Y-114728541D01*
X192629264Y-114732118D01*
X192614703Y-114734278D01*
X192600000Y-114735000D01*
X190950000Y-114735000D01*
X190935297Y-114734278D01*
X190920736Y-114732118D01*
X190906457Y-114728541D01*
X190892597Y-114723582D01*
X190879290Y-114717288D01*
X190866664Y-114709720D01*
X190854841Y-114700952D01*
X190843934Y-114691066D01*
X190834048Y-114680159D01*
X190825280Y-114668336D01*
X190817712Y-114655710D01*
X190811418Y-114642403D01*
X190806459Y-114628543D01*
X190802882Y-114614264D01*
X190800722Y-114599703D01*
X190800000Y-114585000D01*
X190800000Y-114285000D01*
X190800722Y-114270297D01*
X190802882Y-114255736D01*
X190806459Y-114241457D01*
X190811418Y-114227597D01*
X190817712Y-114214290D01*
X190825280Y-114201664D01*
X190834048Y-114189841D01*
X190843934Y-114178934D01*
X190854841Y-114169048D01*
X190866664Y-114160280D01*
X190879290Y-114152712D01*
X190892597Y-114146418D01*
X190906457Y-114141459D01*
X190920736Y-114137882D01*
X190935297Y-114135722D01*
X190950000Y-114135000D01*
X192600000Y-114135000D01*
X192614703Y-114135722D01*
X192614703Y-114135722D01*
G37*
D16*
X191775000Y-114435000D03*
D10*
G36*
X192614703Y-112865722D02*
G01*
X192629264Y-112867882D01*
X192643543Y-112871459D01*
X192657403Y-112876418D01*
X192670710Y-112882712D01*
X192683336Y-112890280D01*
X192695159Y-112899048D01*
X192706066Y-112908934D01*
X192715952Y-112919841D01*
X192724720Y-112931664D01*
X192732288Y-112944290D01*
X192738582Y-112957597D01*
X192743541Y-112971457D01*
X192747118Y-112985736D01*
X192749278Y-113000297D01*
X192750000Y-113015000D01*
X192750000Y-113315000D01*
X192749278Y-113329703D01*
X192747118Y-113344264D01*
X192743541Y-113358543D01*
X192738582Y-113372403D01*
X192732288Y-113385710D01*
X192724720Y-113398336D01*
X192715952Y-113410159D01*
X192706066Y-113421066D01*
X192695159Y-113430952D01*
X192683336Y-113439720D01*
X192670710Y-113447288D01*
X192657403Y-113453582D01*
X192643543Y-113458541D01*
X192629264Y-113462118D01*
X192614703Y-113464278D01*
X192600000Y-113465000D01*
X190950000Y-113465000D01*
X190935297Y-113464278D01*
X190920736Y-113462118D01*
X190906457Y-113458541D01*
X190892597Y-113453582D01*
X190879290Y-113447288D01*
X190866664Y-113439720D01*
X190854841Y-113430952D01*
X190843934Y-113421066D01*
X190834048Y-113410159D01*
X190825280Y-113398336D01*
X190817712Y-113385710D01*
X190811418Y-113372403D01*
X190806459Y-113358543D01*
X190802882Y-113344264D01*
X190800722Y-113329703D01*
X190800000Y-113315000D01*
X190800000Y-113015000D01*
X190800722Y-113000297D01*
X190802882Y-112985736D01*
X190806459Y-112971457D01*
X190811418Y-112957597D01*
X190817712Y-112944290D01*
X190825280Y-112931664D01*
X190834048Y-112919841D01*
X190843934Y-112908934D01*
X190854841Y-112899048D01*
X190866664Y-112890280D01*
X190879290Y-112882712D01*
X190892597Y-112876418D01*
X190906457Y-112871459D01*
X190920736Y-112867882D01*
X190935297Y-112865722D01*
X190950000Y-112865000D01*
X192600000Y-112865000D01*
X192614703Y-112865722D01*
X192614703Y-112865722D01*
G37*
D16*
X191775000Y-113165000D03*
D10*
G36*
X192614703Y-111595722D02*
G01*
X192629264Y-111597882D01*
X192643543Y-111601459D01*
X192657403Y-111606418D01*
X192670710Y-111612712D01*
X192683336Y-111620280D01*
X192695159Y-111629048D01*
X192706066Y-111638934D01*
X192715952Y-111649841D01*
X192724720Y-111661664D01*
X192732288Y-111674290D01*
X192738582Y-111687597D01*
X192743541Y-111701457D01*
X192747118Y-111715736D01*
X192749278Y-111730297D01*
X192750000Y-111745000D01*
X192750000Y-112045000D01*
X192749278Y-112059703D01*
X192747118Y-112074264D01*
X192743541Y-112088543D01*
X192738582Y-112102403D01*
X192732288Y-112115710D01*
X192724720Y-112128336D01*
X192715952Y-112140159D01*
X192706066Y-112151066D01*
X192695159Y-112160952D01*
X192683336Y-112169720D01*
X192670710Y-112177288D01*
X192657403Y-112183582D01*
X192643543Y-112188541D01*
X192629264Y-112192118D01*
X192614703Y-112194278D01*
X192600000Y-112195000D01*
X190950000Y-112195000D01*
X190935297Y-112194278D01*
X190920736Y-112192118D01*
X190906457Y-112188541D01*
X190892597Y-112183582D01*
X190879290Y-112177288D01*
X190866664Y-112169720D01*
X190854841Y-112160952D01*
X190843934Y-112151066D01*
X190834048Y-112140159D01*
X190825280Y-112128336D01*
X190817712Y-112115710D01*
X190811418Y-112102403D01*
X190806459Y-112088543D01*
X190802882Y-112074264D01*
X190800722Y-112059703D01*
X190800000Y-112045000D01*
X190800000Y-111745000D01*
X190800722Y-111730297D01*
X190802882Y-111715736D01*
X190806459Y-111701457D01*
X190811418Y-111687597D01*
X190817712Y-111674290D01*
X190825280Y-111661664D01*
X190834048Y-111649841D01*
X190843934Y-111638934D01*
X190854841Y-111629048D01*
X190866664Y-111620280D01*
X190879290Y-111612712D01*
X190892597Y-111606418D01*
X190906457Y-111601459D01*
X190920736Y-111597882D01*
X190935297Y-111595722D01*
X190950000Y-111595000D01*
X192600000Y-111595000D01*
X192614703Y-111595722D01*
X192614703Y-111595722D01*
G37*
D16*
X191775000Y-111895000D03*
D17*
X141000000Y-113000000D03*
D18*
X133500000Y-120500000D03*
X134770000Y-120500000D03*
X136040000Y-120500000D03*
X137310000Y-120500000D03*
X138580000Y-120500000D03*
X139850000Y-120500000D03*
X141120000Y-120500000D03*
X142390000Y-120500000D03*
X143660000Y-120500000D03*
X144930000Y-120500000D03*
X146200000Y-120500000D03*
X147470000Y-120500000D03*
X148740000Y-120500000D03*
X150010000Y-120500000D03*
D19*
X151010000Y-117715000D03*
X151010000Y-116445000D03*
X151010000Y-115175000D03*
X151010000Y-113905000D03*
X151010000Y-112635000D03*
X151010000Y-111365000D03*
X151010000Y-110095000D03*
X151010000Y-108825000D03*
X151010000Y-107555000D03*
X151010000Y-106285000D03*
D18*
X150010000Y-103500000D03*
X148740000Y-103500000D03*
X147470000Y-103500000D03*
X146200000Y-103500000D03*
X144930000Y-103500000D03*
X143660000Y-103500000D03*
X142390000Y-103500000D03*
X141120000Y-103500000D03*
X139850000Y-103500000D03*
X138580000Y-103500000D03*
X137310000Y-103500000D03*
X136040000Y-103500000D03*
X134770000Y-103500000D03*
X133500000Y-103500000D03*
D10*
G36*
X165592642Y-102101174D02*
G01*
X165616303Y-102104684D01*
X165639507Y-102110496D01*
X165662029Y-102118554D01*
X165683653Y-102128782D01*
X165704170Y-102141079D01*
X165723383Y-102155329D01*
X165741107Y-102171393D01*
X165757171Y-102189117D01*
X165771421Y-102208330D01*
X165783718Y-102228847D01*
X165793946Y-102250471D01*
X165802004Y-102272993D01*
X165807816Y-102296197D01*
X165811326Y-102319858D01*
X165812500Y-102343750D01*
X165812500Y-103256250D01*
X165811326Y-103280142D01*
X165807816Y-103303803D01*
X165802004Y-103327007D01*
X165793946Y-103349529D01*
X165783718Y-103371153D01*
X165771421Y-103391670D01*
X165757171Y-103410883D01*
X165741107Y-103428607D01*
X165723383Y-103444671D01*
X165704170Y-103458921D01*
X165683653Y-103471218D01*
X165662029Y-103481446D01*
X165639507Y-103489504D01*
X165616303Y-103495316D01*
X165592642Y-103498826D01*
X165568750Y-103500000D01*
X165081250Y-103500000D01*
X165057358Y-103498826D01*
X165033697Y-103495316D01*
X165010493Y-103489504D01*
X164987971Y-103481446D01*
X164966347Y-103471218D01*
X164945830Y-103458921D01*
X164926617Y-103444671D01*
X164908893Y-103428607D01*
X164892829Y-103410883D01*
X164878579Y-103391670D01*
X164866282Y-103371153D01*
X164856054Y-103349529D01*
X164847996Y-103327007D01*
X164842184Y-103303803D01*
X164838674Y-103280142D01*
X164837500Y-103256250D01*
X164837500Y-102343750D01*
X164838674Y-102319858D01*
X164842184Y-102296197D01*
X164847996Y-102272993D01*
X164856054Y-102250471D01*
X164866282Y-102228847D01*
X164878579Y-102208330D01*
X164892829Y-102189117D01*
X164908893Y-102171393D01*
X164926617Y-102155329D01*
X164945830Y-102141079D01*
X164966347Y-102128782D01*
X164987971Y-102118554D01*
X165010493Y-102110496D01*
X165033697Y-102104684D01*
X165057358Y-102101174D01*
X165081250Y-102100000D01*
X165568750Y-102100000D01*
X165592642Y-102101174D01*
X165592642Y-102101174D01*
G37*
D20*
X165325000Y-102800000D03*
D10*
G36*
X167467642Y-102101174D02*
G01*
X167491303Y-102104684D01*
X167514507Y-102110496D01*
X167537029Y-102118554D01*
X167558653Y-102128782D01*
X167579170Y-102141079D01*
X167598383Y-102155329D01*
X167616107Y-102171393D01*
X167632171Y-102189117D01*
X167646421Y-102208330D01*
X167658718Y-102228847D01*
X167668946Y-102250471D01*
X167677004Y-102272993D01*
X167682816Y-102296197D01*
X167686326Y-102319858D01*
X167687500Y-102343750D01*
X167687500Y-103256250D01*
X167686326Y-103280142D01*
X167682816Y-103303803D01*
X167677004Y-103327007D01*
X167668946Y-103349529D01*
X167658718Y-103371153D01*
X167646421Y-103391670D01*
X167632171Y-103410883D01*
X167616107Y-103428607D01*
X167598383Y-103444671D01*
X167579170Y-103458921D01*
X167558653Y-103471218D01*
X167537029Y-103481446D01*
X167514507Y-103489504D01*
X167491303Y-103495316D01*
X167467642Y-103498826D01*
X167443750Y-103500000D01*
X166956250Y-103500000D01*
X166932358Y-103498826D01*
X166908697Y-103495316D01*
X166885493Y-103489504D01*
X166862971Y-103481446D01*
X166841347Y-103471218D01*
X166820830Y-103458921D01*
X166801617Y-103444671D01*
X166783893Y-103428607D01*
X166767829Y-103410883D01*
X166753579Y-103391670D01*
X166741282Y-103371153D01*
X166731054Y-103349529D01*
X166722996Y-103327007D01*
X166717184Y-103303803D01*
X166713674Y-103280142D01*
X166712500Y-103256250D01*
X166712500Y-102343750D01*
X166713674Y-102319858D01*
X166717184Y-102296197D01*
X166722996Y-102272993D01*
X166731054Y-102250471D01*
X166741282Y-102228847D01*
X166753579Y-102208330D01*
X166767829Y-102189117D01*
X166783893Y-102171393D01*
X166801617Y-102155329D01*
X166820830Y-102141079D01*
X166841347Y-102128782D01*
X166862971Y-102118554D01*
X166885493Y-102110496D01*
X166908697Y-102104684D01*
X166932358Y-102101174D01*
X166956250Y-102100000D01*
X167443750Y-102100000D01*
X167467642Y-102101174D01*
X167467642Y-102101174D01*
G37*
D20*
X167200000Y-102800000D03*
D21*
X173510000Y-96750000D03*
X173510000Y-95800000D03*
X173510000Y-94850000D03*
X170890000Y-94850000D03*
X170890000Y-96750000D03*
D10*
G36*
X191849505Y-92276204D02*
G01*
X191873773Y-92279804D01*
X191897572Y-92285765D01*
X191920671Y-92294030D01*
X191942850Y-92304520D01*
X191963893Y-92317132D01*
X191983599Y-92331747D01*
X192001777Y-92348223D01*
X192018253Y-92366401D01*
X192032868Y-92386107D01*
X192045480Y-92407150D01*
X192055970Y-92429329D01*
X192064235Y-92452428D01*
X192070196Y-92476227D01*
X192073796Y-92500495D01*
X192075000Y-92524999D01*
X192075000Y-97475001D01*
X192073796Y-97499505D01*
X192070196Y-97523773D01*
X192064235Y-97547572D01*
X192055970Y-97570671D01*
X192045480Y-97592850D01*
X192032868Y-97613893D01*
X192018253Y-97633599D01*
X192001777Y-97651777D01*
X191983599Y-97668253D01*
X191963893Y-97682868D01*
X191942850Y-97695480D01*
X191920671Y-97705970D01*
X191897572Y-97714235D01*
X191873773Y-97720196D01*
X191849505Y-97723796D01*
X191825001Y-97725000D01*
X190399999Y-97725000D01*
X190375495Y-97723796D01*
X190351227Y-97720196D01*
X190327428Y-97714235D01*
X190304329Y-97705970D01*
X190282150Y-97695480D01*
X190261107Y-97682868D01*
X190241401Y-97668253D01*
X190223223Y-97651777D01*
X190206747Y-97633599D01*
X190192132Y-97613893D01*
X190179520Y-97592850D01*
X190169030Y-97570671D01*
X190160765Y-97547572D01*
X190154804Y-97523773D01*
X190151204Y-97499505D01*
X190150000Y-97475001D01*
X190150000Y-92524999D01*
X190151204Y-92500495D01*
X190154804Y-92476227D01*
X190160765Y-92452428D01*
X190169030Y-92429329D01*
X190179520Y-92407150D01*
X190192132Y-92386107D01*
X190206747Y-92366401D01*
X190223223Y-92348223D01*
X190241401Y-92331747D01*
X190261107Y-92317132D01*
X190282150Y-92304520D01*
X190304329Y-92294030D01*
X190327428Y-92285765D01*
X190351227Y-92279804D01*
X190375495Y-92276204D01*
X190399999Y-92275000D01*
X191825001Y-92275000D01*
X191849505Y-92276204D01*
X191849505Y-92276204D01*
G37*
D22*
X191112500Y-95000000D03*
D10*
G36*
X198624505Y-92276204D02*
G01*
X198648773Y-92279804D01*
X198672572Y-92285765D01*
X198695671Y-92294030D01*
X198717850Y-92304520D01*
X198738893Y-92317132D01*
X198758599Y-92331747D01*
X198776777Y-92348223D01*
X198793253Y-92366401D01*
X198807868Y-92386107D01*
X198820480Y-92407150D01*
X198830970Y-92429329D01*
X198839235Y-92452428D01*
X198845196Y-92476227D01*
X198848796Y-92500495D01*
X198850000Y-92524999D01*
X198850000Y-97475001D01*
X198848796Y-97499505D01*
X198845196Y-97523773D01*
X198839235Y-97547572D01*
X198830970Y-97570671D01*
X198820480Y-97592850D01*
X198807868Y-97613893D01*
X198793253Y-97633599D01*
X198776777Y-97651777D01*
X198758599Y-97668253D01*
X198738893Y-97682868D01*
X198717850Y-97695480D01*
X198695671Y-97705970D01*
X198672572Y-97714235D01*
X198648773Y-97720196D01*
X198624505Y-97723796D01*
X198600001Y-97725000D01*
X197174999Y-97725000D01*
X197150495Y-97723796D01*
X197126227Y-97720196D01*
X197102428Y-97714235D01*
X197079329Y-97705970D01*
X197057150Y-97695480D01*
X197036107Y-97682868D01*
X197016401Y-97668253D01*
X196998223Y-97651777D01*
X196981747Y-97633599D01*
X196967132Y-97613893D01*
X196954520Y-97592850D01*
X196944030Y-97570671D01*
X196935765Y-97547572D01*
X196929804Y-97523773D01*
X196926204Y-97499505D01*
X196925000Y-97475001D01*
X196925000Y-92524999D01*
X196926204Y-92500495D01*
X196929804Y-92476227D01*
X196935765Y-92452428D01*
X196944030Y-92429329D01*
X196954520Y-92407150D01*
X196967132Y-92386107D01*
X196981747Y-92366401D01*
X196998223Y-92348223D01*
X197016401Y-92331747D01*
X197036107Y-92317132D01*
X197057150Y-92304520D01*
X197079329Y-92294030D01*
X197102428Y-92285765D01*
X197126227Y-92279804D01*
X197150495Y-92276204D01*
X197174999Y-92275000D01*
X198600001Y-92275000D01*
X198624505Y-92276204D01*
X198624505Y-92276204D01*
G37*
D22*
X197887500Y-95000000D03*
D10*
G36*
X192280142Y-109251174D02*
G01*
X192303803Y-109254684D01*
X192327007Y-109260496D01*
X192349529Y-109268554D01*
X192371153Y-109278782D01*
X192391670Y-109291079D01*
X192410883Y-109305329D01*
X192428607Y-109321393D01*
X192444671Y-109339117D01*
X192458921Y-109358330D01*
X192471218Y-109378847D01*
X192481446Y-109400471D01*
X192489504Y-109422993D01*
X192495316Y-109446197D01*
X192498826Y-109469858D01*
X192500000Y-109493750D01*
X192500000Y-109981250D01*
X192498826Y-110005142D01*
X192495316Y-110028803D01*
X192489504Y-110052007D01*
X192481446Y-110074529D01*
X192471218Y-110096153D01*
X192458921Y-110116670D01*
X192444671Y-110135883D01*
X192428607Y-110153607D01*
X192410883Y-110169671D01*
X192391670Y-110183921D01*
X192371153Y-110196218D01*
X192349529Y-110206446D01*
X192327007Y-110214504D01*
X192303803Y-110220316D01*
X192280142Y-110223826D01*
X192256250Y-110225000D01*
X191343750Y-110225000D01*
X191319858Y-110223826D01*
X191296197Y-110220316D01*
X191272993Y-110214504D01*
X191250471Y-110206446D01*
X191228847Y-110196218D01*
X191208330Y-110183921D01*
X191189117Y-110169671D01*
X191171393Y-110153607D01*
X191155329Y-110135883D01*
X191141079Y-110116670D01*
X191128782Y-110096153D01*
X191118554Y-110074529D01*
X191110496Y-110052007D01*
X191104684Y-110028803D01*
X191101174Y-110005142D01*
X191100000Y-109981250D01*
X191100000Y-109493750D01*
X191101174Y-109469858D01*
X191104684Y-109446197D01*
X191110496Y-109422993D01*
X191118554Y-109400471D01*
X191128782Y-109378847D01*
X191141079Y-109358330D01*
X191155329Y-109339117D01*
X191171393Y-109321393D01*
X191189117Y-109305329D01*
X191208330Y-109291079D01*
X191228847Y-109278782D01*
X191250471Y-109268554D01*
X191272993Y-109260496D01*
X191296197Y-109254684D01*
X191319858Y-109251174D01*
X191343750Y-109250000D01*
X192256250Y-109250000D01*
X192280142Y-109251174D01*
X192280142Y-109251174D01*
G37*
D20*
X191800000Y-109737500D03*
D10*
G36*
X192280142Y-107376174D02*
G01*
X192303803Y-107379684D01*
X192327007Y-107385496D01*
X192349529Y-107393554D01*
X192371153Y-107403782D01*
X192391670Y-107416079D01*
X192410883Y-107430329D01*
X192428607Y-107446393D01*
X192444671Y-107464117D01*
X192458921Y-107483330D01*
X192471218Y-107503847D01*
X192481446Y-107525471D01*
X192489504Y-107547993D01*
X192495316Y-107571197D01*
X192498826Y-107594858D01*
X192500000Y-107618750D01*
X192500000Y-108106250D01*
X192498826Y-108130142D01*
X192495316Y-108153803D01*
X192489504Y-108177007D01*
X192481446Y-108199529D01*
X192471218Y-108221153D01*
X192458921Y-108241670D01*
X192444671Y-108260883D01*
X192428607Y-108278607D01*
X192410883Y-108294671D01*
X192391670Y-108308921D01*
X192371153Y-108321218D01*
X192349529Y-108331446D01*
X192327007Y-108339504D01*
X192303803Y-108345316D01*
X192280142Y-108348826D01*
X192256250Y-108350000D01*
X191343750Y-108350000D01*
X191319858Y-108348826D01*
X191296197Y-108345316D01*
X191272993Y-108339504D01*
X191250471Y-108331446D01*
X191228847Y-108321218D01*
X191208330Y-108308921D01*
X191189117Y-108294671D01*
X191171393Y-108278607D01*
X191155329Y-108260883D01*
X191141079Y-108241670D01*
X191128782Y-108221153D01*
X191118554Y-108199529D01*
X191110496Y-108177007D01*
X191104684Y-108153803D01*
X191101174Y-108130142D01*
X191100000Y-108106250D01*
X191100000Y-107618750D01*
X191101174Y-107594858D01*
X191104684Y-107571197D01*
X191110496Y-107547993D01*
X191118554Y-107525471D01*
X191128782Y-107503847D01*
X191141079Y-107483330D01*
X191155329Y-107464117D01*
X191171393Y-107446393D01*
X191189117Y-107430329D01*
X191208330Y-107416079D01*
X191228847Y-107403782D01*
X191250471Y-107393554D01*
X191272993Y-107385496D01*
X191296197Y-107379684D01*
X191319858Y-107376174D01*
X191343750Y-107375000D01*
X192256250Y-107375000D01*
X192280142Y-107376174D01*
X192280142Y-107376174D01*
G37*
D20*
X191800000Y-107862500D03*
D10*
G36*
X183480142Y-94363674D02*
G01*
X183503803Y-94367184D01*
X183527007Y-94372996D01*
X183549529Y-94381054D01*
X183571153Y-94391282D01*
X183591670Y-94403579D01*
X183610883Y-94417829D01*
X183628607Y-94433893D01*
X183644671Y-94451617D01*
X183658921Y-94470830D01*
X183671218Y-94491347D01*
X183681446Y-94512971D01*
X183689504Y-94535493D01*
X183695316Y-94558697D01*
X183698826Y-94582358D01*
X183700000Y-94606250D01*
X183700000Y-95093750D01*
X183698826Y-95117642D01*
X183695316Y-95141303D01*
X183689504Y-95164507D01*
X183681446Y-95187029D01*
X183671218Y-95208653D01*
X183658921Y-95229170D01*
X183644671Y-95248383D01*
X183628607Y-95266107D01*
X183610883Y-95282171D01*
X183591670Y-95296421D01*
X183571153Y-95308718D01*
X183549529Y-95318946D01*
X183527007Y-95327004D01*
X183503803Y-95332816D01*
X183480142Y-95336326D01*
X183456250Y-95337500D01*
X182543750Y-95337500D01*
X182519858Y-95336326D01*
X182496197Y-95332816D01*
X182472993Y-95327004D01*
X182450471Y-95318946D01*
X182428847Y-95308718D01*
X182408330Y-95296421D01*
X182389117Y-95282171D01*
X182371393Y-95266107D01*
X182355329Y-95248383D01*
X182341079Y-95229170D01*
X182328782Y-95208653D01*
X182318554Y-95187029D01*
X182310496Y-95164507D01*
X182304684Y-95141303D01*
X182301174Y-95117642D01*
X182300000Y-95093750D01*
X182300000Y-94606250D01*
X182301174Y-94582358D01*
X182304684Y-94558697D01*
X182310496Y-94535493D01*
X182318554Y-94512971D01*
X182328782Y-94491347D01*
X182341079Y-94470830D01*
X182355329Y-94451617D01*
X182371393Y-94433893D01*
X182389117Y-94417829D01*
X182408330Y-94403579D01*
X182428847Y-94391282D01*
X182450471Y-94381054D01*
X182472993Y-94372996D01*
X182496197Y-94367184D01*
X182519858Y-94363674D01*
X182543750Y-94362500D01*
X183456250Y-94362500D01*
X183480142Y-94363674D01*
X183480142Y-94363674D01*
G37*
D20*
X183000000Y-94850000D03*
D10*
G36*
X183480142Y-96238674D02*
G01*
X183503803Y-96242184D01*
X183527007Y-96247996D01*
X183549529Y-96256054D01*
X183571153Y-96266282D01*
X183591670Y-96278579D01*
X183610883Y-96292829D01*
X183628607Y-96308893D01*
X183644671Y-96326617D01*
X183658921Y-96345830D01*
X183671218Y-96366347D01*
X183681446Y-96387971D01*
X183689504Y-96410493D01*
X183695316Y-96433697D01*
X183698826Y-96457358D01*
X183700000Y-96481250D01*
X183700000Y-96968750D01*
X183698826Y-96992642D01*
X183695316Y-97016303D01*
X183689504Y-97039507D01*
X183681446Y-97062029D01*
X183671218Y-97083653D01*
X183658921Y-97104170D01*
X183644671Y-97123383D01*
X183628607Y-97141107D01*
X183610883Y-97157171D01*
X183591670Y-97171421D01*
X183571153Y-97183718D01*
X183549529Y-97193946D01*
X183527007Y-97202004D01*
X183503803Y-97207816D01*
X183480142Y-97211326D01*
X183456250Y-97212500D01*
X182543750Y-97212500D01*
X182519858Y-97211326D01*
X182496197Y-97207816D01*
X182472993Y-97202004D01*
X182450471Y-97193946D01*
X182428847Y-97183718D01*
X182408330Y-97171421D01*
X182389117Y-97157171D01*
X182371393Y-97141107D01*
X182355329Y-97123383D01*
X182341079Y-97104170D01*
X182328782Y-97083653D01*
X182318554Y-97062029D01*
X182310496Y-97039507D01*
X182304684Y-97016303D01*
X182301174Y-96992642D01*
X182300000Y-96968750D01*
X182300000Y-96481250D01*
X182301174Y-96457358D01*
X182304684Y-96433697D01*
X182310496Y-96410493D01*
X182318554Y-96387971D01*
X182328782Y-96366347D01*
X182341079Y-96345830D01*
X182355329Y-96326617D01*
X182371393Y-96308893D01*
X182389117Y-96292829D01*
X182408330Y-96278579D01*
X182428847Y-96266282D01*
X182450471Y-96256054D01*
X182472993Y-96247996D01*
X182496197Y-96242184D01*
X182519858Y-96238674D01*
X182543750Y-96237500D01*
X183456250Y-96237500D01*
X183480142Y-96238674D01*
X183480142Y-96238674D01*
G37*
D20*
X183000000Y-96725000D03*
D10*
G36*
X135980142Y-123876174D02*
G01*
X136003803Y-123879684D01*
X136027007Y-123885496D01*
X136049529Y-123893554D01*
X136071153Y-123903782D01*
X136091670Y-123916079D01*
X136110883Y-123930329D01*
X136128607Y-123946393D01*
X136144671Y-123964117D01*
X136158921Y-123983330D01*
X136171218Y-124003847D01*
X136181446Y-124025471D01*
X136189504Y-124047993D01*
X136195316Y-124071197D01*
X136198826Y-124094858D01*
X136200000Y-124118750D01*
X136200000Y-124606250D01*
X136198826Y-124630142D01*
X136195316Y-124653803D01*
X136189504Y-124677007D01*
X136181446Y-124699529D01*
X136171218Y-124721153D01*
X136158921Y-124741670D01*
X136144671Y-124760883D01*
X136128607Y-124778607D01*
X136110883Y-124794671D01*
X136091670Y-124808921D01*
X136071153Y-124821218D01*
X136049529Y-124831446D01*
X136027007Y-124839504D01*
X136003803Y-124845316D01*
X135980142Y-124848826D01*
X135956250Y-124850000D01*
X135043750Y-124850000D01*
X135019858Y-124848826D01*
X134996197Y-124845316D01*
X134972993Y-124839504D01*
X134950471Y-124831446D01*
X134928847Y-124821218D01*
X134908330Y-124808921D01*
X134889117Y-124794671D01*
X134871393Y-124778607D01*
X134855329Y-124760883D01*
X134841079Y-124741670D01*
X134828782Y-124721153D01*
X134818554Y-124699529D01*
X134810496Y-124677007D01*
X134804684Y-124653803D01*
X134801174Y-124630142D01*
X134800000Y-124606250D01*
X134800000Y-124118750D01*
X134801174Y-124094858D01*
X134804684Y-124071197D01*
X134810496Y-124047993D01*
X134818554Y-124025471D01*
X134828782Y-124003847D01*
X134841079Y-123983330D01*
X134855329Y-123964117D01*
X134871393Y-123946393D01*
X134889117Y-123930329D01*
X134908330Y-123916079D01*
X134928847Y-123903782D01*
X134950471Y-123893554D01*
X134972993Y-123885496D01*
X134996197Y-123879684D01*
X135019858Y-123876174D01*
X135043750Y-123875000D01*
X135956250Y-123875000D01*
X135980142Y-123876174D01*
X135980142Y-123876174D01*
G37*
D20*
X135500000Y-124362500D03*
D10*
G36*
X135980142Y-125751174D02*
G01*
X136003803Y-125754684D01*
X136027007Y-125760496D01*
X136049529Y-125768554D01*
X136071153Y-125778782D01*
X136091670Y-125791079D01*
X136110883Y-125805329D01*
X136128607Y-125821393D01*
X136144671Y-125839117D01*
X136158921Y-125858330D01*
X136171218Y-125878847D01*
X136181446Y-125900471D01*
X136189504Y-125922993D01*
X136195316Y-125946197D01*
X136198826Y-125969858D01*
X136200000Y-125993750D01*
X136200000Y-126481250D01*
X136198826Y-126505142D01*
X136195316Y-126528803D01*
X136189504Y-126552007D01*
X136181446Y-126574529D01*
X136171218Y-126596153D01*
X136158921Y-126616670D01*
X136144671Y-126635883D01*
X136128607Y-126653607D01*
X136110883Y-126669671D01*
X136091670Y-126683921D01*
X136071153Y-126696218D01*
X136049529Y-126706446D01*
X136027007Y-126714504D01*
X136003803Y-126720316D01*
X135980142Y-126723826D01*
X135956250Y-126725000D01*
X135043750Y-126725000D01*
X135019858Y-126723826D01*
X134996197Y-126720316D01*
X134972993Y-126714504D01*
X134950471Y-126706446D01*
X134928847Y-126696218D01*
X134908330Y-126683921D01*
X134889117Y-126669671D01*
X134871393Y-126653607D01*
X134855329Y-126635883D01*
X134841079Y-126616670D01*
X134828782Y-126596153D01*
X134818554Y-126574529D01*
X134810496Y-126552007D01*
X134804684Y-126528803D01*
X134801174Y-126505142D01*
X134800000Y-126481250D01*
X134800000Y-125993750D01*
X134801174Y-125969858D01*
X134804684Y-125946197D01*
X134810496Y-125922993D01*
X134818554Y-125900471D01*
X134828782Y-125878847D01*
X134841079Y-125858330D01*
X134855329Y-125839117D01*
X134871393Y-125821393D01*
X134889117Y-125805329D01*
X134908330Y-125791079D01*
X134928847Y-125778782D01*
X134950471Y-125768554D01*
X134972993Y-125760496D01*
X134996197Y-125754684D01*
X135019858Y-125751174D01*
X135043750Y-125750000D01*
X135956250Y-125750000D01*
X135980142Y-125751174D01*
X135980142Y-125751174D01*
G37*
D20*
X135500000Y-126237500D03*
D10*
G36*
X133980142Y-125751174D02*
G01*
X134003803Y-125754684D01*
X134027007Y-125760496D01*
X134049529Y-125768554D01*
X134071153Y-125778782D01*
X134091670Y-125791079D01*
X134110883Y-125805329D01*
X134128607Y-125821393D01*
X134144671Y-125839117D01*
X134158921Y-125858330D01*
X134171218Y-125878847D01*
X134181446Y-125900471D01*
X134189504Y-125922993D01*
X134195316Y-125946197D01*
X134198826Y-125969858D01*
X134200000Y-125993750D01*
X134200000Y-126481250D01*
X134198826Y-126505142D01*
X134195316Y-126528803D01*
X134189504Y-126552007D01*
X134181446Y-126574529D01*
X134171218Y-126596153D01*
X134158921Y-126616670D01*
X134144671Y-126635883D01*
X134128607Y-126653607D01*
X134110883Y-126669671D01*
X134091670Y-126683921D01*
X134071153Y-126696218D01*
X134049529Y-126706446D01*
X134027007Y-126714504D01*
X134003803Y-126720316D01*
X133980142Y-126723826D01*
X133956250Y-126725000D01*
X133043750Y-126725000D01*
X133019858Y-126723826D01*
X132996197Y-126720316D01*
X132972993Y-126714504D01*
X132950471Y-126706446D01*
X132928847Y-126696218D01*
X132908330Y-126683921D01*
X132889117Y-126669671D01*
X132871393Y-126653607D01*
X132855329Y-126635883D01*
X132841079Y-126616670D01*
X132828782Y-126596153D01*
X132818554Y-126574529D01*
X132810496Y-126552007D01*
X132804684Y-126528803D01*
X132801174Y-126505142D01*
X132800000Y-126481250D01*
X132800000Y-125993750D01*
X132801174Y-125969858D01*
X132804684Y-125946197D01*
X132810496Y-125922993D01*
X132818554Y-125900471D01*
X132828782Y-125878847D01*
X132841079Y-125858330D01*
X132855329Y-125839117D01*
X132871393Y-125821393D01*
X132889117Y-125805329D01*
X132908330Y-125791079D01*
X132928847Y-125778782D01*
X132950471Y-125768554D01*
X132972993Y-125760496D01*
X132996197Y-125754684D01*
X133019858Y-125751174D01*
X133043750Y-125750000D01*
X133956250Y-125750000D01*
X133980142Y-125751174D01*
X133980142Y-125751174D01*
G37*
D20*
X133500000Y-126237500D03*
D10*
G36*
X133980142Y-123876174D02*
G01*
X134003803Y-123879684D01*
X134027007Y-123885496D01*
X134049529Y-123893554D01*
X134071153Y-123903782D01*
X134091670Y-123916079D01*
X134110883Y-123930329D01*
X134128607Y-123946393D01*
X134144671Y-123964117D01*
X134158921Y-123983330D01*
X134171218Y-124003847D01*
X134181446Y-124025471D01*
X134189504Y-124047993D01*
X134195316Y-124071197D01*
X134198826Y-124094858D01*
X134200000Y-124118750D01*
X134200000Y-124606250D01*
X134198826Y-124630142D01*
X134195316Y-124653803D01*
X134189504Y-124677007D01*
X134181446Y-124699529D01*
X134171218Y-124721153D01*
X134158921Y-124741670D01*
X134144671Y-124760883D01*
X134128607Y-124778607D01*
X134110883Y-124794671D01*
X134091670Y-124808921D01*
X134071153Y-124821218D01*
X134049529Y-124831446D01*
X134027007Y-124839504D01*
X134003803Y-124845316D01*
X133980142Y-124848826D01*
X133956250Y-124850000D01*
X133043750Y-124850000D01*
X133019858Y-124848826D01*
X132996197Y-124845316D01*
X132972993Y-124839504D01*
X132950471Y-124831446D01*
X132928847Y-124821218D01*
X132908330Y-124808921D01*
X132889117Y-124794671D01*
X132871393Y-124778607D01*
X132855329Y-124760883D01*
X132841079Y-124741670D01*
X132828782Y-124721153D01*
X132818554Y-124699529D01*
X132810496Y-124677007D01*
X132804684Y-124653803D01*
X132801174Y-124630142D01*
X132800000Y-124606250D01*
X132800000Y-124118750D01*
X132801174Y-124094858D01*
X132804684Y-124071197D01*
X132810496Y-124047993D01*
X132818554Y-124025471D01*
X132828782Y-124003847D01*
X132841079Y-123983330D01*
X132855329Y-123964117D01*
X132871393Y-123946393D01*
X132889117Y-123930329D01*
X132908330Y-123916079D01*
X132928847Y-123903782D01*
X132950471Y-123893554D01*
X132972993Y-123885496D01*
X132996197Y-123879684D01*
X133019858Y-123876174D01*
X133043750Y-123875000D01*
X133956250Y-123875000D01*
X133980142Y-123876174D01*
X133980142Y-123876174D01*
G37*
D20*
X133500000Y-124362500D03*
D10*
G36*
X139980142Y-123876174D02*
G01*
X140003803Y-123879684D01*
X140027007Y-123885496D01*
X140049529Y-123893554D01*
X140071153Y-123903782D01*
X140091670Y-123916079D01*
X140110883Y-123930329D01*
X140128607Y-123946393D01*
X140144671Y-123964117D01*
X140158921Y-123983330D01*
X140171218Y-124003847D01*
X140181446Y-124025471D01*
X140189504Y-124047993D01*
X140195316Y-124071197D01*
X140198826Y-124094858D01*
X140200000Y-124118750D01*
X140200000Y-124606250D01*
X140198826Y-124630142D01*
X140195316Y-124653803D01*
X140189504Y-124677007D01*
X140181446Y-124699529D01*
X140171218Y-124721153D01*
X140158921Y-124741670D01*
X140144671Y-124760883D01*
X140128607Y-124778607D01*
X140110883Y-124794671D01*
X140091670Y-124808921D01*
X140071153Y-124821218D01*
X140049529Y-124831446D01*
X140027007Y-124839504D01*
X140003803Y-124845316D01*
X139980142Y-124848826D01*
X139956250Y-124850000D01*
X139043750Y-124850000D01*
X139019858Y-124848826D01*
X138996197Y-124845316D01*
X138972993Y-124839504D01*
X138950471Y-124831446D01*
X138928847Y-124821218D01*
X138908330Y-124808921D01*
X138889117Y-124794671D01*
X138871393Y-124778607D01*
X138855329Y-124760883D01*
X138841079Y-124741670D01*
X138828782Y-124721153D01*
X138818554Y-124699529D01*
X138810496Y-124677007D01*
X138804684Y-124653803D01*
X138801174Y-124630142D01*
X138800000Y-124606250D01*
X138800000Y-124118750D01*
X138801174Y-124094858D01*
X138804684Y-124071197D01*
X138810496Y-124047993D01*
X138818554Y-124025471D01*
X138828782Y-124003847D01*
X138841079Y-123983330D01*
X138855329Y-123964117D01*
X138871393Y-123946393D01*
X138889117Y-123930329D01*
X138908330Y-123916079D01*
X138928847Y-123903782D01*
X138950471Y-123893554D01*
X138972993Y-123885496D01*
X138996197Y-123879684D01*
X139019858Y-123876174D01*
X139043750Y-123875000D01*
X139956250Y-123875000D01*
X139980142Y-123876174D01*
X139980142Y-123876174D01*
G37*
D20*
X139500000Y-124362500D03*
D10*
G36*
X139980142Y-125751174D02*
G01*
X140003803Y-125754684D01*
X140027007Y-125760496D01*
X140049529Y-125768554D01*
X140071153Y-125778782D01*
X140091670Y-125791079D01*
X140110883Y-125805329D01*
X140128607Y-125821393D01*
X140144671Y-125839117D01*
X140158921Y-125858330D01*
X140171218Y-125878847D01*
X140181446Y-125900471D01*
X140189504Y-125922993D01*
X140195316Y-125946197D01*
X140198826Y-125969858D01*
X140200000Y-125993750D01*
X140200000Y-126481250D01*
X140198826Y-126505142D01*
X140195316Y-126528803D01*
X140189504Y-126552007D01*
X140181446Y-126574529D01*
X140171218Y-126596153D01*
X140158921Y-126616670D01*
X140144671Y-126635883D01*
X140128607Y-126653607D01*
X140110883Y-126669671D01*
X140091670Y-126683921D01*
X140071153Y-126696218D01*
X140049529Y-126706446D01*
X140027007Y-126714504D01*
X140003803Y-126720316D01*
X139980142Y-126723826D01*
X139956250Y-126725000D01*
X139043750Y-126725000D01*
X139019858Y-126723826D01*
X138996197Y-126720316D01*
X138972993Y-126714504D01*
X138950471Y-126706446D01*
X138928847Y-126696218D01*
X138908330Y-126683921D01*
X138889117Y-126669671D01*
X138871393Y-126653607D01*
X138855329Y-126635883D01*
X138841079Y-126616670D01*
X138828782Y-126596153D01*
X138818554Y-126574529D01*
X138810496Y-126552007D01*
X138804684Y-126528803D01*
X138801174Y-126505142D01*
X138800000Y-126481250D01*
X138800000Y-125993750D01*
X138801174Y-125969858D01*
X138804684Y-125946197D01*
X138810496Y-125922993D01*
X138818554Y-125900471D01*
X138828782Y-125878847D01*
X138841079Y-125858330D01*
X138855329Y-125839117D01*
X138871393Y-125821393D01*
X138889117Y-125805329D01*
X138908330Y-125791079D01*
X138928847Y-125778782D01*
X138950471Y-125768554D01*
X138972993Y-125760496D01*
X138996197Y-125754684D01*
X139019858Y-125751174D01*
X139043750Y-125750000D01*
X139956250Y-125750000D01*
X139980142Y-125751174D01*
X139980142Y-125751174D01*
G37*
D20*
X139500000Y-126237500D03*
D10*
G36*
X178980142Y-96213674D02*
G01*
X179003803Y-96217184D01*
X179027007Y-96222996D01*
X179049529Y-96231054D01*
X179071153Y-96241282D01*
X179091670Y-96253579D01*
X179110883Y-96267829D01*
X179128607Y-96283893D01*
X179144671Y-96301617D01*
X179158921Y-96320830D01*
X179171218Y-96341347D01*
X179181446Y-96362971D01*
X179189504Y-96385493D01*
X179195316Y-96408697D01*
X179198826Y-96432358D01*
X179200000Y-96456250D01*
X179200000Y-96943750D01*
X179198826Y-96967642D01*
X179195316Y-96991303D01*
X179189504Y-97014507D01*
X179181446Y-97037029D01*
X179171218Y-97058653D01*
X179158921Y-97079170D01*
X179144671Y-97098383D01*
X179128607Y-97116107D01*
X179110883Y-97132171D01*
X179091670Y-97146421D01*
X179071153Y-97158718D01*
X179049529Y-97168946D01*
X179027007Y-97177004D01*
X179003803Y-97182816D01*
X178980142Y-97186326D01*
X178956250Y-97187500D01*
X178043750Y-97187500D01*
X178019858Y-97186326D01*
X177996197Y-97182816D01*
X177972993Y-97177004D01*
X177950471Y-97168946D01*
X177928847Y-97158718D01*
X177908330Y-97146421D01*
X177889117Y-97132171D01*
X177871393Y-97116107D01*
X177855329Y-97098383D01*
X177841079Y-97079170D01*
X177828782Y-97058653D01*
X177818554Y-97037029D01*
X177810496Y-97014507D01*
X177804684Y-96991303D01*
X177801174Y-96967642D01*
X177800000Y-96943750D01*
X177800000Y-96456250D01*
X177801174Y-96432358D01*
X177804684Y-96408697D01*
X177810496Y-96385493D01*
X177818554Y-96362971D01*
X177828782Y-96341347D01*
X177841079Y-96320830D01*
X177855329Y-96301617D01*
X177871393Y-96283893D01*
X177889117Y-96267829D01*
X177908330Y-96253579D01*
X177928847Y-96241282D01*
X177950471Y-96231054D01*
X177972993Y-96222996D01*
X177996197Y-96217184D01*
X178019858Y-96213674D01*
X178043750Y-96212500D01*
X178956250Y-96212500D01*
X178980142Y-96213674D01*
X178980142Y-96213674D01*
G37*
D20*
X178500000Y-96700000D03*
D10*
G36*
X178980142Y-94338674D02*
G01*
X179003803Y-94342184D01*
X179027007Y-94347996D01*
X179049529Y-94356054D01*
X179071153Y-94366282D01*
X179091670Y-94378579D01*
X179110883Y-94392829D01*
X179128607Y-94408893D01*
X179144671Y-94426617D01*
X179158921Y-94445830D01*
X179171218Y-94466347D01*
X179181446Y-94487971D01*
X179189504Y-94510493D01*
X179195316Y-94533697D01*
X179198826Y-94557358D01*
X179200000Y-94581250D01*
X179200000Y-95068750D01*
X179198826Y-95092642D01*
X179195316Y-95116303D01*
X179189504Y-95139507D01*
X179181446Y-95162029D01*
X179171218Y-95183653D01*
X179158921Y-95204170D01*
X179144671Y-95223383D01*
X179128607Y-95241107D01*
X179110883Y-95257171D01*
X179091670Y-95271421D01*
X179071153Y-95283718D01*
X179049529Y-95293946D01*
X179027007Y-95302004D01*
X179003803Y-95307816D01*
X178980142Y-95311326D01*
X178956250Y-95312500D01*
X178043750Y-95312500D01*
X178019858Y-95311326D01*
X177996197Y-95307816D01*
X177972993Y-95302004D01*
X177950471Y-95293946D01*
X177928847Y-95283718D01*
X177908330Y-95271421D01*
X177889117Y-95257171D01*
X177871393Y-95241107D01*
X177855329Y-95223383D01*
X177841079Y-95204170D01*
X177828782Y-95183653D01*
X177818554Y-95162029D01*
X177810496Y-95139507D01*
X177804684Y-95116303D01*
X177801174Y-95092642D01*
X177800000Y-95068750D01*
X177800000Y-94581250D01*
X177801174Y-94557358D01*
X177804684Y-94533697D01*
X177810496Y-94510493D01*
X177818554Y-94487971D01*
X177828782Y-94466347D01*
X177841079Y-94445830D01*
X177855329Y-94426617D01*
X177871393Y-94408893D01*
X177889117Y-94392829D01*
X177908330Y-94378579D01*
X177928847Y-94366282D01*
X177950471Y-94356054D01*
X177972993Y-94347996D01*
X177996197Y-94342184D01*
X178019858Y-94338674D01*
X178043750Y-94337500D01*
X178956250Y-94337500D01*
X178980142Y-94338674D01*
X178980142Y-94338674D01*
G37*
D20*
X178500000Y-94825000D03*
D10*
G36*
X168542642Y-94101174D02*
G01*
X168566303Y-94104684D01*
X168589507Y-94110496D01*
X168612029Y-94118554D01*
X168633653Y-94128782D01*
X168654170Y-94141079D01*
X168673383Y-94155329D01*
X168691107Y-94171393D01*
X168707171Y-94189117D01*
X168721421Y-94208330D01*
X168733718Y-94228847D01*
X168743946Y-94250471D01*
X168752004Y-94272993D01*
X168757816Y-94296197D01*
X168761326Y-94319858D01*
X168762500Y-94343750D01*
X168762500Y-95256250D01*
X168761326Y-95280142D01*
X168757816Y-95303803D01*
X168752004Y-95327007D01*
X168743946Y-95349529D01*
X168733718Y-95371153D01*
X168721421Y-95391670D01*
X168707171Y-95410883D01*
X168691107Y-95428607D01*
X168673383Y-95444671D01*
X168654170Y-95458921D01*
X168633653Y-95471218D01*
X168612029Y-95481446D01*
X168589507Y-95489504D01*
X168566303Y-95495316D01*
X168542642Y-95498826D01*
X168518750Y-95500000D01*
X168031250Y-95500000D01*
X168007358Y-95498826D01*
X167983697Y-95495316D01*
X167960493Y-95489504D01*
X167937971Y-95481446D01*
X167916347Y-95471218D01*
X167895830Y-95458921D01*
X167876617Y-95444671D01*
X167858893Y-95428607D01*
X167842829Y-95410883D01*
X167828579Y-95391670D01*
X167816282Y-95371153D01*
X167806054Y-95349529D01*
X167797996Y-95327007D01*
X167792184Y-95303803D01*
X167788674Y-95280142D01*
X167787500Y-95256250D01*
X167787500Y-94343750D01*
X167788674Y-94319858D01*
X167792184Y-94296197D01*
X167797996Y-94272993D01*
X167806054Y-94250471D01*
X167816282Y-94228847D01*
X167828579Y-94208330D01*
X167842829Y-94189117D01*
X167858893Y-94171393D01*
X167876617Y-94155329D01*
X167895830Y-94141079D01*
X167916347Y-94128782D01*
X167937971Y-94118554D01*
X167960493Y-94110496D01*
X167983697Y-94104684D01*
X168007358Y-94101174D01*
X168031250Y-94100000D01*
X168518750Y-94100000D01*
X168542642Y-94101174D01*
X168542642Y-94101174D01*
G37*
D20*
X168275000Y-94800000D03*
D10*
G36*
X166667642Y-94101174D02*
G01*
X166691303Y-94104684D01*
X166714507Y-94110496D01*
X166737029Y-94118554D01*
X166758653Y-94128782D01*
X166779170Y-94141079D01*
X166798383Y-94155329D01*
X166816107Y-94171393D01*
X166832171Y-94189117D01*
X166846421Y-94208330D01*
X166858718Y-94228847D01*
X166868946Y-94250471D01*
X166877004Y-94272993D01*
X166882816Y-94296197D01*
X166886326Y-94319858D01*
X166887500Y-94343750D01*
X166887500Y-95256250D01*
X166886326Y-95280142D01*
X166882816Y-95303803D01*
X166877004Y-95327007D01*
X166868946Y-95349529D01*
X166858718Y-95371153D01*
X166846421Y-95391670D01*
X166832171Y-95410883D01*
X166816107Y-95428607D01*
X166798383Y-95444671D01*
X166779170Y-95458921D01*
X166758653Y-95471218D01*
X166737029Y-95481446D01*
X166714507Y-95489504D01*
X166691303Y-95495316D01*
X166667642Y-95498826D01*
X166643750Y-95500000D01*
X166156250Y-95500000D01*
X166132358Y-95498826D01*
X166108697Y-95495316D01*
X166085493Y-95489504D01*
X166062971Y-95481446D01*
X166041347Y-95471218D01*
X166020830Y-95458921D01*
X166001617Y-95444671D01*
X165983893Y-95428607D01*
X165967829Y-95410883D01*
X165953579Y-95391670D01*
X165941282Y-95371153D01*
X165931054Y-95349529D01*
X165922996Y-95327007D01*
X165917184Y-95303803D01*
X165913674Y-95280142D01*
X165912500Y-95256250D01*
X165912500Y-94343750D01*
X165913674Y-94319858D01*
X165917184Y-94296197D01*
X165922996Y-94272993D01*
X165931054Y-94250471D01*
X165941282Y-94228847D01*
X165953579Y-94208330D01*
X165967829Y-94189117D01*
X165983893Y-94171393D01*
X166001617Y-94155329D01*
X166020830Y-94141079D01*
X166041347Y-94128782D01*
X166062971Y-94118554D01*
X166085493Y-94110496D01*
X166108697Y-94104684D01*
X166132358Y-94101174D01*
X166156250Y-94100000D01*
X166643750Y-94100000D01*
X166667642Y-94101174D01*
X166667642Y-94101174D01*
G37*
D20*
X166400000Y-94800000D03*
D10*
G36*
X200080142Y-112413674D02*
G01*
X200103803Y-112417184D01*
X200127007Y-112422996D01*
X200149529Y-112431054D01*
X200171153Y-112441282D01*
X200191670Y-112453579D01*
X200210883Y-112467829D01*
X200228607Y-112483893D01*
X200244671Y-112501617D01*
X200258921Y-112520830D01*
X200271218Y-112541347D01*
X200281446Y-112562971D01*
X200289504Y-112585493D01*
X200295316Y-112608697D01*
X200298826Y-112632358D01*
X200300000Y-112656250D01*
X200300000Y-113143750D01*
X200298826Y-113167642D01*
X200295316Y-113191303D01*
X200289504Y-113214507D01*
X200281446Y-113237029D01*
X200271218Y-113258653D01*
X200258921Y-113279170D01*
X200244671Y-113298383D01*
X200228607Y-113316107D01*
X200210883Y-113332171D01*
X200191670Y-113346421D01*
X200171153Y-113358718D01*
X200149529Y-113368946D01*
X200127007Y-113377004D01*
X200103803Y-113382816D01*
X200080142Y-113386326D01*
X200056250Y-113387500D01*
X199143750Y-113387500D01*
X199119858Y-113386326D01*
X199096197Y-113382816D01*
X199072993Y-113377004D01*
X199050471Y-113368946D01*
X199028847Y-113358718D01*
X199008330Y-113346421D01*
X198989117Y-113332171D01*
X198971393Y-113316107D01*
X198955329Y-113298383D01*
X198941079Y-113279170D01*
X198928782Y-113258653D01*
X198918554Y-113237029D01*
X198910496Y-113214507D01*
X198904684Y-113191303D01*
X198901174Y-113167642D01*
X198900000Y-113143750D01*
X198900000Y-112656250D01*
X198901174Y-112632358D01*
X198904684Y-112608697D01*
X198910496Y-112585493D01*
X198918554Y-112562971D01*
X198928782Y-112541347D01*
X198941079Y-112520830D01*
X198955329Y-112501617D01*
X198971393Y-112483893D01*
X198989117Y-112467829D01*
X199008330Y-112453579D01*
X199028847Y-112441282D01*
X199050471Y-112431054D01*
X199072993Y-112422996D01*
X199096197Y-112417184D01*
X199119858Y-112413674D01*
X199143750Y-112412500D01*
X200056250Y-112412500D01*
X200080142Y-112413674D01*
X200080142Y-112413674D01*
G37*
D20*
X199600000Y-112900000D03*
D10*
G36*
X200080142Y-110538674D02*
G01*
X200103803Y-110542184D01*
X200127007Y-110547996D01*
X200149529Y-110556054D01*
X200171153Y-110566282D01*
X200191670Y-110578579D01*
X200210883Y-110592829D01*
X200228607Y-110608893D01*
X200244671Y-110626617D01*
X200258921Y-110645830D01*
X200271218Y-110666347D01*
X200281446Y-110687971D01*
X200289504Y-110710493D01*
X200295316Y-110733697D01*
X200298826Y-110757358D01*
X200300000Y-110781250D01*
X200300000Y-111268750D01*
X200298826Y-111292642D01*
X200295316Y-111316303D01*
X200289504Y-111339507D01*
X200281446Y-111362029D01*
X200271218Y-111383653D01*
X200258921Y-111404170D01*
X200244671Y-111423383D01*
X200228607Y-111441107D01*
X200210883Y-111457171D01*
X200191670Y-111471421D01*
X200171153Y-111483718D01*
X200149529Y-111493946D01*
X200127007Y-111502004D01*
X200103803Y-111507816D01*
X200080142Y-111511326D01*
X200056250Y-111512500D01*
X199143750Y-111512500D01*
X199119858Y-111511326D01*
X199096197Y-111507816D01*
X199072993Y-111502004D01*
X199050471Y-111493946D01*
X199028847Y-111483718D01*
X199008330Y-111471421D01*
X198989117Y-111457171D01*
X198971393Y-111441107D01*
X198955329Y-111423383D01*
X198941079Y-111404170D01*
X198928782Y-111383653D01*
X198918554Y-111362029D01*
X198910496Y-111339507D01*
X198904684Y-111316303D01*
X198901174Y-111292642D01*
X198900000Y-111268750D01*
X198900000Y-110781250D01*
X198901174Y-110757358D01*
X198904684Y-110733697D01*
X198910496Y-110710493D01*
X198918554Y-110687971D01*
X198928782Y-110666347D01*
X198941079Y-110645830D01*
X198955329Y-110626617D01*
X198971393Y-110608893D01*
X198989117Y-110592829D01*
X199008330Y-110578579D01*
X199028847Y-110566282D01*
X199050471Y-110556054D01*
X199072993Y-110547996D01*
X199096197Y-110542184D01*
X199119858Y-110538674D01*
X199143750Y-110537500D01*
X200056250Y-110537500D01*
X200080142Y-110538674D01*
X200080142Y-110538674D01*
G37*
D20*
X199600000Y-111025000D03*
D10*
G36*
X200080142Y-114213674D02*
G01*
X200103803Y-114217184D01*
X200127007Y-114222996D01*
X200149529Y-114231054D01*
X200171153Y-114241282D01*
X200191670Y-114253579D01*
X200210883Y-114267829D01*
X200228607Y-114283893D01*
X200244671Y-114301617D01*
X200258921Y-114320830D01*
X200271218Y-114341347D01*
X200281446Y-114362971D01*
X200289504Y-114385493D01*
X200295316Y-114408697D01*
X200298826Y-114432358D01*
X200300000Y-114456250D01*
X200300000Y-114943750D01*
X200298826Y-114967642D01*
X200295316Y-114991303D01*
X200289504Y-115014507D01*
X200281446Y-115037029D01*
X200271218Y-115058653D01*
X200258921Y-115079170D01*
X200244671Y-115098383D01*
X200228607Y-115116107D01*
X200210883Y-115132171D01*
X200191670Y-115146421D01*
X200171153Y-115158718D01*
X200149529Y-115168946D01*
X200127007Y-115177004D01*
X200103803Y-115182816D01*
X200080142Y-115186326D01*
X200056250Y-115187500D01*
X199143750Y-115187500D01*
X199119858Y-115186326D01*
X199096197Y-115182816D01*
X199072993Y-115177004D01*
X199050471Y-115168946D01*
X199028847Y-115158718D01*
X199008330Y-115146421D01*
X198989117Y-115132171D01*
X198971393Y-115116107D01*
X198955329Y-115098383D01*
X198941079Y-115079170D01*
X198928782Y-115058653D01*
X198918554Y-115037029D01*
X198910496Y-115014507D01*
X198904684Y-114991303D01*
X198901174Y-114967642D01*
X198900000Y-114943750D01*
X198900000Y-114456250D01*
X198901174Y-114432358D01*
X198904684Y-114408697D01*
X198910496Y-114385493D01*
X198918554Y-114362971D01*
X198928782Y-114341347D01*
X198941079Y-114320830D01*
X198955329Y-114301617D01*
X198971393Y-114283893D01*
X198989117Y-114267829D01*
X199008330Y-114253579D01*
X199028847Y-114241282D01*
X199050471Y-114231054D01*
X199072993Y-114222996D01*
X199096197Y-114217184D01*
X199119858Y-114213674D01*
X199143750Y-114212500D01*
X200056250Y-114212500D01*
X200080142Y-114213674D01*
X200080142Y-114213674D01*
G37*
D20*
X199600000Y-114700000D03*
D10*
G36*
X200080142Y-116088674D02*
G01*
X200103803Y-116092184D01*
X200127007Y-116097996D01*
X200149529Y-116106054D01*
X200171153Y-116116282D01*
X200191670Y-116128579D01*
X200210883Y-116142829D01*
X200228607Y-116158893D01*
X200244671Y-116176617D01*
X200258921Y-116195830D01*
X200271218Y-116216347D01*
X200281446Y-116237971D01*
X200289504Y-116260493D01*
X200295316Y-116283697D01*
X200298826Y-116307358D01*
X200300000Y-116331250D01*
X200300000Y-116818750D01*
X200298826Y-116842642D01*
X200295316Y-116866303D01*
X200289504Y-116889507D01*
X200281446Y-116912029D01*
X200271218Y-116933653D01*
X200258921Y-116954170D01*
X200244671Y-116973383D01*
X200228607Y-116991107D01*
X200210883Y-117007171D01*
X200191670Y-117021421D01*
X200171153Y-117033718D01*
X200149529Y-117043946D01*
X200127007Y-117052004D01*
X200103803Y-117057816D01*
X200080142Y-117061326D01*
X200056250Y-117062500D01*
X199143750Y-117062500D01*
X199119858Y-117061326D01*
X199096197Y-117057816D01*
X199072993Y-117052004D01*
X199050471Y-117043946D01*
X199028847Y-117033718D01*
X199008330Y-117021421D01*
X198989117Y-117007171D01*
X198971393Y-116991107D01*
X198955329Y-116973383D01*
X198941079Y-116954170D01*
X198928782Y-116933653D01*
X198918554Y-116912029D01*
X198910496Y-116889507D01*
X198904684Y-116866303D01*
X198901174Y-116842642D01*
X198900000Y-116818750D01*
X198900000Y-116331250D01*
X198901174Y-116307358D01*
X198904684Y-116283697D01*
X198910496Y-116260493D01*
X198918554Y-116237971D01*
X198928782Y-116216347D01*
X198941079Y-116195830D01*
X198955329Y-116176617D01*
X198971393Y-116158893D01*
X198989117Y-116142829D01*
X199008330Y-116128579D01*
X199028847Y-116116282D01*
X199050471Y-116106054D01*
X199072993Y-116097996D01*
X199096197Y-116092184D01*
X199119858Y-116088674D01*
X199143750Y-116087500D01*
X200056250Y-116087500D01*
X200080142Y-116088674D01*
X200080142Y-116088674D01*
G37*
D20*
X199600000Y-116575000D03*
D10*
G36*
X137980142Y-123876174D02*
G01*
X138003803Y-123879684D01*
X138027007Y-123885496D01*
X138049529Y-123893554D01*
X138071153Y-123903782D01*
X138091670Y-123916079D01*
X138110883Y-123930329D01*
X138128607Y-123946393D01*
X138144671Y-123964117D01*
X138158921Y-123983330D01*
X138171218Y-124003847D01*
X138181446Y-124025471D01*
X138189504Y-124047993D01*
X138195316Y-124071197D01*
X138198826Y-124094858D01*
X138200000Y-124118750D01*
X138200000Y-124606250D01*
X138198826Y-124630142D01*
X138195316Y-124653803D01*
X138189504Y-124677007D01*
X138181446Y-124699529D01*
X138171218Y-124721153D01*
X138158921Y-124741670D01*
X138144671Y-124760883D01*
X138128607Y-124778607D01*
X138110883Y-124794671D01*
X138091670Y-124808921D01*
X138071153Y-124821218D01*
X138049529Y-124831446D01*
X138027007Y-124839504D01*
X138003803Y-124845316D01*
X137980142Y-124848826D01*
X137956250Y-124850000D01*
X137043750Y-124850000D01*
X137019858Y-124848826D01*
X136996197Y-124845316D01*
X136972993Y-124839504D01*
X136950471Y-124831446D01*
X136928847Y-124821218D01*
X136908330Y-124808921D01*
X136889117Y-124794671D01*
X136871393Y-124778607D01*
X136855329Y-124760883D01*
X136841079Y-124741670D01*
X136828782Y-124721153D01*
X136818554Y-124699529D01*
X136810496Y-124677007D01*
X136804684Y-124653803D01*
X136801174Y-124630142D01*
X136800000Y-124606250D01*
X136800000Y-124118750D01*
X136801174Y-124094858D01*
X136804684Y-124071197D01*
X136810496Y-124047993D01*
X136818554Y-124025471D01*
X136828782Y-124003847D01*
X136841079Y-123983330D01*
X136855329Y-123964117D01*
X136871393Y-123946393D01*
X136889117Y-123930329D01*
X136908330Y-123916079D01*
X136928847Y-123903782D01*
X136950471Y-123893554D01*
X136972993Y-123885496D01*
X136996197Y-123879684D01*
X137019858Y-123876174D01*
X137043750Y-123875000D01*
X137956250Y-123875000D01*
X137980142Y-123876174D01*
X137980142Y-123876174D01*
G37*
D20*
X137500000Y-124362500D03*
D10*
G36*
X137980142Y-125751174D02*
G01*
X138003803Y-125754684D01*
X138027007Y-125760496D01*
X138049529Y-125768554D01*
X138071153Y-125778782D01*
X138091670Y-125791079D01*
X138110883Y-125805329D01*
X138128607Y-125821393D01*
X138144671Y-125839117D01*
X138158921Y-125858330D01*
X138171218Y-125878847D01*
X138181446Y-125900471D01*
X138189504Y-125922993D01*
X138195316Y-125946197D01*
X138198826Y-125969858D01*
X138200000Y-125993750D01*
X138200000Y-126481250D01*
X138198826Y-126505142D01*
X138195316Y-126528803D01*
X138189504Y-126552007D01*
X138181446Y-126574529D01*
X138171218Y-126596153D01*
X138158921Y-126616670D01*
X138144671Y-126635883D01*
X138128607Y-126653607D01*
X138110883Y-126669671D01*
X138091670Y-126683921D01*
X138071153Y-126696218D01*
X138049529Y-126706446D01*
X138027007Y-126714504D01*
X138003803Y-126720316D01*
X137980142Y-126723826D01*
X137956250Y-126725000D01*
X137043750Y-126725000D01*
X137019858Y-126723826D01*
X136996197Y-126720316D01*
X136972993Y-126714504D01*
X136950471Y-126706446D01*
X136928847Y-126696218D01*
X136908330Y-126683921D01*
X136889117Y-126669671D01*
X136871393Y-126653607D01*
X136855329Y-126635883D01*
X136841079Y-126616670D01*
X136828782Y-126596153D01*
X136818554Y-126574529D01*
X136810496Y-126552007D01*
X136804684Y-126528803D01*
X136801174Y-126505142D01*
X136800000Y-126481250D01*
X136800000Y-125993750D01*
X136801174Y-125969858D01*
X136804684Y-125946197D01*
X136810496Y-125922993D01*
X136818554Y-125900471D01*
X136828782Y-125878847D01*
X136841079Y-125858330D01*
X136855329Y-125839117D01*
X136871393Y-125821393D01*
X136889117Y-125805329D01*
X136908330Y-125791079D01*
X136928847Y-125778782D01*
X136950471Y-125768554D01*
X136972993Y-125760496D01*
X136996197Y-125754684D01*
X137019858Y-125751174D01*
X137043750Y-125750000D01*
X137956250Y-125750000D01*
X137980142Y-125751174D01*
X137980142Y-125751174D01*
G37*
D20*
X137500000Y-126237500D03*
D10*
G36*
X171205142Y-102101174D02*
G01*
X171228803Y-102104684D01*
X171252007Y-102110496D01*
X171274529Y-102118554D01*
X171296153Y-102128782D01*
X171316670Y-102141079D01*
X171335883Y-102155329D01*
X171353607Y-102171393D01*
X171369671Y-102189117D01*
X171383921Y-102208330D01*
X171396218Y-102228847D01*
X171406446Y-102250471D01*
X171414504Y-102272993D01*
X171420316Y-102296197D01*
X171423826Y-102319858D01*
X171425000Y-102343750D01*
X171425000Y-103256250D01*
X171423826Y-103280142D01*
X171420316Y-103303803D01*
X171414504Y-103327007D01*
X171406446Y-103349529D01*
X171396218Y-103371153D01*
X171383921Y-103391670D01*
X171369671Y-103410883D01*
X171353607Y-103428607D01*
X171335883Y-103444671D01*
X171316670Y-103458921D01*
X171296153Y-103471218D01*
X171274529Y-103481446D01*
X171252007Y-103489504D01*
X171228803Y-103495316D01*
X171205142Y-103498826D01*
X171181250Y-103500000D01*
X170693750Y-103500000D01*
X170669858Y-103498826D01*
X170646197Y-103495316D01*
X170622993Y-103489504D01*
X170600471Y-103481446D01*
X170578847Y-103471218D01*
X170558330Y-103458921D01*
X170539117Y-103444671D01*
X170521393Y-103428607D01*
X170505329Y-103410883D01*
X170491079Y-103391670D01*
X170478782Y-103371153D01*
X170468554Y-103349529D01*
X170460496Y-103327007D01*
X170454684Y-103303803D01*
X170451174Y-103280142D01*
X170450000Y-103256250D01*
X170450000Y-102343750D01*
X170451174Y-102319858D01*
X170454684Y-102296197D01*
X170460496Y-102272993D01*
X170468554Y-102250471D01*
X170478782Y-102228847D01*
X170491079Y-102208330D01*
X170505329Y-102189117D01*
X170521393Y-102171393D01*
X170539117Y-102155329D01*
X170558330Y-102141079D01*
X170578847Y-102128782D01*
X170600471Y-102118554D01*
X170622993Y-102110496D01*
X170646197Y-102104684D01*
X170669858Y-102101174D01*
X170693750Y-102100000D01*
X171181250Y-102100000D01*
X171205142Y-102101174D01*
X171205142Y-102101174D01*
G37*
D20*
X170937500Y-102800000D03*
D10*
G36*
X169330142Y-102101174D02*
G01*
X169353803Y-102104684D01*
X169377007Y-102110496D01*
X169399529Y-102118554D01*
X169421153Y-102128782D01*
X169441670Y-102141079D01*
X169460883Y-102155329D01*
X169478607Y-102171393D01*
X169494671Y-102189117D01*
X169508921Y-102208330D01*
X169521218Y-102228847D01*
X169531446Y-102250471D01*
X169539504Y-102272993D01*
X169545316Y-102296197D01*
X169548826Y-102319858D01*
X169550000Y-102343750D01*
X169550000Y-103256250D01*
X169548826Y-103280142D01*
X169545316Y-103303803D01*
X169539504Y-103327007D01*
X169531446Y-103349529D01*
X169521218Y-103371153D01*
X169508921Y-103391670D01*
X169494671Y-103410883D01*
X169478607Y-103428607D01*
X169460883Y-103444671D01*
X169441670Y-103458921D01*
X169421153Y-103471218D01*
X169399529Y-103481446D01*
X169377007Y-103489504D01*
X169353803Y-103495316D01*
X169330142Y-103498826D01*
X169306250Y-103500000D01*
X168818750Y-103500000D01*
X168794858Y-103498826D01*
X168771197Y-103495316D01*
X168747993Y-103489504D01*
X168725471Y-103481446D01*
X168703847Y-103471218D01*
X168683330Y-103458921D01*
X168664117Y-103444671D01*
X168646393Y-103428607D01*
X168630329Y-103410883D01*
X168616079Y-103391670D01*
X168603782Y-103371153D01*
X168593554Y-103349529D01*
X168585496Y-103327007D01*
X168579684Y-103303803D01*
X168576174Y-103280142D01*
X168575000Y-103256250D01*
X168575000Y-102343750D01*
X168576174Y-102319858D01*
X168579684Y-102296197D01*
X168585496Y-102272993D01*
X168593554Y-102250471D01*
X168603782Y-102228847D01*
X168616079Y-102208330D01*
X168630329Y-102189117D01*
X168646393Y-102171393D01*
X168664117Y-102155329D01*
X168683330Y-102141079D01*
X168703847Y-102128782D01*
X168725471Y-102118554D01*
X168747993Y-102110496D01*
X168771197Y-102104684D01*
X168794858Y-102101174D01*
X168818750Y-102100000D01*
X169306250Y-102100000D01*
X169330142Y-102101174D01*
X169330142Y-102101174D01*
G37*
D20*
X169062500Y-102800000D03*
M02*
