G04 #@! TF.GenerationSoftware,KiCad,Pcbnew,(5.1.0)-1*
G04 #@! TF.CreationDate,2021-02-18T11:37:16+07:00*
G04 #@! TF.ProjectId,ESP32_BoardV1,45535033-325f-4426-9f61-726456312e6b,rev?*
G04 #@! TF.SameCoordinates,Original*
G04 #@! TF.FileFunction,Legend,Top*
G04 #@! TF.FilePolarity,Positive*
%FSLAX46Y46*%
G04 Gerber Fmt 4.6, Leading zero omitted, Abs format (unit mm)*
G04 Created by KiCad (PCBNEW (5.1.0)-1) date 2021-02-18 11:37:16*
%MOMM*%
%LPD*%
G04 APERTURE LIST*
%ADD10C,0.175000*%
%ADD11C,0.250000*%
%ADD12C,0.200000*%
%ADD13C,0.300000*%
%ADD14C,0.375000*%
%ADD15C,0.120000*%
%ADD16C,0.150000*%
G04 APERTURE END LIST*
D10*
X153998265Y-116549568D02*
X153597571Y-116478858D01*
X153715422Y-116832411D02*
X153220447Y-116337436D01*
X153409009Y-116148875D01*
X153479720Y-116125304D01*
X153526860Y-116125304D01*
X153597571Y-116148875D01*
X153668282Y-116219585D01*
X153691852Y-116290296D01*
X153691852Y-116337436D01*
X153668282Y-116408147D01*
X153479720Y-116596709D01*
X154163256Y-116337436D02*
X154257537Y-116290296D01*
X154375389Y-116172445D01*
X154398959Y-116101734D01*
X154398959Y-116054594D01*
X154375389Y-115983883D01*
X154328248Y-115936743D01*
X154257537Y-115913172D01*
X154210397Y-115913172D01*
X154139686Y-115936743D01*
X154021835Y-116007453D01*
X153951124Y-116031023D01*
X153903984Y-116031023D01*
X153833273Y-116007453D01*
X153786133Y-115960313D01*
X153762563Y-115889602D01*
X153762563Y-115842462D01*
X153786133Y-115771751D01*
X153903984Y-115653900D01*
X153998265Y-115606759D01*
X154116116Y-115441768D02*
X154398959Y-115158925D01*
X154752512Y-115795321D02*
X154257537Y-115300346D01*
X154893933Y-114616810D02*
X155106066Y-115677470D01*
X155318198Y-114711091D02*
X155483189Y-114546099D01*
X155813172Y-114734661D02*
X155577470Y-114970363D01*
X155082495Y-114475389D01*
X155318198Y-114239686D01*
X156025304Y-114522529D02*
X155530330Y-114027554D01*
X156308147Y-114239686D01*
X155813172Y-113744712D01*
X156378858Y-113886133D02*
X156614560Y-113650431D01*
X156473139Y-114074695D02*
X156143155Y-113414728D01*
X156803122Y-113744712D01*
D11*
X180114285Y-129285714D02*
X180285714Y-129342857D01*
X180571428Y-129342857D01*
X180685714Y-129285714D01*
X180742857Y-129228571D01*
X180800000Y-129114285D01*
X180800000Y-129000000D01*
X180742857Y-128885714D01*
X180685714Y-128828571D01*
X180571428Y-128771428D01*
X180342857Y-128714285D01*
X180228571Y-128657142D01*
X180171428Y-128600000D01*
X180114285Y-128485714D01*
X180114285Y-128371428D01*
X180171428Y-128257142D01*
X180228571Y-128200000D01*
X180342857Y-128142857D01*
X180628571Y-128142857D01*
X180800000Y-128200000D01*
X181314285Y-128714285D02*
X181714285Y-128714285D01*
X181885714Y-129342857D02*
X181314285Y-129342857D01*
X181314285Y-128142857D01*
X181885714Y-128142857D01*
X182400000Y-129342857D02*
X182400000Y-128142857D01*
X183085714Y-129342857D01*
X183085714Y-128142857D01*
X183600000Y-129285714D02*
X183771428Y-129342857D01*
X184057142Y-129342857D01*
X184171428Y-129285714D01*
X184228571Y-129228571D01*
X184285714Y-129114285D01*
X184285714Y-129000000D01*
X184228571Y-128885714D01*
X184171428Y-128828571D01*
X184057142Y-128771428D01*
X183828571Y-128714285D01*
X183714285Y-128657142D01*
X183657142Y-128600000D01*
X183600000Y-128485714D01*
X183600000Y-128371428D01*
X183657142Y-128257142D01*
X183714285Y-128200000D01*
X183828571Y-128142857D01*
X184114285Y-128142857D01*
X184285714Y-128200000D01*
X185028571Y-128142857D02*
X185257142Y-128142857D01*
X185371428Y-128200000D01*
X185485714Y-128314285D01*
X185542857Y-128542857D01*
X185542857Y-128942857D01*
X185485714Y-129171428D01*
X185371428Y-129285714D01*
X185257142Y-129342857D01*
X185028571Y-129342857D01*
X184914285Y-129285714D01*
X184800000Y-129171428D01*
X184742857Y-128942857D01*
X184742857Y-128542857D01*
X184800000Y-128314285D01*
X184914285Y-128200000D01*
X185028571Y-128142857D01*
X186742857Y-129342857D02*
X186342857Y-128771428D01*
X186057142Y-129342857D02*
X186057142Y-128142857D01*
X186514285Y-128142857D01*
X186628571Y-128200000D01*
X186685714Y-128257142D01*
X186742857Y-128371428D01*
X186742857Y-128542857D01*
X186685714Y-128657142D01*
X186628571Y-128714285D01*
X186514285Y-128771428D01*
X186057142Y-128771428D01*
X188400000Y-128142857D02*
X188628571Y-128142857D01*
X188742857Y-128200000D01*
X188857142Y-128314285D01*
X188914285Y-128542857D01*
X188914285Y-128942857D01*
X188857142Y-129171428D01*
X188742857Y-129285714D01*
X188628571Y-129342857D01*
X188400000Y-129342857D01*
X188285714Y-129285714D01*
X188171428Y-129171428D01*
X188114285Y-128942857D01*
X188114285Y-128542857D01*
X188171428Y-128314285D01*
X188285714Y-128200000D01*
X188400000Y-128142857D01*
X189428571Y-128142857D02*
X189428571Y-129114285D01*
X189485714Y-129228571D01*
X189542857Y-129285714D01*
X189657142Y-129342857D01*
X189885714Y-129342857D01*
X190000000Y-129285714D01*
X190057142Y-129228571D01*
X190114285Y-129114285D01*
X190114285Y-128142857D01*
X190514285Y-128142857D02*
X191200000Y-128142857D01*
X190857142Y-129342857D02*
X190857142Y-128142857D01*
D12*
X156203663Y-93000076D02*
X155425845Y-92222259D01*
X155944390Y-91703714D02*
X156092546Y-91555558D01*
X156203663Y-91518519D01*
X156351818Y-91518519D01*
X156537013Y-91629636D01*
X156796285Y-91888908D01*
X156907402Y-92074103D01*
X156907402Y-92222259D01*
X156870363Y-92333375D01*
X156722208Y-92481531D01*
X156611091Y-92518570D01*
X156462935Y-92518570D01*
X156277740Y-92407453D01*
X156018468Y-92148181D01*
X155907351Y-91962986D01*
X155907351Y-91814830D01*
X155944390Y-91703714D01*
X157796336Y-91407402D02*
X157351869Y-91851869D01*
X157574103Y-91629636D02*
X156796285Y-90851818D01*
X156833324Y-91037013D01*
X156833324Y-91185169D01*
X156796285Y-91296285D01*
X157722259Y-89925845D02*
X157351869Y-90296234D01*
X157685220Y-90703663D01*
X157685220Y-90629585D01*
X157722259Y-90518468D01*
X157907453Y-90333273D01*
X158018570Y-90296234D01*
X158092648Y-90296234D01*
X158203765Y-90333273D01*
X158388959Y-90518468D01*
X158425998Y-90629585D01*
X158425998Y-90703663D01*
X158388959Y-90814779D01*
X158203765Y-90999974D01*
X158092648Y-91037013D01*
X158018570Y-91037013D01*
X153703663Y-93000076D02*
X152925845Y-92222259D01*
X153444390Y-91703714D02*
X153592546Y-91555558D01*
X153703663Y-91518519D01*
X153851818Y-91518519D01*
X154037013Y-91629636D01*
X154296285Y-91888908D01*
X154407402Y-92074103D01*
X154407402Y-92222259D01*
X154370363Y-92333375D01*
X154222208Y-92481531D01*
X154111091Y-92518570D01*
X153962935Y-92518570D01*
X153777740Y-92407453D01*
X153518468Y-92148181D01*
X153407351Y-91962986D01*
X153407351Y-91814830D01*
X153444390Y-91703714D01*
X155296336Y-91407402D02*
X154851869Y-91851869D01*
X155074103Y-91629636D02*
X154296285Y-90851818D01*
X154333324Y-91037013D01*
X154333324Y-91185169D01*
X154296285Y-91296285D01*
X155185220Y-89962884D02*
X155037064Y-90111040D01*
X155000025Y-90222157D01*
X155000025Y-90296234D01*
X155037064Y-90481429D01*
X155148181Y-90666624D01*
X155444492Y-90962935D01*
X155555609Y-90999974D01*
X155629687Y-90999974D01*
X155740804Y-90962935D01*
X155888959Y-90814779D01*
X155925998Y-90703663D01*
X155925998Y-90629585D01*
X155888959Y-90518468D01*
X155703765Y-90333273D01*
X155592648Y-90296234D01*
X155518570Y-90296234D01*
X155407453Y-90333273D01*
X155259297Y-90481429D01*
X155222259Y-90592546D01*
X155222259Y-90666624D01*
X155259297Y-90777740D01*
X151203663Y-93000076D02*
X150425845Y-92222259D01*
X150944390Y-91703714D02*
X151092546Y-91555558D01*
X151203663Y-91518519D01*
X151351818Y-91518519D01*
X151537013Y-91629636D01*
X151796285Y-91888908D01*
X151907402Y-92074103D01*
X151907402Y-92222259D01*
X151870363Y-92333375D01*
X151722208Y-92481531D01*
X151611091Y-92518570D01*
X151462935Y-92518570D01*
X151277740Y-92407453D01*
X151018468Y-92148181D01*
X150907351Y-91962986D01*
X150907351Y-91814830D01*
X150944390Y-91703714D01*
X152796336Y-91407402D02*
X152351869Y-91851869D01*
X152574103Y-91629636D02*
X151796285Y-90851818D01*
X151833324Y-91037013D01*
X151833324Y-91185169D01*
X151796285Y-91296285D01*
X152277791Y-90370312D02*
X152796336Y-89851767D01*
X153240804Y-90962935D01*
X148703663Y-93000076D02*
X147925845Y-92222259D01*
X148444390Y-91703714D02*
X148592546Y-91555558D01*
X148703663Y-91518519D01*
X148851818Y-91518519D01*
X149037013Y-91629636D01*
X149296285Y-91888908D01*
X149407402Y-92074103D01*
X149407402Y-92222259D01*
X149370363Y-92333375D01*
X149222208Y-92481531D01*
X149111091Y-92518570D01*
X148962935Y-92518570D01*
X148777740Y-92407453D01*
X148518468Y-92148181D01*
X148407351Y-91962986D01*
X148407351Y-91814830D01*
X148444390Y-91703714D01*
X150296336Y-91407402D02*
X149851869Y-91851869D01*
X150074103Y-91629636D02*
X149296285Y-90851818D01*
X149333324Y-91037013D01*
X149333324Y-91185169D01*
X149296285Y-91296285D01*
X150296336Y-90518468D02*
X150185220Y-90555507D01*
X150111142Y-90555507D01*
X150000025Y-90518468D01*
X149962986Y-90481429D01*
X149925947Y-90370312D01*
X149925947Y-90296234D01*
X149962986Y-90185118D01*
X150111142Y-90036962D01*
X150222259Y-89999923D01*
X150296336Y-89999923D01*
X150407453Y-90036962D01*
X150444492Y-90074001D01*
X150481531Y-90185118D01*
X150481531Y-90259195D01*
X150444492Y-90370312D01*
X150296336Y-90518468D01*
X150259297Y-90629585D01*
X150259297Y-90703663D01*
X150296336Y-90814779D01*
X150444492Y-90962935D01*
X150555609Y-90999974D01*
X150629687Y-90999974D01*
X150740804Y-90962935D01*
X150888959Y-90814779D01*
X150925998Y-90703663D01*
X150925998Y-90629585D01*
X150888959Y-90518468D01*
X150740804Y-90370312D01*
X150629687Y-90333273D01*
X150555609Y-90333273D01*
X150444492Y-90370312D01*
X146203663Y-93000076D02*
X145425845Y-92222259D01*
X145944390Y-91703714D02*
X146092546Y-91555558D01*
X146203663Y-91518519D01*
X146351818Y-91518519D01*
X146537013Y-91629636D01*
X146796285Y-91888908D01*
X146907402Y-92074103D01*
X146907402Y-92222259D01*
X146870363Y-92333375D01*
X146722208Y-92481531D01*
X146611091Y-92518570D01*
X146462935Y-92518570D01*
X146277740Y-92407453D01*
X146018468Y-92148181D01*
X145907351Y-91962986D01*
X145907351Y-91814830D01*
X145944390Y-91703714D01*
X147796336Y-91407402D02*
X147351869Y-91851869D01*
X147574103Y-91629636D02*
X146796285Y-90851818D01*
X146833324Y-91037013D01*
X146833324Y-91185169D01*
X146796285Y-91296285D01*
X148166726Y-91037013D02*
X148314881Y-90888857D01*
X148351920Y-90777740D01*
X148351920Y-90703663D01*
X148314881Y-90518468D01*
X148203765Y-90333273D01*
X147907453Y-90036962D01*
X147796336Y-89999923D01*
X147722259Y-89999923D01*
X147611142Y-90036962D01*
X147462986Y-90185118D01*
X147425947Y-90296234D01*
X147425947Y-90370312D01*
X147462986Y-90481429D01*
X147648181Y-90666624D01*
X147759297Y-90703663D01*
X147833375Y-90703663D01*
X147944492Y-90666624D01*
X148092648Y-90518468D01*
X148129687Y-90407351D01*
X148129687Y-90333273D01*
X148092648Y-90222157D01*
X143703663Y-93000076D02*
X142925845Y-92222259D01*
X143444390Y-91703714D02*
X143592546Y-91555558D01*
X143703663Y-91518519D01*
X143851818Y-91518519D01*
X144037013Y-91629636D01*
X144296285Y-91888908D01*
X144407402Y-92074103D01*
X144407402Y-92222259D01*
X144370363Y-92333375D01*
X144222208Y-92481531D01*
X144111091Y-92518570D01*
X143962935Y-92518570D01*
X143777740Y-92407453D01*
X143518468Y-92148181D01*
X143407351Y-91962986D01*
X143407351Y-91814830D01*
X143444390Y-91703714D01*
X144148130Y-91148130D02*
X144148130Y-91074052D01*
X144185169Y-90962935D01*
X144370363Y-90777740D01*
X144481480Y-90740702D01*
X144555558Y-90740702D01*
X144666675Y-90777740D01*
X144740753Y-90851818D01*
X144814830Y-90999974D01*
X144814830Y-91888908D01*
X145296336Y-91407402D01*
X146037115Y-90666624D02*
X145592648Y-91111091D01*
X145814881Y-90888857D02*
X145037064Y-90111040D01*
X145074103Y-90296234D01*
X145074103Y-90444390D01*
X145037064Y-90555507D01*
X141203663Y-93000076D02*
X140425845Y-92222259D01*
X140944390Y-91703714D02*
X141092546Y-91555558D01*
X141203663Y-91518519D01*
X141351818Y-91518519D01*
X141537013Y-91629636D01*
X141796285Y-91888908D01*
X141907402Y-92074103D01*
X141907402Y-92222259D01*
X141870363Y-92333375D01*
X141722208Y-92481531D01*
X141611091Y-92518570D01*
X141462935Y-92518570D01*
X141277740Y-92407453D01*
X141018468Y-92148181D01*
X140907351Y-91962986D01*
X140907351Y-91814830D01*
X140944390Y-91703714D01*
X141648130Y-91148130D02*
X141648130Y-91074052D01*
X141685169Y-90962935D01*
X141870363Y-90777740D01*
X141981480Y-90740702D01*
X142055558Y-90740702D01*
X142166675Y-90777740D01*
X142240753Y-90851818D01*
X142314830Y-90999974D01*
X142314830Y-91888908D01*
X142796336Y-91407402D01*
X142388908Y-90407351D02*
X142388908Y-90333273D01*
X142425947Y-90222157D01*
X142611142Y-90036962D01*
X142722259Y-89999923D01*
X142796336Y-89999923D01*
X142907453Y-90036962D01*
X142981531Y-90111040D01*
X143055609Y-90259195D01*
X143055609Y-91148130D01*
X143537115Y-90666624D01*
X139074052Y-92629687D02*
X138296234Y-91851869D01*
X138814779Y-91333324D02*
X138962935Y-91185169D01*
X139074052Y-91148130D01*
X139222208Y-91148130D01*
X139407402Y-91259246D01*
X139666675Y-91518519D01*
X139777791Y-91703714D01*
X139777791Y-91851869D01*
X139740753Y-91962986D01*
X139592597Y-92111142D01*
X139481480Y-92148181D01*
X139333324Y-92148181D01*
X139148130Y-92037064D01*
X138888857Y-91777791D01*
X138777740Y-91592597D01*
X138777740Y-91444441D01*
X138814779Y-91333324D01*
X139518519Y-90777740D02*
X139518519Y-90703663D01*
X139555558Y-90592546D01*
X139740753Y-90407351D01*
X139851869Y-90370312D01*
X139925947Y-90370312D01*
X140037064Y-90407351D01*
X140111142Y-90481429D01*
X140185220Y-90629585D01*
X140185220Y-91518519D01*
X140666726Y-91037013D01*
X136018468Y-91703714D02*
X135907351Y-91740753D01*
X135796234Y-91851869D01*
X135722157Y-92000025D01*
X135722157Y-92148181D01*
X135759195Y-92259297D01*
X135870312Y-92444492D01*
X135981429Y-92555609D01*
X136166624Y-92666726D01*
X136277740Y-92703765D01*
X136425896Y-92703765D01*
X136574052Y-92629687D01*
X136648130Y-92555609D01*
X136722208Y-92407453D01*
X136722208Y-92333375D01*
X136462935Y-92074103D01*
X136314779Y-92222259D01*
X137129636Y-92074103D02*
X136351818Y-91296285D01*
X137574103Y-91629636D01*
X136796285Y-90851818D01*
X137944492Y-91259246D02*
X137166675Y-90481429D01*
X137351869Y-90296234D01*
X137500025Y-90222157D01*
X137648181Y-90222157D01*
X137759297Y-90259195D01*
X137944492Y-90370312D01*
X138055609Y-90481429D01*
X138166726Y-90666624D01*
X138203765Y-90777740D01*
X138203765Y-90925896D01*
X138129687Y-91074052D01*
X137944492Y-91259246D01*
X133925896Y-91222208D02*
X133555507Y-91592597D01*
X133888857Y-92000025D01*
X133888857Y-91925947D01*
X133925896Y-91814830D01*
X134111091Y-91629636D01*
X134222208Y-91592597D01*
X134296285Y-91592597D01*
X134407402Y-91629636D01*
X134592597Y-91814830D01*
X134629636Y-91925947D01*
X134629636Y-92000025D01*
X134592597Y-92111142D01*
X134407402Y-92296336D01*
X134296285Y-92333375D01*
X134222208Y-92333375D01*
X134185169Y-90962935D02*
X135222259Y-91481480D01*
X134703714Y-90444390D01*
X156303663Y-135600076D02*
X155525845Y-134822259D01*
X156044390Y-134303714D02*
X156192546Y-134155558D01*
X156303663Y-134118519D01*
X156451818Y-134118519D01*
X156637013Y-134229636D01*
X156896285Y-134488908D01*
X157007402Y-134674103D01*
X157007402Y-134822259D01*
X156970363Y-134933375D01*
X156822208Y-135081531D01*
X156711091Y-135118570D01*
X156562935Y-135118570D01*
X156377740Y-135007453D01*
X156118468Y-134748181D01*
X156007351Y-134562986D01*
X156007351Y-134414830D01*
X156044390Y-134303714D01*
X157896336Y-134007402D02*
X157451869Y-134451869D01*
X157674103Y-134229636D02*
X156896285Y-133451818D01*
X156933324Y-133637013D01*
X156933324Y-133785169D01*
X156896285Y-133896285D01*
X157488908Y-133007351D02*
X157488908Y-132933273D01*
X157525947Y-132822157D01*
X157711142Y-132636962D01*
X157822259Y-132599923D01*
X157896336Y-132599923D01*
X158007453Y-132636962D01*
X158081531Y-132711040D01*
X158155609Y-132859195D01*
X158155609Y-133748130D01*
X158637115Y-133266624D01*
X153603663Y-135400076D02*
X152825845Y-134622259D01*
X153344390Y-134103714D02*
X153492546Y-133955558D01*
X153603663Y-133918519D01*
X153751818Y-133918519D01*
X153937013Y-134029636D01*
X154196285Y-134288908D01*
X154307402Y-134474103D01*
X154307402Y-134622259D01*
X154270363Y-134733375D01*
X154122208Y-134881531D01*
X154011091Y-134918570D01*
X153862935Y-134918570D01*
X153677740Y-134807453D01*
X153418468Y-134548181D01*
X153307351Y-134362986D01*
X153307351Y-134214830D01*
X153344390Y-134103714D01*
X155196336Y-133807402D02*
X154751869Y-134251869D01*
X154974103Y-134029636D02*
X154196285Y-133251818D01*
X154233324Y-133437013D01*
X154233324Y-133585169D01*
X154196285Y-133696285D01*
X155344492Y-132622157D02*
X155863037Y-133140702D01*
X154862986Y-132511040D02*
X155233375Y-133251818D01*
X155714881Y-132770312D01*
X151103663Y-135400076D02*
X150325845Y-134622259D01*
X150844390Y-134103714D02*
X150992546Y-133955558D01*
X151103663Y-133918519D01*
X151251818Y-133918519D01*
X151437013Y-134029636D01*
X151696285Y-134288908D01*
X151807402Y-134474103D01*
X151807402Y-134622259D01*
X151770363Y-134733375D01*
X151622208Y-134881531D01*
X151511091Y-134918570D01*
X151362935Y-134918570D01*
X151177740Y-134807453D01*
X150918468Y-134548181D01*
X150807351Y-134362986D01*
X150807351Y-134214830D01*
X150844390Y-134103714D01*
X151548130Y-133548130D02*
X151548130Y-133474052D01*
X151585169Y-133362935D01*
X151770363Y-133177740D01*
X151881480Y-133140702D01*
X151955558Y-133140702D01*
X152066675Y-133177740D01*
X152140753Y-133251818D01*
X152214830Y-133399974D01*
X152214830Y-134288908D01*
X152696336Y-133807402D01*
X152622259Y-132325845D02*
X152251869Y-132696234D01*
X152585220Y-133103663D01*
X152585220Y-133029585D01*
X152622259Y-132918468D01*
X152807453Y-132733273D01*
X152918570Y-132696234D01*
X152992648Y-132696234D01*
X153103765Y-132733273D01*
X153288959Y-132918468D01*
X153325998Y-133029585D01*
X153325998Y-133103663D01*
X153288959Y-133214779D01*
X153103765Y-133399974D01*
X152992648Y-133437013D01*
X152918570Y-133437013D01*
X148503663Y-135400076D02*
X147725845Y-134622259D01*
X148244390Y-134103714D02*
X148392546Y-133955558D01*
X148503663Y-133918519D01*
X148651818Y-133918519D01*
X148837013Y-134029636D01*
X149096285Y-134288908D01*
X149207402Y-134474103D01*
X149207402Y-134622259D01*
X149170363Y-134733375D01*
X149022208Y-134881531D01*
X148911091Y-134918570D01*
X148762935Y-134918570D01*
X148577740Y-134807453D01*
X148318468Y-134548181D01*
X148207351Y-134362986D01*
X148207351Y-134214830D01*
X148244390Y-134103714D01*
X148837013Y-133511091D02*
X149318519Y-133029585D01*
X149355558Y-133585169D01*
X149466675Y-133474052D01*
X149577791Y-133437013D01*
X149651869Y-133437013D01*
X149762986Y-133474052D01*
X149948181Y-133659246D01*
X149985220Y-133770363D01*
X149985220Y-133844441D01*
X149948181Y-133955558D01*
X149725947Y-134177791D01*
X149614830Y-134214830D01*
X149540753Y-134214830D01*
X149577791Y-132770312D02*
X150059297Y-132288806D01*
X150096336Y-132844390D01*
X150207453Y-132733273D01*
X150318570Y-132696234D01*
X150392648Y-132696234D01*
X150503765Y-132733273D01*
X150688959Y-132918468D01*
X150725998Y-133029585D01*
X150725998Y-133103663D01*
X150688959Y-133214779D01*
X150466726Y-133437013D01*
X150355609Y-133474052D01*
X150281531Y-133474052D01*
X146103663Y-135400076D02*
X145325845Y-134622259D01*
X145844390Y-134103714D02*
X145992546Y-133955558D01*
X146103663Y-133918519D01*
X146251818Y-133918519D01*
X146437013Y-134029636D01*
X146696285Y-134288908D01*
X146807402Y-134474103D01*
X146807402Y-134622259D01*
X146770363Y-134733375D01*
X146622208Y-134881531D01*
X146511091Y-134918570D01*
X146362935Y-134918570D01*
X146177740Y-134807453D01*
X145918468Y-134548181D01*
X145807351Y-134362986D01*
X145807351Y-134214830D01*
X145844390Y-134103714D01*
X146437013Y-133511091D02*
X146918519Y-133029585D01*
X146955558Y-133585169D01*
X147066675Y-133474052D01*
X147177791Y-133437013D01*
X147251869Y-133437013D01*
X147362986Y-133474052D01*
X147548181Y-133659246D01*
X147585220Y-133770363D01*
X147585220Y-133844441D01*
X147548181Y-133955558D01*
X147325947Y-134177791D01*
X147214830Y-134214830D01*
X147140753Y-134214830D01*
X147288908Y-132807351D02*
X147288908Y-132733273D01*
X147325947Y-132622157D01*
X147511142Y-132436962D01*
X147622259Y-132399923D01*
X147696336Y-132399923D01*
X147807453Y-132436962D01*
X147881531Y-132511040D01*
X147955609Y-132659195D01*
X147955609Y-133548130D01*
X148437115Y-133066624D01*
X143503663Y-135400076D02*
X142725845Y-134622259D01*
X143244390Y-134103714D02*
X143392546Y-133955558D01*
X143503663Y-133918519D01*
X143651818Y-133918519D01*
X143837013Y-134029636D01*
X144096285Y-134288908D01*
X144207402Y-134474103D01*
X144207402Y-134622259D01*
X144170363Y-134733375D01*
X144022208Y-134881531D01*
X143911091Y-134918570D01*
X143762935Y-134918570D01*
X143577740Y-134807453D01*
X143318468Y-134548181D01*
X143207351Y-134362986D01*
X143207351Y-134214830D01*
X143244390Y-134103714D01*
X143837013Y-133511091D02*
X144318519Y-133029585D01*
X144355558Y-133585169D01*
X144466675Y-133474052D01*
X144577791Y-133437013D01*
X144651869Y-133437013D01*
X144762986Y-133474052D01*
X144948181Y-133659246D01*
X144985220Y-133770363D01*
X144985220Y-133844441D01*
X144948181Y-133955558D01*
X144725947Y-134177791D01*
X144614830Y-134214830D01*
X144540753Y-134214830D01*
X145466726Y-133437013D02*
X145614881Y-133288857D01*
X145651920Y-133177740D01*
X145651920Y-133103663D01*
X145614881Y-132918468D01*
X145503765Y-132733273D01*
X145207453Y-132436962D01*
X145096336Y-132399923D01*
X145022259Y-132399923D01*
X144911142Y-132436962D01*
X144762986Y-132585118D01*
X144725947Y-132696234D01*
X144725947Y-132770312D01*
X144762986Y-132881429D01*
X144948181Y-133066624D01*
X145059297Y-133103663D01*
X145133375Y-133103663D01*
X145244492Y-133066624D01*
X145392648Y-132918468D01*
X145429687Y-132807351D01*
X145429687Y-132733273D01*
X145392648Y-132622157D01*
X141003663Y-135400076D02*
X140225845Y-134622259D01*
X140744390Y-134103714D02*
X140892546Y-133955558D01*
X141003663Y-133918519D01*
X141151818Y-133918519D01*
X141337013Y-134029636D01*
X141596285Y-134288908D01*
X141707402Y-134474103D01*
X141707402Y-134622259D01*
X141670363Y-134733375D01*
X141522208Y-134881531D01*
X141411091Y-134918570D01*
X141262935Y-134918570D01*
X141077740Y-134807453D01*
X140818468Y-134548181D01*
X140707351Y-134362986D01*
X140707351Y-134214830D01*
X140744390Y-134103714D01*
X141337013Y-133511091D02*
X141818519Y-133029585D01*
X141855558Y-133585169D01*
X141966675Y-133474052D01*
X142077791Y-133437013D01*
X142151869Y-133437013D01*
X142262986Y-133474052D01*
X142448181Y-133659246D01*
X142485220Y-133770363D01*
X142485220Y-133844441D01*
X142448181Y-133955558D01*
X142225947Y-134177791D01*
X142114830Y-134214830D01*
X142040753Y-134214830D01*
X142485220Y-132362884D02*
X142337064Y-132511040D01*
X142300025Y-132622157D01*
X142300025Y-132696234D01*
X142337064Y-132881429D01*
X142448181Y-133066624D01*
X142744492Y-133362935D01*
X142855609Y-133399974D01*
X142929687Y-133399974D01*
X143040804Y-133362935D01*
X143188959Y-133214779D01*
X143225998Y-133103663D01*
X143225998Y-133029585D01*
X143188959Y-132918468D01*
X143003765Y-132733273D01*
X142892648Y-132696234D01*
X142818570Y-132696234D01*
X142707453Y-132733273D01*
X142559297Y-132881429D01*
X142522259Y-132992546D01*
X142522259Y-133066624D01*
X142559297Y-133177740D01*
X138518468Y-133703714D02*
X138407351Y-133740753D01*
X138296234Y-133851869D01*
X138222157Y-134000025D01*
X138222157Y-134148181D01*
X138259195Y-134259297D01*
X138370312Y-134444492D01*
X138481429Y-134555609D01*
X138666624Y-134666726D01*
X138777740Y-134703765D01*
X138925896Y-134703765D01*
X139074052Y-134629687D01*
X139148130Y-134555609D01*
X139222208Y-134407453D01*
X139222208Y-134333375D01*
X138962935Y-134074103D01*
X138814779Y-134222259D01*
X139629636Y-134074103D02*
X138851818Y-133296285D01*
X140074103Y-133629636D01*
X139296285Y-132851818D01*
X140444492Y-133259246D02*
X139666675Y-132481429D01*
X139851869Y-132296234D01*
X140000025Y-132222157D01*
X140148181Y-132222157D01*
X140259297Y-132259195D01*
X140444492Y-132370312D01*
X140555609Y-132481429D01*
X140666726Y-132666624D01*
X140703765Y-132777740D01*
X140703765Y-132925896D01*
X140629687Y-133074052D01*
X140444492Y-133259246D01*
X134925845Y-134472259D02*
X135407351Y-133990753D01*
X135444390Y-134546336D01*
X135555507Y-134435220D01*
X135666624Y-134398181D01*
X135740702Y-134398181D01*
X135851818Y-134435220D01*
X136037013Y-134620414D01*
X136074052Y-134731531D01*
X136074052Y-134805609D01*
X136037013Y-134916726D01*
X135814779Y-135138959D01*
X135703663Y-135175998D01*
X135629585Y-135175998D01*
X136444441Y-134361142D02*
X136518519Y-134361142D01*
X136518519Y-134435220D01*
X136444441Y-134435220D01*
X136444441Y-134361142D01*
X136518519Y-134435220D01*
X136037013Y-133361091D02*
X136518519Y-132879585D01*
X136555558Y-133435169D01*
X136666675Y-133324052D01*
X136777791Y-133287013D01*
X136851869Y-133287013D01*
X136962986Y-133324052D01*
X137148181Y-133509246D01*
X137185220Y-133620363D01*
X137185220Y-133694441D01*
X137148181Y-133805558D01*
X136925947Y-134027791D01*
X136814830Y-134064830D01*
X136740753Y-134064830D01*
X136740753Y-132657351D02*
X137777842Y-133175896D01*
X137259297Y-132138806D01*
X133425896Y-133222208D02*
X133055507Y-133592597D01*
X133388857Y-134000025D01*
X133388857Y-133925947D01*
X133425896Y-133814830D01*
X133611091Y-133629636D01*
X133722208Y-133592597D01*
X133796285Y-133592597D01*
X133907402Y-133629636D01*
X134092597Y-133814830D01*
X134129636Y-133925947D01*
X134129636Y-134000025D01*
X134092597Y-134111142D01*
X133907402Y-134296336D01*
X133796285Y-134333375D01*
X133722208Y-134333375D01*
X133685169Y-132962935D02*
X134722259Y-133481480D01*
X134203714Y-132444390D01*
D13*
X198428571Y-127678571D02*
X197571428Y-127678571D01*
X198000000Y-127678571D02*
X198000000Y-126178571D01*
X197857142Y-126392857D01*
X197714285Y-126535714D01*
X197571428Y-126607142D01*
D14*
X206500000Y-111848477D02*
X206702030Y-111747461D01*
X206803045Y-111747461D01*
X206954568Y-111797969D01*
X207106091Y-111949492D01*
X207156599Y-112101015D01*
X207156599Y-112202030D01*
X207106091Y-112353553D01*
X206702030Y-112757614D01*
X205641370Y-111696954D01*
X205994923Y-111343400D01*
X206146446Y-111292893D01*
X206247461Y-111292893D01*
X206398984Y-111343400D01*
X206500000Y-111444416D01*
X206550507Y-111595938D01*
X206550507Y-111696954D01*
X206500000Y-111848477D01*
X206146446Y-112202030D01*
X206424238Y-115929314D02*
X206929314Y-115424238D01*
X206626269Y-116333375D02*
X205919162Y-114919162D01*
X207333375Y-115626269D01*
X204711547Y-119677791D02*
X204560024Y-119728299D01*
X204408502Y-119879822D01*
X204307486Y-120081852D01*
X204307486Y-120283883D01*
X204357994Y-120435406D01*
X204509517Y-120687944D01*
X204661040Y-120839467D01*
X204913578Y-120990990D01*
X205065101Y-121041497D01*
X205267131Y-121041497D01*
X205469162Y-120940482D01*
X205570177Y-120839467D01*
X205671192Y-120637436D01*
X205671192Y-120536421D01*
X205317639Y-120182868D01*
X205115608Y-120384898D01*
X206226776Y-120182868D02*
X205166116Y-119122208D01*
X206832868Y-119576776D01*
X205772208Y-118516116D01*
X207337944Y-119071700D02*
X206277284Y-118011040D01*
X206529822Y-117758502D01*
X206731852Y-117657486D01*
X206933883Y-117657486D01*
X207085406Y-117707994D01*
X207337944Y-117859517D01*
X207489467Y-118011040D01*
X207640990Y-118263578D01*
X207691497Y-118415101D01*
X207691497Y-118617131D01*
X207590482Y-118819162D01*
X207337944Y-119071700D01*
D12*
X154718468Y-120003714D02*
X154607351Y-120040753D01*
X154496234Y-120151869D01*
X154422157Y-120300025D01*
X154422157Y-120448181D01*
X154459195Y-120559297D01*
X154570312Y-120744492D01*
X154681429Y-120855609D01*
X154866624Y-120966726D01*
X154977740Y-121003765D01*
X155125896Y-121003765D01*
X155274052Y-120929687D01*
X155348130Y-120855609D01*
X155422208Y-120707453D01*
X155422208Y-120633375D01*
X155162935Y-120374103D01*
X155014779Y-120522259D01*
X155829636Y-120374103D02*
X155051818Y-119596285D01*
X156274103Y-119929636D01*
X155496285Y-119151818D01*
X156644492Y-119559246D02*
X155866675Y-118781429D01*
X156051869Y-118596234D01*
X156200025Y-118522157D01*
X156348181Y-118522157D01*
X156459297Y-118559195D01*
X156644492Y-118670312D01*
X156755609Y-118781429D01*
X156866726Y-118966624D01*
X156903765Y-119077740D01*
X156903765Y-119225896D01*
X156829687Y-119374052D01*
X156644492Y-119559246D01*
X154125845Y-117522259D02*
X154607351Y-117040753D01*
X154644390Y-117596336D01*
X154755507Y-117485220D01*
X154866624Y-117448181D01*
X154940702Y-117448181D01*
X155051818Y-117485220D01*
X155237013Y-117670414D01*
X155274052Y-117781531D01*
X155274052Y-117855609D01*
X155237013Y-117966726D01*
X155014779Y-118188959D01*
X154903663Y-118225998D01*
X154829585Y-118225998D01*
X155644441Y-117411142D02*
X155718519Y-117411142D01*
X155718519Y-117485220D01*
X155644441Y-117485220D01*
X155644441Y-117411142D01*
X155718519Y-117485220D01*
X155237013Y-116411091D02*
X155718519Y-115929585D01*
X155755558Y-116485169D01*
X155866675Y-116374052D01*
X155977791Y-116337013D01*
X156051869Y-116337013D01*
X156162986Y-116374052D01*
X156348181Y-116559246D01*
X156385220Y-116670363D01*
X156385220Y-116744441D01*
X156348181Y-116855558D01*
X156125947Y-117077791D01*
X156014830Y-117114830D01*
X155940753Y-117114830D01*
X155940753Y-115707351D02*
X156977842Y-116225896D01*
X156459297Y-115188806D01*
X155925922Y-112277817D02*
X155296260Y-112166700D01*
X155481455Y-112722284D02*
X154703637Y-111944467D01*
X154999948Y-111648155D01*
X155111065Y-111611116D01*
X155185143Y-111611116D01*
X155296260Y-111648155D01*
X155407377Y-111759272D01*
X155444416Y-111870389D01*
X155444416Y-111944467D01*
X155407377Y-112055583D01*
X155111065Y-112351895D01*
X155370338Y-111277766D02*
X155814805Y-110833299D01*
X156370389Y-111833350D02*
X155592571Y-111055532D01*
X156777817Y-111351844D02*
X156925973Y-111277766D01*
X157111167Y-111092571D01*
X157148206Y-110981455D01*
X157148206Y-110907377D01*
X157111167Y-110796260D01*
X157037089Y-110722182D01*
X156925973Y-110685143D01*
X156851895Y-110685143D01*
X156740778Y-110722182D01*
X156555583Y-110833299D01*
X156444467Y-110870338D01*
X156370389Y-110870338D01*
X156259272Y-110833299D01*
X156185194Y-110759221D01*
X156148155Y-110648104D01*
X156148155Y-110574026D01*
X156185194Y-110462910D01*
X156370389Y-110277715D01*
X156518544Y-110203637D01*
X155462935Y-110240804D02*
X154685118Y-109462986D01*
X154870312Y-109277791D01*
X155018468Y-109203714D01*
X155166624Y-109203714D01*
X155277740Y-109240753D01*
X155462935Y-109351869D01*
X155574052Y-109462986D01*
X155685169Y-109648181D01*
X155722208Y-109759297D01*
X155722208Y-109907453D01*
X155648130Y-110055609D01*
X155462935Y-110240804D01*
X155351818Y-108796285D02*
X155796285Y-108351818D01*
X156351869Y-109351869D02*
X155574052Y-108574052D01*
X157277842Y-108425896D02*
X156648181Y-108314779D01*
X156833375Y-108870363D02*
X156055558Y-108092546D01*
X156351869Y-107796234D01*
X156462986Y-107759195D01*
X156537064Y-107759195D01*
X156648181Y-107796234D01*
X156759297Y-107907351D01*
X156796336Y-108018468D01*
X156796336Y-108092546D01*
X156759297Y-108203663D01*
X156462986Y-108499974D01*
X154992520Y-107055583D02*
X155436987Y-106611116D01*
X155992571Y-107611167D02*
X155214754Y-106833350D01*
X155622182Y-106425922D02*
X156918544Y-106685194D01*
X156140727Y-105907377D02*
X156400000Y-107203739D01*
X157214856Y-106388883D02*
X156437038Y-105611065D01*
X156622233Y-105425871D01*
X156770389Y-105351793D01*
X156918544Y-105351793D01*
X157029661Y-105388832D01*
X157214856Y-105499948D01*
X157325973Y-105611065D01*
X157437089Y-105796260D01*
X157474128Y-105907377D01*
X157474128Y-106055532D01*
X157400051Y-106203688D01*
X157214856Y-106388883D01*
X155833324Y-104870414D02*
X155203663Y-104759297D01*
X155388857Y-105314881D02*
X154611040Y-104537064D01*
X154907351Y-104240753D01*
X155018468Y-104203714D01*
X155092546Y-104203714D01*
X155203663Y-104240753D01*
X155314779Y-104351869D01*
X155351818Y-104462986D01*
X155351818Y-104537064D01*
X155314779Y-104648181D01*
X155018468Y-104944492D01*
X155314779Y-103833324D02*
X156611142Y-104092597D01*
X155833324Y-103314779D02*
X156092597Y-104611142D01*
X156907453Y-103796285D02*
X156129636Y-103018468D01*
X156314830Y-102833273D01*
X156462986Y-102759195D01*
X156611142Y-102759195D01*
X156722259Y-102796234D01*
X156907453Y-102907351D01*
X157018570Y-103018468D01*
X157129687Y-103203663D01*
X157166726Y-103314779D01*
X157166726Y-103462935D01*
X157092648Y-103611091D01*
X156907453Y-103796285D01*
D15*
X188010000Y-98250000D02*
X188010000Y-94040000D01*
X188010000Y-94040000D02*
X184990000Y-94040000D01*
X184990000Y-94040000D02*
X184990000Y-98250000D01*
X189750000Y-99850000D02*
X189750000Y-104150000D01*
X189750000Y-104150000D02*
X195450000Y-104150000D01*
X189750000Y-99850000D02*
X195450000Y-99850000D01*
X204360000Y-115380000D02*
X204360000Y-114450000D01*
X204360000Y-112220000D02*
X204360000Y-113150000D01*
X204360000Y-112220000D02*
X202200000Y-112220000D01*
X204360000Y-115380000D02*
X202900000Y-115380000D01*
X201900000Y-104950000D02*
X201900000Y-106000000D01*
X202950000Y-106000000D02*
X201900000Y-106000000D01*
X208000000Y-96600000D02*
X216800000Y-96600000D01*
X216800000Y-96600000D02*
X216800000Y-105800000D01*
X202100000Y-99300000D02*
X202100000Y-96600000D01*
X202100000Y-96600000D02*
X204000000Y-96600000D01*
X216800000Y-105800000D02*
X202100000Y-105800000D01*
X202100000Y-105800000D02*
X202100000Y-103200000D01*
X162800000Y-111760000D02*
X164700000Y-111760000D01*
X164200000Y-109440000D02*
X162800000Y-109440000D01*
X195290000Y-114502064D02*
X195290000Y-113297936D01*
X197110000Y-114502064D02*
X197110000Y-113297936D01*
X189300000Y-116360000D02*
X191250000Y-116360000D01*
X189300000Y-116360000D02*
X187350000Y-116360000D01*
X189300000Y-111240000D02*
X191250000Y-111240000D01*
X189300000Y-111240000D02*
X185850000Y-111240000D01*
X150855000Y-121120000D02*
X151635000Y-121120000D01*
X151635000Y-121120000D02*
X151635000Y-120120000D01*
X150855000Y-102880000D02*
X151635000Y-102880000D01*
X151635000Y-102880000D02*
X151635000Y-103880000D01*
X125890000Y-121120000D02*
X125890000Y-102880000D01*
X125890000Y-102880000D02*
X132310000Y-102880000D01*
X125890000Y-121120000D02*
X132310000Y-121120000D01*
X132310000Y-121120000D02*
X132310000Y-121500000D01*
X203210000Y-130210000D02*
X203210000Y-139330000D01*
X203210000Y-139330000D02*
X182630000Y-139330000D01*
X182630000Y-139330000D02*
X182630000Y-130210000D01*
X182630000Y-130210000D02*
X203210000Y-130210000D01*
X194970000Y-130210000D02*
X194970000Y-131520000D01*
X194970000Y-131520000D02*
X201910000Y-131520000D01*
X201910000Y-131520000D02*
X201910000Y-138020000D01*
X201910000Y-138020000D02*
X183930000Y-138020000D01*
X183930000Y-138020000D02*
X183930000Y-131520000D01*
X183930000Y-131520000D02*
X190870000Y-131520000D01*
X190870000Y-131520000D02*
X190870000Y-131520000D01*
X190870000Y-131520000D02*
X190870000Y-130210000D01*
X198000000Y-129820000D02*
X198500000Y-128820000D01*
X198500000Y-128820000D02*
X197500000Y-128820000D01*
X197500000Y-128820000D02*
X198000000Y-129820000D01*
X211575279Y-112890264D02*
G75*
G02X211320000Y-112000000I1424721J890264D01*
G01*
X213890193Y-113425505D02*
G75*
G02X212109000Y-113425000I-890193J1425505D01*
G01*
X214425358Y-111110106D02*
G75*
G02X214440000Y-112866000I-1425358J-889894D01*
G01*
X212110106Y-110574642D02*
G75*
G02X213866000Y-110560000I889894J-1425358D01*
G01*
X211319901Y-112028674D02*
G75*
G02X211560000Y-111134000I1680099J28674D01*
G01*
X214680000Y-115500000D02*
G75*
G03X214680000Y-115500000I-1680000J0D01*
G01*
X214680000Y-119000000D02*
G75*
G03X214680000Y-119000000I-1680000J0D01*
G01*
X208900000Y-110190000D02*
X208900000Y-120810000D01*
X210000000Y-110190000D02*
X210000000Y-120810000D01*
X216160000Y-110190000D02*
X216160000Y-120810000D01*
X208440000Y-110190000D02*
X208440000Y-120810000D01*
X216160000Y-110190000D02*
X208440000Y-110190000D01*
X216160000Y-120810000D02*
X208440000Y-120810000D01*
X214069000Y-116775000D02*
X213941000Y-116646000D01*
X211819000Y-114525000D02*
X211726000Y-114431000D01*
X214275000Y-116570000D02*
X214181000Y-116476000D01*
X212059000Y-114355000D02*
X211931000Y-114226000D01*
X214069000Y-120275000D02*
X213941000Y-120146000D01*
X211819000Y-118025000D02*
X211726000Y-117931000D01*
X214275000Y-120070000D02*
X214181000Y-119976000D01*
X212059000Y-117855000D02*
X211931000Y-117726000D01*
X208840000Y-109950000D02*
X208200000Y-109950000D01*
X208200000Y-109950000D02*
X208200000Y-110350000D01*
X167262500Y-101840000D02*
X164577500Y-101840000D01*
X164577500Y-101840000D02*
X164577500Y-103760000D01*
X164577500Y-103760000D02*
X167262500Y-103760000D01*
X158590000Y-96030000D02*
X158590000Y-93370000D01*
X135670000Y-96030000D02*
X158590000Y-96030000D01*
X135670000Y-93370000D02*
X158590000Y-93370000D01*
X135670000Y-96030000D02*
X135670000Y-93370000D01*
X134400000Y-96030000D02*
X133070000Y-96030000D01*
X133070000Y-96030000D02*
X133070000Y-94700000D01*
X173080000Y-94240000D02*
X171320000Y-94240000D01*
X171320000Y-97310000D02*
X173750000Y-97310000D01*
X192296248Y-92330000D02*
X196703752Y-92330000D01*
X192296248Y-97670000D02*
X196703752Y-97670000D01*
X191090000Y-108541422D02*
X191090000Y-109058578D01*
X192510000Y-108541422D02*
X192510000Y-109058578D01*
X183710000Y-95528922D02*
X183710000Y-96046078D01*
X182290000Y-95528922D02*
X182290000Y-96046078D01*
X136210000Y-125041422D02*
X136210000Y-125558578D01*
X134790000Y-125041422D02*
X134790000Y-125558578D01*
X132790000Y-125041422D02*
X132790000Y-125558578D01*
X134210000Y-125041422D02*
X134210000Y-125558578D01*
X140210000Y-125041422D02*
X140210000Y-125558578D01*
X138790000Y-125041422D02*
X138790000Y-125558578D01*
X177790000Y-95503922D02*
X177790000Y-96021078D01*
X179210000Y-95503922D02*
X179210000Y-96021078D01*
X167596078Y-95510000D02*
X167078922Y-95510000D01*
X167596078Y-94090000D02*
X167078922Y-94090000D01*
X198890000Y-112221078D02*
X198890000Y-111703922D01*
X200310000Y-112221078D02*
X200310000Y-111703922D01*
X200310000Y-115896078D02*
X200310000Y-115378922D01*
X198890000Y-115896078D02*
X198890000Y-115378922D01*
X138210000Y-125558578D02*
X138210000Y-125041422D01*
X136790000Y-125558578D02*
X136790000Y-125041422D01*
X170258578Y-103510000D02*
X169741422Y-103510000D01*
X170258578Y-102090000D02*
X169741422Y-102090000D01*
X157570000Y-120370000D02*
X160230000Y-120370000D01*
X157570000Y-105070000D02*
X157570000Y-120370000D01*
X160230000Y-105070000D02*
X160230000Y-120370000D01*
X157570000Y-105070000D02*
X160230000Y-105070000D01*
X157570000Y-103800000D02*
X157570000Y-102470000D01*
X157570000Y-102470000D02*
X158900000Y-102470000D01*
X158690000Y-132030000D02*
X158690000Y-129370000D01*
X135770000Y-132030000D02*
X158690000Y-132030000D01*
X135770000Y-129370000D02*
X158690000Y-129370000D01*
X135770000Y-132030000D02*
X135770000Y-129370000D01*
X134500000Y-132030000D02*
X133170000Y-132030000D01*
X133170000Y-132030000D02*
X133170000Y-130700000D01*
D12*
X186316666Y-93492857D02*
X186264285Y-93545238D01*
X186107142Y-93597619D01*
X186002380Y-93597619D01*
X185845238Y-93545238D01*
X185740476Y-93440476D01*
X185688095Y-93335714D01*
X185635714Y-93126190D01*
X185635714Y-92969047D01*
X185688095Y-92759523D01*
X185740476Y-92654761D01*
X185845238Y-92550000D01*
X186002380Y-92497619D01*
X186107142Y-92497619D01*
X186264285Y-92550000D01*
X186316666Y-92602380D01*
X187364285Y-93597619D02*
X186735714Y-93597619D01*
X187050000Y-93597619D02*
X187050000Y-92497619D01*
X186945238Y-92654761D01*
X186840476Y-92759523D01*
X186735714Y-92811904D01*
X192488095Y-99497619D02*
X192488095Y-98397619D01*
X192750000Y-98397619D01*
X192907142Y-98450000D01*
X193011904Y-98554761D01*
X193064285Y-98659523D01*
X193116666Y-98869047D01*
X193116666Y-99026190D01*
X193064285Y-99235714D01*
X193011904Y-99340476D01*
X192907142Y-99445238D01*
X192750000Y-99497619D01*
X192488095Y-99497619D01*
X194164285Y-99497619D02*
X193535714Y-99497619D01*
X193850000Y-99497619D02*
X193850000Y-98397619D01*
X193745238Y-98554761D01*
X193640476Y-98659523D01*
X193535714Y-98711904D01*
X202788095Y-111797619D02*
X202788095Y-110697619D01*
X203050000Y-110697619D01*
X203207142Y-110750000D01*
X203311904Y-110854761D01*
X203364285Y-110959523D01*
X203416666Y-111169047D01*
X203416666Y-111326190D01*
X203364285Y-111535714D01*
X203311904Y-111640476D01*
X203207142Y-111745238D01*
X203050000Y-111797619D01*
X202788095Y-111797619D01*
X203835714Y-110802380D02*
X203888095Y-110750000D01*
X203992857Y-110697619D01*
X204254761Y-110697619D01*
X204359523Y-110750000D01*
X204411904Y-110802380D01*
X204464285Y-110907142D01*
X204464285Y-111011904D01*
X204411904Y-111169047D01*
X203783333Y-111797619D01*
X204464285Y-111797619D01*
X211083333Y-94847619D02*
X211083333Y-95633333D01*
X211030952Y-95790476D01*
X210926190Y-95895238D01*
X210769047Y-95947619D01*
X210664285Y-95947619D01*
X212183333Y-95947619D02*
X211554761Y-95947619D01*
X211869047Y-95947619D02*
X211869047Y-94847619D01*
X211764285Y-95004761D01*
X211659523Y-95109523D01*
X211554761Y-95161904D01*
X163295238Y-109002380D02*
X163190476Y-108950000D01*
X163085714Y-108845238D01*
X162928571Y-108688095D01*
X162823809Y-108635714D01*
X162719047Y-108635714D01*
X162771428Y-108897619D02*
X162666666Y-108845238D01*
X162561904Y-108740476D01*
X162509523Y-108530952D01*
X162509523Y-108164285D01*
X162561904Y-107954761D01*
X162666666Y-107850000D01*
X162771428Y-107797619D01*
X162980952Y-107797619D01*
X163085714Y-107850000D01*
X163190476Y-107954761D01*
X163242857Y-108164285D01*
X163242857Y-108530952D01*
X163190476Y-108740476D01*
X163085714Y-108845238D01*
X162980952Y-108897619D01*
X162771428Y-108897619D01*
X164290476Y-108897619D02*
X163661904Y-108897619D01*
X163976190Y-108897619D02*
X163976190Y-107797619D01*
X163871428Y-107954761D01*
X163766666Y-108059523D01*
X163661904Y-108111904D01*
X194877619Y-114083333D02*
X194353809Y-114450000D01*
X194877619Y-114711904D02*
X193777619Y-114711904D01*
X193777619Y-114292857D01*
X193830000Y-114188095D01*
X193882380Y-114135714D01*
X193987142Y-114083333D01*
X194144285Y-114083333D01*
X194249047Y-114135714D01*
X194301428Y-114188095D01*
X194353809Y-114292857D01*
X194353809Y-114711904D01*
X193777619Y-113716666D02*
X193777619Y-113035714D01*
X194196666Y-113402380D01*
X194196666Y-113245238D01*
X194249047Y-113140476D01*
X194301428Y-113088095D01*
X194406190Y-113035714D01*
X194668095Y-113035714D01*
X194772857Y-113088095D01*
X194825238Y-113140476D01*
X194877619Y-113245238D01*
X194877619Y-113559523D01*
X194825238Y-113664285D01*
X194772857Y-113716666D01*
X188461904Y-109797619D02*
X188461904Y-110688095D01*
X188514285Y-110792857D01*
X188566666Y-110845238D01*
X188671428Y-110897619D01*
X188880952Y-110897619D01*
X188985714Y-110845238D01*
X189038095Y-110792857D01*
X189090476Y-110688095D01*
X189090476Y-109797619D01*
X190190476Y-110897619D02*
X189561904Y-110897619D01*
X189876190Y-110897619D02*
X189876190Y-109797619D01*
X189771428Y-109954761D01*
X189666666Y-110059523D01*
X189561904Y-110111904D01*
X149346904Y-122007619D02*
X149346904Y-122898095D01*
X149399285Y-123002857D01*
X149451666Y-123055238D01*
X149556428Y-123107619D01*
X149765952Y-123107619D01*
X149870714Y-123055238D01*
X149923095Y-123002857D01*
X149975476Y-122898095D01*
X149975476Y-122007619D01*
X150446904Y-122112380D02*
X150499285Y-122060000D01*
X150604047Y-122007619D01*
X150865952Y-122007619D01*
X150970714Y-122060000D01*
X151023095Y-122112380D01*
X151075476Y-122217142D01*
X151075476Y-122321904D01*
X151023095Y-122479047D01*
X150394523Y-123107619D01*
X151075476Y-123107619D01*
X203497619Y-131366666D02*
X204283333Y-131366666D01*
X204440476Y-131419047D01*
X204545238Y-131523809D01*
X204597619Y-131680952D01*
X204597619Y-131785714D01*
X203497619Y-130319047D02*
X203497619Y-130842857D01*
X204021428Y-130895238D01*
X203969047Y-130842857D01*
X203916666Y-130738095D01*
X203916666Y-130476190D01*
X203969047Y-130371428D01*
X204021428Y-130319047D01*
X204126190Y-130266666D01*
X204388095Y-130266666D01*
X204492857Y-130319047D01*
X204545238Y-130371428D01*
X204597619Y-130476190D01*
X204597619Y-130738095D01*
X204545238Y-130842857D01*
X204492857Y-130895238D01*
X212633333Y-108397619D02*
X212633333Y-109183333D01*
X212580952Y-109340476D01*
X212476190Y-109445238D01*
X212319047Y-109497619D01*
X212214285Y-109497619D01*
X213104761Y-108502380D02*
X213157142Y-108450000D01*
X213261904Y-108397619D01*
X213523809Y-108397619D01*
X213628571Y-108450000D01*
X213680952Y-108502380D01*
X213733333Y-108607142D01*
X213733333Y-108711904D01*
X213680952Y-108869047D01*
X213052380Y-109497619D01*
X213733333Y-109497619D01*
X165450595Y-101647619D02*
X165450595Y-100547619D01*
X165712500Y-100547619D01*
X165869642Y-100600000D01*
X165974404Y-100704761D01*
X166026785Y-100809523D01*
X166079166Y-101019047D01*
X166079166Y-101176190D01*
X166026785Y-101385714D01*
X165974404Y-101490476D01*
X165869642Y-101595238D01*
X165712500Y-101647619D01*
X165450595Y-101647619D01*
X166445833Y-100547619D02*
X167126785Y-100547619D01*
X166760119Y-100966666D01*
X166917261Y-100966666D01*
X167022023Y-101019047D01*
X167074404Y-101071428D01*
X167126785Y-101176190D01*
X167126785Y-101438095D01*
X167074404Y-101542857D01*
X167022023Y-101595238D01*
X166917261Y-101647619D01*
X166602976Y-101647619D01*
X166498214Y-101595238D01*
X166445833Y-101542857D01*
X132672380Y-94333333D02*
X131886666Y-94333333D01*
X131729523Y-94280952D01*
X131624761Y-94176190D01*
X131572380Y-94019047D01*
X131572380Y-93914285D01*
X132305714Y-95328571D02*
X131572380Y-95328571D01*
X132724761Y-95066666D02*
X131939047Y-94804761D01*
X131939047Y-95485714D01*
X171361904Y-97647619D02*
X171361904Y-98538095D01*
X171414285Y-98642857D01*
X171466666Y-98695238D01*
X171571428Y-98747619D01*
X171780952Y-98747619D01*
X171885714Y-98695238D01*
X171938095Y-98642857D01*
X171990476Y-98538095D01*
X171990476Y-97647619D01*
X172409523Y-97647619D02*
X173090476Y-97647619D01*
X172723809Y-98066666D01*
X172880952Y-98066666D01*
X172985714Y-98119047D01*
X173038095Y-98171428D01*
X173090476Y-98276190D01*
X173090476Y-98538095D01*
X173038095Y-98642857D01*
X172985714Y-98695238D01*
X172880952Y-98747619D01*
X172566666Y-98747619D01*
X172461904Y-98695238D01*
X172409523Y-98642857D01*
X194133333Y-91241428D02*
X193766666Y-91241428D01*
X193766666Y-91817619D02*
X193766666Y-90717619D01*
X194290476Y-90717619D01*
X195285714Y-91817619D02*
X194657142Y-91817619D01*
X194971428Y-91817619D02*
X194971428Y-90717619D01*
X194866666Y-90874761D01*
X194761904Y-90979523D01*
X194657142Y-91031904D01*
X193842857Y-108983333D02*
X193895238Y-109035714D01*
X193947619Y-109192857D01*
X193947619Y-109297619D01*
X193895238Y-109454761D01*
X193790476Y-109559523D01*
X193685714Y-109611904D01*
X193476190Y-109664285D01*
X193319047Y-109664285D01*
X193109523Y-109611904D01*
X193004761Y-109559523D01*
X192900000Y-109454761D01*
X192847619Y-109297619D01*
X192847619Y-109192857D01*
X192900000Y-109035714D01*
X192952380Y-108983333D01*
X192952380Y-108564285D02*
X192900000Y-108511904D01*
X192847619Y-108407142D01*
X192847619Y-108145238D01*
X192900000Y-108040476D01*
X192952380Y-107988095D01*
X193057142Y-107935714D01*
X193161904Y-107935714D01*
X193319047Y-107988095D01*
X193947619Y-108616666D01*
X193947619Y-107935714D01*
X182816666Y-93592857D02*
X182764285Y-93645238D01*
X182607142Y-93697619D01*
X182502380Y-93697619D01*
X182345238Y-93645238D01*
X182240476Y-93540476D01*
X182188095Y-93435714D01*
X182135714Y-93226190D01*
X182135714Y-93069047D01*
X182188095Y-92859523D01*
X182240476Y-92754761D01*
X182345238Y-92650000D01*
X182502380Y-92597619D01*
X182607142Y-92597619D01*
X182764285Y-92650000D01*
X182816666Y-92702380D01*
X183183333Y-92597619D02*
X183864285Y-92597619D01*
X183497619Y-93016666D01*
X183654761Y-93016666D01*
X183759523Y-93069047D01*
X183811904Y-93121428D01*
X183864285Y-93226190D01*
X183864285Y-93488095D01*
X183811904Y-93592857D01*
X183759523Y-93645238D01*
X183654761Y-93697619D01*
X183340476Y-93697619D01*
X183235714Y-93645238D01*
X183183333Y-93592857D01*
X135892857Y-128233333D02*
X135945238Y-128285714D01*
X135997619Y-128442857D01*
X135997619Y-128547619D01*
X135945238Y-128704761D01*
X135840476Y-128809523D01*
X135735714Y-128861904D01*
X135526190Y-128914285D01*
X135369047Y-128914285D01*
X135159523Y-128861904D01*
X135054761Y-128809523D01*
X134950000Y-128704761D01*
X134897619Y-128547619D01*
X134897619Y-128442857D01*
X134950000Y-128285714D01*
X135002380Y-128233333D01*
X135264285Y-127290476D02*
X135997619Y-127290476D01*
X134845238Y-127552380D02*
X135630952Y-127814285D01*
X135630952Y-127133333D01*
X133892857Y-128383333D02*
X133945238Y-128435714D01*
X133997619Y-128592857D01*
X133997619Y-128697619D01*
X133945238Y-128854761D01*
X133840476Y-128959523D01*
X133735714Y-129011904D01*
X133526190Y-129064285D01*
X133369047Y-129064285D01*
X133159523Y-129011904D01*
X133054761Y-128959523D01*
X132950000Y-128854761D01*
X132897619Y-128697619D01*
X132897619Y-128592857D01*
X132950000Y-128435714D01*
X133002380Y-128383333D01*
X132897619Y-127388095D02*
X132897619Y-127911904D01*
X133421428Y-127964285D01*
X133369047Y-127911904D01*
X133316666Y-127807142D01*
X133316666Y-127545238D01*
X133369047Y-127440476D01*
X133421428Y-127388095D01*
X133526190Y-127335714D01*
X133788095Y-127335714D01*
X133892857Y-127388095D01*
X133945238Y-127440476D01*
X133997619Y-127545238D01*
X133997619Y-127807142D01*
X133945238Y-127911904D01*
X133892857Y-127964285D01*
X139892857Y-128233333D02*
X139945238Y-128285714D01*
X139997619Y-128442857D01*
X139997619Y-128547619D01*
X139945238Y-128704761D01*
X139840476Y-128809523D01*
X139735714Y-128861904D01*
X139526190Y-128914285D01*
X139369047Y-128914285D01*
X139159523Y-128861904D01*
X139054761Y-128809523D01*
X138950000Y-128704761D01*
X138897619Y-128547619D01*
X138897619Y-128442857D01*
X138950000Y-128285714D01*
X139002380Y-128233333D01*
X138897619Y-127290476D02*
X138897619Y-127500000D01*
X138950000Y-127604761D01*
X139002380Y-127657142D01*
X139159523Y-127761904D01*
X139369047Y-127814285D01*
X139788095Y-127814285D01*
X139892857Y-127761904D01*
X139945238Y-127709523D01*
X139997619Y-127604761D01*
X139997619Y-127395238D01*
X139945238Y-127290476D01*
X139892857Y-127238095D01*
X139788095Y-127185714D01*
X139526190Y-127185714D01*
X139421428Y-127238095D01*
X139369047Y-127290476D01*
X139316666Y-127395238D01*
X139316666Y-127604761D01*
X139369047Y-127709523D01*
X139421428Y-127761904D01*
X139526190Y-127814285D01*
X178316666Y-93792857D02*
X178264285Y-93845238D01*
X178107142Y-93897619D01*
X178002380Y-93897619D01*
X177845238Y-93845238D01*
X177740476Y-93740476D01*
X177688095Y-93635714D01*
X177635714Y-93426190D01*
X177635714Y-93269047D01*
X177688095Y-93059523D01*
X177740476Y-92954761D01*
X177845238Y-92850000D01*
X178002380Y-92797619D01*
X178107142Y-92797619D01*
X178264285Y-92850000D01*
X178316666Y-92902380D01*
X178945238Y-93269047D02*
X178840476Y-93216666D01*
X178788095Y-93164285D01*
X178735714Y-93059523D01*
X178735714Y-93007142D01*
X178788095Y-92902380D01*
X178840476Y-92850000D01*
X178945238Y-92797619D01*
X179154761Y-92797619D01*
X179259523Y-92850000D01*
X179311904Y-92902380D01*
X179364285Y-93007142D01*
X179364285Y-93059523D01*
X179311904Y-93164285D01*
X179259523Y-93216666D01*
X179154761Y-93269047D01*
X178945238Y-93269047D01*
X178840476Y-93321428D01*
X178788095Y-93373809D01*
X178735714Y-93478571D01*
X178735714Y-93688095D01*
X178788095Y-93792857D01*
X178840476Y-93845238D01*
X178945238Y-93897619D01*
X179154761Y-93897619D01*
X179259523Y-93845238D01*
X179311904Y-93792857D01*
X179364285Y-93688095D01*
X179364285Y-93478571D01*
X179311904Y-93373809D01*
X179259523Y-93321428D01*
X179154761Y-93269047D01*
X167154166Y-96842857D02*
X167101785Y-96895238D01*
X166944642Y-96947619D01*
X166839880Y-96947619D01*
X166682738Y-96895238D01*
X166577976Y-96790476D01*
X166525595Y-96685714D01*
X166473214Y-96476190D01*
X166473214Y-96319047D01*
X166525595Y-96109523D01*
X166577976Y-96004761D01*
X166682738Y-95900000D01*
X166839880Y-95847619D01*
X166944642Y-95847619D01*
X167101785Y-95900000D01*
X167154166Y-95952380D01*
X167677976Y-96947619D02*
X167887500Y-96947619D01*
X167992261Y-96895238D01*
X168044642Y-96842857D01*
X168149404Y-96685714D01*
X168201785Y-96476190D01*
X168201785Y-96057142D01*
X168149404Y-95952380D01*
X168097023Y-95900000D01*
X167992261Y-95847619D01*
X167782738Y-95847619D01*
X167677976Y-95900000D01*
X167625595Y-95952380D01*
X167573214Y-96057142D01*
X167573214Y-96319047D01*
X167625595Y-96423809D01*
X167677976Y-96476190D01*
X167782738Y-96528571D01*
X167992261Y-96528571D01*
X168097023Y-96476190D01*
X168149404Y-96423809D01*
X168201785Y-96319047D01*
X198447619Y-112145833D02*
X197923809Y-112512500D01*
X198447619Y-112774404D02*
X197347619Y-112774404D01*
X197347619Y-112355357D01*
X197400000Y-112250595D01*
X197452380Y-112198214D01*
X197557142Y-112145833D01*
X197714285Y-112145833D01*
X197819047Y-112198214D01*
X197871428Y-112250595D01*
X197923809Y-112355357D01*
X197923809Y-112774404D01*
X198447619Y-111098214D02*
X198447619Y-111726785D01*
X198447619Y-111412500D02*
X197347619Y-111412500D01*
X197504761Y-111517261D01*
X197609523Y-111622023D01*
X197661904Y-111726785D01*
X198447619Y-115820833D02*
X197923809Y-116187500D01*
X198447619Y-116449404D02*
X197347619Y-116449404D01*
X197347619Y-116030357D01*
X197400000Y-115925595D01*
X197452380Y-115873214D01*
X197557142Y-115820833D01*
X197714285Y-115820833D01*
X197819047Y-115873214D01*
X197871428Y-115925595D01*
X197923809Y-116030357D01*
X197923809Y-116449404D01*
X197452380Y-115401785D02*
X197400000Y-115349404D01*
X197347619Y-115244642D01*
X197347619Y-114982738D01*
X197400000Y-114877976D01*
X197452380Y-114825595D01*
X197557142Y-114773214D01*
X197661904Y-114773214D01*
X197819047Y-114825595D01*
X198447619Y-115454166D01*
X198447619Y-114773214D01*
X137997619Y-128183333D02*
X137473809Y-128550000D01*
X137997619Y-128811904D02*
X136897619Y-128811904D01*
X136897619Y-128392857D01*
X136950000Y-128288095D01*
X137002380Y-128235714D01*
X137107142Y-128183333D01*
X137264285Y-128183333D01*
X137369047Y-128235714D01*
X137421428Y-128288095D01*
X137473809Y-128392857D01*
X137473809Y-128811904D01*
X137264285Y-127240476D02*
X137997619Y-127240476D01*
X136845238Y-127502380D02*
X137630952Y-127764285D01*
X137630952Y-127083333D01*
X169816666Y-101697619D02*
X169450000Y-101173809D01*
X169188095Y-101697619D02*
X169188095Y-100597619D01*
X169607142Y-100597619D01*
X169711904Y-100650000D01*
X169764285Y-100702380D01*
X169816666Y-100807142D01*
X169816666Y-100964285D01*
X169764285Y-101069047D01*
X169711904Y-101121428D01*
X169607142Y-101173809D01*
X169188095Y-101173809D01*
X170811904Y-100597619D02*
X170288095Y-100597619D01*
X170235714Y-101121428D01*
X170288095Y-101069047D01*
X170392857Y-101016666D01*
X170654761Y-101016666D01*
X170759523Y-101069047D01*
X170811904Y-101121428D01*
X170864285Y-101226190D01*
X170864285Y-101488095D01*
X170811904Y-101592857D01*
X170759523Y-101645238D01*
X170654761Y-101697619D01*
X170392857Y-101697619D01*
X170288095Y-101645238D01*
X170235714Y-101592857D01*
D16*
X158566666Y-100922380D02*
X158566666Y-101636666D01*
X158519047Y-101779523D01*
X158423809Y-101874761D01*
X158280952Y-101922380D01*
X158185714Y-101922380D01*
X158947619Y-100922380D02*
X159566666Y-100922380D01*
X159233333Y-101303333D01*
X159376190Y-101303333D01*
X159471428Y-101350952D01*
X159519047Y-101398571D01*
X159566666Y-101493809D01*
X159566666Y-101731904D01*
X159519047Y-101827142D01*
X159471428Y-101874761D01*
X159376190Y-101922380D01*
X159090476Y-101922380D01*
X158995238Y-101874761D01*
X158947619Y-101827142D01*
X131622380Y-131033333D02*
X132336666Y-131033333D01*
X132479523Y-131080952D01*
X132574761Y-131176190D01*
X132622380Y-131319047D01*
X132622380Y-131414285D01*
X131622380Y-130128571D02*
X131622380Y-130319047D01*
X131670000Y-130414285D01*
X131717619Y-130461904D01*
X131860476Y-130557142D01*
X132050952Y-130604761D01*
X132431904Y-130604761D01*
X132527142Y-130557142D01*
X132574761Y-130509523D01*
X132622380Y-130414285D01*
X132622380Y-130223809D01*
X132574761Y-130128571D01*
X132527142Y-130080952D01*
X132431904Y-130033333D01*
X132193809Y-130033333D01*
X132098571Y-130080952D01*
X132050952Y-130128571D01*
X132003333Y-130223809D01*
X132003333Y-130414285D01*
X132050952Y-130509523D01*
X132098571Y-130557142D01*
X132193809Y-130604761D01*
M02*
