M48
; DRILL file {KiCad (6.0.0)} date Fri Dec 31 15:39:51 2021
; FORMAT={-:-/ absolute / metric / decimal}
; #@! TF.CreationDate,2021-12-31T15:39:51+05:30
; #@! TF.GenerationSoftware,Kicad,Pcbnew,(6.0.0)
; #@! TF.FileFunction,Plated,1,2,PTH
FMAT,2
METRIC
; #@! TA.AperFunction,Plated,PTH,ViaDrill
T1C0.300
; #@! TA.AperFunction,Plated,PTH,ViaDrill
T2C0.400
; #@! TA.AperFunction,Plated,PTH,ComponentDrill
T3C0.500
; #@! TA.AperFunction,Plated,PTH,ViaDrill
T4C0.600
; #@! TA.AperFunction,Plated,PTH,ComponentDrill
T5C0.800
; #@! TA.AperFunction,Plated,PTH,ComponentDrill
T6C1.000
; #@! TA.AperFunction,Plated,PTH,ComponentDrill
T7C1.500
; #@! TA.AperFunction,Plated,PTH,ComponentDrill
T8C3.500
%
G90
G05
T1
X143.0Y-109.073
X175.2Y-133.8
T2
X92.7Y-129.7
X95.3Y-115.0
X98.25Y-124.0
X98.25Y-125.0
X98.25Y-126.0
X98.25Y-127.0
X98.25Y-128.0
X99.1Y-115.0
X99.25Y-124.0
X99.25Y-125.0
X99.25Y-126.0
X99.25Y-127.0
X99.25Y-128.0
X100.25Y-124.0
X100.25Y-125.0
X100.25Y-126.0
X100.25Y-127.0
X100.25Y-128.0
X101.25Y-124.0
X101.25Y-125.0
X101.25Y-126.0
X101.25Y-127.0
X101.25Y-128.0
X102.25Y-124.0
X102.25Y-125.0
X102.25Y-126.0
X102.25Y-127.0
X102.25Y-128.0
X104.9Y-104.5
X107.25Y-122.25
X107.25Y-123.5
X108.5Y-131.5
X111.8Y-110.7
X112.7Y-134.0
X118.6Y-134.3
X128.2Y-123.0
X135.5Y-128.25
X137.5Y-121.75
X145.6Y-130.5
X151.0Y-103.4
X157.5Y-146.0
X157.5Y-147.0
X157.5Y-152.0
X157.5Y-153.0
X158.5Y-146.0
X158.5Y-147.0
X158.5Y-152.0
X158.5Y-153.0
X159.5Y-146.0
X159.5Y-147.0
X159.5Y-152.0
X159.5Y-153.0
X167.0Y-149.1
X167.1Y-114.3
X167.252Y-115.652
X167.4Y-143.1
X168.1Y-136.1
X168.7Y-142.2
X171.7Y-137.2
T3
X86.375Y-99.0
X86.375Y-151.0
X87.144Y-97.144
X87.144Y-100.856
X87.144Y-149.144
X87.144Y-152.856
X89.0Y-96.375
X89.0Y-101.625
X89.0Y-148.375
X89.0Y-153.625
X90.856Y-97.144
X90.856Y-100.856
X90.856Y-149.144
X90.856Y-152.856
X91.625Y-99.0
X91.625Y-151.0
X198.375Y-99.0
X198.375Y-151.0
X199.144Y-97.144
X199.144Y-100.856
X199.144Y-149.144
X199.144Y-152.856
X201.0Y-96.375
X201.0Y-101.625
X201.0Y-148.375
X201.0Y-153.625
X202.856Y-97.144
X202.856Y-100.856
X202.856Y-149.144
X202.856Y-152.856
X203.625Y-99.0
X203.625Y-151.0
T4
X90.0Y-145.0
X92.0Y-135.3
X94.5Y-112.9
X100.1Y-150.9
X105.1Y-148.9
X105.2Y-136.2
X107.25Y-120.75
X119.5Y-142.175
X121.5Y-143.099
X125.75Y-143.0
X132.25Y-125.0
X135.5Y-140.5
X142.5Y-142.25
X143.6Y-123.2
X144.1Y-114.0
X162.0Y-134.4
X163.3Y-115.1
X163.6Y-147.5
X172.0Y-119.25
X172.0Y-125.0
X176.2Y-148.1
X185.15Y-146.67
T5
X143.0Y-97.703
X145.0Y-97.703
X147.0Y-97.703
T6
X95.25Y-97.2
X97.79Y-97.2
X100.33Y-97.2
X102.87Y-97.2
X105.41Y-97.2
X107.95Y-97.2
T7
X140.9Y-97.703
X149.1Y-97.703
T8
X89.0Y-99.0
X89.0Y-151.0
X201.0Y-99.0
X201.0Y-151.0
T0
M30
