M48
; DRILL file {KiCad (5.1.0)-1} date 02/18/21 11:37:14
; FORMAT={-:-/ absolute / metric / decimal}
; #@! TF.CreationDate,2021-02-18T11:37:14+07:00
; #@! TF.GenerationSoftware,Kicad,Pcbnew,(5.1.0)-1
FMAT,2
METRIC
T1C0.400
T2C0.500
T3C0.600
T4C1.000
T5C1.200
T6C3.200
%
G90
G05
T1
X130.0Y-86.0
X130.0Y-139.0
X134.8Y-105.3
X135.0Y-86.0
X135.0Y-89.0
X135.0Y-135.0
X135.0Y-139.0
X137.3Y-101.7
X138.6Y-99.8
X140.0Y-86.0
X140.0Y-89.0
X140.0Y-135.0
X140.0Y-139.0
X141.1Y-118.9
X141.2Y-124.9
X145.0Y-86.0
X145.0Y-89.0
X145.0Y-139.0
X146.2Y-117.9
X147.5Y-118.0
X149.1Y-106.3
X150.0Y-86.0
X150.0Y-139.0
X152.5Y-103.6
X154.4Y-106.9
X155.0Y-86.0
X155.0Y-89.0
X155.0Y-139.0
X157.2Y-101.2
X160.0Y-86.0
X160.0Y-89.0
X160.0Y-94.0
X160.0Y-98.0
X160.0Y-127.0
X160.0Y-139.0
X162.5Y-112.4
X165.0Y-86.0
X165.0Y-89.0
X165.0Y-94.0
X165.0Y-98.0
X165.0Y-113.0
X165.0Y-117.0
X165.0Y-127.0
X165.0Y-131.0
X165.0Y-135.0
X165.0Y-139.0
X167.483Y-107.783
X170.0Y-86.0
X170.0Y-89.0
X170.0Y-113.0
X170.0Y-117.0
X170.0Y-127.0
X170.0Y-131.0
X170.0Y-135.0
X170.0Y-139.0
X175.0Y-86.0
X175.0Y-89.0
X175.0Y-100.0
X175.0Y-104.0
X175.0Y-113.0
X175.0Y-117.0
X175.0Y-127.0
X175.0Y-131.0
X175.0Y-135.0
X175.0Y-139.0
X180.0Y-86.0
X180.0Y-89.0
X180.0Y-100.0
X180.0Y-104.0
X180.0Y-108.0
X180.0Y-112.0
X180.0Y-127.0
X180.0Y-131.0
X180.0Y-135.0
X180.0Y-139.0
X182.3Y-112.0
X184.9Y-114.4
X185.0Y-86.0
X185.0Y-89.0
X185.0Y-100.0
X185.0Y-104.0
X185.0Y-108.0
X190.0Y-86.0
X190.0Y-89.0
X191.4Y-126.5
X195.0Y-86.0
X195.0Y-89.0
X200.0Y-86.0
X200.0Y-89.0
X201.0Y-123.0
X201.0Y-127.0
X204.0Y-135.0
X204.0Y-139.0
X205.0Y-86.0
X205.0Y-89.0
X206.0Y-123.0
X206.0Y-127.0
X209.0Y-139.0
X211.0Y-97.0
X211.0Y-105.0
X211.0Y-109.0
X211.0Y-123.0
X211.0Y-127.0
X216.0Y-93.0
X216.0Y-97.0
X216.0Y-105.0
X216.0Y-109.0
X216.0Y-123.0
X216.0Y-127.0
T2
X209.6Y-90.0
X210.303Y-88.303
X210.303Y-91.697
X212.0Y-87.6
X212.0Y-92.4
X213.697Y-88.303
X213.697Y-91.697
X214.4Y-90.0
X124.6Y-135.0
X125.303Y-133.303
X125.303Y-136.697
X127.0Y-132.6
X127.0Y-137.4
X128.697Y-133.303
X128.697Y-136.697
X129.4Y-135.0
X124.6Y-90.0
X125.303Y-88.303
X125.303Y-91.697
X127.0Y-87.6
X127.0Y-92.4
X128.697Y-88.303
X128.697Y-91.697
X129.4Y-90.0
X209.6Y-135.0
X210.303Y-133.303
X210.303Y-136.697
X212.0Y-132.6
X212.0Y-137.4
X213.697Y-133.303
X213.697Y-136.697
X214.4Y-135.0
T3
X133.5Y-123.0
X156.8Y-112.6
X168.3Y-99.4
X172.4Y-102.8
X189.6Y-106.4
T4
X187.84Y-133.5
X187.84Y-136.04
X190.38Y-133.5
X190.38Y-136.04
X192.92Y-133.5
X192.92Y-136.04
X195.46Y-133.5
X195.46Y-136.04
X198.0Y-133.5
X198.0Y-136.04
X134.4Y-94.7
X136.94Y-94.7
X139.48Y-94.7
X142.02Y-94.7
X144.56Y-94.7
X147.1Y-94.7
X149.64Y-94.7
X152.18Y-94.7
X154.72Y-94.7
X157.26Y-94.7
X158.9Y-103.8
X158.9Y-106.34
X158.9Y-108.88
X158.9Y-111.42
X158.9Y-113.96
X158.9Y-116.5
X158.9Y-119.04
X134.5Y-130.7
X137.04Y-130.7
X139.58Y-130.7
X142.12Y-130.7
X144.66Y-130.7
X147.2Y-130.7
X149.74Y-130.7
X152.28Y-130.7
X154.82Y-130.7
X157.36Y-130.7
T5
X213.0Y-112.0
X213.0Y-115.5
X213.0Y-119.0
T6
X212.0Y-90.0
X127.0Y-135.0
X127.0Y-90.0
X212.0Y-135.0
T4
G00X203.0Y-102.2
M15
G01X203.0Y-100.2
M16
G05
G00X207.0Y-96.5
M15
G01X205.0Y-96.5
M16
G05
G00X209.0Y-102.2
M15
G01X209.0Y-100.2
M16
G05
T0
M30
