G04 #@! TF.GenerationSoftware,KiCad,Pcbnew,(5.1.0)-1*
G04 #@! TF.CreationDate,2021-02-18T11:37:16+07:00*
G04 #@! TF.ProjectId,ESP32_BoardV1,45535033-325f-4426-9f61-726456312e6b,rev?*
G04 #@! TF.SameCoordinates,Original*
G04 #@! TF.FileFunction,Soldermask,Bot*
G04 #@! TF.FilePolarity,Negative*
%FSLAX46Y46*%
G04 Gerber Fmt 4.6, Leading zero omitted, Abs format (unit mm)*
G04 Created by KiCad (PCBNEW (5.1.0)-1) date 2021-02-18 11:37:16*
%MOMM*%
%LPD*%
G04 APERTURE LIST*
%ADD10C,0.100000*%
G04 APERTURE END LIST*
D10*
G36*
X212634239Y-131811467D02*
G01*
X212948282Y-131873934D01*
X213539926Y-132119001D01*
X214072392Y-132474784D01*
X214525216Y-132927608D01*
X214880999Y-133460074D01*
X215126066Y-134051718D01*
X215142831Y-134136000D01*
X215251000Y-134679803D01*
X215251000Y-135320197D01*
X215222068Y-135465646D01*
X215126066Y-135948282D01*
X214880999Y-136539926D01*
X214525216Y-137072392D01*
X214072392Y-137525216D01*
X213539926Y-137880999D01*
X212948282Y-138126066D01*
X212634239Y-138188533D01*
X212320197Y-138251000D01*
X211679803Y-138251000D01*
X211365761Y-138188533D01*
X211051718Y-138126066D01*
X210460074Y-137880999D01*
X209927608Y-137525216D01*
X209474784Y-137072392D01*
X209119001Y-136539926D01*
X208873934Y-135948282D01*
X208777932Y-135465646D01*
X208749000Y-135320197D01*
X208749000Y-134679803D01*
X208857169Y-134136000D01*
X208873934Y-134051718D01*
X209119001Y-133460074D01*
X209474784Y-132927608D01*
X209927608Y-132474784D01*
X210460074Y-132119001D01*
X211051718Y-131873934D01*
X211365761Y-131811467D01*
X211679803Y-131749000D01*
X212320197Y-131749000D01*
X212634239Y-131811467D01*
X212634239Y-131811467D01*
G37*
G36*
X127634239Y-131811467D02*
G01*
X127948282Y-131873934D01*
X128539926Y-132119001D01*
X129072392Y-132474784D01*
X129525216Y-132927608D01*
X129880999Y-133460074D01*
X130126066Y-134051718D01*
X130142831Y-134136000D01*
X130251000Y-134679803D01*
X130251000Y-135320197D01*
X130222068Y-135465646D01*
X130126066Y-135948282D01*
X129880999Y-136539926D01*
X129525216Y-137072392D01*
X129072392Y-137525216D01*
X128539926Y-137880999D01*
X127948282Y-138126066D01*
X127634239Y-138188533D01*
X127320197Y-138251000D01*
X126679803Y-138251000D01*
X126365761Y-138188533D01*
X126051718Y-138126066D01*
X125460074Y-137880999D01*
X124927608Y-137525216D01*
X124474784Y-137072392D01*
X124119001Y-136539926D01*
X123873934Y-135948282D01*
X123777932Y-135465646D01*
X123749000Y-135320197D01*
X123749000Y-134679803D01*
X123857169Y-134136000D01*
X123873934Y-134051718D01*
X124119001Y-133460074D01*
X124474784Y-132927608D01*
X124927608Y-132474784D01*
X125460074Y-132119001D01*
X126051718Y-131873934D01*
X126365761Y-131811467D01*
X126679803Y-131749000D01*
X127320197Y-131749000D01*
X127634239Y-131811467D01*
X127634239Y-131811467D01*
G37*
G36*
X187953512Y-135143927D02*
G01*
X188102812Y-135173624D01*
X188266784Y-135241544D01*
X188414354Y-135340147D01*
X188539853Y-135465646D01*
X188638456Y-135613216D01*
X188706376Y-135777188D01*
X188741000Y-135951259D01*
X188741000Y-136128741D01*
X188706376Y-136302812D01*
X188638456Y-136466784D01*
X188539853Y-136614354D01*
X188414354Y-136739853D01*
X188266784Y-136838456D01*
X188102812Y-136906376D01*
X187953512Y-136936073D01*
X187928742Y-136941000D01*
X187751258Y-136941000D01*
X187726488Y-136936073D01*
X187577188Y-136906376D01*
X187413216Y-136838456D01*
X187265646Y-136739853D01*
X187140147Y-136614354D01*
X187041544Y-136466784D01*
X186973624Y-136302812D01*
X186939000Y-136128741D01*
X186939000Y-135951259D01*
X186973624Y-135777188D01*
X187041544Y-135613216D01*
X187140147Y-135465646D01*
X187265646Y-135340147D01*
X187413216Y-135241544D01*
X187577188Y-135173624D01*
X187726488Y-135143927D01*
X187751258Y-135139000D01*
X187928742Y-135139000D01*
X187953512Y-135143927D01*
X187953512Y-135143927D01*
G37*
G36*
X195573512Y-135143927D02*
G01*
X195722812Y-135173624D01*
X195886784Y-135241544D01*
X196034354Y-135340147D01*
X196159853Y-135465646D01*
X196258456Y-135613216D01*
X196326376Y-135777188D01*
X196361000Y-135951259D01*
X196361000Y-136128741D01*
X196326376Y-136302812D01*
X196258456Y-136466784D01*
X196159853Y-136614354D01*
X196034354Y-136739853D01*
X195886784Y-136838456D01*
X195722812Y-136906376D01*
X195573512Y-136936073D01*
X195548742Y-136941000D01*
X195371258Y-136941000D01*
X195346488Y-136936073D01*
X195197188Y-136906376D01*
X195033216Y-136838456D01*
X194885646Y-136739853D01*
X194760147Y-136614354D01*
X194661544Y-136466784D01*
X194593624Y-136302812D01*
X194559000Y-136128741D01*
X194559000Y-135951259D01*
X194593624Y-135777188D01*
X194661544Y-135613216D01*
X194760147Y-135465646D01*
X194885646Y-135340147D01*
X195033216Y-135241544D01*
X195197188Y-135173624D01*
X195346488Y-135143927D01*
X195371258Y-135139000D01*
X195548742Y-135139000D01*
X195573512Y-135143927D01*
X195573512Y-135143927D01*
G37*
G36*
X193033512Y-135143927D02*
G01*
X193182812Y-135173624D01*
X193346784Y-135241544D01*
X193494354Y-135340147D01*
X193619853Y-135465646D01*
X193718456Y-135613216D01*
X193786376Y-135777188D01*
X193821000Y-135951259D01*
X193821000Y-136128741D01*
X193786376Y-136302812D01*
X193718456Y-136466784D01*
X193619853Y-136614354D01*
X193494354Y-136739853D01*
X193346784Y-136838456D01*
X193182812Y-136906376D01*
X193033512Y-136936073D01*
X193008742Y-136941000D01*
X192831258Y-136941000D01*
X192806488Y-136936073D01*
X192657188Y-136906376D01*
X192493216Y-136838456D01*
X192345646Y-136739853D01*
X192220147Y-136614354D01*
X192121544Y-136466784D01*
X192053624Y-136302812D01*
X192019000Y-136128741D01*
X192019000Y-135951259D01*
X192053624Y-135777188D01*
X192121544Y-135613216D01*
X192220147Y-135465646D01*
X192345646Y-135340147D01*
X192493216Y-135241544D01*
X192657188Y-135173624D01*
X192806488Y-135143927D01*
X192831258Y-135139000D01*
X193008742Y-135139000D01*
X193033512Y-135143927D01*
X193033512Y-135143927D01*
G37*
G36*
X198113512Y-135143927D02*
G01*
X198262812Y-135173624D01*
X198426784Y-135241544D01*
X198574354Y-135340147D01*
X198699853Y-135465646D01*
X198798456Y-135613216D01*
X198866376Y-135777188D01*
X198901000Y-135951259D01*
X198901000Y-136128741D01*
X198866376Y-136302812D01*
X198798456Y-136466784D01*
X198699853Y-136614354D01*
X198574354Y-136739853D01*
X198426784Y-136838456D01*
X198262812Y-136906376D01*
X198113512Y-136936073D01*
X198088742Y-136941000D01*
X197911258Y-136941000D01*
X197886488Y-136936073D01*
X197737188Y-136906376D01*
X197573216Y-136838456D01*
X197425646Y-136739853D01*
X197300147Y-136614354D01*
X197201544Y-136466784D01*
X197133624Y-136302812D01*
X197099000Y-136128741D01*
X197099000Y-135951259D01*
X197133624Y-135777188D01*
X197201544Y-135613216D01*
X197300147Y-135465646D01*
X197425646Y-135340147D01*
X197573216Y-135241544D01*
X197737188Y-135173624D01*
X197886488Y-135143927D01*
X197911258Y-135139000D01*
X198088742Y-135139000D01*
X198113512Y-135143927D01*
X198113512Y-135143927D01*
G37*
G36*
X190493512Y-135143927D02*
G01*
X190642812Y-135173624D01*
X190806784Y-135241544D01*
X190954354Y-135340147D01*
X191079853Y-135465646D01*
X191178456Y-135613216D01*
X191246376Y-135777188D01*
X191281000Y-135951259D01*
X191281000Y-136128741D01*
X191246376Y-136302812D01*
X191178456Y-136466784D01*
X191079853Y-136614354D01*
X190954354Y-136739853D01*
X190806784Y-136838456D01*
X190642812Y-136906376D01*
X190493512Y-136936073D01*
X190468742Y-136941000D01*
X190291258Y-136941000D01*
X190266488Y-136936073D01*
X190117188Y-136906376D01*
X189953216Y-136838456D01*
X189805646Y-136739853D01*
X189680147Y-136614354D01*
X189581544Y-136466784D01*
X189513624Y-136302812D01*
X189479000Y-136128741D01*
X189479000Y-135951259D01*
X189513624Y-135777188D01*
X189581544Y-135613216D01*
X189680147Y-135465646D01*
X189805646Y-135340147D01*
X189953216Y-135241544D01*
X190117188Y-135173624D01*
X190266488Y-135143927D01*
X190291258Y-135139000D01*
X190468742Y-135139000D01*
X190493512Y-135143927D01*
X190493512Y-135143927D01*
G37*
G36*
X198758600Y-132602989D02*
G01*
X198791652Y-132613015D01*
X198822103Y-132629292D01*
X198848799Y-132651201D01*
X198870708Y-132677897D01*
X198886985Y-132708348D01*
X198897011Y-132741400D01*
X198901000Y-132781903D01*
X198901000Y-134218097D01*
X198897011Y-134258600D01*
X198886985Y-134291652D01*
X198870708Y-134322103D01*
X198848799Y-134348799D01*
X198822103Y-134370708D01*
X198791652Y-134386985D01*
X198758600Y-134397011D01*
X198718097Y-134401000D01*
X197281903Y-134401000D01*
X197241400Y-134397011D01*
X197208348Y-134386985D01*
X197177897Y-134370708D01*
X197151201Y-134348799D01*
X197129292Y-134322103D01*
X197113015Y-134291652D01*
X197102989Y-134258600D01*
X197099000Y-134218097D01*
X197099000Y-132781903D01*
X197102989Y-132741400D01*
X197113015Y-132708348D01*
X197129292Y-132677897D01*
X197151201Y-132651201D01*
X197177897Y-132629292D01*
X197208348Y-132613015D01*
X197241400Y-132602989D01*
X197281903Y-132599000D01*
X198718097Y-132599000D01*
X198758600Y-132602989D01*
X198758600Y-132602989D01*
G37*
G36*
X195568796Y-132602989D02*
G01*
X195722812Y-132633624D01*
X195886784Y-132701544D01*
X196034354Y-132800147D01*
X196159853Y-132925646D01*
X196258456Y-133073216D01*
X196326376Y-133237188D01*
X196361000Y-133411259D01*
X196361000Y-133588741D01*
X196326376Y-133762812D01*
X196258456Y-133926784D01*
X196159853Y-134074354D01*
X196034354Y-134199853D01*
X195886784Y-134298456D01*
X195722812Y-134366376D01*
X195574341Y-134395908D01*
X195548742Y-134401000D01*
X195371258Y-134401000D01*
X195345659Y-134395908D01*
X195197188Y-134366376D01*
X195033216Y-134298456D01*
X194885646Y-134199853D01*
X194760147Y-134074354D01*
X194661544Y-133926784D01*
X194593624Y-133762812D01*
X194559000Y-133588741D01*
X194559000Y-133411259D01*
X194593624Y-133237188D01*
X194661544Y-133073216D01*
X194760147Y-132925646D01*
X194885646Y-132800147D01*
X195033216Y-132701544D01*
X195197188Y-132633624D01*
X195351204Y-132602989D01*
X195371258Y-132599000D01*
X195548742Y-132599000D01*
X195568796Y-132602989D01*
X195568796Y-132602989D01*
G37*
G36*
X193028796Y-132602989D02*
G01*
X193182812Y-132633624D01*
X193346784Y-132701544D01*
X193494354Y-132800147D01*
X193619853Y-132925646D01*
X193718456Y-133073216D01*
X193786376Y-133237188D01*
X193821000Y-133411259D01*
X193821000Y-133588741D01*
X193786376Y-133762812D01*
X193718456Y-133926784D01*
X193619853Y-134074354D01*
X193494354Y-134199853D01*
X193346784Y-134298456D01*
X193182812Y-134366376D01*
X193034341Y-134395908D01*
X193008742Y-134401000D01*
X192831258Y-134401000D01*
X192805659Y-134395908D01*
X192657188Y-134366376D01*
X192493216Y-134298456D01*
X192345646Y-134199853D01*
X192220147Y-134074354D01*
X192121544Y-133926784D01*
X192053624Y-133762812D01*
X192019000Y-133588741D01*
X192019000Y-133411259D01*
X192053624Y-133237188D01*
X192121544Y-133073216D01*
X192220147Y-132925646D01*
X192345646Y-132800147D01*
X192493216Y-132701544D01*
X192657188Y-132633624D01*
X192811204Y-132602989D01*
X192831258Y-132599000D01*
X193008742Y-132599000D01*
X193028796Y-132602989D01*
X193028796Y-132602989D01*
G37*
G36*
X190488796Y-132602989D02*
G01*
X190642812Y-132633624D01*
X190806784Y-132701544D01*
X190954354Y-132800147D01*
X191079853Y-132925646D01*
X191178456Y-133073216D01*
X191246376Y-133237188D01*
X191281000Y-133411259D01*
X191281000Y-133588741D01*
X191246376Y-133762812D01*
X191178456Y-133926784D01*
X191079853Y-134074354D01*
X190954354Y-134199853D01*
X190806784Y-134298456D01*
X190642812Y-134366376D01*
X190494341Y-134395908D01*
X190468742Y-134401000D01*
X190291258Y-134401000D01*
X190265659Y-134395908D01*
X190117188Y-134366376D01*
X189953216Y-134298456D01*
X189805646Y-134199853D01*
X189680147Y-134074354D01*
X189581544Y-133926784D01*
X189513624Y-133762812D01*
X189479000Y-133588741D01*
X189479000Y-133411259D01*
X189513624Y-133237188D01*
X189581544Y-133073216D01*
X189680147Y-132925646D01*
X189805646Y-132800147D01*
X189953216Y-132701544D01*
X190117188Y-132633624D01*
X190271204Y-132602989D01*
X190291258Y-132599000D01*
X190468742Y-132599000D01*
X190488796Y-132602989D01*
X190488796Y-132602989D01*
G37*
G36*
X187948796Y-132602989D02*
G01*
X188102812Y-132633624D01*
X188266784Y-132701544D01*
X188414354Y-132800147D01*
X188539853Y-132925646D01*
X188638456Y-133073216D01*
X188706376Y-133237188D01*
X188741000Y-133411259D01*
X188741000Y-133588741D01*
X188706376Y-133762812D01*
X188638456Y-133926784D01*
X188539853Y-134074354D01*
X188414354Y-134199853D01*
X188266784Y-134298456D01*
X188102812Y-134366376D01*
X187954341Y-134395908D01*
X187928742Y-134401000D01*
X187751258Y-134401000D01*
X187725659Y-134395908D01*
X187577188Y-134366376D01*
X187413216Y-134298456D01*
X187265646Y-134199853D01*
X187140147Y-134074354D01*
X187041544Y-133926784D01*
X186973624Y-133762812D01*
X186939000Y-133588741D01*
X186939000Y-133411259D01*
X186973624Y-133237188D01*
X187041544Y-133073216D01*
X187140147Y-132925646D01*
X187265646Y-132800147D01*
X187413216Y-132701544D01*
X187577188Y-132633624D01*
X187731204Y-132602989D01*
X187751258Y-132599000D01*
X187928742Y-132599000D01*
X187948796Y-132602989D01*
X187948796Y-132602989D01*
G37*
G36*
X152390442Y-129805518D02*
G01*
X152456627Y-129812037D01*
X152626466Y-129863557D01*
X152782991Y-129947222D01*
X152818729Y-129976552D01*
X152920186Y-130059814D01*
X153003448Y-130161271D01*
X153032778Y-130197009D01*
X153116443Y-130353534D01*
X153167963Y-130523373D01*
X153185359Y-130700000D01*
X153167963Y-130876627D01*
X153116443Y-131046466D01*
X153032778Y-131202991D01*
X153003448Y-131238729D01*
X152920186Y-131340186D01*
X152818729Y-131423448D01*
X152782991Y-131452778D01*
X152626466Y-131536443D01*
X152456627Y-131587963D01*
X152390442Y-131594482D01*
X152324260Y-131601000D01*
X152235740Y-131601000D01*
X152169558Y-131594482D01*
X152103373Y-131587963D01*
X151933534Y-131536443D01*
X151777009Y-131452778D01*
X151741271Y-131423448D01*
X151639814Y-131340186D01*
X151556552Y-131238729D01*
X151527222Y-131202991D01*
X151443557Y-131046466D01*
X151392037Y-130876627D01*
X151374641Y-130700000D01*
X151392037Y-130523373D01*
X151443557Y-130353534D01*
X151527222Y-130197009D01*
X151556552Y-130161271D01*
X151639814Y-130059814D01*
X151741271Y-129976552D01*
X151777009Y-129947222D01*
X151933534Y-129863557D01*
X152103373Y-129812037D01*
X152169558Y-129805518D01*
X152235740Y-129799000D01*
X152324260Y-129799000D01*
X152390442Y-129805518D01*
X152390442Y-129805518D01*
G37*
G36*
X157470442Y-129805518D02*
G01*
X157536627Y-129812037D01*
X157706466Y-129863557D01*
X157862991Y-129947222D01*
X157898729Y-129976552D01*
X158000186Y-130059814D01*
X158083448Y-130161271D01*
X158112778Y-130197009D01*
X158196443Y-130353534D01*
X158247963Y-130523373D01*
X158265359Y-130700000D01*
X158247963Y-130876627D01*
X158196443Y-131046466D01*
X158112778Y-131202991D01*
X158083448Y-131238729D01*
X158000186Y-131340186D01*
X157898729Y-131423448D01*
X157862991Y-131452778D01*
X157706466Y-131536443D01*
X157536627Y-131587963D01*
X157470442Y-131594482D01*
X157404260Y-131601000D01*
X157315740Y-131601000D01*
X157249558Y-131594482D01*
X157183373Y-131587963D01*
X157013534Y-131536443D01*
X156857009Y-131452778D01*
X156821271Y-131423448D01*
X156719814Y-131340186D01*
X156636552Y-131238729D01*
X156607222Y-131202991D01*
X156523557Y-131046466D01*
X156472037Y-130876627D01*
X156454641Y-130700000D01*
X156472037Y-130523373D01*
X156523557Y-130353534D01*
X156607222Y-130197009D01*
X156636552Y-130161271D01*
X156719814Y-130059814D01*
X156821271Y-129976552D01*
X156857009Y-129947222D01*
X157013534Y-129863557D01*
X157183373Y-129812037D01*
X157249558Y-129805518D01*
X157315740Y-129799000D01*
X157404260Y-129799000D01*
X157470442Y-129805518D01*
X157470442Y-129805518D01*
G37*
G36*
X135401000Y-131601000D02*
G01*
X133599000Y-131601000D01*
X133599000Y-129799000D01*
X135401000Y-129799000D01*
X135401000Y-131601000D01*
X135401000Y-131601000D01*
G37*
G36*
X137150442Y-129805518D02*
G01*
X137216627Y-129812037D01*
X137386466Y-129863557D01*
X137542991Y-129947222D01*
X137578729Y-129976552D01*
X137680186Y-130059814D01*
X137763448Y-130161271D01*
X137792778Y-130197009D01*
X137876443Y-130353534D01*
X137927963Y-130523373D01*
X137945359Y-130700000D01*
X137927963Y-130876627D01*
X137876443Y-131046466D01*
X137792778Y-131202991D01*
X137763448Y-131238729D01*
X137680186Y-131340186D01*
X137578729Y-131423448D01*
X137542991Y-131452778D01*
X137386466Y-131536443D01*
X137216627Y-131587963D01*
X137150442Y-131594482D01*
X137084260Y-131601000D01*
X136995740Y-131601000D01*
X136929558Y-131594482D01*
X136863373Y-131587963D01*
X136693534Y-131536443D01*
X136537009Y-131452778D01*
X136501271Y-131423448D01*
X136399814Y-131340186D01*
X136316552Y-131238729D01*
X136287222Y-131202991D01*
X136203557Y-131046466D01*
X136152037Y-130876627D01*
X136134641Y-130700000D01*
X136152037Y-130523373D01*
X136203557Y-130353534D01*
X136287222Y-130197009D01*
X136316552Y-130161271D01*
X136399814Y-130059814D01*
X136501271Y-129976552D01*
X136537009Y-129947222D01*
X136693534Y-129863557D01*
X136863373Y-129812037D01*
X136929558Y-129805518D01*
X136995740Y-129799000D01*
X137084260Y-129799000D01*
X137150442Y-129805518D01*
X137150442Y-129805518D01*
G37*
G36*
X139690442Y-129805518D02*
G01*
X139756627Y-129812037D01*
X139926466Y-129863557D01*
X140082991Y-129947222D01*
X140118729Y-129976552D01*
X140220186Y-130059814D01*
X140303448Y-130161271D01*
X140332778Y-130197009D01*
X140416443Y-130353534D01*
X140467963Y-130523373D01*
X140485359Y-130700000D01*
X140467963Y-130876627D01*
X140416443Y-131046466D01*
X140332778Y-131202991D01*
X140303448Y-131238729D01*
X140220186Y-131340186D01*
X140118729Y-131423448D01*
X140082991Y-131452778D01*
X139926466Y-131536443D01*
X139756627Y-131587963D01*
X139690442Y-131594482D01*
X139624260Y-131601000D01*
X139535740Y-131601000D01*
X139469558Y-131594482D01*
X139403373Y-131587963D01*
X139233534Y-131536443D01*
X139077009Y-131452778D01*
X139041271Y-131423448D01*
X138939814Y-131340186D01*
X138856552Y-131238729D01*
X138827222Y-131202991D01*
X138743557Y-131046466D01*
X138692037Y-130876627D01*
X138674641Y-130700000D01*
X138692037Y-130523373D01*
X138743557Y-130353534D01*
X138827222Y-130197009D01*
X138856552Y-130161271D01*
X138939814Y-130059814D01*
X139041271Y-129976552D01*
X139077009Y-129947222D01*
X139233534Y-129863557D01*
X139403373Y-129812037D01*
X139469558Y-129805518D01*
X139535740Y-129799000D01*
X139624260Y-129799000D01*
X139690442Y-129805518D01*
X139690442Y-129805518D01*
G37*
G36*
X142230442Y-129805518D02*
G01*
X142296627Y-129812037D01*
X142466466Y-129863557D01*
X142622991Y-129947222D01*
X142658729Y-129976552D01*
X142760186Y-130059814D01*
X142843448Y-130161271D01*
X142872778Y-130197009D01*
X142956443Y-130353534D01*
X143007963Y-130523373D01*
X143025359Y-130700000D01*
X143007963Y-130876627D01*
X142956443Y-131046466D01*
X142872778Y-131202991D01*
X142843448Y-131238729D01*
X142760186Y-131340186D01*
X142658729Y-131423448D01*
X142622991Y-131452778D01*
X142466466Y-131536443D01*
X142296627Y-131587963D01*
X142230442Y-131594482D01*
X142164260Y-131601000D01*
X142075740Y-131601000D01*
X142009558Y-131594482D01*
X141943373Y-131587963D01*
X141773534Y-131536443D01*
X141617009Y-131452778D01*
X141581271Y-131423448D01*
X141479814Y-131340186D01*
X141396552Y-131238729D01*
X141367222Y-131202991D01*
X141283557Y-131046466D01*
X141232037Y-130876627D01*
X141214641Y-130700000D01*
X141232037Y-130523373D01*
X141283557Y-130353534D01*
X141367222Y-130197009D01*
X141396552Y-130161271D01*
X141479814Y-130059814D01*
X141581271Y-129976552D01*
X141617009Y-129947222D01*
X141773534Y-129863557D01*
X141943373Y-129812037D01*
X142009558Y-129805518D01*
X142075740Y-129799000D01*
X142164260Y-129799000D01*
X142230442Y-129805518D01*
X142230442Y-129805518D01*
G37*
G36*
X144770442Y-129805518D02*
G01*
X144836627Y-129812037D01*
X145006466Y-129863557D01*
X145162991Y-129947222D01*
X145198729Y-129976552D01*
X145300186Y-130059814D01*
X145383448Y-130161271D01*
X145412778Y-130197009D01*
X145496443Y-130353534D01*
X145547963Y-130523373D01*
X145565359Y-130700000D01*
X145547963Y-130876627D01*
X145496443Y-131046466D01*
X145412778Y-131202991D01*
X145383448Y-131238729D01*
X145300186Y-131340186D01*
X145198729Y-131423448D01*
X145162991Y-131452778D01*
X145006466Y-131536443D01*
X144836627Y-131587963D01*
X144770442Y-131594482D01*
X144704260Y-131601000D01*
X144615740Y-131601000D01*
X144549558Y-131594482D01*
X144483373Y-131587963D01*
X144313534Y-131536443D01*
X144157009Y-131452778D01*
X144121271Y-131423448D01*
X144019814Y-131340186D01*
X143936552Y-131238729D01*
X143907222Y-131202991D01*
X143823557Y-131046466D01*
X143772037Y-130876627D01*
X143754641Y-130700000D01*
X143772037Y-130523373D01*
X143823557Y-130353534D01*
X143907222Y-130197009D01*
X143936552Y-130161271D01*
X144019814Y-130059814D01*
X144121271Y-129976552D01*
X144157009Y-129947222D01*
X144313534Y-129863557D01*
X144483373Y-129812037D01*
X144549558Y-129805518D01*
X144615740Y-129799000D01*
X144704260Y-129799000D01*
X144770442Y-129805518D01*
X144770442Y-129805518D01*
G37*
G36*
X147310442Y-129805518D02*
G01*
X147376627Y-129812037D01*
X147546466Y-129863557D01*
X147702991Y-129947222D01*
X147738729Y-129976552D01*
X147840186Y-130059814D01*
X147923448Y-130161271D01*
X147952778Y-130197009D01*
X148036443Y-130353534D01*
X148087963Y-130523373D01*
X148105359Y-130700000D01*
X148087963Y-130876627D01*
X148036443Y-131046466D01*
X147952778Y-131202991D01*
X147923448Y-131238729D01*
X147840186Y-131340186D01*
X147738729Y-131423448D01*
X147702991Y-131452778D01*
X147546466Y-131536443D01*
X147376627Y-131587963D01*
X147310442Y-131594482D01*
X147244260Y-131601000D01*
X147155740Y-131601000D01*
X147089558Y-131594482D01*
X147023373Y-131587963D01*
X146853534Y-131536443D01*
X146697009Y-131452778D01*
X146661271Y-131423448D01*
X146559814Y-131340186D01*
X146476552Y-131238729D01*
X146447222Y-131202991D01*
X146363557Y-131046466D01*
X146312037Y-130876627D01*
X146294641Y-130700000D01*
X146312037Y-130523373D01*
X146363557Y-130353534D01*
X146447222Y-130197009D01*
X146476552Y-130161271D01*
X146559814Y-130059814D01*
X146661271Y-129976552D01*
X146697009Y-129947222D01*
X146853534Y-129863557D01*
X147023373Y-129812037D01*
X147089558Y-129805518D01*
X147155740Y-129799000D01*
X147244260Y-129799000D01*
X147310442Y-129805518D01*
X147310442Y-129805518D01*
G37*
G36*
X149850442Y-129805518D02*
G01*
X149916627Y-129812037D01*
X150086466Y-129863557D01*
X150242991Y-129947222D01*
X150278729Y-129976552D01*
X150380186Y-130059814D01*
X150463448Y-130161271D01*
X150492778Y-130197009D01*
X150576443Y-130353534D01*
X150627963Y-130523373D01*
X150645359Y-130700000D01*
X150627963Y-130876627D01*
X150576443Y-131046466D01*
X150492778Y-131202991D01*
X150463448Y-131238729D01*
X150380186Y-131340186D01*
X150278729Y-131423448D01*
X150242991Y-131452778D01*
X150086466Y-131536443D01*
X149916627Y-131587963D01*
X149850442Y-131594482D01*
X149784260Y-131601000D01*
X149695740Y-131601000D01*
X149629558Y-131594482D01*
X149563373Y-131587963D01*
X149393534Y-131536443D01*
X149237009Y-131452778D01*
X149201271Y-131423448D01*
X149099814Y-131340186D01*
X149016552Y-131238729D01*
X148987222Y-131202991D01*
X148903557Y-131046466D01*
X148852037Y-130876627D01*
X148834641Y-130700000D01*
X148852037Y-130523373D01*
X148903557Y-130353534D01*
X148987222Y-130197009D01*
X149016552Y-130161271D01*
X149099814Y-130059814D01*
X149201271Y-129976552D01*
X149237009Y-129947222D01*
X149393534Y-129863557D01*
X149563373Y-129812037D01*
X149629558Y-129805518D01*
X149695740Y-129799000D01*
X149784260Y-129799000D01*
X149850442Y-129805518D01*
X149850442Y-129805518D01*
G37*
G36*
X154930442Y-129805518D02*
G01*
X154996627Y-129812037D01*
X155166466Y-129863557D01*
X155322991Y-129947222D01*
X155358729Y-129976552D01*
X155460186Y-130059814D01*
X155543448Y-130161271D01*
X155572778Y-130197009D01*
X155656443Y-130353534D01*
X155707963Y-130523373D01*
X155725359Y-130700000D01*
X155707963Y-130876627D01*
X155656443Y-131046466D01*
X155572778Y-131202991D01*
X155543448Y-131238729D01*
X155460186Y-131340186D01*
X155358729Y-131423448D01*
X155322991Y-131452778D01*
X155166466Y-131536443D01*
X154996627Y-131587963D01*
X154930442Y-131594482D01*
X154864260Y-131601000D01*
X154775740Y-131601000D01*
X154709558Y-131594482D01*
X154643373Y-131587963D01*
X154473534Y-131536443D01*
X154317009Y-131452778D01*
X154281271Y-131423448D01*
X154179814Y-131340186D01*
X154096552Y-131238729D01*
X154067222Y-131202991D01*
X153983557Y-131046466D01*
X153932037Y-130876627D01*
X153914641Y-130700000D01*
X153932037Y-130523373D01*
X153983557Y-130353534D01*
X154067222Y-130197009D01*
X154096552Y-130161271D01*
X154179814Y-130059814D01*
X154281271Y-129976552D01*
X154317009Y-129947222D01*
X154473534Y-129863557D01*
X154643373Y-129812037D01*
X154709558Y-129805518D01*
X154775740Y-129799000D01*
X154864260Y-129799000D01*
X154930442Y-129805518D01*
X154930442Y-129805518D01*
G37*
G36*
X213364903Y-117797075D02*
G01*
X213592571Y-117891378D01*
X213797466Y-118028285D01*
X213971715Y-118202534D01*
X214103534Y-118399815D01*
X214108623Y-118407431D01*
X214202925Y-118635097D01*
X214251000Y-118876786D01*
X214251000Y-119123214D01*
X214202925Y-119364903D01*
X214129160Y-119542989D01*
X214108622Y-119592571D01*
X213971715Y-119797466D01*
X213797466Y-119971715D01*
X213592571Y-120108622D01*
X213592570Y-120108623D01*
X213592569Y-120108623D01*
X213364903Y-120202925D01*
X213123214Y-120251000D01*
X212876786Y-120251000D01*
X212635097Y-120202925D01*
X212407431Y-120108623D01*
X212407430Y-120108623D01*
X212407429Y-120108622D01*
X212202534Y-119971715D01*
X212028285Y-119797466D01*
X211891378Y-119592571D01*
X211870841Y-119542989D01*
X211797075Y-119364903D01*
X211749000Y-119123214D01*
X211749000Y-118876786D01*
X211797075Y-118635097D01*
X211891377Y-118407431D01*
X211896466Y-118399815D01*
X212028285Y-118202534D01*
X212202534Y-118028285D01*
X212407429Y-117891378D01*
X212635097Y-117797075D01*
X212876786Y-117749000D01*
X213123214Y-117749000D01*
X213364903Y-117797075D01*
X213364903Y-117797075D01*
G37*
G36*
X159010442Y-118145518D02*
G01*
X159076627Y-118152037D01*
X159246466Y-118203557D01*
X159402991Y-118287222D01*
X159438729Y-118316552D01*
X159540186Y-118399814D01*
X159623448Y-118501271D01*
X159652778Y-118537009D01*
X159736443Y-118693534D01*
X159787963Y-118863373D01*
X159805359Y-119040000D01*
X159787963Y-119216627D01*
X159736443Y-119386466D01*
X159652778Y-119542991D01*
X159623448Y-119578729D01*
X159540186Y-119680186D01*
X159438729Y-119763448D01*
X159402991Y-119792778D01*
X159246466Y-119876443D01*
X159076627Y-119927963D01*
X159010442Y-119934482D01*
X158944260Y-119941000D01*
X158855740Y-119941000D01*
X158789558Y-119934482D01*
X158723373Y-119927963D01*
X158553534Y-119876443D01*
X158397009Y-119792778D01*
X158361271Y-119763448D01*
X158259814Y-119680186D01*
X158176552Y-119578729D01*
X158147222Y-119542991D01*
X158063557Y-119386466D01*
X158012037Y-119216627D01*
X157994641Y-119040000D01*
X158012037Y-118863373D01*
X158063557Y-118693534D01*
X158147222Y-118537009D01*
X158176552Y-118501271D01*
X158259814Y-118399814D01*
X158361271Y-118316552D01*
X158397009Y-118287222D01*
X158553534Y-118203557D01*
X158723373Y-118152037D01*
X158789558Y-118145518D01*
X158855740Y-118139000D01*
X158944260Y-118139000D01*
X159010442Y-118145518D01*
X159010442Y-118145518D01*
G37*
G36*
X159010443Y-115605519D02*
G01*
X159076627Y-115612037D01*
X159246466Y-115663557D01*
X159402991Y-115747222D01*
X159438729Y-115776552D01*
X159540186Y-115859814D01*
X159623448Y-115961271D01*
X159652778Y-115997009D01*
X159736443Y-116153534D01*
X159787963Y-116323373D01*
X159805359Y-116500000D01*
X159787963Y-116676627D01*
X159736443Y-116846466D01*
X159652778Y-117002991D01*
X159623448Y-117038729D01*
X159540186Y-117140186D01*
X159438729Y-117223448D01*
X159402991Y-117252778D01*
X159246466Y-117336443D01*
X159076627Y-117387963D01*
X159010442Y-117394482D01*
X158944260Y-117401000D01*
X158855740Y-117401000D01*
X158789558Y-117394482D01*
X158723373Y-117387963D01*
X158553534Y-117336443D01*
X158397009Y-117252778D01*
X158361271Y-117223448D01*
X158259814Y-117140186D01*
X158176552Y-117038729D01*
X158147222Y-117002991D01*
X158063557Y-116846466D01*
X158012037Y-116676627D01*
X157994641Y-116500000D01*
X158012037Y-116323373D01*
X158063557Y-116153534D01*
X158147222Y-115997009D01*
X158176552Y-115961271D01*
X158259814Y-115859814D01*
X158361271Y-115776552D01*
X158397009Y-115747222D01*
X158553534Y-115663557D01*
X158723373Y-115612037D01*
X158789557Y-115605519D01*
X158855740Y-115599000D01*
X158944260Y-115599000D01*
X159010443Y-115605519D01*
X159010443Y-115605519D01*
G37*
G36*
X213364903Y-114297075D02*
G01*
X213592571Y-114391378D01*
X213797466Y-114528285D01*
X213971715Y-114702534D01*
X214108622Y-114907429D01*
X214202925Y-115135097D01*
X214251000Y-115376787D01*
X214251000Y-115623213D01*
X214202925Y-115864903D01*
X214108622Y-116092571D01*
X213971715Y-116297466D01*
X213797466Y-116471715D01*
X213592571Y-116608622D01*
X213592570Y-116608623D01*
X213592569Y-116608623D01*
X213364903Y-116702925D01*
X213123214Y-116751000D01*
X212876786Y-116751000D01*
X212635097Y-116702925D01*
X212407431Y-116608623D01*
X212407430Y-116608623D01*
X212407429Y-116608622D01*
X212202534Y-116471715D01*
X212028285Y-116297466D01*
X211891378Y-116092571D01*
X211797075Y-115864903D01*
X211749000Y-115623213D01*
X211749000Y-115376787D01*
X211797075Y-115135097D01*
X211891378Y-114907429D01*
X212028285Y-114702534D01*
X212202534Y-114528285D01*
X212407429Y-114391378D01*
X212635097Y-114297075D01*
X212876786Y-114249000D01*
X213123214Y-114249000D01*
X213364903Y-114297075D01*
X213364903Y-114297075D01*
G37*
G36*
X159010442Y-113065518D02*
G01*
X159076627Y-113072037D01*
X159246466Y-113123557D01*
X159402991Y-113207222D01*
X159438729Y-113236552D01*
X159540186Y-113319814D01*
X159623448Y-113421271D01*
X159652778Y-113457009D01*
X159736443Y-113613534D01*
X159787963Y-113783373D01*
X159805359Y-113960000D01*
X159787963Y-114136627D01*
X159736443Y-114306466D01*
X159652778Y-114462991D01*
X159623448Y-114498729D01*
X159540186Y-114600186D01*
X159438729Y-114683448D01*
X159402991Y-114712778D01*
X159246466Y-114796443D01*
X159076627Y-114847963D01*
X159010442Y-114854482D01*
X158944260Y-114861000D01*
X158855740Y-114861000D01*
X158789558Y-114854482D01*
X158723373Y-114847963D01*
X158553534Y-114796443D01*
X158397009Y-114712778D01*
X158361271Y-114683448D01*
X158259814Y-114600186D01*
X158176552Y-114498729D01*
X158147222Y-114462991D01*
X158063557Y-114306466D01*
X158012037Y-114136627D01*
X157994641Y-113960000D01*
X158012037Y-113783373D01*
X158063557Y-113613534D01*
X158147222Y-113457009D01*
X158176552Y-113421271D01*
X158259814Y-113319814D01*
X158361271Y-113236552D01*
X158397009Y-113207222D01*
X158553534Y-113123557D01*
X158723373Y-113072037D01*
X158789558Y-113065518D01*
X158855740Y-113059000D01*
X158944260Y-113059000D01*
X159010442Y-113065518D01*
X159010442Y-113065518D01*
G37*
G36*
X214251000Y-113251000D02*
G01*
X211749000Y-113251000D01*
X211749000Y-110749000D01*
X214251000Y-110749000D01*
X214251000Y-113251000D01*
X214251000Y-113251000D01*
G37*
G36*
X159010442Y-110525518D02*
G01*
X159076627Y-110532037D01*
X159246466Y-110583557D01*
X159402991Y-110667222D01*
X159438729Y-110696552D01*
X159540186Y-110779814D01*
X159623448Y-110881271D01*
X159652778Y-110917009D01*
X159736443Y-111073534D01*
X159787963Y-111243373D01*
X159805359Y-111420000D01*
X159787963Y-111596627D01*
X159736443Y-111766466D01*
X159652778Y-111922991D01*
X159623448Y-111958729D01*
X159540186Y-112060186D01*
X159438729Y-112143448D01*
X159402991Y-112172778D01*
X159246466Y-112256443D01*
X159076627Y-112307963D01*
X159010442Y-112314482D01*
X158944260Y-112321000D01*
X158855740Y-112321000D01*
X158789558Y-112314482D01*
X158723373Y-112307963D01*
X158553534Y-112256443D01*
X158397009Y-112172778D01*
X158361271Y-112143448D01*
X158259814Y-112060186D01*
X158176552Y-111958729D01*
X158147222Y-111922991D01*
X158063557Y-111766466D01*
X158012037Y-111596627D01*
X157994641Y-111420000D01*
X158012037Y-111243373D01*
X158063557Y-111073534D01*
X158147222Y-110917009D01*
X158176552Y-110881271D01*
X158259814Y-110779814D01*
X158361271Y-110696552D01*
X158397009Y-110667222D01*
X158553534Y-110583557D01*
X158723373Y-110532037D01*
X158789558Y-110525518D01*
X158855740Y-110519000D01*
X158944260Y-110519000D01*
X159010442Y-110525518D01*
X159010442Y-110525518D01*
G37*
G36*
X159010443Y-107985519D02*
G01*
X159076627Y-107992037D01*
X159246466Y-108043557D01*
X159402991Y-108127222D01*
X159438729Y-108156552D01*
X159540186Y-108239814D01*
X159623448Y-108341271D01*
X159652778Y-108377009D01*
X159736443Y-108533534D01*
X159787963Y-108703373D01*
X159805359Y-108880000D01*
X159787963Y-109056627D01*
X159736443Y-109226466D01*
X159652778Y-109382991D01*
X159623448Y-109418729D01*
X159540186Y-109520186D01*
X159438729Y-109603448D01*
X159402991Y-109632778D01*
X159246466Y-109716443D01*
X159076627Y-109767963D01*
X159010443Y-109774481D01*
X158944260Y-109781000D01*
X158855740Y-109781000D01*
X158789557Y-109774481D01*
X158723373Y-109767963D01*
X158553534Y-109716443D01*
X158397009Y-109632778D01*
X158361271Y-109603448D01*
X158259814Y-109520186D01*
X158176552Y-109418729D01*
X158147222Y-109382991D01*
X158063557Y-109226466D01*
X158012037Y-109056627D01*
X157994641Y-108880000D01*
X158012037Y-108703373D01*
X158063557Y-108533534D01*
X158147222Y-108377009D01*
X158176552Y-108341271D01*
X158259814Y-108239814D01*
X158361271Y-108156552D01*
X158397009Y-108127222D01*
X158553534Y-108043557D01*
X158723373Y-107992037D01*
X158789557Y-107985519D01*
X158855740Y-107979000D01*
X158944260Y-107979000D01*
X159010443Y-107985519D01*
X159010443Y-107985519D01*
G37*
G36*
X159010442Y-105445518D02*
G01*
X159076627Y-105452037D01*
X159246466Y-105503557D01*
X159402991Y-105587222D01*
X159438729Y-105616552D01*
X159540186Y-105699814D01*
X159623448Y-105801271D01*
X159652778Y-105837009D01*
X159736443Y-105993534D01*
X159787963Y-106163373D01*
X159805359Y-106340000D01*
X159787963Y-106516627D01*
X159736443Y-106686466D01*
X159652778Y-106842991D01*
X159623448Y-106878729D01*
X159540186Y-106980186D01*
X159438729Y-107063448D01*
X159402991Y-107092778D01*
X159246466Y-107176443D01*
X159076627Y-107227963D01*
X159010442Y-107234482D01*
X158944260Y-107241000D01*
X158855740Y-107241000D01*
X158789558Y-107234482D01*
X158723373Y-107227963D01*
X158553534Y-107176443D01*
X158397009Y-107092778D01*
X158361271Y-107063448D01*
X158259814Y-106980186D01*
X158176552Y-106878729D01*
X158147222Y-106842991D01*
X158063557Y-106686466D01*
X158012037Y-106516627D01*
X157994641Y-106340000D01*
X158012037Y-106163373D01*
X158063557Y-105993534D01*
X158147222Y-105837009D01*
X158176552Y-105801271D01*
X158259814Y-105699814D01*
X158361271Y-105616552D01*
X158397009Y-105587222D01*
X158553534Y-105503557D01*
X158723373Y-105452037D01*
X158789557Y-105445519D01*
X158855740Y-105439000D01*
X158944260Y-105439000D01*
X159010442Y-105445518D01*
X159010442Y-105445518D01*
G37*
G36*
X159801000Y-104701000D02*
G01*
X157999000Y-104701000D01*
X157999000Y-102899000D01*
X159801000Y-102899000D01*
X159801000Y-104701000D01*
X159801000Y-104701000D01*
G37*
G36*
X209976979Y-99413293D02*
G01*
X210110625Y-99453834D01*
X210233784Y-99519664D01*
X210341740Y-99608260D01*
X210430336Y-99716216D01*
X210496166Y-99839375D01*
X210536707Y-99973021D01*
X210551000Y-100118140D01*
X210551000Y-102281860D01*
X210536707Y-102426979D01*
X210496166Y-102560625D01*
X210430336Y-102683784D01*
X210341740Y-102791740D01*
X210233784Y-102880336D01*
X210110625Y-102946166D01*
X209976979Y-102986707D01*
X209831860Y-103001000D01*
X208168140Y-103001000D01*
X208023021Y-102986707D01*
X207889375Y-102946166D01*
X207766216Y-102880336D01*
X207658260Y-102791740D01*
X207569664Y-102683784D01*
X207503834Y-102560625D01*
X207463293Y-102426979D01*
X207449000Y-102281860D01*
X207449000Y-100118140D01*
X207463293Y-99973021D01*
X207503834Y-99839375D01*
X207569664Y-99716216D01*
X207658260Y-99608260D01*
X207766216Y-99519664D01*
X207889375Y-99453834D01*
X208023021Y-99413293D01*
X208168140Y-99399000D01*
X209831860Y-99399000D01*
X209976979Y-99413293D01*
X209976979Y-99413293D01*
G37*
G36*
X204801000Y-103001000D02*
G01*
X201199000Y-103001000D01*
X201199000Y-99399000D01*
X204801000Y-99399000D01*
X204801000Y-103001000D01*
X204801000Y-103001000D01*
G37*
G36*
X207126366Y-94715695D02*
G01*
X207283460Y-94763349D01*
X207428231Y-94840731D01*
X207555128Y-94944872D01*
X207659269Y-95071769D01*
X207736651Y-95216540D01*
X207784305Y-95373634D01*
X207801000Y-95543140D01*
X207801000Y-97456860D01*
X207784305Y-97626366D01*
X207736651Y-97783460D01*
X207659269Y-97928231D01*
X207555128Y-98055128D01*
X207428231Y-98159269D01*
X207283460Y-98236651D01*
X207126366Y-98284305D01*
X206956860Y-98301000D01*
X205043140Y-98301000D01*
X204873634Y-98284305D01*
X204716540Y-98236651D01*
X204571769Y-98159269D01*
X204444872Y-98055128D01*
X204340731Y-97928231D01*
X204263349Y-97783460D01*
X204215695Y-97626366D01*
X204199000Y-97456860D01*
X204199000Y-95543140D01*
X204215695Y-95373634D01*
X204263349Y-95216540D01*
X204340731Y-95071769D01*
X204444872Y-94944872D01*
X204571769Y-94840731D01*
X204716540Y-94763349D01*
X204873634Y-94715695D01*
X205043140Y-94699000D01*
X206956860Y-94699000D01*
X207126366Y-94715695D01*
X207126366Y-94715695D01*
G37*
G36*
X144670443Y-93805519D02*
G01*
X144736627Y-93812037D01*
X144906466Y-93863557D01*
X145062991Y-93947222D01*
X145098729Y-93976552D01*
X145200186Y-94059814D01*
X145283448Y-94161271D01*
X145312778Y-94197009D01*
X145396443Y-94353534D01*
X145447963Y-94523373D01*
X145465359Y-94700000D01*
X145447963Y-94876627D01*
X145396443Y-95046466D01*
X145312778Y-95202991D01*
X145283448Y-95238729D01*
X145200186Y-95340186D01*
X145098729Y-95423448D01*
X145062991Y-95452778D01*
X144906466Y-95536443D01*
X144736627Y-95587963D01*
X144670442Y-95594482D01*
X144604260Y-95601000D01*
X144515740Y-95601000D01*
X144449558Y-95594482D01*
X144383373Y-95587963D01*
X144213534Y-95536443D01*
X144057009Y-95452778D01*
X144021271Y-95423448D01*
X143919814Y-95340186D01*
X143836552Y-95238729D01*
X143807222Y-95202991D01*
X143723557Y-95046466D01*
X143672037Y-94876627D01*
X143654641Y-94700000D01*
X143672037Y-94523373D01*
X143723557Y-94353534D01*
X143807222Y-94197009D01*
X143836552Y-94161271D01*
X143919814Y-94059814D01*
X144021271Y-93976552D01*
X144057009Y-93947222D01*
X144213534Y-93863557D01*
X144383373Y-93812037D01*
X144449557Y-93805519D01*
X144515740Y-93799000D01*
X144604260Y-93799000D01*
X144670443Y-93805519D01*
X144670443Y-93805519D01*
G37*
G36*
X135301000Y-95601000D02*
G01*
X133499000Y-95601000D01*
X133499000Y-93799000D01*
X135301000Y-93799000D01*
X135301000Y-95601000D01*
X135301000Y-95601000D01*
G37*
G36*
X137050443Y-93805519D02*
G01*
X137116627Y-93812037D01*
X137286466Y-93863557D01*
X137442991Y-93947222D01*
X137478729Y-93976552D01*
X137580186Y-94059814D01*
X137663448Y-94161271D01*
X137692778Y-94197009D01*
X137776443Y-94353534D01*
X137827963Y-94523373D01*
X137845359Y-94700000D01*
X137827963Y-94876627D01*
X137776443Y-95046466D01*
X137692778Y-95202991D01*
X137663448Y-95238729D01*
X137580186Y-95340186D01*
X137478729Y-95423448D01*
X137442991Y-95452778D01*
X137286466Y-95536443D01*
X137116627Y-95587963D01*
X137050442Y-95594482D01*
X136984260Y-95601000D01*
X136895740Y-95601000D01*
X136829558Y-95594482D01*
X136763373Y-95587963D01*
X136593534Y-95536443D01*
X136437009Y-95452778D01*
X136401271Y-95423448D01*
X136299814Y-95340186D01*
X136216552Y-95238729D01*
X136187222Y-95202991D01*
X136103557Y-95046466D01*
X136052037Y-94876627D01*
X136034641Y-94700000D01*
X136052037Y-94523373D01*
X136103557Y-94353534D01*
X136187222Y-94197009D01*
X136216552Y-94161271D01*
X136299814Y-94059814D01*
X136401271Y-93976552D01*
X136437009Y-93947222D01*
X136593534Y-93863557D01*
X136763373Y-93812037D01*
X136829557Y-93805519D01*
X136895740Y-93799000D01*
X136984260Y-93799000D01*
X137050443Y-93805519D01*
X137050443Y-93805519D01*
G37*
G36*
X139590443Y-93805519D02*
G01*
X139656627Y-93812037D01*
X139826466Y-93863557D01*
X139982991Y-93947222D01*
X140018729Y-93976552D01*
X140120186Y-94059814D01*
X140203448Y-94161271D01*
X140232778Y-94197009D01*
X140316443Y-94353534D01*
X140367963Y-94523373D01*
X140385359Y-94700000D01*
X140367963Y-94876627D01*
X140316443Y-95046466D01*
X140232778Y-95202991D01*
X140203448Y-95238729D01*
X140120186Y-95340186D01*
X140018729Y-95423448D01*
X139982991Y-95452778D01*
X139826466Y-95536443D01*
X139656627Y-95587963D01*
X139590442Y-95594482D01*
X139524260Y-95601000D01*
X139435740Y-95601000D01*
X139369558Y-95594482D01*
X139303373Y-95587963D01*
X139133534Y-95536443D01*
X138977009Y-95452778D01*
X138941271Y-95423448D01*
X138839814Y-95340186D01*
X138756552Y-95238729D01*
X138727222Y-95202991D01*
X138643557Y-95046466D01*
X138592037Y-94876627D01*
X138574641Y-94700000D01*
X138592037Y-94523373D01*
X138643557Y-94353534D01*
X138727222Y-94197009D01*
X138756552Y-94161271D01*
X138839814Y-94059814D01*
X138941271Y-93976552D01*
X138977009Y-93947222D01*
X139133534Y-93863557D01*
X139303373Y-93812037D01*
X139369557Y-93805519D01*
X139435740Y-93799000D01*
X139524260Y-93799000D01*
X139590443Y-93805519D01*
X139590443Y-93805519D01*
G37*
G36*
X142130443Y-93805519D02*
G01*
X142196627Y-93812037D01*
X142366466Y-93863557D01*
X142522991Y-93947222D01*
X142558729Y-93976552D01*
X142660186Y-94059814D01*
X142743448Y-94161271D01*
X142772778Y-94197009D01*
X142856443Y-94353534D01*
X142907963Y-94523373D01*
X142925359Y-94700000D01*
X142907963Y-94876627D01*
X142856443Y-95046466D01*
X142772778Y-95202991D01*
X142743448Y-95238729D01*
X142660186Y-95340186D01*
X142558729Y-95423448D01*
X142522991Y-95452778D01*
X142366466Y-95536443D01*
X142196627Y-95587963D01*
X142130442Y-95594482D01*
X142064260Y-95601000D01*
X141975740Y-95601000D01*
X141909558Y-95594482D01*
X141843373Y-95587963D01*
X141673534Y-95536443D01*
X141517009Y-95452778D01*
X141481271Y-95423448D01*
X141379814Y-95340186D01*
X141296552Y-95238729D01*
X141267222Y-95202991D01*
X141183557Y-95046466D01*
X141132037Y-94876627D01*
X141114641Y-94700000D01*
X141132037Y-94523373D01*
X141183557Y-94353534D01*
X141267222Y-94197009D01*
X141296552Y-94161271D01*
X141379814Y-94059814D01*
X141481271Y-93976552D01*
X141517009Y-93947222D01*
X141673534Y-93863557D01*
X141843373Y-93812037D01*
X141909557Y-93805519D01*
X141975740Y-93799000D01*
X142064260Y-93799000D01*
X142130443Y-93805519D01*
X142130443Y-93805519D01*
G37*
G36*
X157370443Y-93805519D02*
G01*
X157436627Y-93812037D01*
X157606466Y-93863557D01*
X157762991Y-93947222D01*
X157798729Y-93976552D01*
X157900186Y-94059814D01*
X157983448Y-94161271D01*
X158012778Y-94197009D01*
X158096443Y-94353534D01*
X158147963Y-94523373D01*
X158165359Y-94700000D01*
X158147963Y-94876627D01*
X158096443Y-95046466D01*
X158012778Y-95202991D01*
X157983448Y-95238729D01*
X157900186Y-95340186D01*
X157798729Y-95423448D01*
X157762991Y-95452778D01*
X157606466Y-95536443D01*
X157436627Y-95587963D01*
X157370442Y-95594482D01*
X157304260Y-95601000D01*
X157215740Y-95601000D01*
X157149558Y-95594482D01*
X157083373Y-95587963D01*
X156913534Y-95536443D01*
X156757009Y-95452778D01*
X156721271Y-95423448D01*
X156619814Y-95340186D01*
X156536552Y-95238729D01*
X156507222Y-95202991D01*
X156423557Y-95046466D01*
X156372037Y-94876627D01*
X156354641Y-94700000D01*
X156372037Y-94523373D01*
X156423557Y-94353534D01*
X156507222Y-94197009D01*
X156536552Y-94161271D01*
X156619814Y-94059814D01*
X156721271Y-93976552D01*
X156757009Y-93947222D01*
X156913534Y-93863557D01*
X157083373Y-93812037D01*
X157149557Y-93805519D01*
X157215740Y-93799000D01*
X157304260Y-93799000D01*
X157370443Y-93805519D01*
X157370443Y-93805519D01*
G37*
G36*
X154830443Y-93805519D02*
G01*
X154896627Y-93812037D01*
X155066466Y-93863557D01*
X155222991Y-93947222D01*
X155258729Y-93976552D01*
X155360186Y-94059814D01*
X155443448Y-94161271D01*
X155472778Y-94197009D01*
X155556443Y-94353534D01*
X155607963Y-94523373D01*
X155625359Y-94700000D01*
X155607963Y-94876627D01*
X155556443Y-95046466D01*
X155472778Y-95202991D01*
X155443448Y-95238729D01*
X155360186Y-95340186D01*
X155258729Y-95423448D01*
X155222991Y-95452778D01*
X155066466Y-95536443D01*
X154896627Y-95587963D01*
X154830442Y-95594482D01*
X154764260Y-95601000D01*
X154675740Y-95601000D01*
X154609558Y-95594482D01*
X154543373Y-95587963D01*
X154373534Y-95536443D01*
X154217009Y-95452778D01*
X154181271Y-95423448D01*
X154079814Y-95340186D01*
X153996552Y-95238729D01*
X153967222Y-95202991D01*
X153883557Y-95046466D01*
X153832037Y-94876627D01*
X153814641Y-94700000D01*
X153832037Y-94523373D01*
X153883557Y-94353534D01*
X153967222Y-94197009D01*
X153996552Y-94161271D01*
X154079814Y-94059814D01*
X154181271Y-93976552D01*
X154217009Y-93947222D01*
X154373534Y-93863557D01*
X154543373Y-93812037D01*
X154609557Y-93805519D01*
X154675740Y-93799000D01*
X154764260Y-93799000D01*
X154830443Y-93805519D01*
X154830443Y-93805519D01*
G37*
G36*
X152290443Y-93805519D02*
G01*
X152356627Y-93812037D01*
X152526466Y-93863557D01*
X152682991Y-93947222D01*
X152718729Y-93976552D01*
X152820186Y-94059814D01*
X152903448Y-94161271D01*
X152932778Y-94197009D01*
X153016443Y-94353534D01*
X153067963Y-94523373D01*
X153085359Y-94700000D01*
X153067963Y-94876627D01*
X153016443Y-95046466D01*
X152932778Y-95202991D01*
X152903448Y-95238729D01*
X152820186Y-95340186D01*
X152718729Y-95423448D01*
X152682991Y-95452778D01*
X152526466Y-95536443D01*
X152356627Y-95587963D01*
X152290442Y-95594482D01*
X152224260Y-95601000D01*
X152135740Y-95601000D01*
X152069558Y-95594482D01*
X152003373Y-95587963D01*
X151833534Y-95536443D01*
X151677009Y-95452778D01*
X151641271Y-95423448D01*
X151539814Y-95340186D01*
X151456552Y-95238729D01*
X151427222Y-95202991D01*
X151343557Y-95046466D01*
X151292037Y-94876627D01*
X151274641Y-94700000D01*
X151292037Y-94523373D01*
X151343557Y-94353534D01*
X151427222Y-94197009D01*
X151456552Y-94161271D01*
X151539814Y-94059814D01*
X151641271Y-93976552D01*
X151677009Y-93947222D01*
X151833534Y-93863557D01*
X152003373Y-93812037D01*
X152069557Y-93805519D01*
X152135740Y-93799000D01*
X152224260Y-93799000D01*
X152290443Y-93805519D01*
X152290443Y-93805519D01*
G37*
G36*
X149750443Y-93805519D02*
G01*
X149816627Y-93812037D01*
X149986466Y-93863557D01*
X150142991Y-93947222D01*
X150178729Y-93976552D01*
X150280186Y-94059814D01*
X150363448Y-94161271D01*
X150392778Y-94197009D01*
X150476443Y-94353534D01*
X150527963Y-94523373D01*
X150545359Y-94700000D01*
X150527963Y-94876627D01*
X150476443Y-95046466D01*
X150392778Y-95202991D01*
X150363448Y-95238729D01*
X150280186Y-95340186D01*
X150178729Y-95423448D01*
X150142991Y-95452778D01*
X149986466Y-95536443D01*
X149816627Y-95587963D01*
X149750442Y-95594482D01*
X149684260Y-95601000D01*
X149595740Y-95601000D01*
X149529558Y-95594482D01*
X149463373Y-95587963D01*
X149293534Y-95536443D01*
X149137009Y-95452778D01*
X149101271Y-95423448D01*
X148999814Y-95340186D01*
X148916552Y-95238729D01*
X148887222Y-95202991D01*
X148803557Y-95046466D01*
X148752037Y-94876627D01*
X148734641Y-94700000D01*
X148752037Y-94523373D01*
X148803557Y-94353534D01*
X148887222Y-94197009D01*
X148916552Y-94161271D01*
X148999814Y-94059814D01*
X149101271Y-93976552D01*
X149137009Y-93947222D01*
X149293534Y-93863557D01*
X149463373Y-93812037D01*
X149529557Y-93805519D01*
X149595740Y-93799000D01*
X149684260Y-93799000D01*
X149750443Y-93805519D01*
X149750443Y-93805519D01*
G37*
G36*
X147210443Y-93805519D02*
G01*
X147276627Y-93812037D01*
X147446466Y-93863557D01*
X147602991Y-93947222D01*
X147638729Y-93976552D01*
X147740186Y-94059814D01*
X147823448Y-94161271D01*
X147852778Y-94197009D01*
X147936443Y-94353534D01*
X147987963Y-94523373D01*
X148005359Y-94700000D01*
X147987963Y-94876627D01*
X147936443Y-95046466D01*
X147852778Y-95202991D01*
X147823448Y-95238729D01*
X147740186Y-95340186D01*
X147638729Y-95423448D01*
X147602991Y-95452778D01*
X147446466Y-95536443D01*
X147276627Y-95587963D01*
X147210442Y-95594482D01*
X147144260Y-95601000D01*
X147055740Y-95601000D01*
X146989558Y-95594482D01*
X146923373Y-95587963D01*
X146753534Y-95536443D01*
X146597009Y-95452778D01*
X146561271Y-95423448D01*
X146459814Y-95340186D01*
X146376552Y-95238729D01*
X146347222Y-95202991D01*
X146263557Y-95046466D01*
X146212037Y-94876627D01*
X146194641Y-94700000D01*
X146212037Y-94523373D01*
X146263557Y-94353534D01*
X146347222Y-94197009D01*
X146376552Y-94161271D01*
X146459814Y-94059814D01*
X146561271Y-93976552D01*
X146597009Y-93947222D01*
X146753534Y-93863557D01*
X146923373Y-93812037D01*
X146989557Y-93805519D01*
X147055740Y-93799000D01*
X147144260Y-93799000D01*
X147210443Y-93805519D01*
X147210443Y-93805519D01*
G37*
G36*
X127634239Y-86811467D02*
G01*
X127948282Y-86873934D01*
X128539926Y-87119001D01*
X129072392Y-87474784D01*
X129525216Y-87927608D01*
X129880999Y-88460074D01*
X130126066Y-89051718D01*
X130126066Y-89051719D01*
X130251000Y-89679803D01*
X130251000Y-90320197D01*
X130188533Y-90634239D01*
X130126066Y-90948282D01*
X129880999Y-91539926D01*
X129525216Y-92072392D01*
X129072392Y-92525216D01*
X128539926Y-92880999D01*
X127948282Y-93126066D01*
X127634239Y-93188533D01*
X127320197Y-93251000D01*
X126679803Y-93251000D01*
X126365761Y-93188533D01*
X126051718Y-93126066D01*
X125460074Y-92880999D01*
X124927608Y-92525216D01*
X124474784Y-92072392D01*
X124119001Y-91539926D01*
X123873934Y-90948282D01*
X123811467Y-90634239D01*
X123749000Y-90320197D01*
X123749000Y-89679803D01*
X123873934Y-89051719D01*
X123873934Y-89051718D01*
X124119001Y-88460074D01*
X124474784Y-87927608D01*
X124927608Y-87474784D01*
X125460074Y-87119001D01*
X126051718Y-86873934D01*
X126365761Y-86811467D01*
X126679803Y-86749000D01*
X127320197Y-86749000D01*
X127634239Y-86811467D01*
X127634239Y-86811467D01*
G37*
G36*
X212634239Y-86811467D02*
G01*
X212948282Y-86873934D01*
X213539926Y-87119001D01*
X214072392Y-87474784D01*
X214525216Y-87927608D01*
X214880999Y-88460074D01*
X215126066Y-89051718D01*
X215126066Y-89051719D01*
X215251000Y-89679803D01*
X215251000Y-90320197D01*
X215188533Y-90634239D01*
X215126066Y-90948282D01*
X214880999Y-91539926D01*
X214525216Y-92072392D01*
X214072392Y-92525216D01*
X213539926Y-92880999D01*
X212948282Y-93126066D01*
X212634239Y-93188533D01*
X212320197Y-93251000D01*
X211679803Y-93251000D01*
X211365761Y-93188533D01*
X211051718Y-93126066D01*
X210460074Y-92880999D01*
X209927608Y-92525216D01*
X209474784Y-92072392D01*
X209119001Y-91539926D01*
X208873934Y-90948282D01*
X208811467Y-90634239D01*
X208749000Y-90320197D01*
X208749000Y-89679803D01*
X208873934Y-89051719D01*
X208873934Y-89051718D01*
X209119001Y-88460074D01*
X209474784Y-87927608D01*
X209927608Y-87474784D01*
X210460074Y-87119001D01*
X211051718Y-86873934D01*
X211365761Y-86811467D01*
X211679803Y-86749000D01*
X212320197Y-86749000D01*
X212634239Y-86811467D01*
X212634239Y-86811467D01*
G37*
M02*
