G04 #@! TF.GenerationSoftware,KiCad,Pcbnew,(6.0.0)*
G04 #@! TF.CreationDate,2022-01-01T11:54:16+05:30*
G04 #@! TF.ProjectId,ESP32_BoardV1,45535033-325f-4426-9f61-726456312e6b,rev?*
G04 #@! TF.SameCoordinates,Original*
G04 #@! TF.FileFunction,Paste,Top*
G04 #@! TF.FilePolarity,Positive*
%FSLAX46Y46*%
G04 Gerber Fmt 4.6, Leading zero omitted, Abs format (unit mm)*
G04 Created by KiCad (PCBNEW (6.0.0)) date 2022-01-01 11:54:16*
%MOMM*%
%LPD*%
G01*
G04 APERTURE LIST*
G04 Aperture macros list*
%AMRoundRect*
0 Rectangle with rounded corners*
0 $1 Rounding radius*
0 $2 $3 $4 $5 $6 $7 $8 $9 X,Y pos of 4 corners*
0 Add a 4 corners polygon primitive as box body*
4,1,4,$2,$3,$4,$5,$6,$7,$8,$9,$2,$3,0*
0 Add four circle primitives for the rounded corners*
1,1,$1+$1,$2,$3*
1,1,$1+$1,$4,$5*
1,1,$1+$1,$6,$7*
1,1,$1+$1,$8,$9*
0 Add four rect primitives between the rounded corners*
20,1,$1+$1,$2,$3,$4,$5,0*
20,1,$1+$1,$4,$5,$6,$7,0*
20,1,$1+$1,$6,$7,$8,$9,0*
20,1,$1+$1,$8,$9,$2,$3,0*%
G04 Aperture macros list end*
%ADD10RoundRect,0.155000X0.212500X0.155000X-0.212500X0.155000X-0.212500X-0.155000X0.212500X-0.155000X0*%
%ADD11R,0.400000X0.650000*%
%ADD12RoundRect,0.160000X-0.197500X-0.160000X0.197500X-0.160000X0.197500X0.160000X-0.197500X0.160000X0*%
%ADD13R,0.900000X2.000000*%
%ADD14R,2.000000X0.900000*%
%ADD15R,5.000000X5.000000*%
%ADD16R,0.600000X1.550000*%
%ADD17R,1.200000X1.800000*%
%ADD18RoundRect,0.160000X0.197500X0.160000X-0.197500X0.160000X-0.197500X-0.160000X0.197500X-0.160000X0*%
%ADD19R,2.300000X2.500000*%
%ADD20RoundRect,0.250000X-0.550000X0.850000X-0.550000X-0.850000X0.550000X-0.850000X0.550000X0.850000X0*%
%ADD21R,1.500000X2.000000*%
%ADD22R,3.800000X2.000000*%
%ADD23RoundRect,0.250000X0.550000X-1.250000X0.550000X1.250000X-0.550000X1.250000X-0.550000X-1.250000X0*%
%ADD24R,1.300000X0.300000*%
%ADD25R,2.200000X1.800000*%
%ADD26RoundRect,0.160000X0.160000X-0.197500X0.160000X0.197500X-0.160000X0.197500X-0.160000X-0.197500X0*%
%ADD27RoundRect,0.160000X-0.160000X0.197500X-0.160000X-0.197500X0.160000X-0.197500X0.160000X0.197500X0*%
%ADD28RoundRect,0.155000X-0.155000X0.212500X-0.155000X-0.212500X0.155000X-0.212500X0.155000X0.212500X0*%
%ADD29R,0.800000X0.900000*%
%ADD30RoundRect,0.150000X-0.150000X0.825000X-0.150000X-0.825000X0.150000X-0.825000X0.150000X0.825000X0*%
%ADD31R,3.000000X2.000000*%
%ADD32RoundRect,0.250000X0.375000X0.625000X-0.375000X0.625000X-0.375000X-0.625000X0.375000X-0.625000X0*%
%ADD33RoundRect,0.140000X0.140000X0.170000X-0.140000X0.170000X-0.140000X-0.170000X0.140000X-0.170000X0*%
%ADD34RoundRect,0.250000X0.550000X-1.500000X0.550000X1.500000X-0.550000X1.500000X-0.550000X-1.500000X0*%
%ADD35RoundRect,0.140000X-0.140000X-0.170000X0.140000X-0.170000X0.140000X0.170000X-0.140000X0.170000X0*%
%ADD36R,1.100000X1.100000*%
%ADD37RoundRect,0.250000X0.850000X-0.375000X0.850000X0.375000X-0.850000X0.375000X-0.850000X-0.375000X0*%
G04 APERTURE END LIST*
D10*
X93567500Y-138100000D03*
X92432500Y-138100000D03*
X93567500Y-140300000D03*
X92432500Y-140300000D03*
X93567500Y-137000000D03*
X92432500Y-137000000D03*
D11*
X102250000Y-104450000D03*
X102900000Y-104450000D03*
X103550000Y-104450000D03*
X103550000Y-102550000D03*
X102900000Y-102550000D03*
X102250000Y-102550000D03*
D12*
X135027500Y-142500000D03*
X136222500Y-142500000D03*
X137402500Y-142500000D03*
X138597500Y-142500000D03*
D13*
X92745000Y-133500000D03*
X94015000Y-133500000D03*
X95285000Y-133500000D03*
X96555000Y-133500000D03*
X97825000Y-133500000D03*
X99095000Y-133500000D03*
X100365000Y-133500000D03*
X101635000Y-133500000D03*
X102905000Y-133500000D03*
X104175000Y-133500000D03*
X105445000Y-133500000D03*
X106715000Y-133500000D03*
X107985000Y-133500000D03*
X109255000Y-133500000D03*
D14*
X110255000Y-130715000D03*
X110255000Y-129445000D03*
X110255000Y-128175000D03*
X110255000Y-126905000D03*
X110255000Y-125635000D03*
X110255000Y-124365000D03*
X110255000Y-123095000D03*
X110255000Y-121825000D03*
X110255000Y-120555000D03*
X110255000Y-119285000D03*
D13*
X109255000Y-116500000D03*
X107985000Y-116500000D03*
X106715000Y-116500000D03*
X105445000Y-116500000D03*
X104175000Y-116500000D03*
X102905000Y-116500000D03*
X101635000Y-116500000D03*
X100365000Y-116500000D03*
X99095000Y-116500000D03*
X97825000Y-116500000D03*
X96555000Y-116500000D03*
X95285000Y-116500000D03*
X94015000Y-116500000D03*
X92745000Y-116500000D03*
D15*
X100245000Y-126000000D03*
D10*
X171867500Y-132800000D03*
X170732500Y-132800000D03*
D16*
X122916666Y-149000000D03*
X123916666Y-149000000D03*
X124916666Y-149000000D03*
X125916666Y-149000000D03*
D17*
X121616666Y-152875000D03*
X127216666Y-152875000D03*
D12*
X132702500Y-142500000D03*
X133897500Y-142500000D03*
D10*
X149837500Y-103352500D03*
X148702500Y-103352500D03*
D18*
X149867500Y-102352500D03*
X148672500Y-102352500D03*
D16*
X134625000Y-149000000D03*
X135625000Y-149000000D03*
X136625000Y-149000000D03*
D17*
X133325000Y-152875000D03*
X137925000Y-152875000D03*
D19*
X165000000Y-139150000D03*
X165000000Y-134850000D03*
D20*
X167200000Y-146100000D03*
X167200000Y-149100000D03*
D21*
X175800000Y-146650000D03*
X173500000Y-146650000D03*
D22*
X173500000Y-152950000D03*
D21*
X171200000Y-146650000D03*
D23*
X181000000Y-151000000D03*
X181000000Y-146600000D03*
D10*
X171867500Y-131800000D03*
X170732500Y-131800000D03*
D24*
X173650000Y-134750000D03*
X173650000Y-134250000D03*
X173650000Y-133750000D03*
X173650000Y-133250000D03*
X173650000Y-132750000D03*
X173650000Y-132250000D03*
X173650000Y-131750000D03*
X173650000Y-131250000D03*
X173650000Y-130750000D03*
X173650000Y-130250000D03*
X173650000Y-129750000D03*
X173650000Y-129250000D03*
X173650000Y-128750000D03*
X173650000Y-128250000D03*
X173650000Y-127750000D03*
X173650000Y-127250000D03*
X173650000Y-126750000D03*
X173650000Y-126250000D03*
X173650000Y-125750000D03*
X173650000Y-125250000D03*
X173650000Y-124750000D03*
X173650000Y-124250000D03*
X173650000Y-123750000D03*
X173650000Y-123250000D03*
X173650000Y-122750000D03*
X173650000Y-122250000D03*
X173650000Y-121750000D03*
X173650000Y-121250000D03*
X173650000Y-120750000D03*
X173650000Y-120250000D03*
X173650000Y-119750000D03*
X173650000Y-119250000D03*
X173650000Y-118750000D03*
X173650000Y-118250000D03*
X173650000Y-117750000D03*
X173650000Y-117250000D03*
X173650000Y-116750000D03*
X173650000Y-116250000D03*
X173650000Y-115750000D03*
X173650000Y-115250000D03*
D25*
X176900000Y-113350000D03*
X176900000Y-136650000D03*
D26*
X166900000Y-114297500D03*
X166900000Y-113102500D03*
D27*
X166900000Y-115652500D03*
X166900000Y-116847500D03*
D28*
X139000000Y-124532500D03*
X139000000Y-125667500D03*
D29*
X136575000Y-127250000D03*
X134675000Y-127250000D03*
X135625000Y-129250000D03*
D27*
X135625000Y-114902500D03*
X135625000Y-116097500D03*
X138250000Y-114902500D03*
X138250000Y-116097500D03*
D30*
X137530000Y-120025000D03*
X136260000Y-120025000D03*
X134990000Y-120025000D03*
X133720000Y-120025000D03*
X133720000Y-124975000D03*
X134990000Y-124975000D03*
X136260000Y-124975000D03*
X137530000Y-124975000D03*
D27*
X133000000Y-114902500D03*
X133000000Y-116097500D03*
D12*
X92402500Y-139200000D03*
X93597500Y-139200000D03*
D31*
X147500000Y-146500000D03*
X147500000Y-152500000D03*
X158500000Y-146500000D03*
X158500000Y-152500000D03*
D32*
X153400000Y-141000000D03*
X150600000Y-141000000D03*
D16*
X111208333Y-149000000D03*
X112208333Y-149000000D03*
X113208333Y-149000000D03*
X114208333Y-149000000D03*
D17*
X109908333Y-152875000D03*
X115508333Y-152875000D03*
D16*
X98500000Y-149125000D03*
X99500000Y-149125000D03*
X100500000Y-149125000D03*
X101500000Y-149125000D03*
X102500000Y-149125000D03*
D17*
X97200000Y-153000000D03*
X103800000Y-153000000D03*
D33*
X173560000Y-136100000D03*
X172600000Y-136100000D03*
D34*
X158200000Y-140000000D03*
X158200000Y-134400000D03*
D33*
X171080000Y-143400000D03*
X170120000Y-143400000D03*
D35*
X168020000Y-121700000D03*
X168980000Y-121700000D03*
D12*
X170502500Y-116700000D03*
X171697500Y-116700000D03*
D36*
X175900000Y-142600000D03*
X175900000Y-139800000D03*
D37*
X173300000Y-142175000D03*
X173300000Y-140025000D03*
D12*
X170670000Y-134300000D03*
X171865000Y-134300000D03*
D11*
X171050000Y-140300000D03*
X170400000Y-140300000D03*
X169750000Y-140300000D03*
X169750000Y-142200000D03*
X171050000Y-142200000D03*
M02*
