G04 #@! TF.GenerationSoftware,KiCad,Pcbnew,(6.0.0)*
G04 #@! TF.CreationDate,2022-01-01T11:54:16+05:30*
G04 #@! TF.ProjectId,ESP32_BoardV1,45535033-325f-4426-9f61-726456312e6b,rev?*
G04 #@! TF.SameCoordinates,Original*
G04 #@! TF.FileFunction,Soldermask,Top*
G04 #@! TF.FilePolarity,Negative*
%FSLAX46Y46*%
G04 Gerber Fmt 4.6, Leading zero omitted, Abs format (unit mm)*
G04 Created by KiCad (PCBNEW (6.0.0)) date 2022-01-01 11:54:16*
%MOMM*%
%LPD*%
G01*
G04 APERTURE LIST*
G04 Aperture macros list*
%AMRoundRect*
0 Rectangle with rounded corners*
0 $1 Rounding radius*
0 $2 $3 $4 $5 $6 $7 $8 $9 X,Y pos of 4 corners*
0 Add a 4 corners polygon primitive as box body*
4,1,4,$2,$3,$4,$5,$6,$7,$8,$9,$2,$3,0*
0 Add four circle primitives for the rounded corners*
1,1,$1+$1,$2,$3*
1,1,$1+$1,$4,$5*
1,1,$1+$1,$6,$7*
1,1,$1+$1,$8,$9*
0 Add four rect primitives between the rounded corners*
20,1,$1+$1,$2,$3,$4,$5,0*
20,1,$1+$1,$4,$5,$6,$7,0*
20,1,$1+$1,$6,$7,$8,$9,0*
20,1,$1+$1,$8,$9,$2,$3,0*%
G04 Aperture macros list end*
%ADD10RoundRect,0.206000X0.212500X0.155000X-0.212500X0.155000X-0.212500X-0.155000X0.212500X-0.155000X0*%
%ADD11C,1.002000*%
%ADD12C,8.702000*%
%ADD13RoundRect,0.051000X0.850000X-0.850000X0.850000X0.850000X-0.850000X0.850000X-0.850000X-0.850000X0*%
%ADD14O,1.802000X1.802000*%
%ADD15RoundRect,0.051000X0.200000X-0.325000X0.200000X0.325000X-0.200000X0.325000X-0.200000X-0.325000X0*%
%ADD16RoundRect,0.211000X-0.197500X-0.160000X0.197500X-0.160000X0.197500X0.160000X-0.197500X0.160000X0*%
%ADD17RoundRect,0.051000X0.450000X-1.000000X0.450000X1.000000X-0.450000X1.000000X-0.450000X-1.000000X0*%
%ADD18RoundRect,0.051000X1.000000X0.450000X-1.000000X0.450000X-1.000000X-0.450000X1.000000X-0.450000X0*%
%ADD19RoundRect,0.051000X2.500000X-2.500000X2.500000X2.500000X-2.500000X2.500000X-2.500000X-2.500000X0*%
%ADD20RoundRect,0.051000X-0.300000X-0.775000X0.300000X-0.775000X0.300000X0.775000X-0.300000X0.775000X0*%
%ADD21RoundRect,0.051000X-0.600000X-0.900000X0.600000X-0.900000X0.600000X0.900000X-0.600000X0.900000X0*%
%ADD22RoundRect,0.211000X0.197500X0.160000X-0.197500X0.160000X-0.197500X-0.160000X0.197500X-0.160000X0*%
%ADD23O,2.302000X3.602000*%
%ADD24RoundRect,0.051000X0.750000X1.250000X-0.750000X1.250000X-0.750000X-1.250000X0.750000X-1.250000X0*%
%ADD25O,1.602000X2.602000*%
%ADD26RoundRect,0.051000X1.150000X-1.250000X1.150000X1.250000X-1.150000X1.250000X-1.150000X-1.250000X0*%
%ADD27RoundRect,0.301000X-0.550000X0.850000X-0.550000X-0.850000X0.550000X-0.850000X0.550000X0.850000X0*%
%ADD28RoundRect,0.051000X-0.750000X1.000000X-0.750000X-1.000000X0.750000X-1.000000X0.750000X1.000000X0*%
%ADD29RoundRect,0.051000X-1.900000X1.000000X-1.900000X-1.000000X1.900000X-1.000000X1.900000X1.000000X0*%
%ADD30RoundRect,0.301000X0.550000X-1.250000X0.550000X1.250000X-0.550000X1.250000X-0.550000X-1.250000X0*%
%ADD31RoundRect,0.051000X0.650000X-0.150000X0.650000X0.150000X-0.650000X0.150000X-0.650000X-0.150000X0*%
%ADD32RoundRect,0.051000X1.100000X-0.900000X1.100000X0.900000X-1.100000X0.900000X-1.100000X-0.900000X0*%
%ADD33RoundRect,0.211000X0.160000X-0.197500X0.160000X0.197500X-0.160000X0.197500X-0.160000X-0.197500X0*%
%ADD34RoundRect,0.211000X-0.160000X0.197500X-0.160000X-0.197500X0.160000X-0.197500X0.160000X0.197500X0*%
%ADD35RoundRect,0.206000X-0.155000X0.212500X-0.155000X-0.212500X0.155000X-0.212500X0.155000X0.212500X0*%
%ADD36RoundRect,0.051000X-0.400000X0.450000X-0.400000X-0.450000X0.400000X-0.450000X0.400000X0.450000X0*%
%ADD37RoundRect,0.201000X-0.150000X0.825000X-0.150000X-0.825000X0.150000X-0.825000X0.150000X0.825000X0*%
%ADD38C,2.102000*%
%ADD39O,2.102000X1.602000*%
%ADD40RoundRect,0.051000X1.500000X1.000000X-1.500000X1.000000X-1.500000X-1.000000X1.500000X-1.000000X0*%
%ADD41RoundRect,0.301000X0.375000X0.625000X-0.375000X0.625000X-0.375000X-0.625000X0.375000X-0.625000X0*%
%ADD42RoundRect,0.191000X0.140000X0.170000X-0.140000X0.170000X-0.140000X-0.170000X0.140000X-0.170000X0*%
%ADD43RoundRect,0.301000X0.550000X-1.500000X0.550000X1.500000X-0.550000X1.500000X-0.550000X-1.500000X0*%
%ADD44RoundRect,0.191000X-0.140000X-0.170000X0.140000X-0.170000X0.140000X0.170000X-0.140000X0.170000X0*%
%ADD45RoundRect,0.051000X0.550000X-0.550000X0.550000X0.550000X-0.550000X0.550000X-0.550000X-0.550000X0*%
%ADD46RoundRect,0.301000X0.850000X-0.375000X0.850000X0.375000X-0.850000X0.375000X-0.850000X-0.375000X0*%
%ADD47RoundRect,0.051000X-0.200000X0.325000X-0.200000X-0.325000X0.200000X-0.325000X0.200000X0.325000X0*%
G04 APERTURE END LIST*
D10*
X93567500Y-138100000D03*
X92432500Y-138100000D03*
X93567500Y-140300000D03*
X92432500Y-140300000D03*
X93567500Y-137000000D03*
X92432500Y-137000000D03*
D11*
X91280419Y-96719581D03*
X89000000Y-102225000D03*
X85775000Y-99000000D03*
X89000000Y-95775000D03*
X92225000Y-99000000D03*
X91280419Y-101280419D03*
X86719581Y-96719581D03*
D12*
X89000000Y-99000000D03*
D11*
X86719581Y-101280419D03*
X89000000Y-154225000D03*
X91280419Y-153280419D03*
D12*
X89000000Y-151000000D03*
D11*
X86719581Y-153280419D03*
X89000000Y-147775000D03*
X86719581Y-148719581D03*
X91280419Y-148719581D03*
X85775000Y-151000000D03*
X92225000Y-151000000D03*
X203280419Y-101280419D03*
X204225000Y-99000000D03*
X197775000Y-99000000D03*
X203280419Y-96719581D03*
X198719581Y-101280419D03*
D12*
X201000000Y-99000000D03*
D11*
X201000000Y-95775000D03*
X198719581Y-96719581D03*
X201000000Y-102225000D03*
D13*
X95250000Y-97200000D03*
D14*
X97790000Y-97200000D03*
X100330000Y-97200000D03*
X102870000Y-97200000D03*
X105410000Y-97200000D03*
X107950000Y-97200000D03*
D15*
X102250000Y-104450000D03*
X102900000Y-104450000D03*
X103550000Y-104450000D03*
X103550000Y-102550000D03*
X102900000Y-102550000D03*
X102250000Y-102550000D03*
D16*
X135027500Y-142500000D03*
X136222500Y-142500000D03*
X137402500Y-142500000D03*
X138597500Y-142500000D03*
D17*
X92745000Y-133500000D03*
X94015000Y-133500000D03*
X95285000Y-133500000D03*
X96555000Y-133500000D03*
X97825000Y-133500000D03*
X99095000Y-133500000D03*
X100365000Y-133500000D03*
X101635000Y-133500000D03*
X102905000Y-133500000D03*
X104175000Y-133500000D03*
X105445000Y-133500000D03*
X106715000Y-133500000D03*
X107985000Y-133500000D03*
X109255000Y-133500000D03*
D18*
X110255000Y-130715000D03*
X110255000Y-129445000D03*
X110255000Y-128175000D03*
X110255000Y-126905000D03*
X110255000Y-125635000D03*
X110255000Y-124365000D03*
X110255000Y-123095000D03*
X110255000Y-121825000D03*
X110255000Y-120555000D03*
X110255000Y-119285000D03*
D17*
X109255000Y-116500000D03*
X107985000Y-116500000D03*
X106715000Y-116500000D03*
X105445000Y-116500000D03*
X104175000Y-116500000D03*
X102905000Y-116500000D03*
X101635000Y-116500000D03*
X100365000Y-116500000D03*
X99095000Y-116500000D03*
X97825000Y-116500000D03*
X96555000Y-116500000D03*
X95285000Y-116500000D03*
X94015000Y-116500000D03*
X92745000Y-116500000D03*
D19*
X100245000Y-126000000D03*
D10*
X171867500Y-132800000D03*
X170732500Y-132800000D03*
D20*
X122916666Y-149000000D03*
X123916666Y-149000000D03*
X124916666Y-149000000D03*
X125916666Y-149000000D03*
D21*
X121616666Y-152875000D03*
X127216666Y-152875000D03*
D16*
X132702500Y-142500000D03*
X133897500Y-142500000D03*
D10*
X149837500Y-103352500D03*
X148702500Y-103352500D03*
D22*
X149867500Y-102352500D03*
X148672500Y-102352500D03*
D23*
X140900000Y-97702500D03*
X149100000Y-97702500D03*
D24*
X147000000Y-97702500D03*
D25*
X145000000Y-97702500D03*
X143000000Y-97702500D03*
D20*
X134625000Y-149000000D03*
X135625000Y-149000000D03*
X136625000Y-149000000D03*
D21*
X133325000Y-152875000D03*
X137925000Y-152875000D03*
D26*
X165000000Y-139150000D03*
X165000000Y-134850000D03*
D27*
X167200000Y-146100000D03*
X167200000Y-149100000D03*
D28*
X175800000Y-146650000D03*
X173500000Y-146650000D03*
D29*
X173500000Y-152950000D03*
D28*
X171200000Y-146650000D03*
D11*
X204225000Y-151000000D03*
X201000000Y-154225000D03*
X197775000Y-151000000D03*
X203280419Y-153280419D03*
X203280419Y-148719581D03*
X198719581Y-148719581D03*
D12*
X201000000Y-151000000D03*
D11*
X201000000Y-147775000D03*
X198719581Y-153280419D03*
D30*
X181000000Y-151000000D03*
X181000000Y-146600000D03*
D10*
X171867500Y-131800000D03*
X170732500Y-131800000D03*
D31*
X173650000Y-134750000D03*
X173650000Y-134250000D03*
X173650000Y-133750000D03*
X173650000Y-133250000D03*
X173650000Y-132750000D03*
X173650000Y-132250000D03*
X173650000Y-131750000D03*
X173650000Y-131250000D03*
X173650000Y-130750000D03*
X173650000Y-130250000D03*
X173650000Y-129750000D03*
X173650000Y-129250000D03*
X173650000Y-128750000D03*
X173650000Y-128250000D03*
X173650000Y-127750000D03*
X173650000Y-127250000D03*
X173650000Y-126750000D03*
X173650000Y-126250000D03*
X173650000Y-125750000D03*
X173650000Y-125250000D03*
X173650000Y-124750000D03*
X173650000Y-124250000D03*
X173650000Y-123750000D03*
X173650000Y-123250000D03*
X173650000Y-122750000D03*
X173650000Y-122250000D03*
X173650000Y-121750000D03*
X173650000Y-121250000D03*
X173650000Y-120750000D03*
X173650000Y-120250000D03*
X173650000Y-119750000D03*
X173650000Y-119250000D03*
X173650000Y-118750000D03*
X173650000Y-118250000D03*
X173650000Y-117750000D03*
X173650000Y-117250000D03*
X173650000Y-116750000D03*
X173650000Y-116250000D03*
X173650000Y-115750000D03*
X173650000Y-115250000D03*
D32*
X176900000Y-113350000D03*
X176900000Y-136650000D03*
D33*
X166900000Y-114297500D03*
X166900000Y-113102500D03*
D34*
X166900000Y-115652500D03*
X166900000Y-116847500D03*
D35*
X139000000Y-124532500D03*
X139000000Y-125667500D03*
D36*
X136575000Y-127250000D03*
X134675000Y-127250000D03*
X135625000Y-129250000D03*
D34*
X135625000Y-114902500D03*
X135625000Y-116097500D03*
X138250000Y-114902500D03*
X138250000Y-116097500D03*
D37*
X137530000Y-120025000D03*
X136260000Y-120025000D03*
X134990000Y-120025000D03*
X133720000Y-120025000D03*
X133720000Y-124975000D03*
X134990000Y-124975000D03*
X136260000Y-124975000D03*
X137530000Y-124975000D03*
D34*
X133000000Y-114902500D03*
X133000000Y-116097500D03*
D16*
X92402500Y-139200000D03*
X93597500Y-139200000D03*
D38*
X153000000Y-148000000D03*
D39*
X153000000Y-152400000D03*
D40*
X147500000Y-146500000D03*
X147500000Y-152500000D03*
X158500000Y-146500000D03*
X158500000Y-152500000D03*
D41*
X153400000Y-141000000D03*
X150600000Y-141000000D03*
D20*
X111208333Y-149000000D03*
X112208333Y-149000000D03*
X113208333Y-149000000D03*
X114208333Y-149000000D03*
D21*
X109908333Y-152875000D03*
X115508333Y-152875000D03*
D20*
X98500000Y-149125000D03*
X99500000Y-149125000D03*
X100500000Y-149125000D03*
X101500000Y-149125000D03*
X102500000Y-149125000D03*
D21*
X97200000Y-153000000D03*
X103800000Y-153000000D03*
D42*
X173560000Y-136100000D03*
X172600000Y-136100000D03*
D43*
X158200000Y-140000000D03*
X158200000Y-134400000D03*
D42*
X171080000Y-143400000D03*
X170120000Y-143400000D03*
D44*
X168020000Y-121700000D03*
X168980000Y-121700000D03*
D16*
X170502500Y-116700000D03*
X171697500Y-116700000D03*
D45*
X175900000Y-142600000D03*
X175900000Y-139800000D03*
D46*
X173300000Y-142175000D03*
X173300000Y-140025000D03*
D16*
X170670000Y-134300000D03*
X171865000Y-134300000D03*
D47*
X171050000Y-140300000D03*
X170400000Y-140300000D03*
X169750000Y-140300000D03*
X169750000Y-142200000D03*
X171050000Y-142200000D03*
G36*
X170640660Y-139942493D02*
G01*
X170654452Y-139951709D01*
X170655615Y-139949969D01*
X170657409Y-139949084D01*
X170658560Y-139949545D01*
X170675952Y-139964078D01*
X170744670Y-139972704D01*
X170792288Y-139949918D01*
X170794282Y-139950072D01*
X170794814Y-139950611D01*
X170795548Y-139951709D01*
X170809340Y-139942493D01*
X170811336Y-139942362D01*
X170812447Y-139944025D01*
X170812114Y-139945267D01*
X170804767Y-139956262D01*
X170801000Y-139975199D01*
X170801000Y-140624801D01*
X170804767Y-140643738D01*
X170812114Y-140654733D01*
X170812245Y-140656729D01*
X170810582Y-140657840D01*
X170809340Y-140657507D01*
X170795548Y-140648291D01*
X170794385Y-140650031D01*
X170792591Y-140650916D01*
X170791440Y-140650455D01*
X170774048Y-140635922D01*
X170705330Y-140627296D01*
X170657712Y-140650082D01*
X170655718Y-140649928D01*
X170655186Y-140649389D01*
X170654452Y-140648291D01*
X170640660Y-140657507D01*
X170638664Y-140657638D01*
X170637553Y-140655975D01*
X170637886Y-140654733D01*
X170645233Y-140643738D01*
X170649000Y-140624801D01*
X170649000Y-139975199D01*
X170645233Y-139956262D01*
X170637886Y-139945267D01*
X170637755Y-139943271D01*
X170639418Y-139942160D01*
X170640660Y-139942493D01*
G37*
G36*
X169990660Y-139942493D02*
G01*
X170004452Y-139951709D01*
X170005615Y-139949969D01*
X170007409Y-139949084D01*
X170008560Y-139949545D01*
X170025952Y-139964078D01*
X170094670Y-139972704D01*
X170142288Y-139949918D01*
X170144282Y-139950072D01*
X170144814Y-139950611D01*
X170145548Y-139951709D01*
X170159340Y-139942493D01*
X170161336Y-139942362D01*
X170162447Y-139944025D01*
X170162114Y-139945267D01*
X170154767Y-139956262D01*
X170151000Y-139975199D01*
X170151000Y-140624801D01*
X170154767Y-140643738D01*
X170162114Y-140654733D01*
X170162245Y-140656729D01*
X170160582Y-140657840D01*
X170159340Y-140657507D01*
X170145548Y-140648291D01*
X170144385Y-140650031D01*
X170142591Y-140650916D01*
X170141440Y-140650455D01*
X170124048Y-140635922D01*
X170055330Y-140627296D01*
X170007712Y-140650082D01*
X170005718Y-140649928D01*
X170005186Y-140649389D01*
X170004452Y-140648291D01*
X169990660Y-140657507D01*
X169988664Y-140657638D01*
X169987553Y-140655975D01*
X169987886Y-140654733D01*
X169995233Y-140643738D01*
X169999000Y-140624801D01*
X169999000Y-139975199D01*
X169995233Y-139956262D01*
X169987886Y-139945267D01*
X169987755Y-139943271D01*
X169989418Y-139942160D01*
X169990660Y-139942493D01*
G37*
G36*
X172966075Y-134435084D02*
G01*
X172981263Y-134445233D01*
X173000199Y-134449000D01*
X174299801Y-134449000D01*
X174318738Y-134445233D01*
X174333773Y-134435186D01*
X174335768Y-134435055D01*
X174336880Y-134436718D01*
X174336793Y-134437447D01*
X174317898Y-134497788D01*
X174336955Y-134562690D01*
X174336483Y-134564633D01*
X174334564Y-134565197D01*
X174333925Y-134564916D01*
X174318737Y-134554767D01*
X174299801Y-134551000D01*
X173000199Y-134551000D01*
X172981262Y-134554767D01*
X172966227Y-134564814D01*
X172964232Y-134564945D01*
X172963120Y-134563282D01*
X172963207Y-134562553D01*
X172982102Y-134502212D01*
X172963045Y-134437310D01*
X172963517Y-134435367D01*
X172965436Y-134434803D01*
X172966075Y-134435084D01*
G37*
G36*
X172966075Y-133935084D02*
G01*
X172981263Y-133945233D01*
X173000199Y-133949000D01*
X174299801Y-133949000D01*
X174318738Y-133945233D01*
X174333773Y-133935186D01*
X174335768Y-133935055D01*
X174336880Y-133936718D01*
X174336793Y-133937447D01*
X174317898Y-133997788D01*
X174336955Y-134062690D01*
X174336483Y-134064633D01*
X174334564Y-134065197D01*
X174333925Y-134064916D01*
X174318737Y-134054767D01*
X174299801Y-134051000D01*
X173000199Y-134051000D01*
X172981262Y-134054767D01*
X172966227Y-134064814D01*
X172964232Y-134064945D01*
X172963120Y-134063282D01*
X172963207Y-134062553D01*
X172982102Y-134002212D01*
X172963045Y-133937310D01*
X172963517Y-133935367D01*
X172965436Y-133934803D01*
X172966075Y-133935084D01*
G37*
G36*
X172966075Y-133435084D02*
G01*
X172981263Y-133445233D01*
X173000199Y-133449000D01*
X174299801Y-133449000D01*
X174318738Y-133445233D01*
X174333773Y-133435186D01*
X174335768Y-133435055D01*
X174336880Y-133436718D01*
X174336793Y-133437447D01*
X174317898Y-133497788D01*
X174336955Y-133562690D01*
X174336483Y-133564633D01*
X174334564Y-133565197D01*
X174333925Y-133564916D01*
X174318737Y-133554767D01*
X174299801Y-133551000D01*
X173000199Y-133551000D01*
X172981262Y-133554767D01*
X172966227Y-133564814D01*
X172964232Y-133564945D01*
X172963120Y-133563282D01*
X172963207Y-133562553D01*
X172982102Y-133502212D01*
X172963045Y-133437310D01*
X172963517Y-133435367D01*
X172965436Y-133434803D01*
X172966075Y-133435084D01*
G37*
G36*
X172966075Y-132935084D02*
G01*
X172981263Y-132945233D01*
X173000199Y-132949000D01*
X174299801Y-132949000D01*
X174318738Y-132945233D01*
X174333773Y-132935186D01*
X174335768Y-132935055D01*
X174336880Y-132936718D01*
X174336793Y-132937447D01*
X174317898Y-132997788D01*
X174336955Y-133062690D01*
X174336483Y-133064633D01*
X174334564Y-133065197D01*
X174333925Y-133064916D01*
X174318737Y-133054767D01*
X174299801Y-133051000D01*
X173000199Y-133051000D01*
X172981262Y-133054767D01*
X172966227Y-133064814D01*
X172964232Y-133064945D01*
X172963120Y-133063282D01*
X172963207Y-133062553D01*
X172982102Y-133002212D01*
X172963045Y-132937310D01*
X172963517Y-132935367D01*
X172965436Y-132934803D01*
X172966075Y-132935084D01*
G37*
G36*
X172966075Y-132435084D02*
G01*
X172981263Y-132445233D01*
X173000199Y-132449000D01*
X174299801Y-132449000D01*
X174318738Y-132445233D01*
X174333773Y-132435186D01*
X174335768Y-132435055D01*
X174336880Y-132436718D01*
X174336793Y-132437447D01*
X174317898Y-132497788D01*
X174336955Y-132562690D01*
X174336483Y-132564633D01*
X174334564Y-132565197D01*
X174333925Y-132564916D01*
X174318737Y-132554767D01*
X174299801Y-132551000D01*
X173000199Y-132551000D01*
X172981262Y-132554767D01*
X172966227Y-132564814D01*
X172964232Y-132564945D01*
X172963120Y-132563282D01*
X172963207Y-132562553D01*
X172982102Y-132502212D01*
X172963045Y-132437310D01*
X172963517Y-132435367D01*
X172965436Y-132434803D01*
X172966075Y-132435084D01*
G37*
G36*
X172966075Y-131935084D02*
G01*
X172981263Y-131945233D01*
X173000199Y-131949000D01*
X174299801Y-131949000D01*
X174318738Y-131945233D01*
X174333773Y-131935186D01*
X174335768Y-131935055D01*
X174336880Y-131936718D01*
X174336793Y-131937447D01*
X174317898Y-131997788D01*
X174336955Y-132062690D01*
X174336483Y-132064633D01*
X174334564Y-132065197D01*
X174333925Y-132064916D01*
X174318737Y-132054767D01*
X174299801Y-132051000D01*
X173000199Y-132051000D01*
X172981262Y-132054767D01*
X172966227Y-132064814D01*
X172964232Y-132064945D01*
X172963120Y-132063282D01*
X172963207Y-132062553D01*
X172982102Y-132002212D01*
X172963045Y-131937310D01*
X172963517Y-131935367D01*
X172965436Y-131934803D01*
X172966075Y-131935084D01*
G37*
G36*
X172966075Y-131435084D02*
G01*
X172981263Y-131445233D01*
X173000199Y-131449000D01*
X174299801Y-131449000D01*
X174318738Y-131445233D01*
X174333773Y-131435186D01*
X174335768Y-131435055D01*
X174336880Y-131436718D01*
X174336793Y-131437447D01*
X174317898Y-131497788D01*
X174336955Y-131562690D01*
X174336483Y-131564633D01*
X174334564Y-131565197D01*
X174333925Y-131564916D01*
X174318737Y-131554767D01*
X174299801Y-131551000D01*
X173000199Y-131551000D01*
X172981262Y-131554767D01*
X172966227Y-131564814D01*
X172964232Y-131564945D01*
X172963120Y-131563282D01*
X172963207Y-131562553D01*
X172982102Y-131502212D01*
X172963045Y-131437310D01*
X172963517Y-131435367D01*
X172965436Y-131434803D01*
X172966075Y-131435084D01*
G37*
G36*
X172966075Y-130935084D02*
G01*
X172981263Y-130945233D01*
X173000199Y-130949000D01*
X174299801Y-130949000D01*
X174318738Y-130945233D01*
X174333773Y-130935186D01*
X174335768Y-130935055D01*
X174336880Y-130936718D01*
X174336793Y-130937447D01*
X174317898Y-130997788D01*
X174336955Y-131062690D01*
X174336483Y-131064633D01*
X174334564Y-131065197D01*
X174333925Y-131064916D01*
X174318737Y-131054767D01*
X174299801Y-131051000D01*
X173000199Y-131051000D01*
X172981262Y-131054767D01*
X172966227Y-131064814D01*
X172964232Y-131064945D01*
X172963120Y-131063282D01*
X172963207Y-131062553D01*
X172982102Y-131002212D01*
X172963045Y-130937310D01*
X172963517Y-130935367D01*
X172965436Y-130934803D01*
X172966075Y-130935084D01*
G37*
G36*
X172966075Y-130435084D02*
G01*
X172981263Y-130445233D01*
X173000199Y-130449000D01*
X174299801Y-130449000D01*
X174318738Y-130445233D01*
X174333773Y-130435186D01*
X174335768Y-130435055D01*
X174336880Y-130436718D01*
X174336793Y-130437447D01*
X174317898Y-130497788D01*
X174336955Y-130562690D01*
X174336483Y-130564633D01*
X174334564Y-130565197D01*
X174333925Y-130564916D01*
X174318737Y-130554767D01*
X174299801Y-130551000D01*
X173000199Y-130551000D01*
X172981262Y-130554767D01*
X172966227Y-130564814D01*
X172964232Y-130564945D01*
X172963120Y-130563282D01*
X172963207Y-130562553D01*
X172982102Y-130502212D01*
X172963045Y-130437310D01*
X172963517Y-130435367D01*
X172965436Y-130434803D01*
X172966075Y-130435084D01*
G37*
G36*
X172966075Y-129935084D02*
G01*
X172981263Y-129945233D01*
X173000199Y-129949000D01*
X174299801Y-129949000D01*
X174318738Y-129945233D01*
X174333773Y-129935186D01*
X174335768Y-129935055D01*
X174336880Y-129936718D01*
X174336793Y-129937447D01*
X174317898Y-129997788D01*
X174336955Y-130062690D01*
X174336483Y-130064633D01*
X174334564Y-130065197D01*
X174333925Y-130064916D01*
X174318737Y-130054767D01*
X174299801Y-130051000D01*
X173000199Y-130051000D01*
X172981262Y-130054767D01*
X172966227Y-130064814D01*
X172964232Y-130064945D01*
X172963120Y-130063282D01*
X172963207Y-130062553D01*
X172982102Y-130002212D01*
X172963045Y-129937310D01*
X172963517Y-129935367D01*
X172965436Y-129934803D01*
X172966075Y-129935084D01*
G37*
G36*
X172966075Y-129435084D02*
G01*
X172981263Y-129445233D01*
X173000199Y-129449000D01*
X174299801Y-129449000D01*
X174318738Y-129445233D01*
X174333773Y-129435186D01*
X174335768Y-129435055D01*
X174336880Y-129436718D01*
X174336793Y-129437447D01*
X174317898Y-129497788D01*
X174336955Y-129562690D01*
X174336483Y-129564633D01*
X174334564Y-129565197D01*
X174333925Y-129564916D01*
X174318737Y-129554767D01*
X174299801Y-129551000D01*
X173000199Y-129551000D01*
X172981262Y-129554767D01*
X172966227Y-129564814D01*
X172964232Y-129564945D01*
X172963120Y-129563282D01*
X172963207Y-129562553D01*
X172982102Y-129502212D01*
X172963045Y-129437310D01*
X172963517Y-129435367D01*
X172965436Y-129434803D01*
X172966075Y-129435084D01*
G37*
G36*
X172966075Y-128935084D02*
G01*
X172981263Y-128945233D01*
X173000199Y-128949000D01*
X174299801Y-128949000D01*
X174318738Y-128945233D01*
X174333773Y-128935186D01*
X174335768Y-128935055D01*
X174336880Y-128936718D01*
X174336793Y-128937447D01*
X174317898Y-128997788D01*
X174336955Y-129062690D01*
X174336483Y-129064633D01*
X174334564Y-129065197D01*
X174333925Y-129064916D01*
X174318737Y-129054767D01*
X174299801Y-129051000D01*
X173000199Y-129051000D01*
X172981262Y-129054767D01*
X172966227Y-129064814D01*
X172964232Y-129064945D01*
X172963120Y-129063282D01*
X172963207Y-129062553D01*
X172982102Y-129002212D01*
X172963045Y-128937310D01*
X172963517Y-128935367D01*
X172965436Y-128934803D01*
X172966075Y-128935084D01*
G37*
G36*
X172966075Y-128435084D02*
G01*
X172981263Y-128445233D01*
X173000199Y-128449000D01*
X174299801Y-128449000D01*
X174318738Y-128445233D01*
X174333773Y-128435186D01*
X174335768Y-128435055D01*
X174336880Y-128436718D01*
X174336793Y-128437447D01*
X174317898Y-128497788D01*
X174336955Y-128562690D01*
X174336483Y-128564633D01*
X174334564Y-128565197D01*
X174333925Y-128564916D01*
X174318737Y-128554767D01*
X174299801Y-128551000D01*
X173000199Y-128551000D01*
X172981262Y-128554767D01*
X172966227Y-128564814D01*
X172964232Y-128564945D01*
X172963120Y-128563282D01*
X172963207Y-128562553D01*
X172982102Y-128502212D01*
X172963045Y-128437310D01*
X172963517Y-128435367D01*
X172965436Y-128434803D01*
X172966075Y-128435084D01*
G37*
G36*
X172966075Y-127935084D02*
G01*
X172981263Y-127945233D01*
X173000199Y-127949000D01*
X174299801Y-127949000D01*
X174318738Y-127945233D01*
X174333773Y-127935186D01*
X174335768Y-127935055D01*
X174336880Y-127936718D01*
X174336793Y-127937447D01*
X174317898Y-127997788D01*
X174336955Y-128062690D01*
X174336483Y-128064633D01*
X174334564Y-128065197D01*
X174333925Y-128064916D01*
X174318737Y-128054767D01*
X174299801Y-128051000D01*
X173000199Y-128051000D01*
X172981262Y-128054767D01*
X172966227Y-128064814D01*
X172964232Y-128064945D01*
X172963120Y-128063282D01*
X172963207Y-128062553D01*
X172982102Y-128002212D01*
X172963045Y-127937310D01*
X172963517Y-127935367D01*
X172965436Y-127934803D01*
X172966075Y-127935084D01*
G37*
G36*
X172966075Y-127435084D02*
G01*
X172981263Y-127445233D01*
X173000199Y-127449000D01*
X174299801Y-127449000D01*
X174318738Y-127445233D01*
X174333773Y-127435186D01*
X174335768Y-127435055D01*
X174336880Y-127436718D01*
X174336793Y-127437447D01*
X174317898Y-127497788D01*
X174336955Y-127562690D01*
X174336483Y-127564633D01*
X174334564Y-127565197D01*
X174333925Y-127564916D01*
X174318737Y-127554767D01*
X174299801Y-127551000D01*
X173000199Y-127551000D01*
X172981262Y-127554767D01*
X172966227Y-127564814D01*
X172964232Y-127564945D01*
X172963120Y-127563282D01*
X172963207Y-127562553D01*
X172982102Y-127502212D01*
X172963045Y-127437310D01*
X172963517Y-127435367D01*
X172965436Y-127434803D01*
X172966075Y-127435084D01*
G37*
G36*
X172966075Y-126935084D02*
G01*
X172981263Y-126945233D01*
X173000199Y-126949000D01*
X174299801Y-126949000D01*
X174318738Y-126945233D01*
X174333773Y-126935186D01*
X174335768Y-126935055D01*
X174336880Y-126936718D01*
X174336793Y-126937447D01*
X174317898Y-126997788D01*
X174336955Y-127062690D01*
X174336483Y-127064633D01*
X174334564Y-127065197D01*
X174333925Y-127064916D01*
X174318737Y-127054767D01*
X174299801Y-127051000D01*
X173000199Y-127051000D01*
X172981262Y-127054767D01*
X172966227Y-127064814D01*
X172964232Y-127064945D01*
X172963120Y-127063282D01*
X172963207Y-127062553D01*
X172982102Y-127002212D01*
X172963045Y-126937310D01*
X172963517Y-126935367D01*
X172965436Y-126934803D01*
X172966075Y-126935084D01*
G37*
G36*
X172966075Y-126435084D02*
G01*
X172981263Y-126445233D01*
X173000199Y-126449000D01*
X174299801Y-126449000D01*
X174318738Y-126445233D01*
X174333773Y-126435186D01*
X174335768Y-126435055D01*
X174336880Y-126436718D01*
X174336793Y-126437447D01*
X174317898Y-126497788D01*
X174336955Y-126562690D01*
X174336483Y-126564633D01*
X174334564Y-126565197D01*
X174333925Y-126564916D01*
X174318737Y-126554767D01*
X174299801Y-126551000D01*
X173000199Y-126551000D01*
X172981262Y-126554767D01*
X172966227Y-126564814D01*
X172964232Y-126564945D01*
X172963120Y-126563282D01*
X172963207Y-126562553D01*
X172982102Y-126502212D01*
X172963045Y-126437310D01*
X172963517Y-126435367D01*
X172965436Y-126434803D01*
X172966075Y-126435084D01*
G37*
G36*
X172966075Y-125935084D02*
G01*
X172981263Y-125945233D01*
X173000199Y-125949000D01*
X174299801Y-125949000D01*
X174318738Y-125945233D01*
X174333773Y-125935186D01*
X174335768Y-125935055D01*
X174336880Y-125936718D01*
X174336793Y-125937447D01*
X174317898Y-125997788D01*
X174336955Y-126062690D01*
X174336483Y-126064633D01*
X174334564Y-126065197D01*
X174333925Y-126064916D01*
X174318737Y-126054767D01*
X174299801Y-126051000D01*
X173000199Y-126051000D01*
X172981262Y-126054767D01*
X172966227Y-126064814D01*
X172964232Y-126064945D01*
X172963120Y-126063282D01*
X172963207Y-126062553D01*
X172982102Y-126002212D01*
X172963045Y-125937310D01*
X172963517Y-125935367D01*
X172965436Y-125934803D01*
X172966075Y-125935084D01*
G37*
G36*
X172966075Y-125435084D02*
G01*
X172981263Y-125445233D01*
X173000199Y-125449000D01*
X174299801Y-125449000D01*
X174318738Y-125445233D01*
X174333773Y-125435186D01*
X174335768Y-125435055D01*
X174336880Y-125436718D01*
X174336793Y-125437447D01*
X174317898Y-125497788D01*
X174336955Y-125562690D01*
X174336483Y-125564633D01*
X174334564Y-125565197D01*
X174333925Y-125564916D01*
X174318737Y-125554767D01*
X174299801Y-125551000D01*
X173000199Y-125551000D01*
X172981262Y-125554767D01*
X172966227Y-125564814D01*
X172964232Y-125564945D01*
X172963120Y-125563282D01*
X172963207Y-125562553D01*
X172982102Y-125502212D01*
X172963045Y-125437310D01*
X172963517Y-125435367D01*
X172965436Y-125434803D01*
X172966075Y-125435084D01*
G37*
G36*
X172966075Y-124935084D02*
G01*
X172981263Y-124945233D01*
X173000199Y-124949000D01*
X174299801Y-124949000D01*
X174318738Y-124945233D01*
X174333773Y-124935186D01*
X174335768Y-124935055D01*
X174336880Y-124936718D01*
X174336793Y-124937447D01*
X174317898Y-124997788D01*
X174336955Y-125062690D01*
X174336483Y-125064633D01*
X174334564Y-125065197D01*
X174333925Y-125064916D01*
X174318737Y-125054767D01*
X174299801Y-125051000D01*
X173000199Y-125051000D01*
X172981262Y-125054767D01*
X172966227Y-125064814D01*
X172964232Y-125064945D01*
X172963120Y-125063282D01*
X172963207Y-125062553D01*
X172982102Y-125002212D01*
X172963045Y-124937310D01*
X172963517Y-124935367D01*
X172965436Y-124934803D01*
X172966075Y-124935084D01*
G37*
G36*
X172966075Y-124435084D02*
G01*
X172981263Y-124445233D01*
X173000199Y-124449000D01*
X174299801Y-124449000D01*
X174318738Y-124445233D01*
X174333773Y-124435186D01*
X174335768Y-124435055D01*
X174336880Y-124436718D01*
X174336793Y-124437447D01*
X174317898Y-124497788D01*
X174336955Y-124562690D01*
X174336483Y-124564633D01*
X174334564Y-124565197D01*
X174333925Y-124564916D01*
X174318737Y-124554767D01*
X174299801Y-124551000D01*
X173000199Y-124551000D01*
X172981262Y-124554767D01*
X172966227Y-124564814D01*
X172964232Y-124564945D01*
X172963120Y-124563282D01*
X172963207Y-124562553D01*
X172982102Y-124502212D01*
X172963045Y-124437310D01*
X172963517Y-124435367D01*
X172965436Y-124434803D01*
X172966075Y-124435084D01*
G37*
G36*
X172966075Y-123935084D02*
G01*
X172981263Y-123945233D01*
X173000199Y-123949000D01*
X174299801Y-123949000D01*
X174318738Y-123945233D01*
X174333773Y-123935186D01*
X174335768Y-123935055D01*
X174336880Y-123936718D01*
X174336793Y-123937447D01*
X174317898Y-123997788D01*
X174336955Y-124062690D01*
X174336483Y-124064633D01*
X174334564Y-124065197D01*
X174333925Y-124064916D01*
X174318737Y-124054767D01*
X174299801Y-124051000D01*
X173000199Y-124051000D01*
X172981262Y-124054767D01*
X172966227Y-124064814D01*
X172964232Y-124064945D01*
X172963120Y-124063282D01*
X172963207Y-124062553D01*
X172982102Y-124002212D01*
X172963045Y-123937310D01*
X172963517Y-123935367D01*
X172965436Y-123934803D01*
X172966075Y-123935084D01*
G37*
G36*
X172966075Y-123435084D02*
G01*
X172981263Y-123445233D01*
X173000199Y-123449000D01*
X174299801Y-123449000D01*
X174318738Y-123445233D01*
X174333773Y-123435186D01*
X174335768Y-123435055D01*
X174336880Y-123436718D01*
X174336793Y-123437447D01*
X174317898Y-123497788D01*
X174336955Y-123562690D01*
X174336483Y-123564633D01*
X174334564Y-123565197D01*
X174333925Y-123564916D01*
X174318737Y-123554767D01*
X174299801Y-123551000D01*
X173000199Y-123551000D01*
X172981262Y-123554767D01*
X172966227Y-123564814D01*
X172964232Y-123564945D01*
X172963120Y-123563282D01*
X172963207Y-123562553D01*
X172982102Y-123502212D01*
X172963045Y-123437310D01*
X172963517Y-123435367D01*
X172965436Y-123434803D01*
X172966075Y-123435084D01*
G37*
G36*
X172966075Y-122935084D02*
G01*
X172981263Y-122945233D01*
X173000199Y-122949000D01*
X174299801Y-122949000D01*
X174318738Y-122945233D01*
X174333773Y-122935186D01*
X174335768Y-122935055D01*
X174336880Y-122936718D01*
X174336793Y-122937447D01*
X174317898Y-122997788D01*
X174336955Y-123062690D01*
X174336483Y-123064633D01*
X174334564Y-123065197D01*
X174333925Y-123064916D01*
X174318737Y-123054767D01*
X174299801Y-123051000D01*
X173000199Y-123051000D01*
X172981262Y-123054767D01*
X172966227Y-123064814D01*
X172964232Y-123064945D01*
X172963120Y-123063282D01*
X172963207Y-123062553D01*
X172982102Y-123002212D01*
X172963045Y-122937310D01*
X172963517Y-122935367D01*
X172965436Y-122934803D01*
X172966075Y-122935084D01*
G37*
G36*
X172966075Y-122435084D02*
G01*
X172981263Y-122445233D01*
X173000199Y-122449000D01*
X174299801Y-122449000D01*
X174318738Y-122445233D01*
X174333773Y-122435186D01*
X174335768Y-122435055D01*
X174336880Y-122436718D01*
X174336793Y-122437447D01*
X174317898Y-122497788D01*
X174336955Y-122562690D01*
X174336483Y-122564633D01*
X174334564Y-122565197D01*
X174333925Y-122564916D01*
X174318737Y-122554767D01*
X174299801Y-122551000D01*
X173000199Y-122551000D01*
X172981262Y-122554767D01*
X172966227Y-122564814D01*
X172964232Y-122564945D01*
X172963120Y-122563282D01*
X172963207Y-122562553D01*
X172982102Y-122502212D01*
X172963045Y-122437310D01*
X172963517Y-122435367D01*
X172965436Y-122434803D01*
X172966075Y-122435084D01*
G37*
G36*
X172966075Y-121935084D02*
G01*
X172981263Y-121945233D01*
X173000199Y-121949000D01*
X174299801Y-121949000D01*
X174318738Y-121945233D01*
X174333773Y-121935186D01*
X174335768Y-121935055D01*
X174336880Y-121936718D01*
X174336793Y-121937447D01*
X174317898Y-121997788D01*
X174336955Y-122062690D01*
X174336483Y-122064633D01*
X174334564Y-122065197D01*
X174333925Y-122064916D01*
X174318737Y-122054767D01*
X174299801Y-122051000D01*
X173000199Y-122051000D01*
X172981262Y-122054767D01*
X172966227Y-122064814D01*
X172964232Y-122064945D01*
X172963120Y-122063282D01*
X172963207Y-122062553D01*
X172982102Y-122002212D01*
X172963045Y-121937310D01*
X172963517Y-121935367D01*
X172965436Y-121934803D01*
X172966075Y-121935084D01*
G37*
G36*
X172966075Y-121435084D02*
G01*
X172981263Y-121445233D01*
X173000199Y-121449000D01*
X174299801Y-121449000D01*
X174318738Y-121445233D01*
X174333773Y-121435186D01*
X174335768Y-121435055D01*
X174336880Y-121436718D01*
X174336793Y-121437447D01*
X174317898Y-121497788D01*
X174336955Y-121562690D01*
X174336483Y-121564633D01*
X174334564Y-121565197D01*
X174333925Y-121564916D01*
X174318737Y-121554767D01*
X174299801Y-121551000D01*
X173000199Y-121551000D01*
X172981262Y-121554767D01*
X172966227Y-121564814D01*
X172964232Y-121564945D01*
X172963120Y-121563282D01*
X172963207Y-121562553D01*
X172982102Y-121502212D01*
X172963045Y-121437310D01*
X172963517Y-121435367D01*
X172965436Y-121434803D01*
X172966075Y-121435084D01*
G37*
G36*
X172966075Y-120935084D02*
G01*
X172981263Y-120945233D01*
X173000199Y-120949000D01*
X174299801Y-120949000D01*
X174318738Y-120945233D01*
X174333773Y-120935186D01*
X174335768Y-120935055D01*
X174336880Y-120936718D01*
X174336793Y-120937447D01*
X174317898Y-120997788D01*
X174336955Y-121062690D01*
X174336483Y-121064633D01*
X174334564Y-121065197D01*
X174333925Y-121064916D01*
X174318737Y-121054767D01*
X174299801Y-121051000D01*
X173000199Y-121051000D01*
X172981262Y-121054767D01*
X172966227Y-121064814D01*
X172964232Y-121064945D01*
X172963120Y-121063282D01*
X172963207Y-121062553D01*
X172982102Y-121002212D01*
X172963045Y-120937310D01*
X172963517Y-120935367D01*
X172965436Y-120934803D01*
X172966075Y-120935084D01*
G37*
G36*
X172966075Y-120435084D02*
G01*
X172981263Y-120445233D01*
X173000199Y-120449000D01*
X174299801Y-120449000D01*
X174318738Y-120445233D01*
X174333773Y-120435186D01*
X174335768Y-120435055D01*
X174336880Y-120436718D01*
X174336793Y-120437447D01*
X174317898Y-120497788D01*
X174336955Y-120562690D01*
X174336483Y-120564633D01*
X174334564Y-120565197D01*
X174333925Y-120564916D01*
X174318737Y-120554767D01*
X174299801Y-120551000D01*
X173000199Y-120551000D01*
X172981262Y-120554767D01*
X172966227Y-120564814D01*
X172964232Y-120564945D01*
X172963120Y-120563282D01*
X172963207Y-120562553D01*
X172982102Y-120502212D01*
X172963045Y-120437310D01*
X172963517Y-120435367D01*
X172965436Y-120434803D01*
X172966075Y-120435084D01*
G37*
G36*
X172966075Y-119935084D02*
G01*
X172981263Y-119945233D01*
X173000199Y-119949000D01*
X174299801Y-119949000D01*
X174318738Y-119945233D01*
X174333773Y-119935186D01*
X174335768Y-119935055D01*
X174336880Y-119936718D01*
X174336793Y-119937447D01*
X174317898Y-119997788D01*
X174336955Y-120062690D01*
X174336483Y-120064633D01*
X174334564Y-120065197D01*
X174333925Y-120064916D01*
X174318737Y-120054767D01*
X174299801Y-120051000D01*
X173000199Y-120051000D01*
X172981262Y-120054767D01*
X172966227Y-120064814D01*
X172964232Y-120064945D01*
X172963120Y-120063282D01*
X172963207Y-120062553D01*
X172982102Y-120002212D01*
X172963045Y-119937310D01*
X172963517Y-119935367D01*
X172965436Y-119934803D01*
X172966075Y-119935084D01*
G37*
G36*
X172966075Y-119435084D02*
G01*
X172981263Y-119445233D01*
X173000199Y-119449000D01*
X174299801Y-119449000D01*
X174318738Y-119445233D01*
X174333773Y-119435186D01*
X174335768Y-119435055D01*
X174336880Y-119436718D01*
X174336793Y-119437447D01*
X174317898Y-119497788D01*
X174336955Y-119562690D01*
X174336483Y-119564633D01*
X174334564Y-119565197D01*
X174333925Y-119564916D01*
X174318737Y-119554767D01*
X174299801Y-119551000D01*
X173000199Y-119551000D01*
X172981262Y-119554767D01*
X172966227Y-119564814D01*
X172964232Y-119564945D01*
X172963120Y-119563282D01*
X172963207Y-119562553D01*
X172982102Y-119502212D01*
X172963045Y-119437310D01*
X172963517Y-119435367D01*
X172965436Y-119434803D01*
X172966075Y-119435084D01*
G37*
G36*
X172966075Y-118935084D02*
G01*
X172981263Y-118945233D01*
X173000199Y-118949000D01*
X174299801Y-118949000D01*
X174318738Y-118945233D01*
X174333773Y-118935186D01*
X174335768Y-118935055D01*
X174336880Y-118936718D01*
X174336793Y-118937447D01*
X174317898Y-118997788D01*
X174336955Y-119062690D01*
X174336483Y-119064633D01*
X174334564Y-119065197D01*
X174333925Y-119064916D01*
X174318737Y-119054767D01*
X174299801Y-119051000D01*
X173000199Y-119051000D01*
X172981262Y-119054767D01*
X172966227Y-119064814D01*
X172964232Y-119064945D01*
X172963120Y-119063282D01*
X172963207Y-119062553D01*
X172982102Y-119002212D01*
X172963045Y-118937310D01*
X172963517Y-118935367D01*
X172965436Y-118934803D01*
X172966075Y-118935084D01*
G37*
G36*
X172966075Y-118435084D02*
G01*
X172981263Y-118445233D01*
X173000199Y-118449000D01*
X174299801Y-118449000D01*
X174318738Y-118445233D01*
X174333773Y-118435186D01*
X174335768Y-118435055D01*
X174336880Y-118436718D01*
X174336793Y-118437447D01*
X174317898Y-118497788D01*
X174336955Y-118562690D01*
X174336483Y-118564633D01*
X174334564Y-118565197D01*
X174333925Y-118564916D01*
X174318737Y-118554767D01*
X174299801Y-118551000D01*
X173000199Y-118551000D01*
X172981262Y-118554767D01*
X172966227Y-118564814D01*
X172964232Y-118564945D01*
X172963120Y-118563282D01*
X172963207Y-118562553D01*
X172982102Y-118502212D01*
X172963045Y-118437310D01*
X172963517Y-118435367D01*
X172965436Y-118434803D01*
X172966075Y-118435084D01*
G37*
G36*
X172966075Y-117935084D02*
G01*
X172981263Y-117945233D01*
X173000199Y-117949000D01*
X174299801Y-117949000D01*
X174318738Y-117945233D01*
X174333773Y-117935186D01*
X174335768Y-117935055D01*
X174336880Y-117936718D01*
X174336793Y-117937447D01*
X174317898Y-117997788D01*
X174336955Y-118062690D01*
X174336483Y-118064633D01*
X174334564Y-118065197D01*
X174333925Y-118064916D01*
X174318737Y-118054767D01*
X174299801Y-118051000D01*
X173000199Y-118051000D01*
X172981262Y-118054767D01*
X172966227Y-118064814D01*
X172964232Y-118064945D01*
X172963120Y-118063282D01*
X172963207Y-118062553D01*
X172982102Y-118002212D01*
X172963045Y-117937310D01*
X172963517Y-117935367D01*
X172965436Y-117934803D01*
X172966075Y-117935084D01*
G37*
G36*
X172966075Y-117435084D02*
G01*
X172981263Y-117445233D01*
X173000199Y-117449000D01*
X174299801Y-117449000D01*
X174318738Y-117445233D01*
X174333773Y-117435186D01*
X174335768Y-117435055D01*
X174336880Y-117436718D01*
X174336793Y-117437447D01*
X174317898Y-117497788D01*
X174336955Y-117562690D01*
X174336483Y-117564633D01*
X174334564Y-117565197D01*
X174333925Y-117564916D01*
X174318737Y-117554767D01*
X174299801Y-117551000D01*
X173000199Y-117551000D01*
X172981262Y-117554767D01*
X172966227Y-117564814D01*
X172964232Y-117564945D01*
X172963120Y-117563282D01*
X172963207Y-117562553D01*
X172982102Y-117502212D01*
X172963045Y-117437310D01*
X172963517Y-117435367D01*
X172965436Y-117434803D01*
X172966075Y-117435084D01*
G37*
G36*
X172966075Y-116935084D02*
G01*
X172981263Y-116945233D01*
X173000199Y-116949000D01*
X174299801Y-116949000D01*
X174318738Y-116945233D01*
X174333773Y-116935186D01*
X174335768Y-116935055D01*
X174336880Y-116936718D01*
X174336793Y-116937447D01*
X174317898Y-116997788D01*
X174336955Y-117062690D01*
X174336483Y-117064633D01*
X174334564Y-117065197D01*
X174333925Y-117064916D01*
X174318737Y-117054767D01*
X174299801Y-117051000D01*
X173000199Y-117051000D01*
X172981262Y-117054767D01*
X172966227Y-117064814D01*
X172964232Y-117064945D01*
X172963120Y-117063282D01*
X172963207Y-117062553D01*
X172982102Y-117002212D01*
X172963045Y-116937310D01*
X172963517Y-116935367D01*
X172965436Y-116934803D01*
X172966075Y-116935084D01*
G37*
G36*
X172966075Y-116435084D02*
G01*
X172981263Y-116445233D01*
X173000199Y-116449000D01*
X174299801Y-116449000D01*
X174318738Y-116445233D01*
X174333773Y-116435186D01*
X174335768Y-116435055D01*
X174336880Y-116436718D01*
X174336793Y-116437447D01*
X174317898Y-116497788D01*
X174336955Y-116562690D01*
X174336483Y-116564633D01*
X174334564Y-116565197D01*
X174333925Y-116564916D01*
X174318737Y-116554767D01*
X174299801Y-116551000D01*
X173000199Y-116551000D01*
X172981262Y-116554767D01*
X172966227Y-116564814D01*
X172964232Y-116564945D01*
X172963120Y-116563282D01*
X172963207Y-116562553D01*
X172982102Y-116502212D01*
X172963045Y-116437310D01*
X172963517Y-116435367D01*
X172965436Y-116434803D01*
X172966075Y-116435084D01*
G37*
G36*
X172966075Y-115935084D02*
G01*
X172981263Y-115945233D01*
X173000199Y-115949000D01*
X174299801Y-115949000D01*
X174318738Y-115945233D01*
X174333773Y-115935186D01*
X174335768Y-115935055D01*
X174336880Y-115936718D01*
X174336793Y-115937447D01*
X174317898Y-115997788D01*
X174336955Y-116062690D01*
X174336483Y-116064633D01*
X174334564Y-116065197D01*
X174333925Y-116064916D01*
X174318737Y-116054767D01*
X174299801Y-116051000D01*
X173000199Y-116051000D01*
X172981262Y-116054767D01*
X172966227Y-116064814D01*
X172964232Y-116064945D01*
X172963120Y-116063282D01*
X172963207Y-116062553D01*
X172982102Y-116002212D01*
X172963045Y-115937310D01*
X172963517Y-115935367D01*
X172965436Y-115934803D01*
X172966075Y-115935084D01*
G37*
G36*
X172966075Y-115435084D02*
G01*
X172981263Y-115445233D01*
X173000199Y-115449000D01*
X174299801Y-115449000D01*
X174318738Y-115445233D01*
X174333773Y-115435186D01*
X174335768Y-115435055D01*
X174336880Y-115436718D01*
X174336793Y-115437447D01*
X174317898Y-115497788D01*
X174336955Y-115562690D01*
X174336483Y-115564633D01*
X174334564Y-115565197D01*
X174333925Y-115564916D01*
X174318737Y-115554767D01*
X174299801Y-115551000D01*
X173000199Y-115551000D01*
X172981262Y-115554767D01*
X172966227Y-115564814D01*
X172964232Y-115564945D01*
X172963120Y-115563282D01*
X172963207Y-115562553D01*
X172982102Y-115502212D01*
X172963045Y-115437310D01*
X172963517Y-115435367D01*
X172965436Y-115434803D01*
X172966075Y-115435084D01*
G37*
G36*
X102490660Y-104092493D02*
G01*
X102504452Y-104101709D01*
X102505615Y-104099969D01*
X102507409Y-104099084D01*
X102508560Y-104099545D01*
X102525952Y-104114078D01*
X102594670Y-104122704D01*
X102642288Y-104099918D01*
X102644282Y-104100072D01*
X102644814Y-104100611D01*
X102645548Y-104101709D01*
X102659340Y-104092493D01*
X102661336Y-104092362D01*
X102662447Y-104094025D01*
X102662114Y-104095267D01*
X102654767Y-104106262D01*
X102651000Y-104125199D01*
X102651000Y-104774801D01*
X102654767Y-104793738D01*
X102662114Y-104804733D01*
X102662245Y-104806729D01*
X102660582Y-104807840D01*
X102659340Y-104807507D01*
X102645548Y-104798291D01*
X102644385Y-104800031D01*
X102642591Y-104800916D01*
X102641440Y-104800455D01*
X102624048Y-104785922D01*
X102555330Y-104777296D01*
X102507712Y-104800082D01*
X102505718Y-104799928D01*
X102505186Y-104799389D01*
X102504452Y-104798291D01*
X102490660Y-104807507D01*
X102488664Y-104807638D01*
X102487553Y-104805975D01*
X102487886Y-104804733D01*
X102495233Y-104793738D01*
X102499000Y-104774801D01*
X102499000Y-104125199D01*
X102495233Y-104106262D01*
X102487886Y-104095267D01*
X102487755Y-104093271D01*
X102489418Y-104092160D01*
X102490660Y-104092493D01*
G37*
G36*
X103140660Y-104092493D02*
G01*
X103154452Y-104101709D01*
X103155615Y-104099969D01*
X103157409Y-104099084D01*
X103158560Y-104099545D01*
X103175952Y-104114078D01*
X103244670Y-104122704D01*
X103292288Y-104099918D01*
X103294282Y-104100072D01*
X103294814Y-104100611D01*
X103295548Y-104101709D01*
X103309340Y-104092493D01*
X103311336Y-104092362D01*
X103312447Y-104094025D01*
X103312114Y-104095267D01*
X103304767Y-104106262D01*
X103301000Y-104125199D01*
X103301000Y-104774801D01*
X103304767Y-104793738D01*
X103312114Y-104804733D01*
X103312245Y-104806729D01*
X103310582Y-104807840D01*
X103309340Y-104807507D01*
X103295548Y-104798291D01*
X103294385Y-104800031D01*
X103292591Y-104800916D01*
X103291440Y-104800455D01*
X103274048Y-104785922D01*
X103205330Y-104777296D01*
X103157712Y-104800082D01*
X103155718Y-104799928D01*
X103155186Y-104799389D01*
X103154452Y-104798291D01*
X103140660Y-104807507D01*
X103138664Y-104807638D01*
X103137553Y-104805975D01*
X103137886Y-104804733D01*
X103145233Y-104793738D01*
X103149000Y-104774801D01*
X103149000Y-104125199D01*
X103145233Y-104106262D01*
X103137886Y-104095267D01*
X103137755Y-104093271D01*
X103139418Y-104092160D01*
X103140660Y-104092493D01*
G37*
G36*
X103140660Y-102192493D02*
G01*
X103154452Y-102201709D01*
X103155615Y-102199969D01*
X103157409Y-102199084D01*
X103158560Y-102199545D01*
X103175952Y-102214078D01*
X103244670Y-102222704D01*
X103292288Y-102199918D01*
X103294282Y-102200072D01*
X103294814Y-102200611D01*
X103295548Y-102201709D01*
X103309340Y-102192493D01*
X103311336Y-102192362D01*
X103312447Y-102194025D01*
X103312114Y-102195267D01*
X103304767Y-102206262D01*
X103301000Y-102225199D01*
X103301000Y-102874801D01*
X103304767Y-102893738D01*
X103312114Y-102904733D01*
X103312245Y-102906729D01*
X103310582Y-102907840D01*
X103309340Y-102907507D01*
X103295548Y-102898291D01*
X103294385Y-102900031D01*
X103292591Y-102900916D01*
X103291440Y-102900455D01*
X103274048Y-102885922D01*
X103205330Y-102877296D01*
X103157712Y-102900082D01*
X103155718Y-102899928D01*
X103155186Y-102899389D01*
X103154452Y-102898291D01*
X103140660Y-102907507D01*
X103138664Y-102907638D01*
X103137553Y-102905975D01*
X103137886Y-102904733D01*
X103145233Y-102893738D01*
X103149000Y-102874801D01*
X103149000Y-102225199D01*
X103145233Y-102206262D01*
X103137886Y-102195267D01*
X103137755Y-102193271D01*
X103139418Y-102192160D01*
X103140660Y-102192493D01*
G37*
G36*
X102490660Y-102192493D02*
G01*
X102504452Y-102201709D01*
X102505615Y-102199969D01*
X102507409Y-102199084D01*
X102508560Y-102199545D01*
X102525952Y-102214078D01*
X102594670Y-102222704D01*
X102642288Y-102199918D01*
X102644282Y-102200072D01*
X102644814Y-102200611D01*
X102645548Y-102201709D01*
X102659340Y-102192493D01*
X102661336Y-102192362D01*
X102662447Y-102194025D01*
X102662114Y-102195267D01*
X102654767Y-102206262D01*
X102651000Y-102225199D01*
X102651000Y-102874801D01*
X102654767Y-102893738D01*
X102662114Y-102904733D01*
X102662245Y-102906729D01*
X102660582Y-102907840D01*
X102659340Y-102907507D01*
X102645548Y-102898291D01*
X102644385Y-102900031D01*
X102642591Y-102900916D01*
X102641440Y-102900455D01*
X102624048Y-102885922D01*
X102555330Y-102877296D01*
X102507712Y-102900082D01*
X102505718Y-102899928D01*
X102505186Y-102899389D01*
X102504452Y-102898291D01*
X102490660Y-102907507D01*
X102488664Y-102907638D01*
X102487553Y-102905975D01*
X102487886Y-102904733D01*
X102495233Y-102893738D01*
X102499000Y-102874801D01*
X102499000Y-102225199D01*
X102495233Y-102206262D01*
X102487886Y-102195267D01*
X102487755Y-102193271D01*
X102489418Y-102192160D01*
X102490660Y-102192493D01*
G37*
G36*
X147802919Y-96564885D02*
G01*
X147822595Y-96631897D01*
X147874938Y-96677252D01*
X147943491Y-96687109D01*
X148006538Y-96658316D01*
X148030832Y-96624250D01*
X148032651Y-96623420D01*
X148034280Y-96624581D01*
X148034370Y-96626004D01*
X147976116Y-96813612D01*
X147951393Y-97022498D01*
X147951000Y-97052526D01*
X147951000Y-98352404D01*
X147970249Y-98561888D01*
X148027324Y-98764261D01*
X148037794Y-98785492D01*
X148037663Y-98787488D01*
X148035869Y-98788373D01*
X148034511Y-98787712D01*
X147990719Y-98738844D01*
X147923950Y-98720441D01*
X147857833Y-98741058D01*
X147813303Y-98794213D01*
X147802958Y-98843748D01*
X147801625Y-98845239D01*
X147799667Y-98844830D01*
X147799000Y-98843339D01*
X147799000Y-96565448D01*
X147800000Y-96563716D01*
X147802000Y-96563716D01*
X147802919Y-96564885D01*
G37*
G36*
X142034187Y-96848010D02*
G01*
X142036420Y-96856173D01*
X142072933Y-96915376D01*
X142135388Y-96945311D01*
X142204113Y-96936729D01*
X142257491Y-96892184D01*
X142261675Y-96885461D01*
X142273926Y-96864242D01*
X142275658Y-96863242D01*
X142277390Y-96864242D01*
X142277537Y-96865926D01*
X142223415Y-97014623D01*
X142201077Y-97191447D01*
X142201000Y-97202514D01*
X142201000Y-98202384D01*
X142220868Y-98379515D01*
X142274762Y-98534276D01*
X142274387Y-98536241D01*
X142272498Y-98536899D01*
X142271141Y-98535934D01*
X142261578Y-98519371D01*
X142260716Y-98519868D01*
X142258716Y-98519868D01*
X142258065Y-98519265D01*
X142229979Y-98478195D01*
X142166184Y-98451239D01*
X142097938Y-98463053D01*
X142046826Y-98509969D01*
X142033438Y-98544140D01*
X142031875Y-98545387D01*
X142030013Y-98544658D01*
X142029590Y-98543175D01*
X142048607Y-98382502D01*
X142049000Y-98352474D01*
X142049000Y-97052596D01*
X142030266Y-96848721D01*
X142031104Y-96846905D01*
X142033095Y-96846722D01*
X142034187Y-96848010D01*
G37*
M02*
