G04 #@! TF.GenerationSoftware,KiCad,Pcbnew,(6.0.0)*
G04 #@! TF.CreationDate,2022-01-01T11:54:16+05:30*
G04 #@! TF.ProjectId,ESP32_BoardV1,45535033-325f-4426-9f61-726456312e6b,rev?*
G04 #@! TF.SameCoordinates,Original*
G04 #@! TF.FileFunction,Legend,Top*
G04 #@! TF.FilePolarity,Positive*
%FSLAX46Y46*%
G04 Gerber Fmt 4.6, Leading zero omitted, Abs format (unit mm)*
G04 Created by KiCad (PCBNEW (6.0.0)) date 2022-01-01 11:54:16*
%MOMM*%
%LPD*%
G01*
G04 APERTURE LIST*
G04 Aperture macros list*
%AMRoundRect*
0 Rectangle with rounded corners*
0 $1 Rounding radius*
0 $2 $3 $4 $5 $6 $7 $8 $9 X,Y pos of 4 corners*
0 Add a 4 corners polygon primitive as box body*
4,1,4,$2,$3,$4,$5,$6,$7,$8,$9,$2,$3,0*
0 Add four circle primitives for the rounded corners*
1,1,$1+$1,$2,$3*
1,1,$1+$1,$4,$5*
1,1,$1+$1,$6,$7*
1,1,$1+$1,$8,$9*
0 Add four rect primitives between the rounded corners*
20,1,$1+$1,$2,$3,$4,$5,0*
20,1,$1+$1,$4,$5,$6,$7,0*
20,1,$1+$1,$6,$7,$8,$9,0*
20,1,$1+$1,$8,$9,$2,$3,0*%
G04 Aperture macros list end*
%ADD10C,0.120000*%
%ADD11C,0.125000*%
%ADD12C,0.150000*%
%ADD13C,0.127000*%
%ADD14C,0.300000*%
%ADD15C,0.200000*%
%ADD16RoundRect,0.206000X0.212500X0.155000X-0.212500X0.155000X-0.212500X-0.155000X0.212500X-0.155000X0*%
%ADD17C,1.002000*%
%ADD18C,8.702000*%
%ADD19RoundRect,0.051000X0.850000X-0.850000X0.850000X0.850000X-0.850000X0.850000X-0.850000X-0.850000X0*%
%ADD20O,1.802000X1.802000*%
%ADD21RoundRect,0.051000X0.200000X-0.325000X0.200000X0.325000X-0.200000X0.325000X-0.200000X-0.325000X0*%
%ADD22RoundRect,0.211000X-0.197500X-0.160000X0.197500X-0.160000X0.197500X0.160000X-0.197500X0.160000X0*%
%ADD23RoundRect,0.051000X0.450000X-1.000000X0.450000X1.000000X-0.450000X1.000000X-0.450000X-1.000000X0*%
%ADD24RoundRect,0.051000X1.000000X0.450000X-1.000000X0.450000X-1.000000X-0.450000X1.000000X-0.450000X0*%
%ADD25RoundRect,0.051000X2.500000X-2.500000X2.500000X2.500000X-2.500000X2.500000X-2.500000X-2.500000X0*%
%ADD26RoundRect,0.051000X-0.300000X-0.775000X0.300000X-0.775000X0.300000X0.775000X-0.300000X0.775000X0*%
%ADD27RoundRect,0.051000X-0.600000X-0.900000X0.600000X-0.900000X0.600000X0.900000X-0.600000X0.900000X0*%
%ADD28RoundRect,0.211000X0.197500X0.160000X-0.197500X0.160000X-0.197500X-0.160000X0.197500X-0.160000X0*%
%ADD29O,2.302000X3.602000*%
%ADD30RoundRect,0.051000X0.750000X1.250000X-0.750000X1.250000X-0.750000X-1.250000X0.750000X-1.250000X0*%
%ADD31O,1.602000X2.602000*%
%ADD32RoundRect,0.051000X1.150000X-1.250000X1.150000X1.250000X-1.150000X1.250000X-1.150000X-1.250000X0*%
%ADD33RoundRect,0.301000X-0.550000X0.850000X-0.550000X-0.850000X0.550000X-0.850000X0.550000X0.850000X0*%
%ADD34RoundRect,0.051000X-0.750000X1.000000X-0.750000X-1.000000X0.750000X-1.000000X0.750000X1.000000X0*%
%ADD35RoundRect,0.051000X-1.900000X1.000000X-1.900000X-1.000000X1.900000X-1.000000X1.900000X1.000000X0*%
%ADD36RoundRect,0.301000X0.550000X-1.250000X0.550000X1.250000X-0.550000X1.250000X-0.550000X-1.250000X0*%
%ADD37RoundRect,0.051000X0.650000X-0.150000X0.650000X0.150000X-0.650000X0.150000X-0.650000X-0.150000X0*%
%ADD38RoundRect,0.051000X1.100000X-0.900000X1.100000X0.900000X-1.100000X0.900000X-1.100000X-0.900000X0*%
%ADD39RoundRect,0.211000X0.160000X-0.197500X0.160000X0.197500X-0.160000X0.197500X-0.160000X-0.197500X0*%
%ADD40RoundRect,0.211000X-0.160000X0.197500X-0.160000X-0.197500X0.160000X-0.197500X0.160000X0.197500X0*%
%ADD41RoundRect,0.206000X-0.155000X0.212500X-0.155000X-0.212500X0.155000X-0.212500X0.155000X0.212500X0*%
%ADD42RoundRect,0.051000X-0.400000X0.450000X-0.400000X-0.450000X0.400000X-0.450000X0.400000X0.450000X0*%
%ADD43RoundRect,0.201000X-0.150000X0.825000X-0.150000X-0.825000X0.150000X-0.825000X0.150000X0.825000X0*%
%ADD44C,2.102000*%
%ADD45O,2.102000X1.602000*%
%ADD46RoundRect,0.051000X1.500000X1.000000X-1.500000X1.000000X-1.500000X-1.000000X1.500000X-1.000000X0*%
%ADD47RoundRect,0.301000X0.375000X0.625000X-0.375000X0.625000X-0.375000X-0.625000X0.375000X-0.625000X0*%
%ADD48RoundRect,0.191000X0.140000X0.170000X-0.140000X0.170000X-0.140000X-0.170000X0.140000X-0.170000X0*%
%ADD49RoundRect,0.301000X0.550000X-1.500000X0.550000X1.500000X-0.550000X1.500000X-0.550000X-1.500000X0*%
%ADD50RoundRect,0.191000X-0.140000X-0.170000X0.140000X-0.170000X0.140000X0.170000X-0.140000X0.170000X0*%
%ADD51RoundRect,0.051000X0.550000X-0.550000X0.550000X0.550000X-0.550000X0.550000X-0.550000X-0.550000X0*%
%ADD52RoundRect,0.301000X0.850000X-0.375000X0.850000X0.375000X-0.850000X0.375000X-0.850000X-0.375000X0*%
%ADD53RoundRect,0.051000X-0.200000X0.325000X-0.200000X-0.325000X0.200000X-0.325000X0.200000X0.325000X0*%
G04 APERTURE END LIST*
D10*
X184000000Y-112100000D02*
X181500000Y-114600000D01*
X184000000Y-138000000D02*
X184000000Y-112100000D01*
X97000000Y-137300000D02*
X97600000Y-137900000D01*
X168700000Y-130900000D02*
X168700000Y-127200000D01*
X168700000Y-127200000D02*
X169300000Y-127800000D01*
X97000000Y-137300000D02*
X96400000Y-137900000D01*
X184000000Y-112100000D02*
X186500000Y-114600000D01*
X97000000Y-141000000D02*
X97000000Y-137300000D01*
X168100000Y-127800000D02*
X168700000Y-127200000D01*
X96400000Y-137900000D02*
X97000000Y-137300000D01*
D11*
X101702380Y-147107142D02*
X101726190Y-147035714D01*
X101726190Y-146916666D01*
X101702380Y-146869047D01*
X101678571Y-146845238D01*
X101630952Y-146821428D01*
X101583333Y-146821428D01*
X101535714Y-146845238D01*
X101511904Y-146869047D01*
X101488095Y-146916666D01*
X101464285Y-147011904D01*
X101440476Y-147059523D01*
X101416666Y-147083333D01*
X101369047Y-147107142D01*
X101321428Y-147107142D01*
X101273809Y-147083333D01*
X101250000Y-147059523D01*
X101226190Y-147011904D01*
X101226190Y-146892857D01*
X101250000Y-146821428D01*
X101726190Y-146607142D02*
X101226190Y-146607142D01*
X101464285Y-146607142D02*
X101464285Y-146321428D01*
X101726190Y-146321428D02*
X101226190Y-146321428D01*
X101583333Y-146107142D02*
X101583333Y-145869047D01*
X101726190Y-146154761D02*
X101226190Y-145988095D01*
X101726190Y-145821428D01*
X101726190Y-145369047D02*
X101488095Y-145535714D01*
X101726190Y-145654761D02*
X101226190Y-145654761D01*
X101226190Y-145464285D01*
X101250000Y-145416666D01*
X101273809Y-145392857D01*
X101321428Y-145369047D01*
X101392857Y-145369047D01*
X101440476Y-145392857D01*
X101464285Y-145416666D01*
X101488095Y-145464285D01*
X101488095Y-145654761D01*
X101726190Y-145154761D02*
X101226190Y-145154761D01*
X101226190Y-144964285D01*
X101250000Y-144916666D01*
X101273809Y-144892857D01*
X101321428Y-144869047D01*
X101392857Y-144869047D01*
X101440476Y-144892857D01*
X101464285Y-144916666D01*
X101488095Y-144964285D01*
X101488095Y-145154761D01*
X101773809Y-144773809D02*
X101773809Y-144392857D01*
X101726190Y-144273809D02*
X101226190Y-144273809D01*
X101726190Y-143797619D02*
X101726190Y-144035714D01*
X101226190Y-144035714D01*
X101464285Y-143630952D02*
X101464285Y-143464285D01*
X101726190Y-143392857D02*
X101726190Y-143630952D01*
X101226190Y-143630952D01*
X101226190Y-143392857D01*
X101726190Y-143178571D02*
X101226190Y-143178571D01*
X101226190Y-143059523D01*
X101250000Y-142988095D01*
X101297619Y-142940476D01*
X101345238Y-142916666D01*
X101440476Y-142892857D01*
X101511904Y-142892857D01*
X101607142Y-142916666D01*
X101654761Y-142940476D01*
X101702380Y-142988095D01*
X101726190Y-143059523D01*
X101726190Y-143178571D01*
X99702380Y-147238095D02*
X99726190Y-147166666D01*
X99726190Y-147047619D01*
X99702380Y-147000000D01*
X99678571Y-146976190D01*
X99630952Y-146952380D01*
X99583333Y-146952380D01*
X99535714Y-146976190D01*
X99511904Y-147000000D01*
X99488095Y-147047619D01*
X99464285Y-147142857D01*
X99440476Y-147190476D01*
X99416666Y-147214285D01*
X99369047Y-147238095D01*
X99321428Y-147238095D01*
X99273809Y-147214285D01*
X99250000Y-147190476D01*
X99226190Y-147142857D01*
X99226190Y-147023809D01*
X99250000Y-146952380D01*
X99726190Y-146738095D02*
X99226190Y-146738095D01*
X99464285Y-146738095D02*
X99464285Y-146452380D01*
X99726190Y-146452380D02*
X99226190Y-146452380D01*
X99583333Y-146238095D02*
X99583333Y-146000000D01*
X99726190Y-146285714D02*
X99226190Y-146119047D01*
X99726190Y-145952380D01*
X99726190Y-145500000D02*
X99488095Y-145666666D01*
X99726190Y-145785714D02*
X99226190Y-145785714D01*
X99226190Y-145595238D01*
X99250000Y-145547619D01*
X99273809Y-145523809D01*
X99321428Y-145500000D01*
X99392857Y-145500000D01*
X99440476Y-145523809D01*
X99464285Y-145547619D01*
X99488095Y-145595238D01*
X99488095Y-145785714D01*
X99726190Y-145285714D02*
X99226190Y-145285714D01*
X99226190Y-145095238D01*
X99250000Y-145047619D01*
X99273809Y-145023809D01*
X99321428Y-145000000D01*
X99392857Y-145000000D01*
X99440476Y-145023809D01*
X99464285Y-145047619D01*
X99488095Y-145095238D01*
X99488095Y-145285714D01*
X99773809Y-144904761D02*
X99773809Y-144523809D01*
X99583333Y-144428571D02*
X99583333Y-144190476D01*
X99726190Y-144476190D02*
X99226190Y-144309523D01*
X99726190Y-144142857D01*
X99226190Y-143880952D02*
X99226190Y-143785714D01*
X99250000Y-143738095D01*
X99297619Y-143690476D01*
X99392857Y-143666666D01*
X99559523Y-143666666D01*
X99654761Y-143690476D01*
X99702380Y-143738095D01*
X99726190Y-143785714D01*
X99726190Y-143880952D01*
X99702380Y-143928571D01*
X99654761Y-143976190D01*
X99559523Y-144000000D01*
X99392857Y-144000000D01*
X99297619Y-143976190D01*
X99250000Y-143928571D01*
X99226190Y-143880952D01*
X99226190Y-143452380D02*
X99630952Y-143452380D01*
X99678571Y-143428571D01*
X99702380Y-143404761D01*
X99726190Y-143357142D01*
X99726190Y-143261904D01*
X99702380Y-143214285D01*
X99678571Y-143190476D01*
X99630952Y-143166666D01*
X99226190Y-143166666D01*
X99226190Y-143000000D02*
X99226190Y-142714285D01*
X99726190Y-142857142D02*
X99226190Y-142857142D01*
X136728571Y-147328571D02*
X136776190Y-147185714D01*
X136823809Y-147138095D01*
X136919047Y-147090476D01*
X137061904Y-147090476D01*
X137157142Y-147138095D01*
X137204761Y-147185714D01*
X137252380Y-147280952D01*
X137252380Y-147661904D01*
X136252380Y-147661904D01*
X136252380Y-147328571D01*
X136300000Y-147233333D01*
X136347619Y-147185714D01*
X136442857Y-147138095D01*
X136538095Y-147138095D01*
X136633333Y-147185714D01*
X136680952Y-147233333D01*
X136728571Y-147328571D01*
X136728571Y-147661904D01*
X124202380Y-147595238D02*
X124226190Y-147523809D01*
X124226190Y-147404761D01*
X124202380Y-147357142D01*
X124178571Y-147333333D01*
X124130952Y-147309523D01*
X124083333Y-147309523D01*
X124035714Y-147333333D01*
X124011904Y-147357142D01*
X123988095Y-147404761D01*
X123964285Y-147500000D01*
X123940476Y-147547619D01*
X123916666Y-147571428D01*
X123869047Y-147595238D01*
X123821428Y-147595238D01*
X123773809Y-147571428D01*
X123750000Y-147547619D01*
X123726190Y-147500000D01*
X123726190Y-147380952D01*
X123750000Y-147309523D01*
X124178571Y-146809523D02*
X124202380Y-146833333D01*
X124226190Y-146904761D01*
X124226190Y-146952380D01*
X124202380Y-147023809D01*
X124154761Y-147071428D01*
X124107142Y-147095238D01*
X124011904Y-147119047D01*
X123940476Y-147119047D01*
X123845238Y-147095238D01*
X123797619Y-147071428D01*
X123750000Y-147023809D01*
X123726190Y-146952380D01*
X123726190Y-146904761D01*
X123750000Y-146833333D01*
X123773809Y-146809523D01*
X124226190Y-146357142D02*
X124226190Y-146595238D01*
X123726190Y-146595238D01*
D12*
X100952380Y-100947619D02*
X100476190Y-101280952D01*
X100952380Y-101519047D02*
X99952380Y-101519047D01*
X99952380Y-101138095D01*
X100000000Y-101042857D01*
X100047619Y-100995238D01*
X100142857Y-100947619D01*
X100285714Y-100947619D01*
X100380952Y-100995238D01*
X100428571Y-101042857D01*
X100476190Y-101138095D01*
X100476190Y-101519047D01*
X100904761Y-100566666D02*
X100952380Y-100423809D01*
X100952380Y-100185714D01*
X100904761Y-100090476D01*
X100857142Y-100042857D01*
X100761904Y-99995238D01*
X100666666Y-99995238D01*
X100571428Y-100042857D01*
X100523809Y-100090476D01*
X100476190Y-100185714D01*
X100428571Y-100376190D01*
X100380952Y-100471428D01*
X100333333Y-100519047D01*
X100238095Y-100566666D01*
X100142857Y-100566666D01*
X100047619Y-100519047D01*
X100000000Y-100471428D01*
X99952380Y-100376190D01*
X99952380Y-100138095D01*
X100000000Y-99995238D01*
X99952380Y-99709523D02*
X99952380Y-99138095D01*
X100952380Y-99423809D02*
X99952380Y-99423809D01*
X108300000Y-150600000D02*
X108252380Y-150695238D01*
X108252380Y-150838095D01*
X108300000Y-150980952D01*
X108395238Y-151076190D01*
X108490476Y-151123809D01*
X108680952Y-151171428D01*
X108823809Y-151171428D01*
X109014285Y-151123809D01*
X109109523Y-151076190D01*
X109204761Y-150980952D01*
X109252380Y-150838095D01*
X109252380Y-150742857D01*
X109204761Y-150600000D01*
X109157142Y-150552380D01*
X108823809Y-150552380D01*
X108823809Y-150742857D01*
X109252380Y-150123809D02*
X108252380Y-150123809D01*
X108252380Y-149742857D01*
X108300000Y-149647619D01*
X108347619Y-149600000D01*
X108442857Y-149552380D01*
X108585714Y-149552380D01*
X108680952Y-149600000D01*
X108728571Y-149647619D01*
X108776190Y-149742857D01*
X108776190Y-150123809D01*
X109252380Y-149123809D02*
X108252380Y-149123809D01*
X108252380Y-148457142D02*
X108252380Y-148266666D01*
X108300000Y-148171428D01*
X108395238Y-148076190D01*
X108585714Y-148028571D01*
X108919047Y-148028571D01*
X109109523Y-148076190D01*
X109204761Y-148171428D01*
X109252380Y-148266666D01*
X109252380Y-148457142D01*
X109204761Y-148552380D01*
X109109523Y-148647619D01*
X108919047Y-148695238D01*
X108585714Y-148695238D01*
X108395238Y-148647619D01*
X108300000Y-148552380D01*
X108252380Y-148457142D01*
X107400000Y-101161904D02*
X107352380Y-101257142D01*
X107352380Y-101400000D01*
X107400000Y-101542857D01*
X107495238Y-101638095D01*
X107590476Y-101685714D01*
X107780952Y-101733333D01*
X107923809Y-101733333D01*
X108114285Y-101685714D01*
X108209523Y-101638095D01*
X108304761Y-101542857D01*
X108352380Y-101400000D01*
X108352380Y-101304761D01*
X108304761Y-101161904D01*
X108257142Y-101114285D01*
X107923809Y-101114285D01*
X107923809Y-101304761D01*
X108352380Y-100685714D02*
X107352380Y-100685714D01*
X108352380Y-100114285D01*
X107352380Y-100114285D01*
X108352380Y-99638095D02*
X107352380Y-99638095D01*
X107352380Y-99400000D01*
X107400000Y-99257142D01*
X107495238Y-99161904D01*
X107590476Y-99114285D01*
X107780952Y-99066666D01*
X107923809Y-99066666D01*
X108114285Y-99114285D01*
X108209523Y-99161904D01*
X108304761Y-99257142D01*
X108352380Y-99400000D01*
X108352380Y-99638095D01*
D11*
X134766666Y-147638095D02*
X134766666Y-147161904D01*
X135052380Y-147733333D02*
X134052380Y-147400000D01*
X135052380Y-147066666D01*
X100250000Y-146940476D02*
X100226190Y-146988095D01*
X100226190Y-147059523D01*
X100250000Y-147130952D01*
X100297619Y-147178571D01*
X100345238Y-147202380D01*
X100440476Y-147226190D01*
X100511904Y-147226190D01*
X100607142Y-147202380D01*
X100654761Y-147178571D01*
X100702380Y-147130952D01*
X100726190Y-147059523D01*
X100726190Y-147011904D01*
X100702380Y-146940476D01*
X100678571Y-146916666D01*
X100511904Y-146916666D01*
X100511904Y-147011904D01*
X100583333Y-146726190D02*
X100583333Y-146488095D01*
X100726190Y-146773809D02*
X100226190Y-146607142D01*
X100726190Y-146440476D01*
X100702380Y-146297619D02*
X100726190Y-146226190D01*
X100726190Y-146107142D01*
X100702380Y-146059523D01*
X100678571Y-146035714D01*
X100630952Y-146011904D01*
X100583333Y-146011904D01*
X100535714Y-146035714D01*
X100511904Y-146059523D01*
X100488095Y-146107142D01*
X100464285Y-146202380D01*
X100440476Y-146250000D01*
X100416666Y-146273809D01*
X100369047Y-146297619D01*
X100321428Y-146297619D01*
X100273809Y-146273809D01*
X100250000Y-146250000D01*
X100226190Y-146202380D01*
X100226190Y-146083333D01*
X100250000Y-146011904D01*
X100773809Y-145916666D02*
X100773809Y-145535714D01*
X100583333Y-145440476D02*
X100583333Y-145202380D01*
X100726190Y-145488095D02*
X100226190Y-145321428D01*
X100726190Y-145154761D01*
X100226190Y-144892857D02*
X100226190Y-144797619D01*
X100250000Y-144750000D01*
X100297619Y-144702380D01*
X100392857Y-144678571D01*
X100559523Y-144678571D01*
X100654761Y-144702380D01*
X100702380Y-144750000D01*
X100726190Y-144797619D01*
X100726190Y-144892857D01*
X100702380Y-144940476D01*
X100654761Y-144988095D01*
X100559523Y-145011904D01*
X100392857Y-145011904D01*
X100297619Y-144988095D01*
X100250000Y-144940476D01*
X100226190Y-144892857D01*
X100226190Y-144464285D02*
X100630952Y-144464285D01*
X100678571Y-144440476D01*
X100702380Y-144416666D01*
X100726190Y-144369047D01*
X100726190Y-144273809D01*
X100702380Y-144226190D01*
X100678571Y-144202380D01*
X100630952Y-144178571D01*
X100226190Y-144178571D01*
X100226190Y-144011904D02*
X100226190Y-143726190D01*
X100726190Y-143869047D02*
X100226190Y-143869047D01*
X102250000Y-146880952D02*
X102226190Y-146928571D01*
X102226190Y-147000000D01*
X102250000Y-147071428D01*
X102297619Y-147119047D01*
X102345238Y-147142857D01*
X102440476Y-147166666D01*
X102511904Y-147166666D01*
X102607142Y-147142857D01*
X102654761Y-147119047D01*
X102702380Y-147071428D01*
X102726190Y-147000000D01*
X102726190Y-146952380D01*
X102702380Y-146880952D01*
X102678571Y-146857142D01*
X102511904Y-146857142D01*
X102511904Y-146952380D01*
X102726190Y-146642857D02*
X102226190Y-146642857D01*
X102726190Y-146357142D01*
X102226190Y-146357142D01*
X102726190Y-146119047D02*
X102226190Y-146119047D01*
X102226190Y-146000000D01*
X102250000Y-145928571D01*
X102297619Y-145880952D01*
X102345238Y-145857142D01*
X102440476Y-145833333D01*
X102511904Y-145833333D01*
X102607142Y-145857142D01*
X102654761Y-145880952D01*
X102702380Y-145928571D01*
X102726190Y-146000000D01*
X102726190Y-146119047D01*
X113000000Y-147476190D02*
X112976190Y-147523809D01*
X112976190Y-147595238D01*
X113000000Y-147666666D01*
X113047619Y-147714285D01*
X113095238Y-147738095D01*
X113190476Y-147761904D01*
X113261904Y-147761904D01*
X113357142Y-147738095D01*
X113404761Y-147714285D01*
X113452380Y-147666666D01*
X113476190Y-147595238D01*
X113476190Y-147547619D01*
X113452380Y-147476190D01*
X113428571Y-147452380D01*
X113261904Y-147452380D01*
X113261904Y-147547619D01*
X113476190Y-147238095D02*
X112976190Y-147238095D01*
X112976190Y-147047619D01*
X113000000Y-147000000D01*
X113023809Y-146976190D01*
X113071428Y-146952380D01*
X113142857Y-146952380D01*
X113190476Y-146976190D01*
X113214285Y-147000000D01*
X113238095Y-147047619D01*
X113238095Y-147238095D01*
X113476190Y-146738095D02*
X112976190Y-146738095D01*
X112976190Y-146404761D02*
X112976190Y-146309523D01*
X113000000Y-146261904D01*
X113047619Y-146214285D01*
X113142857Y-146190476D01*
X113309523Y-146190476D01*
X113404761Y-146214285D01*
X113452380Y-146261904D01*
X113476190Y-146309523D01*
X113476190Y-146404761D01*
X113452380Y-146452380D01*
X113404761Y-146500000D01*
X113309523Y-146523809D01*
X113142857Y-146523809D01*
X113047619Y-146500000D01*
X113000000Y-146452380D01*
X112976190Y-146404761D01*
X113476190Y-145714285D02*
X113476190Y-146000000D01*
X113476190Y-145857142D02*
X112976190Y-145857142D01*
X113047619Y-145904761D01*
X113095238Y-145952380D01*
X113119047Y-146000000D01*
X112976190Y-145261904D02*
X112976190Y-145500000D01*
X113214285Y-145523809D01*
X113190476Y-145500000D01*
X113166666Y-145452380D01*
X113166666Y-145333333D01*
X113190476Y-145285714D01*
X113214285Y-145261904D01*
X113261904Y-145238095D01*
X113380952Y-145238095D01*
X113428571Y-145261904D01*
X113452380Y-145285714D01*
X113476190Y-145333333D01*
X113476190Y-145452380D01*
X113452380Y-145500000D01*
X113428571Y-145523809D01*
D12*
X96604761Y-151261904D02*
X96652380Y-151119047D01*
X96652380Y-150880952D01*
X96604761Y-150785714D01*
X96557142Y-150738095D01*
X96461904Y-150690476D01*
X96366666Y-150690476D01*
X96271428Y-150738095D01*
X96223809Y-150785714D01*
X96176190Y-150880952D01*
X96128571Y-151071428D01*
X96080952Y-151166666D01*
X96033333Y-151214285D01*
X95938095Y-151261904D01*
X95842857Y-151261904D01*
X95747619Y-151214285D01*
X95700000Y-151166666D01*
X95652380Y-151071428D01*
X95652380Y-150833333D01*
X95700000Y-150690476D01*
X96128571Y-150261904D02*
X96128571Y-149928571D01*
X96652380Y-149785714D02*
X96652380Y-150261904D01*
X95652380Y-150261904D01*
X95652380Y-149785714D01*
X96652380Y-149357142D02*
X95652380Y-149357142D01*
X96652380Y-148785714D01*
X95652380Y-148785714D01*
X96604761Y-148357142D02*
X96652380Y-148214285D01*
X96652380Y-147976190D01*
X96604761Y-147880952D01*
X96557142Y-147833333D01*
X96461904Y-147785714D01*
X96366666Y-147785714D01*
X96271428Y-147833333D01*
X96223809Y-147880952D01*
X96176190Y-147976190D01*
X96128571Y-148166666D01*
X96080952Y-148261904D01*
X96033333Y-148309523D01*
X95938095Y-148357142D01*
X95842857Y-148357142D01*
X95747619Y-148309523D01*
X95700000Y-148261904D01*
X95652380Y-148166666D01*
X95652380Y-147928571D01*
X95700000Y-147785714D01*
X95652380Y-147166666D02*
X95652380Y-146976190D01*
X95700000Y-146880952D01*
X95795238Y-146785714D01*
X95985714Y-146738095D01*
X96319047Y-146738095D01*
X96509523Y-146785714D01*
X96604761Y-146880952D01*
X96652380Y-146976190D01*
X96652380Y-147166666D01*
X96604761Y-147261904D01*
X96509523Y-147357142D01*
X96319047Y-147404761D01*
X95985714Y-147404761D01*
X95795238Y-147357142D01*
X95700000Y-147261904D01*
X95652380Y-147166666D01*
X96652380Y-145738095D02*
X96176190Y-146071428D01*
X96652380Y-146309523D02*
X95652380Y-146309523D01*
X95652380Y-145928571D01*
X95700000Y-145833333D01*
X95747619Y-145785714D01*
X95842857Y-145738095D01*
X95985714Y-145738095D01*
X96080952Y-145785714D01*
X96128571Y-145833333D01*
X96176190Y-145928571D01*
X96176190Y-146309523D01*
X132128571Y-150809523D02*
X132128571Y-151142857D01*
X132652380Y-151142857D02*
X131652380Y-151142857D01*
X131652380Y-150666666D01*
X132366666Y-150333333D02*
X132366666Y-149857142D01*
X132652380Y-150428571D02*
X131652380Y-150095238D01*
X132652380Y-149761904D01*
X132652380Y-149428571D02*
X131652380Y-149428571D01*
X132652380Y-148857142D01*
X131652380Y-148857142D01*
D11*
X113976190Y-147666666D02*
X114476190Y-147500000D01*
X113976190Y-147333333D01*
X114428571Y-146880952D02*
X114452380Y-146904761D01*
X114476190Y-146976190D01*
X114476190Y-147023809D01*
X114452380Y-147095238D01*
X114404761Y-147142857D01*
X114357142Y-147166666D01*
X114261904Y-147190476D01*
X114190476Y-147190476D01*
X114095238Y-147166666D01*
X114047619Y-147142857D01*
X114000000Y-147095238D01*
X113976190Y-147023809D01*
X113976190Y-146976190D01*
X114000000Y-146904761D01*
X114023809Y-146880952D01*
X114428571Y-146380952D02*
X114452380Y-146404761D01*
X114476190Y-146476190D01*
X114476190Y-146523809D01*
X114452380Y-146595238D01*
X114404761Y-146642857D01*
X114357142Y-146666666D01*
X114261904Y-146690476D01*
X114190476Y-146690476D01*
X114095238Y-146666666D01*
X114047619Y-146642857D01*
X114000000Y-146595238D01*
X113976190Y-146523809D01*
X113976190Y-146476190D01*
X114000000Y-146404761D01*
X114023809Y-146380952D01*
D12*
X94752380Y-101661904D02*
X94752380Y-101090476D01*
X95752380Y-101376190D02*
X94752380Y-101376190D01*
X94752380Y-100852380D02*
X95752380Y-100185714D01*
X94752380Y-100185714D02*
X95752380Y-100852380D01*
X95752380Y-99804761D02*
X94752380Y-99804761D01*
X94752380Y-99566666D01*
X94800000Y-99423809D01*
X94895238Y-99328571D01*
X94990476Y-99280952D01*
X95180952Y-99233333D01*
X95323809Y-99233333D01*
X95514285Y-99280952D01*
X95609523Y-99328571D01*
X95704761Y-99423809D01*
X95752380Y-99566666D01*
X95752380Y-99804761D01*
X187609523Y-98252380D02*
X187942857Y-99252380D01*
X188276190Y-98252380D01*
X188990476Y-99204761D02*
X188895238Y-99252380D01*
X188704761Y-99252380D01*
X188609523Y-99204761D01*
X188561904Y-99109523D01*
X188561904Y-98728571D01*
X188609523Y-98633333D01*
X188704761Y-98585714D01*
X188895238Y-98585714D01*
X188990476Y-98633333D01*
X189038095Y-98728571D01*
X189038095Y-98823809D01*
X188561904Y-98919047D01*
X189466666Y-99252380D02*
X189466666Y-98585714D01*
X189466666Y-98776190D02*
X189514285Y-98680952D01*
X189561904Y-98633333D01*
X189657142Y-98585714D01*
X189752380Y-98585714D01*
X190038095Y-99204761D02*
X190133333Y-99252380D01*
X190323809Y-99252380D01*
X190419047Y-99204761D01*
X190466666Y-99109523D01*
X190466666Y-99061904D01*
X190419047Y-98966666D01*
X190323809Y-98919047D01*
X190180952Y-98919047D01*
X190085714Y-98871428D01*
X190038095Y-98776190D01*
X190038095Y-98728571D01*
X190085714Y-98633333D01*
X190180952Y-98585714D01*
X190323809Y-98585714D01*
X190419047Y-98633333D01*
X190895238Y-99252380D02*
X190895238Y-98585714D01*
X190895238Y-98252380D02*
X190847619Y-98300000D01*
X190895238Y-98347619D01*
X190942857Y-98300000D01*
X190895238Y-98252380D01*
X190895238Y-98347619D01*
X191514285Y-99252380D02*
X191419047Y-99204761D01*
X191371428Y-99157142D01*
X191323809Y-99061904D01*
X191323809Y-98776190D01*
X191371428Y-98680952D01*
X191419047Y-98633333D01*
X191514285Y-98585714D01*
X191657142Y-98585714D01*
X191752380Y-98633333D01*
X191800000Y-98680952D01*
X191847619Y-98776190D01*
X191847619Y-99061904D01*
X191800000Y-99157142D01*
X191752380Y-99204761D01*
X191657142Y-99252380D01*
X191514285Y-99252380D01*
X192276190Y-98585714D02*
X192276190Y-99252380D01*
X192276190Y-98680952D02*
X192323809Y-98633333D01*
X192419047Y-98585714D01*
X192561904Y-98585714D01*
X192657142Y-98633333D01*
X192704761Y-98728571D01*
X192704761Y-99252380D01*
X194466666Y-99252380D02*
X193895238Y-99252380D01*
X194180952Y-99252380D02*
X194180952Y-98252380D01*
X194085714Y-98395238D01*
X193990476Y-98490476D01*
X193895238Y-98538095D01*
X194895238Y-99157142D02*
X194942857Y-99204761D01*
X194895238Y-99252380D01*
X194847619Y-99204761D01*
X194895238Y-99157142D01*
X194895238Y-99252380D01*
X195561904Y-98252380D02*
X195657142Y-98252380D01*
X195752380Y-98300000D01*
X195800000Y-98347619D01*
X195847619Y-98442857D01*
X195895238Y-98633333D01*
X195895238Y-98871428D01*
X195847619Y-99061904D01*
X195800000Y-99157142D01*
X195752380Y-99204761D01*
X195657142Y-99252380D01*
X195561904Y-99252380D01*
X195466666Y-99204761D01*
X195419047Y-99157142D01*
X195371428Y-99061904D01*
X195323809Y-98871428D01*
X195323809Y-98633333D01*
X195371428Y-98442857D01*
X195419047Y-98347619D01*
X195466666Y-98300000D01*
X195561904Y-98252380D01*
D11*
X98702380Y-147107142D02*
X98726190Y-147035714D01*
X98726190Y-146916666D01*
X98702380Y-146869047D01*
X98678571Y-146845238D01*
X98630952Y-146821428D01*
X98583333Y-146821428D01*
X98535714Y-146845238D01*
X98511904Y-146869047D01*
X98488095Y-146916666D01*
X98464285Y-147011904D01*
X98440476Y-147059523D01*
X98416666Y-147083333D01*
X98369047Y-147107142D01*
X98321428Y-147107142D01*
X98273809Y-147083333D01*
X98250000Y-147059523D01*
X98226190Y-147011904D01*
X98226190Y-146892857D01*
X98250000Y-146821428D01*
X98464285Y-146607142D02*
X98464285Y-146440476D01*
X98726190Y-146369047D02*
X98726190Y-146607142D01*
X98226190Y-146607142D01*
X98226190Y-146369047D01*
X98726190Y-146154761D02*
X98226190Y-146154761D01*
X98726190Y-145869047D01*
X98226190Y-145869047D01*
X98773809Y-145750000D02*
X98773809Y-145369047D01*
X98726190Y-145250000D02*
X98226190Y-145250000D01*
X98226190Y-145059523D01*
X98250000Y-145011904D01*
X98273809Y-144988095D01*
X98321428Y-144964285D01*
X98392857Y-144964285D01*
X98440476Y-144988095D01*
X98464285Y-145011904D01*
X98488095Y-145059523D01*
X98488095Y-145250000D01*
X98226190Y-144797619D02*
X98726190Y-144678571D01*
X98369047Y-144583333D01*
X98726190Y-144488095D01*
X98226190Y-144369047D01*
X98726190Y-143892857D02*
X98488095Y-144059523D01*
X98726190Y-144178571D02*
X98226190Y-144178571D01*
X98226190Y-143988095D01*
X98250000Y-143940476D01*
X98273809Y-143916666D01*
X98321428Y-143892857D01*
X98392857Y-143892857D01*
X98440476Y-143916666D01*
X98464285Y-143940476D01*
X98488095Y-143988095D01*
X98488095Y-144178571D01*
D12*
X105952380Y-101542857D02*
X104952380Y-101542857D01*
X104952380Y-101304761D01*
X105000000Y-101161904D01*
X105095238Y-101066666D01*
X105190476Y-101019047D01*
X105380952Y-100971428D01*
X105523809Y-100971428D01*
X105714285Y-101019047D01*
X105809523Y-101066666D01*
X105904761Y-101161904D01*
X105952380Y-101304761D01*
X105952380Y-101542857D01*
X104952380Y-100685714D02*
X104952380Y-100114285D01*
X105952380Y-100400000D02*
X104952380Y-100400000D01*
X105952380Y-99209523D02*
X105476190Y-99542857D01*
X105952380Y-99780952D02*
X104952380Y-99780952D01*
X104952380Y-99400000D01*
X105000000Y-99304761D01*
X105047619Y-99257142D01*
X105142857Y-99209523D01*
X105285714Y-99209523D01*
X105380952Y-99257142D01*
X105428571Y-99304761D01*
X105476190Y-99400000D01*
X105476190Y-99780952D01*
X121052380Y-151176190D02*
X120052380Y-151176190D01*
X120147619Y-150747619D02*
X120100000Y-150700000D01*
X120052380Y-150604761D01*
X120052380Y-150366666D01*
X120100000Y-150271428D01*
X120147619Y-150223809D01*
X120242857Y-150176190D01*
X120338095Y-150176190D01*
X120480952Y-150223809D01*
X121052380Y-150795238D01*
X121052380Y-150176190D01*
X120957142Y-149176190D02*
X121004761Y-149223809D01*
X121052380Y-149366666D01*
X121052380Y-149461904D01*
X121004761Y-149604761D01*
X120909523Y-149700000D01*
X120814285Y-149747619D01*
X120623809Y-149795238D01*
X120480952Y-149795238D01*
X120290476Y-149747619D01*
X120195238Y-149700000D01*
X120100000Y-149604761D01*
X120052380Y-149461904D01*
X120052380Y-149366666D01*
X120100000Y-149223809D01*
X120147619Y-149176190D01*
X98252380Y-101066666D02*
X97776190Y-101400000D01*
X98252380Y-101638095D02*
X97252380Y-101638095D01*
X97252380Y-101257142D01*
X97300000Y-101161904D01*
X97347619Y-101114285D01*
X97442857Y-101066666D01*
X97585714Y-101066666D01*
X97680952Y-101114285D01*
X97728571Y-101161904D01*
X97776190Y-101257142D01*
X97776190Y-101638095D01*
X97252380Y-100733333D02*
X98252380Y-100066666D01*
X97252380Y-100066666D02*
X98252380Y-100733333D01*
X98252380Y-99685714D02*
X97252380Y-99685714D01*
X97252380Y-99447619D01*
X97300000Y-99304761D01*
X97395238Y-99209523D01*
X97490476Y-99161904D01*
X97680952Y-99114285D01*
X97823809Y-99114285D01*
X98014285Y-99161904D01*
X98109523Y-99209523D01*
X98204761Y-99304761D01*
X98252380Y-99447619D01*
X98252380Y-99685714D01*
D11*
X125202380Y-147607142D02*
X125226190Y-147535714D01*
X125226190Y-147416666D01*
X125202380Y-147369047D01*
X125178571Y-147345238D01*
X125130952Y-147321428D01*
X125083333Y-147321428D01*
X125035714Y-147345238D01*
X125011904Y-147369047D01*
X124988095Y-147416666D01*
X124964285Y-147511904D01*
X124940476Y-147559523D01*
X124916666Y-147583333D01*
X124869047Y-147607142D01*
X124821428Y-147607142D01*
X124773809Y-147583333D01*
X124750000Y-147559523D01*
X124726190Y-147511904D01*
X124726190Y-147392857D01*
X124750000Y-147321428D01*
X125226190Y-147107142D02*
X124726190Y-147107142D01*
X124726190Y-146988095D01*
X124750000Y-146916666D01*
X124797619Y-146869047D01*
X124845238Y-146845238D01*
X124940476Y-146821428D01*
X125011904Y-146821428D01*
X125107142Y-146845238D01*
X125154761Y-146869047D01*
X125202380Y-146916666D01*
X125226190Y-146988095D01*
X125226190Y-147107142D01*
X125083333Y-146630952D02*
X125083333Y-146392857D01*
X125226190Y-146678571D02*
X124726190Y-146511904D01*
X125226190Y-146345238D01*
X112000000Y-147476190D02*
X111976190Y-147523809D01*
X111976190Y-147595238D01*
X112000000Y-147666666D01*
X112047619Y-147714285D01*
X112095238Y-147738095D01*
X112190476Y-147761904D01*
X112261904Y-147761904D01*
X112357142Y-147738095D01*
X112404761Y-147714285D01*
X112452380Y-147666666D01*
X112476190Y-147595238D01*
X112476190Y-147547619D01*
X112452380Y-147476190D01*
X112428571Y-147452380D01*
X112261904Y-147452380D01*
X112261904Y-147547619D01*
X112476190Y-147238095D02*
X111976190Y-147238095D01*
X111976190Y-147047619D01*
X112000000Y-147000000D01*
X112023809Y-146976190D01*
X112071428Y-146952380D01*
X112142857Y-146952380D01*
X112190476Y-146976190D01*
X112214285Y-147000000D01*
X112238095Y-147047619D01*
X112238095Y-147238095D01*
X112476190Y-146738095D02*
X111976190Y-146738095D01*
X111976190Y-146404761D02*
X111976190Y-146309523D01*
X112000000Y-146261904D01*
X112047619Y-146214285D01*
X112142857Y-146190476D01*
X112309523Y-146190476D01*
X112404761Y-146214285D01*
X112452380Y-146261904D01*
X112476190Y-146309523D01*
X112476190Y-146404761D01*
X112452380Y-146452380D01*
X112404761Y-146500000D01*
X112309523Y-146523809D01*
X112142857Y-146523809D01*
X112047619Y-146500000D01*
X112000000Y-146452380D01*
X111976190Y-146404761D01*
X112476190Y-145714285D02*
X112476190Y-146000000D01*
X112476190Y-145857142D02*
X111976190Y-145857142D01*
X112047619Y-145904761D01*
X112095238Y-145952380D01*
X112119047Y-146000000D01*
X111976190Y-145547619D02*
X111976190Y-145214285D01*
X112476190Y-145428571D01*
X122726190Y-147666666D02*
X123226190Y-147500000D01*
X122726190Y-147333333D01*
X123178571Y-146880952D02*
X123202380Y-146904761D01*
X123226190Y-146976190D01*
X123226190Y-147023809D01*
X123202380Y-147095238D01*
X123154761Y-147142857D01*
X123107142Y-147166666D01*
X123011904Y-147190476D01*
X122940476Y-147190476D01*
X122845238Y-147166666D01*
X122797619Y-147142857D01*
X122750000Y-147095238D01*
X122726190Y-147023809D01*
X122726190Y-146976190D01*
X122750000Y-146904761D01*
X122773809Y-146880952D01*
X123178571Y-146380952D02*
X123202380Y-146404761D01*
X123226190Y-146476190D01*
X123226190Y-146523809D01*
X123202380Y-146595238D01*
X123154761Y-146642857D01*
X123107142Y-146666666D01*
X123011904Y-146690476D01*
X122940476Y-146690476D01*
X122845238Y-146666666D01*
X122797619Y-146642857D01*
X122750000Y-146595238D01*
X122726190Y-146523809D01*
X122726190Y-146476190D01*
X122750000Y-146404761D01*
X122773809Y-146380952D01*
X111000000Y-147452380D02*
X110976190Y-147500000D01*
X110976190Y-147571428D01*
X111000000Y-147642857D01*
X111047619Y-147690476D01*
X111095238Y-147714285D01*
X111190476Y-147738095D01*
X111261904Y-147738095D01*
X111357142Y-147714285D01*
X111404761Y-147690476D01*
X111452380Y-147642857D01*
X111476190Y-147571428D01*
X111476190Y-147523809D01*
X111452380Y-147452380D01*
X111428571Y-147428571D01*
X111261904Y-147428571D01*
X111261904Y-147523809D01*
X111476190Y-147214285D02*
X110976190Y-147214285D01*
X110976190Y-147023809D01*
X111000000Y-146976190D01*
X111023809Y-146952380D01*
X111071428Y-146928571D01*
X111142857Y-146928571D01*
X111190476Y-146952380D01*
X111214285Y-146976190D01*
X111238095Y-147023809D01*
X111238095Y-147214285D01*
X111476190Y-146714285D02*
X110976190Y-146714285D01*
X110976190Y-146380952D02*
X110976190Y-146333333D01*
X111000000Y-146285714D01*
X111023809Y-146261904D01*
X111071428Y-146238095D01*
X111166666Y-146214285D01*
X111285714Y-146214285D01*
X111380952Y-146238095D01*
X111428571Y-146261904D01*
X111452380Y-146285714D01*
X111476190Y-146333333D01*
X111476190Y-146380952D01*
X111452380Y-146428571D01*
X111428571Y-146452380D01*
X111380952Y-146476190D01*
X111285714Y-146500000D01*
X111166666Y-146500000D01*
X111071428Y-146476190D01*
X111023809Y-146452380D01*
X111000000Y-146428571D01*
X110976190Y-146380952D01*
X110976190Y-146047619D02*
X110976190Y-145738095D01*
X111166666Y-145904761D01*
X111166666Y-145833333D01*
X111190476Y-145785714D01*
X111214285Y-145761904D01*
X111261904Y-145738095D01*
X111380952Y-145738095D01*
X111428571Y-145761904D01*
X111452380Y-145785714D01*
X111476190Y-145833333D01*
X111476190Y-145976190D01*
X111452380Y-146023809D01*
X111428571Y-146047619D01*
X110976190Y-145571428D02*
X110976190Y-145261904D01*
X111166666Y-145428571D01*
X111166666Y-145357142D01*
X111190476Y-145309523D01*
X111214285Y-145285714D01*
X111261904Y-145261904D01*
X111380952Y-145261904D01*
X111428571Y-145285714D01*
X111452380Y-145309523D01*
X111476190Y-145357142D01*
X111476190Y-145500000D01*
X111452380Y-145547619D01*
X111428571Y-145571428D01*
D12*
X103652380Y-100947619D02*
X103176190Y-101280952D01*
X103652380Y-101519047D02*
X102652380Y-101519047D01*
X102652380Y-101138095D01*
X102700000Y-101042857D01*
X102747619Y-100995238D01*
X102842857Y-100947619D01*
X102985714Y-100947619D01*
X103080952Y-100995238D01*
X103128571Y-101042857D01*
X103176190Y-101138095D01*
X103176190Y-101519047D01*
X102652380Y-100661904D02*
X102652380Y-100090476D01*
X103652380Y-100376190D02*
X102652380Y-100376190D01*
X103604761Y-99804761D02*
X103652380Y-99661904D01*
X103652380Y-99423809D01*
X103604761Y-99328571D01*
X103557142Y-99280952D01*
X103461904Y-99233333D01*
X103366666Y-99233333D01*
X103271428Y-99280952D01*
X103223809Y-99328571D01*
X103176190Y-99423809D01*
X103128571Y-99614285D01*
X103080952Y-99709523D01*
X103033333Y-99757142D01*
X102938095Y-99804761D01*
X102842857Y-99804761D01*
X102747619Y-99757142D01*
X102700000Y-99709523D01*
X102652380Y-99614285D01*
X102652380Y-99376190D01*
X102700000Y-99233333D01*
D11*
X125750000Y-147380952D02*
X125726190Y-147428571D01*
X125726190Y-147500000D01*
X125750000Y-147571428D01*
X125797619Y-147619047D01*
X125845238Y-147642857D01*
X125940476Y-147666666D01*
X126011904Y-147666666D01*
X126107142Y-147642857D01*
X126154761Y-147619047D01*
X126202380Y-147571428D01*
X126226190Y-147500000D01*
X126226190Y-147452380D01*
X126202380Y-147380952D01*
X126178571Y-147357142D01*
X126011904Y-147357142D01*
X126011904Y-147452380D01*
X126226190Y-147142857D02*
X125726190Y-147142857D01*
X126226190Y-146857142D01*
X125726190Y-146857142D01*
X126226190Y-146619047D02*
X125726190Y-146619047D01*
X125726190Y-146500000D01*
X125750000Y-146428571D01*
X125797619Y-146380952D01*
X125845238Y-146357142D01*
X125940476Y-146333333D01*
X126011904Y-146333333D01*
X126107142Y-146357142D01*
X126154761Y-146380952D01*
X126202380Y-146428571D01*
X126226190Y-146500000D01*
X126226190Y-146619047D01*
D12*
X94933333Y-138757142D02*
X94885714Y-138804761D01*
X94742857Y-138852380D01*
X94647619Y-138852380D01*
X94504761Y-138804761D01*
X94409523Y-138709523D01*
X94361904Y-138614285D01*
X94314285Y-138423809D01*
X94314285Y-138280952D01*
X94361904Y-138090476D01*
X94409523Y-137995238D01*
X94504761Y-137900000D01*
X94647619Y-137852380D01*
X94742857Y-137852380D01*
X94885714Y-137900000D01*
X94933333Y-137947619D01*
X95790476Y-138185714D02*
X95790476Y-138852380D01*
X95552380Y-137804761D02*
X95314285Y-138519047D01*
X95933333Y-138519047D01*
X94933333Y-141357142D02*
X94885714Y-141404761D01*
X94742857Y-141452380D01*
X94647619Y-141452380D01*
X94504761Y-141404761D01*
X94409523Y-141309523D01*
X94361904Y-141214285D01*
X94314285Y-141023809D01*
X94314285Y-140880952D01*
X94361904Y-140690476D01*
X94409523Y-140595238D01*
X94504761Y-140500000D01*
X94647619Y-140452380D01*
X94742857Y-140452380D01*
X94885714Y-140500000D01*
X94933333Y-140547619D01*
X95838095Y-140452380D02*
X95361904Y-140452380D01*
X95314285Y-140928571D01*
X95361904Y-140880952D01*
X95457142Y-140833333D01*
X95695238Y-140833333D01*
X95790476Y-140880952D01*
X95838095Y-140928571D01*
X95885714Y-141023809D01*
X95885714Y-141261904D01*
X95838095Y-141357142D01*
X95790476Y-141404761D01*
X95695238Y-141452380D01*
X95457142Y-141452380D01*
X95361904Y-141404761D01*
X95314285Y-141357142D01*
X94933333Y-137457142D02*
X94885714Y-137504761D01*
X94742857Y-137552380D01*
X94647619Y-137552380D01*
X94504761Y-137504761D01*
X94409523Y-137409523D01*
X94361904Y-137314285D01*
X94314285Y-137123809D01*
X94314285Y-136980952D01*
X94361904Y-136790476D01*
X94409523Y-136695238D01*
X94504761Y-136600000D01*
X94647619Y-136552380D01*
X94742857Y-136552380D01*
X94885714Y-136600000D01*
X94933333Y-136647619D01*
X95790476Y-136552380D02*
X95600000Y-136552380D01*
X95504761Y-136600000D01*
X95457142Y-136647619D01*
X95361904Y-136790476D01*
X95314285Y-136980952D01*
X95314285Y-137361904D01*
X95361904Y-137457142D01*
X95409523Y-137504761D01*
X95504761Y-137552380D01*
X95695238Y-137552380D01*
X95790476Y-137504761D01*
X95838095Y-137457142D01*
X95885714Y-137361904D01*
X95885714Y-137123809D01*
X95838095Y-137028571D01*
X95790476Y-136980952D01*
X95695238Y-136933333D01*
X95504761Y-136933333D01*
X95409523Y-136980952D01*
X95361904Y-137028571D01*
X95314285Y-137123809D01*
X88238095Y-94152380D02*
X88238095Y-93152380D01*
X88238095Y-93628571D02*
X88809523Y-93628571D01*
X88809523Y-94152380D02*
X88809523Y-93152380D01*
X89809523Y-94152380D02*
X89238095Y-94152380D01*
X89523809Y-94152380D02*
X89523809Y-93152380D01*
X89428571Y-93295238D01*
X89333333Y-93390476D01*
X89238095Y-93438095D01*
X88238095Y-146152380D02*
X88238095Y-145152380D01*
X88238095Y-145628571D02*
X88809523Y-145628571D01*
X88809523Y-146152380D02*
X88809523Y-145152380D01*
X89238095Y-145247619D02*
X89285714Y-145200000D01*
X89380952Y-145152380D01*
X89619047Y-145152380D01*
X89714285Y-145200000D01*
X89761904Y-145247619D01*
X89809523Y-145342857D01*
X89809523Y-145438095D01*
X89761904Y-145580952D01*
X89190476Y-146152380D01*
X89809523Y-146152380D01*
X200238095Y-94152380D02*
X200238095Y-93152380D01*
X200238095Y-93628571D02*
X200809523Y-93628571D01*
X200809523Y-94152380D02*
X200809523Y-93152380D01*
X201714285Y-93485714D02*
X201714285Y-94152380D01*
X201476190Y-93104761D02*
X201238095Y-93819047D01*
X201857142Y-93819047D01*
X109852380Y-97533333D02*
X110566666Y-97533333D01*
X110709523Y-97580952D01*
X110804761Y-97676190D01*
X110852380Y-97819047D01*
X110852380Y-97914285D01*
X109947619Y-97104761D02*
X109900000Y-97057142D01*
X109852380Y-96961904D01*
X109852380Y-96723809D01*
X109900000Y-96628571D01*
X109947619Y-96580952D01*
X110042857Y-96533333D01*
X110138095Y-96533333D01*
X110280952Y-96580952D01*
X110852380Y-97152380D01*
X110852380Y-96533333D01*
X101447619Y-103595238D02*
X101400000Y-103690476D01*
X101304761Y-103785714D01*
X101161904Y-103928571D01*
X101114285Y-104023809D01*
X101114285Y-104119047D01*
X101352380Y-104071428D02*
X101304761Y-104166666D01*
X101209523Y-104261904D01*
X101019047Y-104309523D01*
X100685714Y-104309523D01*
X100495238Y-104261904D01*
X100400000Y-104166666D01*
X100352380Y-104071428D01*
X100352380Y-103880952D01*
X100400000Y-103785714D01*
X100495238Y-103690476D01*
X100685714Y-103642857D01*
X101019047Y-103642857D01*
X101209523Y-103690476D01*
X101304761Y-103785714D01*
X101352380Y-103880952D01*
X101352380Y-104071428D01*
X101352380Y-102690476D02*
X101352380Y-103261904D01*
X101352380Y-102976190D02*
X100352380Y-102976190D01*
X100495238Y-103071428D01*
X100590476Y-103166666D01*
X100638095Y-103261904D01*
X135458333Y-141782380D02*
X135125000Y-141306190D01*
X134886904Y-141782380D02*
X134886904Y-140782380D01*
X135267857Y-140782380D01*
X135363095Y-140830000D01*
X135410714Y-140877619D01*
X135458333Y-140972857D01*
X135458333Y-141115714D01*
X135410714Y-141210952D01*
X135363095Y-141258571D01*
X135267857Y-141306190D01*
X134886904Y-141306190D01*
X136315476Y-140782380D02*
X136125000Y-140782380D01*
X136029761Y-140830000D01*
X135982142Y-140877619D01*
X135886904Y-141020476D01*
X135839285Y-141210952D01*
X135839285Y-141591904D01*
X135886904Y-141687142D01*
X135934523Y-141734761D01*
X136029761Y-141782380D01*
X136220238Y-141782380D01*
X136315476Y-141734761D01*
X136363095Y-141687142D01*
X136410714Y-141591904D01*
X136410714Y-141353809D01*
X136363095Y-141258571D01*
X136315476Y-141210952D01*
X136220238Y-141163333D01*
X136029761Y-141163333D01*
X135934523Y-141210952D01*
X135886904Y-141258571D01*
X135839285Y-141353809D01*
X137833333Y-141782380D02*
X137500000Y-141306190D01*
X137261904Y-141782380D02*
X137261904Y-140782380D01*
X137642857Y-140782380D01*
X137738095Y-140830000D01*
X137785714Y-140877619D01*
X137833333Y-140972857D01*
X137833333Y-141115714D01*
X137785714Y-141210952D01*
X137738095Y-141258571D01*
X137642857Y-141306190D01*
X137261904Y-141306190D01*
X138404761Y-141210952D02*
X138309523Y-141163333D01*
X138261904Y-141115714D01*
X138214285Y-141020476D01*
X138214285Y-140972857D01*
X138261904Y-140877619D01*
X138309523Y-140830000D01*
X138404761Y-140782380D01*
X138595238Y-140782380D01*
X138690476Y-140830000D01*
X138738095Y-140877619D01*
X138785714Y-140972857D01*
X138785714Y-141020476D01*
X138738095Y-141115714D01*
X138690476Y-141163333D01*
X138595238Y-141210952D01*
X138404761Y-141210952D01*
X138309523Y-141258571D01*
X138261904Y-141306190D01*
X138214285Y-141401428D01*
X138214285Y-141591904D01*
X138261904Y-141687142D01*
X138309523Y-141734761D01*
X138404761Y-141782380D01*
X138595238Y-141782380D01*
X138690476Y-141734761D01*
X138738095Y-141687142D01*
X138785714Y-141591904D01*
X138785714Y-141401428D01*
X138738095Y-141306190D01*
X138690476Y-141258571D01*
X138595238Y-141210952D01*
X108668095Y-135062380D02*
X108668095Y-135871904D01*
X108715714Y-135967142D01*
X108763333Y-136014761D01*
X108858571Y-136062380D01*
X109049047Y-136062380D01*
X109144285Y-136014761D01*
X109191904Y-135967142D01*
X109239523Y-135871904D01*
X109239523Y-135062380D01*
X109668095Y-135157619D02*
X109715714Y-135110000D01*
X109810952Y-135062380D01*
X110049047Y-135062380D01*
X110144285Y-135110000D01*
X110191904Y-135157619D01*
X110239523Y-135252857D01*
X110239523Y-135348095D01*
X110191904Y-135490952D01*
X109620476Y-136062380D01*
X110239523Y-136062380D01*
X168933333Y-133357142D02*
X168885714Y-133404761D01*
X168742857Y-133452380D01*
X168647619Y-133452380D01*
X168504761Y-133404761D01*
X168409523Y-133309523D01*
X168361904Y-133214285D01*
X168314285Y-133023809D01*
X168314285Y-132880952D01*
X168361904Y-132690476D01*
X168409523Y-132595238D01*
X168504761Y-132500000D01*
X168647619Y-132452380D01*
X168742857Y-132452380D01*
X168885714Y-132500000D01*
X168933333Y-132547619D01*
X169409523Y-133452380D02*
X169600000Y-133452380D01*
X169695238Y-133404761D01*
X169742857Y-133357142D01*
X169838095Y-133214285D01*
X169885714Y-133023809D01*
X169885714Y-132642857D01*
X169838095Y-132547619D01*
X169790476Y-132500000D01*
X169695238Y-132452380D01*
X169504761Y-132452380D01*
X169409523Y-132500000D01*
X169361904Y-132547619D01*
X169314285Y-132642857D01*
X169314285Y-132880952D01*
X169361904Y-132976190D01*
X169409523Y-133023809D01*
X169504761Y-133071428D01*
X169695238Y-133071428D01*
X169790476Y-133023809D01*
X169838095Y-132976190D01*
X169885714Y-132880952D01*
X128166275Y-152451738D02*
X128166275Y-153166862D01*
X128118600Y-153309886D01*
X128023250Y-153405236D01*
X127880226Y-153452911D01*
X127784876Y-153452911D01*
X129119773Y-152451738D02*
X128643024Y-152451738D01*
X128595349Y-152928487D01*
X128643024Y-152880812D01*
X128738374Y-152833137D01*
X128976749Y-152833137D01*
X129072098Y-152880812D01*
X129119773Y-152928487D01*
X129167448Y-153023837D01*
X129167448Y-153262211D01*
X129119773Y-153357561D01*
X129072098Y-153405236D01*
X128976749Y-153452911D01*
X128738374Y-153452911D01*
X128643024Y-153405236D01*
X128595349Y-153357561D01*
X133133333Y-141782380D02*
X132800000Y-141306190D01*
X132561904Y-141782380D02*
X132561904Y-140782380D01*
X132942857Y-140782380D01*
X133038095Y-140830000D01*
X133085714Y-140877619D01*
X133133333Y-140972857D01*
X133133333Y-141115714D01*
X133085714Y-141210952D01*
X133038095Y-141258571D01*
X132942857Y-141306190D01*
X132561904Y-141306190D01*
X133466666Y-140782380D02*
X134133333Y-140782380D01*
X133704761Y-141782380D01*
X147103333Y-103909642D02*
X147055714Y-103957261D01*
X146912857Y-104004880D01*
X146817619Y-104004880D01*
X146674761Y-103957261D01*
X146579523Y-103862023D01*
X146531904Y-103766785D01*
X146484285Y-103576309D01*
X146484285Y-103433452D01*
X146531904Y-103242976D01*
X146579523Y-103147738D01*
X146674761Y-103052500D01*
X146817619Y-103004880D01*
X146912857Y-103004880D01*
X147055714Y-103052500D01*
X147103333Y-103100119D01*
X147436666Y-103004880D02*
X148103333Y-103004880D01*
X147674761Y-104004880D01*
X147103333Y-102804880D02*
X146770000Y-102328690D01*
X146531904Y-102804880D02*
X146531904Y-101804880D01*
X146912857Y-101804880D01*
X147008095Y-101852500D01*
X147055714Y-101900119D01*
X147103333Y-101995357D01*
X147103333Y-102138214D01*
X147055714Y-102233452D01*
X147008095Y-102281071D01*
X146912857Y-102328690D01*
X146531904Y-102328690D01*
X147484285Y-101900119D02*
X147531904Y-101852500D01*
X147627142Y-101804880D01*
X147865238Y-101804880D01*
X147960476Y-101852500D01*
X148008095Y-101900119D01*
X148055714Y-101995357D01*
X148055714Y-102090595D01*
X148008095Y-102233452D01*
X147436666Y-102804880D01*
X148055714Y-102804880D01*
X149636666Y-100857261D02*
X149779523Y-100904880D01*
X150017619Y-100904880D01*
X150112857Y-100857261D01*
X150160476Y-100809642D01*
X150208095Y-100714404D01*
X150208095Y-100619166D01*
X150160476Y-100523928D01*
X150112857Y-100476309D01*
X150017619Y-100428690D01*
X149827142Y-100381071D01*
X149731904Y-100333452D01*
X149684285Y-100285833D01*
X149636666Y-100190595D01*
X149636666Y-100095357D01*
X149684285Y-100000119D01*
X149731904Y-99952500D01*
X149827142Y-99904880D01*
X150065238Y-99904880D01*
X150208095Y-99952500D01*
X150541428Y-99904880D02*
X150779523Y-100904880D01*
X150970000Y-100190595D01*
X151160476Y-100904880D01*
X151398571Y-99904880D01*
X152303333Y-100904880D02*
X151731904Y-100904880D01*
X152017619Y-100904880D02*
X152017619Y-99904880D01*
X151922380Y-100047738D01*
X151827142Y-100142976D01*
X151731904Y-100190595D01*
X139166666Y-152452380D02*
X139166666Y-153166666D01*
X139119047Y-153309523D01*
X139023809Y-153404761D01*
X138880952Y-153452380D01*
X138785714Y-153452380D01*
X140071428Y-152452380D02*
X139880952Y-152452380D01*
X139785714Y-152500000D01*
X139738095Y-152547619D01*
X139642857Y-152690476D01*
X139595238Y-152880952D01*
X139595238Y-153261904D01*
X139642857Y-153357142D01*
X139690476Y-153404761D01*
X139785714Y-153452380D01*
X139976190Y-153452380D01*
X140071428Y-153404761D01*
X140119047Y-153357142D01*
X140166666Y-153261904D01*
X140166666Y-153023809D01*
X140119047Y-152928571D01*
X140071428Y-152880952D01*
X139976190Y-152833333D01*
X139785714Y-152833333D01*
X139690476Y-152880952D01*
X139642857Y-152928571D01*
X139595238Y-153023809D01*
X163752380Y-142438095D02*
X162752380Y-142438095D01*
X162752380Y-142200000D01*
X162800000Y-142057142D01*
X162895238Y-141961904D01*
X162990476Y-141914285D01*
X163180952Y-141866666D01*
X163323809Y-141866666D01*
X163514285Y-141914285D01*
X163609523Y-141961904D01*
X163704761Y-142057142D01*
X163752380Y-142200000D01*
X163752380Y-142438095D01*
X163752380Y-140914285D02*
X163752380Y-141485714D01*
X163752380Y-141200000D02*
X162752380Y-141200000D01*
X162895238Y-141295238D01*
X162990476Y-141390476D01*
X163038095Y-141485714D01*
X167557142Y-151766666D02*
X167604761Y-151814285D01*
X167652380Y-151957142D01*
X167652380Y-152052380D01*
X167604761Y-152195238D01*
X167509523Y-152290476D01*
X167414285Y-152338095D01*
X167223809Y-152385714D01*
X167080952Y-152385714D01*
X166890476Y-152338095D01*
X166795238Y-152290476D01*
X166700000Y-152195238D01*
X166652380Y-152052380D01*
X166652380Y-151957142D01*
X166700000Y-151814285D01*
X166747619Y-151766666D01*
X167652380Y-150814285D02*
X167652380Y-151385714D01*
X167652380Y-151100000D02*
X166652380Y-151100000D01*
X166795238Y-151195238D01*
X166890476Y-151290476D01*
X166938095Y-151385714D01*
X169488095Y-152002380D02*
X169488095Y-152811904D01*
X169535714Y-152907142D01*
X169583333Y-152954761D01*
X169678571Y-153002380D01*
X169869047Y-153002380D01*
X169964285Y-152954761D01*
X170011904Y-152907142D01*
X170059523Y-152811904D01*
X170059523Y-152002380D01*
X171059523Y-153002380D02*
X170488095Y-153002380D01*
X170773809Y-153002380D02*
X170773809Y-152002380D01*
X170678571Y-152145238D01*
X170583333Y-152240476D01*
X170488095Y-152288095D01*
X200238095Y-146152380D02*
X200238095Y-145152380D01*
X200238095Y-145628571D02*
X200809523Y-145628571D01*
X200809523Y-146152380D02*
X200809523Y-145152380D01*
X201190476Y-145152380D02*
X201809523Y-145152380D01*
X201476190Y-145533333D01*
X201619047Y-145533333D01*
X201714285Y-145580952D01*
X201761904Y-145628571D01*
X201809523Y-145723809D01*
X201809523Y-145961904D01*
X201761904Y-146057142D01*
X201714285Y-146104761D01*
X201619047Y-146152380D01*
X201333333Y-146152380D01*
X201238095Y-146104761D01*
X201190476Y-146057142D01*
X182833333Y-145607142D02*
X182785714Y-145654761D01*
X182642857Y-145702380D01*
X182547619Y-145702380D01*
X182404761Y-145654761D01*
X182309523Y-145559523D01*
X182261904Y-145464285D01*
X182214285Y-145273809D01*
X182214285Y-145130952D01*
X182261904Y-144940476D01*
X182309523Y-144845238D01*
X182404761Y-144750000D01*
X182547619Y-144702380D01*
X182642857Y-144702380D01*
X182785714Y-144750000D01*
X182833333Y-144797619D01*
X183166666Y-144702380D02*
X183785714Y-144702380D01*
X183452380Y-145083333D01*
X183595238Y-145083333D01*
X183690476Y-145130952D01*
X183738095Y-145178571D01*
X183785714Y-145273809D01*
X183785714Y-145511904D01*
X183738095Y-145607142D01*
X183690476Y-145654761D01*
X183595238Y-145702380D01*
X183309523Y-145702380D01*
X183214285Y-145654761D01*
X183166666Y-145607142D01*
X168057142Y-132157142D02*
X168009523Y-132204761D01*
X167866666Y-132252380D01*
X167771428Y-132252380D01*
X167628571Y-132204761D01*
X167533333Y-132109523D01*
X167485714Y-132014285D01*
X167438095Y-131823809D01*
X167438095Y-131680952D01*
X167485714Y-131490476D01*
X167533333Y-131395238D01*
X167628571Y-131300000D01*
X167771428Y-131252380D01*
X167866666Y-131252380D01*
X168009523Y-131300000D01*
X168057142Y-131347619D01*
X169009523Y-132252380D02*
X168438095Y-132252380D01*
X168723809Y-132252380D02*
X168723809Y-131252380D01*
X168628571Y-131395238D01*
X168533333Y-131490476D01*
X168438095Y-131538095D01*
X169628571Y-131252380D02*
X169723809Y-131252380D01*
X169819047Y-131300000D01*
X169866666Y-131347619D01*
X169914285Y-131442857D01*
X169961904Y-131633333D01*
X169961904Y-131871428D01*
X169914285Y-132061904D01*
X169866666Y-132157142D01*
X169819047Y-132204761D01*
X169723809Y-132252380D01*
X169628571Y-132252380D01*
X169533333Y-132204761D01*
X169485714Y-132157142D01*
X169438095Y-132061904D01*
X169390476Y-131871428D01*
X169390476Y-131633333D01*
X169438095Y-131442857D01*
X169485714Y-131347619D01*
X169533333Y-131300000D01*
X169628571Y-131252380D01*
X171452380Y-123333333D02*
X172166666Y-123333333D01*
X172309523Y-123380952D01*
X172404761Y-123476190D01*
X172452380Y-123619047D01*
X172452380Y-123714285D01*
X171452380Y-122952380D02*
X171452380Y-122285714D01*
X172452380Y-122714285D01*
X167452380Y-111766666D02*
X166976190Y-112100000D01*
X167452380Y-112338095D02*
X166452380Y-112338095D01*
X166452380Y-111957142D01*
X166500000Y-111861904D01*
X166547619Y-111814285D01*
X166642857Y-111766666D01*
X166785714Y-111766666D01*
X166880952Y-111814285D01*
X166928571Y-111861904D01*
X166976190Y-111957142D01*
X166976190Y-112338095D01*
X167452380Y-111290476D02*
X167452380Y-111100000D01*
X167404761Y-111004761D01*
X167357142Y-110957142D01*
X167214285Y-110861904D01*
X167023809Y-110814285D01*
X166642857Y-110814285D01*
X166547619Y-110861904D01*
X166500000Y-110909523D01*
X166452380Y-111004761D01*
X166452380Y-111195238D01*
X166500000Y-111290476D01*
X166547619Y-111338095D01*
X166642857Y-111385714D01*
X166880952Y-111385714D01*
X166976190Y-111338095D01*
X167023809Y-111290476D01*
X167071428Y-111195238D01*
X167071428Y-111004761D01*
X167023809Y-110909523D01*
X166976190Y-110861904D01*
X166880952Y-110814285D01*
X167452380Y-119542857D02*
X166976190Y-119876190D01*
X167452380Y-120114285D02*
X166452380Y-120114285D01*
X166452380Y-119733333D01*
X166500000Y-119638095D01*
X166547619Y-119590476D01*
X166642857Y-119542857D01*
X166785714Y-119542857D01*
X166880952Y-119590476D01*
X166928571Y-119638095D01*
X166976190Y-119733333D01*
X166976190Y-120114285D01*
X167452380Y-118590476D02*
X167452380Y-119161904D01*
X167452380Y-118876190D02*
X166452380Y-118876190D01*
X166595238Y-118971428D01*
X166690476Y-119066666D01*
X166738095Y-119161904D01*
X166452380Y-117971428D02*
X166452380Y-117876190D01*
X166500000Y-117780952D01*
X166547619Y-117733333D01*
X166642857Y-117685714D01*
X166833333Y-117638095D01*
X167071428Y-117638095D01*
X167261904Y-117685714D01*
X167357142Y-117733333D01*
X167404761Y-117780952D01*
X167452380Y-117876190D01*
X167452380Y-117971428D01*
X167404761Y-118066666D01*
X167357142Y-118114285D01*
X167261904Y-118161904D01*
X167071428Y-118209523D01*
X166833333Y-118209523D01*
X166642857Y-118161904D01*
X166547619Y-118114285D01*
X166500000Y-118066666D01*
X166452380Y-117971428D01*
X140517142Y-125266666D02*
X140564761Y-125314285D01*
X140612380Y-125457142D01*
X140612380Y-125552380D01*
X140564761Y-125695238D01*
X140469523Y-125790476D01*
X140374285Y-125838095D01*
X140183809Y-125885714D01*
X140040952Y-125885714D01*
X139850476Y-125838095D01*
X139755238Y-125790476D01*
X139660000Y-125695238D01*
X139612380Y-125552380D01*
X139612380Y-125457142D01*
X139660000Y-125314285D01*
X139707619Y-125266666D01*
X140040952Y-124695238D02*
X139993333Y-124790476D01*
X139945714Y-124838095D01*
X139850476Y-124885714D01*
X139802857Y-124885714D01*
X139707619Y-124838095D01*
X139660000Y-124790476D01*
X139612380Y-124695238D01*
X139612380Y-124504761D01*
X139660000Y-124409523D01*
X139707619Y-124361904D01*
X139802857Y-124314285D01*
X139850476Y-124314285D01*
X139945714Y-124361904D01*
X139993333Y-124409523D01*
X140040952Y-124504761D01*
X140040952Y-124695238D01*
X140088571Y-124790476D01*
X140136190Y-124838095D01*
X140231428Y-124885714D01*
X140421904Y-124885714D01*
X140517142Y-124838095D01*
X140564761Y-124790476D01*
X140612380Y-124695238D01*
X140612380Y-124504761D01*
X140564761Y-124409523D01*
X140517142Y-124361904D01*
X140421904Y-124314285D01*
X140231428Y-124314285D01*
X140136190Y-124361904D01*
X140088571Y-124409523D01*
X140040952Y-124504761D01*
X138577380Y-128988095D02*
X137577380Y-128988095D01*
X137577380Y-128750000D01*
X137625000Y-128607142D01*
X137720238Y-128511904D01*
X137815476Y-128464285D01*
X138005952Y-128416666D01*
X138148809Y-128416666D01*
X138339285Y-128464285D01*
X138434523Y-128511904D01*
X138529761Y-128607142D01*
X138577380Y-128750000D01*
X138577380Y-128988095D01*
X137672619Y-128035714D02*
X137625000Y-127988095D01*
X137577380Y-127892857D01*
X137577380Y-127654761D01*
X137625000Y-127559523D01*
X137672619Y-127511904D01*
X137767857Y-127464285D01*
X137863095Y-127464285D01*
X138005952Y-127511904D01*
X138577380Y-128083333D01*
X138577380Y-127464285D01*
X137247380Y-115666666D02*
X136771190Y-116000000D01*
X137247380Y-116238095D02*
X136247380Y-116238095D01*
X136247380Y-115857142D01*
X136295000Y-115761904D01*
X136342619Y-115714285D01*
X136437857Y-115666666D01*
X136580714Y-115666666D01*
X136675952Y-115714285D01*
X136723571Y-115761904D01*
X136771190Y-115857142D01*
X136771190Y-116238095D01*
X136247380Y-114761904D02*
X136247380Y-115238095D01*
X136723571Y-115285714D01*
X136675952Y-115238095D01*
X136628333Y-115142857D01*
X136628333Y-114904761D01*
X136675952Y-114809523D01*
X136723571Y-114761904D01*
X136818809Y-114714285D01*
X137056904Y-114714285D01*
X137152142Y-114761904D01*
X137199761Y-114809523D01*
X137247380Y-114904761D01*
X137247380Y-115142857D01*
X137199761Y-115238095D01*
X137152142Y-115285714D01*
X139872380Y-115666666D02*
X139396190Y-116000000D01*
X139872380Y-116238095D02*
X138872380Y-116238095D01*
X138872380Y-115857142D01*
X138920000Y-115761904D01*
X138967619Y-115714285D01*
X139062857Y-115666666D01*
X139205714Y-115666666D01*
X139300952Y-115714285D01*
X139348571Y-115761904D01*
X139396190Y-115857142D01*
X139396190Y-116238095D01*
X139205714Y-114809523D02*
X139872380Y-114809523D01*
X138824761Y-115047619D02*
X139539047Y-115285714D01*
X139539047Y-114666666D01*
X131777380Y-123261904D02*
X132586904Y-123261904D01*
X132682142Y-123214285D01*
X132729761Y-123166666D01*
X132777380Y-123071428D01*
X132777380Y-122880952D01*
X132729761Y-122785714D01*
X132682142Y-122738095D01*
X132586904Y-122690476D01*
X131777380Y-122690476D01*
X131777380Y-122309523D02*
X131777380Y-121690476D01*
X132158333Y-122023809D01*
X132158333Y-121880952D01*
X132205952Y-121785714D01*
X132253571Y-121738095D01*
X132348809Y-121690476D01*
X132586904Y-121690476D01*
X132682142Y-121738095D01*
X132729761Y-121785714D01*
X132777380Y-121880952D01*
X132777380Y-122166666D01*
X132729761Y-122261904D01*
X132682142Y-122309523D01*
X134622380Y-115666666D02*
X134146190Y-116000000D01*
X134622380Y-116238095D02*
X133622380Y-116238095D01*
X133622380Y-115857142D01*
X133670000Y-115761904D01*
X133717619Y-115714285D01*
X133812857Y-115666666D01*
X133955714Y-115666666D01*
X134050952Y-115714285D01*
X134098571Y-115761904D01*
X134146190Y-115857142D01*
X134146190Y-116238095D01*
X133622380Y-115333333D02*
X133622380Y-114714285D01*
X134003333Y-115047619D01*
X134003333Y-114904761D01*
X134050952Y-114809523D01*
X134098571Y-114761904D01*
X134193809Y-114714285D01*
X134431904Y-114714285D01*
X134527142Y-114761904D01*
X134574761Y-114809523D01*
X134622380Y-114904761D01*
X134622380Y-115190476D01*
X134574761Y-115285714D01*
X134527142Y-115333333D01*
X95033333Y-140152380D02*
X94700000Y-139676190D01*
X94461904Y-140152380D02*
X94461904Y-139152380D01*
X94842857Y-139152380D01*
X94938095Y-139200000D01*
X94985714Y-139247619D01*
X95033333Y-139342857D01*
X95033333Y-139485714D01*
X94985714Y-139580952D01*
X94938095Y-139628571D01*
X94842857Y-139676190D01*
X94461904Y-139676190D01*
X95985714Y-140152380D02*
X95414285Y-140152380D01*
X95700000Y-140152380D02*
X95700000Y-139152380D01*
X95604761Y-139295238D01*
X95509523Y-139390476D01*
X95414285Y-139438095D01*
X158452380Y-149833333D02*
X159166666Y-149833333D01*
X159309523Y-149880952D01*
X159404761Y-149976190D01*
X159452380Y-150119047D01*
X159452380Y-150214285D01*
X159452380Y-148833333D02*
X159452380Y-149404761D01*
X159452380Y-149119047D02*
X158452380Y-149119047D01*
X158595238Y-149214285D01*
X158690476Y-149309523D01*
X158738095Y-149404761D01*
X151666666Y-138928571D02*
X151333333Y-138928571D01*
X151333333Y-139452380D02*
X151333333Y-138452380D01*
X151809523Y-138452380D01*
X152714285Y-139452380D02*
X152142857Y-139452380D01*
X152428571Y-139452380D02*
X152428571Y-138452380D01*
X152333333Y-138595238D01*
X152238095Y-138690476D01*
X152142857Y-138738095D01*
X117166275Y-152451738D02*
X117166275Y-153166862D01*
X117118600Y-153309886D01*
X117023250Y-153405236D01*
X116880226Y-153452911D01*
X116784876Y-153452911D01*
X117547674Y-152451738D02*
X118167448Y-152451738D01*
X117833724Y-152833137D01*
X117976749Y-152833137D01*
X118072098Y-152880812D01*
X118119773Y-152928487D01*
X118167448Y-153023837D01*
X118167448Y-153262211D01*
X118119773Y-153357561D01*
X118072098Y-153405236D01*
X117976749Y-153452911D01*
X117690699Y-153452911D01*
X117595349Y-153405236D01*
X117547674Y-153357561D01*
X105166275Y-152951738D02*
X105166275Y-153666862D01*
X105118600Y-153809886D01*
X105023250Y-153905236D01*
X104880226Y-153952911D01*
X104784876Y-153952911D01*
X106072098Y-153285462D02*
X106072098Y-153952911D01*
X105833724Y-152904063D02*
X105595349Y-153619187D01*
X106215123Y-153619187D01*
X170037142Y-136457142D02*
X169989523Y-136504761D01*
X169846666Y-136552380D01*
X169751428Y-136552380D01*
X169608571Y-136504761D01*
X169513333Y-136409523D01*
X169465714Y-136314285D01*
X169418095Y-136123809D01*
X169418095Y-135980952D01*
X169465714Y-135790476D01*
X169513333Y-135695238D01*
X169608571Y-135600000D01*
X169751428Y-135552380D01*
X169846666Y-135552380D01*
X169989523Y-135600000D01*
X170037142Y-135647619D01*
X170989523Y-136552380D02*
X170418095Y-136552380D01*
X170703809Y-136552380D02*
X170703809Y-135552380D01*
X170608571Y-135695238D01*
X170513333Y-135790476D01*
X170418095Y-135838095D01*
X171322857Y-135552380D02*
X171941904Y-135552380D01*
X171608571Y-135933333D01*
X171751428Y-135933333D01*
X171846666Y-135980952D01*
X171894285Y-136028571D01*
X171941904Y-136123809D01*
X171941904Y-136361904D01*
X171894285Y-136457142D01*
X171846666Y-136504761D01*
X171751428Y-136552380D01*
X171465714Y-136552380D01*
X171370476Y-136504761D01*
X171322857Y-136457142D01*
X154207142Y-137366666D02*
X154254761Y-137414285D01*
X154302380Y-137557142D01*
X154302380Y-137652380D01*
X154254761Y-137795238D01*
X154159523Y-137890476D01*
X154064285Y-137938095D01*
X153873809Y-137985714D01*
X153730952Y-137985714D01*
X153540476Y-137938095D01*
X153445238Y-137890476D01*
X153350000Y-137795238D01*
X153302380Y-137652380D01*
X153302380Y-137557142D01*
X153350000Y-137414285D01*
X153397619Y-137366666D01*
X153397619Y-136985714D02*
X153350000Y-136938095D01*
X153302380Y-136842857D01*
X153302380Y-136604761D01*
X153350000Y-136509523D01*
X153397619Y-136461904D01*
X153492857Y-136414285D01*
X153588095Y-136414285D01*
X153730952Y-136461904D01*
X154302380Y-137033333D01*
X154302380Y-136414285D01*
X169957142Y-144857142D02*
X169909523Y-144904761D01*
X169766666Y-144952380D01*
X169671428Y-144952380D01*
X169528571Y-144904761D01*
X169433333Y-144809523D01*
X169385714Y-144714285D01*
X169338095Y-144523809D01*
X169338095Y-144380952D01*
X169385714Y-144190476D01*
X169433333Y-144095238D01*
X169528571Y-144000000D01*
X169671428Y-143952380D01*
X169766666Y-143952380D01*
X169909523Y-144000000D01*
X169957142Y-144047619D01*
X170909523Y-144952380D02*
X170338095Y-144952380D01*
X170623809Y-144952380D02*
X170623809Y-143952380D01*
X170528571Y-144095238D01*
X170433333Y-144190476D01*
X170338095Y-144238095D01*
X171861904Y-144952380D02*
X171290476Y-144952380D01*
X171576190Y-144952380D02*
X171576190Y-143952380D01*
X171480952Y-144095238D01*
X171385714Y-144190476D01*
X171290476Y-144238095D01*
X167857142Y-123157142D02*
X167809523Y-123204761D01*
X167666666Y-123252380D01*
X167571428Y-123252380D01*
X167428571Y-123204761D01*
X167333333Y-123109523D01*
X167285714Y-123014285D01*
X167238095Y-122823809D01*
X167238095Y-122680952D01*
X167285714Y-122490476D01*
X167333333Y-122395238D01*
X167428571Y-122300000D01*
X167571428Y-122252380D01*
X167666666Y-122252380D01*
X167809523Y-122300000D01*
X167857142Y-122347619D01*
X168809523Y-123252380D02*
X168238095Y-123252380D01*
X168523809Y-123252380D02*
X168523809Y-122252380D01*
X168428571Y-122395238D01*
X168333333Y-122490476D01*
X168238095Y-122538095D01*
X169190476Y-122347619D02*
X169238095Y-122300000D01*
X169333333Y-122252380D01*
X169571428Y-122252380D01*
X169666666Y-122300000D01*
X169714285Y-122347619D01*
X169761904Y-122442857D01*
X169761904Y-122538095D01*
X169714285Y-122680952D01*
X169142857Y-123252380D01*
X169761904Y-123252380D01*
X170357142Y-115852380D02*
X170023809Y-115376190D01*
X169785714Y-115852380D02*
X169785714Y-114852380D01*
X170166666Y-114852380D01*
X170261904Y-114900000D01*
X170309523Y-114947619D01*
X170357142Y-115042857D01*
X170357142Y-115185714D01*
X170309523Y-115280952D01*
X170261904Y-115328571D01*
X170166666Y-115376190D01*
X169785714Y-115376190D01*
X171309523Y-115852380D02*
X170738095Y-115852380D01*
X171023809Y-115852380D02*
X171023809Y-114852380D01*
X170928571Y-114995238D01*
X170833333Y-115090476D01*
X170738095Y-115138095D01*
X171690476Y-114947619D02*
X171738095Y-114900000D01*
X171833333Y-114852380D01*
X172071428Y-114852380D01*
X172166666Y-114900000D01*
X172214285Y-114947619D01*
X172261904Y-115042857D01*
X172261904Y-115138095D01*
X172214285Y-115280952D01*
X171642857Y-115852380D01*
X172261904Y-115852380D01*
X178152380Y-144538095D02*
X177152380Y-144538095D01*
X177152380Y-144300000D01*
X177200000Y-144157142D01*
X177295238Y-144061904D01*
X177390476Y-144014285D01*
X177580952Y-143966666D01*
X177723809Y-143966666D01*
X177914285Y-144014285D01*
X178009523Y-144061904D01*
X178104761Y-144157142D01*
X178152380Y-144300000D01*
X178152380Y-144538095D01*
X177152380Y-143633333D02*
X177152380Y-143014285D01*
X177533333Y-143347619D01*
X177533333Y-143204761D01*
X177580952Y-143109523D01*
X177628571Y-143061904D01*
X177723809Y-143014285D01*
X177961904Y-143014285D01*
X178057142Y-143061904D01*
X178104761Y-143109523D01*
X178152380Y-143204761D01*
X178152380Y-143490476D01*
X178104761Y-143585714D01*
X178057142Y-143633333D01*
X173802380Y-143916666D02*
X173802380Y-144392857D01*
X172802380Y-144392857D01*
X173802380Y-143059523D02*
X173802380Y-143630952D01*
X173802380Y-143345238D02*
X172802380Y-143345238D01*
X172945238Y-143440476D01*
X173040476Y-143535714D01*
X173088095Y-143630952D01*
X168227142Y-134752380D02*
X167893809Y-134276190D01*
X167655714Y-134752380D02*
X167655714Y-133752380D01*
X168036666Y-133752380D01*
X168131904Y-133800000D01*
X168179523Y-133847619D01*
X168227142Y-133942857D01*
X168227142Y-134085714D01*
X168179523Y-134180952D01*
X168131904Y-134228571D01*
X168036666Y-134276190D01*
X167655714Y-134276190D01*
X169179523Y-134752380D02*
X168608095Y-134752380D01*
X168893809Y-134752380D02*
X168893809Y-133752380D01*
X168798571Y-133895238D01*
X168703333Y-133990476D01*
X168608095Y-134038095D01*
X170131904Y-134752380D02*
X169560476Y-134752380D01*
X169846190Y-134752380D02*
X169846190Y-133752380D01*
X169750952Y-133895238D01*
X169655714Y-133990476D01*
X169560476Y-134038095D01*
X170038095Y-138552380D02*
X170038095Y-139361904D01*
X170085714Y-139457142D01*
X170133333Y-139504761D01*
X170228571Y-139552380D01*
X170419047Y-139552380D01*
X170514285Y-139504761D01*
X170561904Y-139457142D01*
X170609523Y-139361904D01*
X170609523Y-138552380D01*
X171514285Y-138885714D02*
X171514285Y-139552380D01*
X171276190Y-138504761D02*
X171038095Y-139219047D01*
X171657142Y-139219047D01*
D10*
X93115835Y-137740000D02*
X92884165Y-137740000D01*
X93115835Y-138460000D02*
X92884165Y-138460000D01*
X93115835Y-139940000D02*
X92884165Y-139940000D01*
X93115835Y-140660000D02*
X92884165Y-140660000D01*
X93115835Y-136640000D02*
X92884165Y-136640000D01*
X93115835Y-137360000D02*
X92884165Y-137360000D01*
X95250000Y-98530000D02*
X93920000Y-98530000D01*
X109280000Y-98530000D02*
X109280000Y-95870000D01*
X96520000Y-98530000D02*
X109280000Y-98530000D01*
X96520000Y-98530000D02*
X96520000Y-95870000D01*
X93920000Y-98530000D02*
X93920000Y-97200000D01*
X96520000Y-95870000D02*
X109280000Y-95870000D01*
X101740000Y-102800000D02*
X101740000Y-104700000D01*
X104060000Y-104200000D02*
X104060000Y-102800000D01*
X135457379Y-142120000D02*
X135792621Y-142120000D01*
X135457379Y-142880000D02*
X135792621Y-142880000D01*
X137832379Y-142120000D02*
X138167621Y-142120000D01*
X137832379Y-142880000D02*
X138167621Y-142880000D01*
X85135000Y-134120000D02*
X85135000Y-115880000D01*
X110100000Y-134120000D02*
X110880000Y-134120000D01*
X85135000Y-134120000D02*
X91555000Y-134120000D01*
X110880000Y-134120000D02*
X110880000Y-133120000D01*
X110100000Y-115880000D02*
X110880000Y-115880000D01*
X110880000Y-115880000D02*
X110880000Y-116880000D01*
X91555000Y-134120000D02*
X91555000Y-134500000D01*
X85135000Y-115880000D02*
X91555000Y-115880000D01*
X171415835Y-133160000D02*
X171184165Y-133160000D01*
X171415835Y-132440000D02*
X171184165Y-132440000D01*
D13*
X121416666Y-149325000D02*
X121416666Y-151600000D01*
X122216666Y-149325000D02*
X121416666Y-149325000D01*
X126616666Y-149325000D02*
X127416666Y-149325000D01*
X127416666Y-149325000D02*
X127416666Y-151600000D01*
X122616666Y-153575000D02*
X126216666Y-153575000D01*
D14*
X122066666Y-148615000D02*
G75*
G03*
X122066666Y-148615000I-100000J0D01*
G01*
D10*
X133132379Y-142880000D02*
X133467621Y-142880000D01*
X133132379Y-142120000D02*
X133467621Y-142120000D01*
X149385835Y-102992500D02*
X149154165Y-102992500D01*
X149385835Y-103712500D02*
X149154165Y-103712500D01*
X149437621Y-101972500D02*
X149102379Y-101972500D01*
X149437621Y-102732500D02*
X149102379Y-102732500D01*
X146500000Y-100662500D02*
X147500000Y-100662500D01*
X149410000Y-99962500D02*
X140590000Y-99962500D01*
X147500000Y-100662500D02*
X147000000Y-100162500D01*
X149410000Y-95442500D02*
X149410000Y-95752500D01*
X140590000Y-95442500D02*
X140590000Y-95752500D01*
X140590000Y-99962500D02*
X140590000Y-99652500D01*
X140590000Y-95442500D02*
X149410000Y-95442500D01*
X149410000Y-99652500D02*
X149410000Y-99962500D01*
X147000000Y-100162500D02*
X146500000Y-100662500D01*
D13*
X138125000Y-151600000D02*
X138125000Y-149325000D01*
X134325000Y-153575000D02*
X136925000Y-153575000D01*
X138125000Y-149325000D02*
X137240000Y-149325000D01*
X134010000Y-149325000D02*
X133125000Y-149325000D01*
X133125000Y-149325000D02*
X133125000Y-151600000D01*
D14*
X133925000Y-148600000D02*
G75*
G03*
X133925000Y-148600000I-100000J0D01*
G01*
D10*
X162850000Y-140550000D02*
X167150000Y-140550000D01*
X167150000Y-140550000D02*
X167150000Y-134850000D01*
X162850000Y-140550000D02*
X162850000Y-134850000D01*
X166140000Y-146029437D02*
X165440000Y-146729437D01*
X168960000Y-146729437D02*
X168960000Y-149360000D01*
X168260000Y-146029437D02*
X168960000Y-146729437D01*
X168960000Y-149360000D02*
X168260000Y-149360000D01*
X168635000Y-145225000D02*
X168635000Y-145600000D01*
X165440000Y-149360000D02*
X166140000Y-149360000D01*
X165440000Y-146729437D02*
X165440000Y-149360000D01*
X168822500Y-145412500D02*
X168447500Y-145412500D01*
X176910000Y-151710000D02*
X175650000Y-151710000D01*
X170090000Y-151710000D02*
X171350000Y-151710000D01*
X170090000Y-147950000D02*
X170090000Y-151710000D01*
X176910000Y-145700000D02*
X176910000Y-151710000D01*
X179304437Y-151560000D02*
X178240000Y-150495563D01*
X182695563Y-151560000D02*
X183760000Y-150495563D01*
X179304437Y-151560000D02*
X179940000Y-151560000D01*
X178240000Y-150495563D02*
X178240000Y-146040000D01*
X179315000Y-152425000D02*
X179315000Y-151800000D01*
X179002500Y-152112500D02*
X179627500Y-152112500D01*
X182695563Y-151560000D02*
X182060000Y-151560000D01*
X183760000Y-146040000D02*
X182060000Y-146040000D01*
X183760000Y-150495563D02*
X183760000Y-146040000D01*
X178240000Y-146040000D02*
X179940000Y-146040000D01*
X171415835Y-131440000D02*
X171184165Y-131440000D01*
X171415835Y-132160000D02*
X171184165Y-132160000D01*
X174200000Y-113350000D02*
X175540000Y-113350000D01*
X174200000Y-136650000D02*
X175540000Y-136650000D01*
X180000000Y-136650000D02*
X180000000Y-113350000D01*
X174200000Y-135160000D02*
X173000000Y-135160000D01*
X174200000Y-114840000D02*
X174200000Y-113350000D01*
X180000000Y-113350000D02*
X178260000Y-113350000D01*
X178260000Y-136650000D02*
X180000000Y-136650000D01*
X174200000Y-135160000D02*
X174200000Y-136650000D01*
X167280000Y-113867621D02*
X167280000Y-113532379D01*
X166520000Y-113867621D02*
X166520000Y-113532379D01*
X167280000Y-116082379D02*
X167280000Y-116417621D01*
X166520000Y-116082379D02*
X166520000Y-116417621D01*
X138640000Y-124984165D02*
X138640000Y-125215835D01*
X139360000Y-124984165D02*
X139360000Y-125215835D01*
X137205000Y-129010000D02*
X136275000Y-129010000D01*
X134045000Y-129010000D02*
X134045000Y-127550000D01*
X137205000Y-129010000D02*
X137205000Y-126850000D01*
X134045000Y-129010000D02*
X134975000Y-129010000D01*
X136005000Y-115332379D02*
X136005000Y-115667621D01*
X135245000Y-115332379D02*
X135245000Y-115667621D01*
X137870000Y-115332379D02*
X137870000Y-115667621D01*
X138630000Y-115332379D02*
X138630000Y-115667621D01*
X138185000Y-122500000D02*
X138185000Y-124450000D01*
X138185000Y-122500000D02*
X138185000Y-119050000D01*
X133065000Y-122500000D02*
X133065000Y-124450000D01*
X133065000Y-122500000D02*
X133065000Y-120550000D01*
X133380000Y-115332379D02*
X133380000Y-115667621D01*
X132620000Y-115332379D02*
X132620000Y-115667621D01*
X92832379Y-138820000D02*
X93167621Y-138820000D01*
X92832379Y-139580000D02*
X93167621Y-139580000D01*
X157560000Y-157610000D02*
X148440000Y-157610000D01*
X156000000Y-154300000D02*
X156000000Y-149500000D01*
X157560000Y-145000000D02*
X157560000Y-142690000D01*
X157560000Y-151000000D02*
X157560000Y-148000000D01*
X157560000Y-157610000D02*
X157560000Y-154000000D01*
X148440000Y-157610000D02*
X148440000Y-154000000D01*
X145740000Y-153760000D02*
X147640000Y-153760000D01*
X148440000Y-151000000D02*
X148440000Y-148000000D01*
X157560000Y-142690000D02*
X148440000Y-142690000D01*
X145740000Y-152420000D02*
X145740000Y-153760000D01*
X150000000Y-154300000D02*
X150000000Y-149500000D01*
X157560000Y-154300000D02*
X148440000Y-154300000D01*
X148440000Y-145000000D02*
X148440000Y-142690000D01*
X156000000Y-149500000D02*
G75*
G03*
X150000000Y-149500000I-3000000J0D01*
G01*
X152602064Y-140090000D02*
X151397936Y-140090000D01*
X152602064Y-141910000D02*
X151397936Y-141910000D01*
D13*
X115708333Y-149325000D02*
X115708333Y-151600000D01*
X114908333Y-149325000D02*
X115708333Y-149325000D01*
X109708333Y-149325000D02*
X109708333Y-151600000D01*
X110508333Y-149325000D02*
X109708333Y-149325000D01*
X110908333Y-153575000D02*
X114508333Y-153575000D01*
D14*
X110358333Y-148615000D02*
G75*
G03*
X110358333Y-148615000I-100000J0D01*
G01*
D13*
X103110000Y-149450000D02*
X104000000Y-149450000D01*
X104000000Y-149450000D02*
X104000000Y-151790000D01*
X98110000Y-153700000D02*
X102890000Y-153700000D01*
X97000000Y-149450000D02*
X97000000Y-151790000D01*
X97890000Y-149450000D02*
X97000000Y-149450000D01*
D15*
X98600000Y-147800000D02*
G75*
G03*
X98600000Y-147800000I-100000J0D01*
G01*
D10*
X173187836Y-135740000D02*
X172972164Y-135740000D01*
X173187836Y-136460000D02*
X172972164Y-136460000D01*
X155854437Y-140610000D02*
X157140000Y-140610000D01*
X161610000Y-133790000D02*
X159260000Y-133790000D01*
X155958750Y-141243750D02*
X156746250Y-141243750D01*
X160545563Y-140610000D02*
X161610000Y-139545563D01*
X156352500Y-141637500D02*
X156352500Y-140850000D01*
X154790000Y-133790000D02*
X157140000Y-133790000D01*
X160545563Y-140610000D02*
X159260000Y-140610000D01*
X161610000Y-139545563D02*
X161610000Y-133790000D01*
X154790000Y-139545563D02*
X154790000Y-133790000D01*
X155854437Y-140610000D02*
X154790000Y-139545563D01*
X170707836Y-143760000D02*
X170492164Y-143760000D01*
X170707836Y-143040000D02*
X170492164Y-143040000D01*
X168392164Y-121340000D02*
X168607836Y-121340000D01*
X168392164Y-122060000D02*
X168607836Y-122060000D01*
X170932379Y-116320000D02*
X171267621Y-116320000D01*
X170932379Y-117080000D02*
X171267621Y-117080000D01*
X174900000Y-143400000D02*
X174900000Y-139550000D01*
X176900000Y-143400000D02*
X176900000Y-139550000D01*
X174900000Y-143400000D02*
X176900000Y-143400000D01*
X172190000Y-141361252D02*
X172190000Y-140838748D01*
X174410000Y-141361252D02*
X174410000Y-140838748D01*
X171099879Y-134680000D02*
X171435121Y-134680000D01*
X171099879Y-133920000D02*
X171435121Y-133920000D01*
X171560000Y-141950000D02*
X171560000Y-140050000D01*
X169240000Y-140550000D02*
X169240000Y-141950000D01*
%LPC*%
D16*
X93567500Y-138100000D03*
X92432500Y-138100000D03*
X93567500Y-140300000D03*
X92432500Y-140300000D03*
X93567500Y-137000000D03*
X92432500Y-137000000D03*
D17*
X91280419Y-96719581D03*
X89000000Y-102225000D03*
X85775000Y-99000000D03*
X89000000Y-95775000D03*
X92225000Y-99000000D03*
X91280419Y-101280419D03*
X86719581Y-96719581D03*
D18*
X89000000Y-99000000D03*
D17*
X86719581Y-101280419D03*
X89000000Y-154225000D03*
X91280419Y-153280419D03*
D18*
X89000000Y-151000000D03*
D17*
X86719581Y-153280419D03*
X89000000Y-147775000D03*
X86719581Y-148719581D03*
X91280419Y-148719581D03*
X85775000Y-151000000D03*
X92225000Y-151000000D03*
X203280419Y-101280419D03*
X204225000Y-99000000D03*
X197775000Y-99000000D03*
X203280419Y-96719581D03*
X198719581Y-101280419D03*
D18*
X201000000Y-99000000D03*
D17*
X201000000Y-95775000D03*
X198719581Y-96719581D03*
X201000000Y-102225000D03*
D19*
X95250000Y-97200000D03*
D20*
X97790000Y-97200000D03*
X100330000Y-97200000D03*
X102870000Y-97200000D03*
X105410000Y-97200000D03*
X107950000Y-97200000D03*
D21*
X102250000Y-104450000D03*
X102900000Y-104450000D03*
X103550000Y-104450000D03*
X103550000Y-102550000D03*
X102900000Y-102550000D03*
X102250000Y-102550000D03*
D22*
X135027500Y-142500000D03*
X136222500Y-142500000D03*
X137402500Y-142500000D03*
X138597500Y-142500000D03*
D23*
X92745000Y-133500000D03*
X94015000Y-133500000D03*
X95285000Y-133500000D03*
X96555000Y-133500000D03*
X97825000Y-133500000D03*
X99095000Y-133500000D03*
X100365000Y-133500000D03*
X101635000Y-133500000D03*
X102905000Y-133500000D03*
X104175000Y-133500000D03*
X105445000Y-133500000D03*
X106715000Y-133500000D03*
X107985000Y-133500000D03*
X109255000Y-133500000D03*
D24*
X110255000Y-130715000D03*
X110255000Y-129445000D03*
X110255000Y-128175000D03*
X110255000Y-126905000D03*
X110255000Y-125635000D03*
X110255000Y-124365000D03*
X110255000Y-123095000D03*
X110255000Y-121825000D03*
X110255000Y-120555000D03*
X110255000Y-119285000D03*
D23*
X109255000Y-116500000D03*
X107985000Y-116500000D03*
X106715000Y-116500000D03*
X105445000Y-116500000D03*
X104175000Y-116500000D03*
X102905000Y-116500000D03*
X101635000Y-116500000D03*
X100365000Y-116500000D03*
X99095000Y-116500000D03*
X97825000Y-116500000D03*
X96555000Y-116500000D03*
X95285000Y-116500000D03*
X94015000Y-116500000D03*
X92745000Y-116500000D03*
D25*
X100245000Y-126000000D03*
D16*
X171867500Y-132800000D03*
X170732500Y-132800000D03*
D26*
X122916666Y-149000000D03*
X123916666Y-149000000D03*
X124916666Y-149000000D03*
X125916666Y-149000000D03*
D27*
X121616666Y-152875000D03*
X127216666Y-152875000D03*
D22*
X132702500Y-142500000D03*
X133897500Y-142500000D03*
D16*
X149837500Y-103352500D03*
X148702500Y-103352500D03*
D28*
X149867500Y-102352500D03*
X148672500Y-102352500D03*
D29*
X140900000Y-97702500D03*
X149100000Y-97702500D03*
D30*
X147000000Y-97702500D03*
D31*
X145000000Y-97702500D03*
X143000000Y-97702500D03*
D26*
X134625000Y-149000000D03*
X135625000Y-149000000D03*
X136625000Y-149000000D03*
D27*
X133325000Y-152875000D03*
X137925000Y-152875000D03*
D32*
X165000000Y-139150000D03*
X165000000Y-134850000D03*
D33*
X167200000Y-146100000D03*
X167200000Y-149100000D03*
D34*
X175800000Y-146650000D03*
X173500000Y-146650000D03*
D35*
X173500000Y-152950000D03*
D34*
X171200000Y-146650000D03*
D17*
X204225000Y-151000000D03*
X201000000Y-154225000D03*
X197775000Y-151000000D03*
X203280419Y-153280419D03*
X203280419Y-148719581D03*
X198719581Y-148719581D03*
D18*
X201000000Y-151000000D03*
D17*
X201000000Y-147775000D03*
X198719581Y-153280419D03*
D36*
X181000000Y-151000000D03*
X181000000Y-146600000D03*
D16*
X171867500Y-131800000D03*
X170732500Y-131800000D03*
D37*
X173650000Y-134750000D03*
X173650000Y-134250000D03*
X173650000Y-133750000D03*
X173650000Y-133250000D03*
X173650000Y-132750000D03*
X173650000Y-132250000D03*
X173650000Y-131750000D03*
X173650000Y-131250000D03*
X173650000Y-130750000D03*
X173650000Y-130250000D03*
X173650000Y-129750000D03*
X173650000Y-129250000D03*
X173650000Y-128750000D03*
X173650000Y-128250000D03*
X173650000Y-127750000D03*
X173650000Y-127250000D03*
X173650000Y-126750000D03*
X173650000Y-126250000D03*
X173650000Y-125750000D03*
X173650000Y-125250000D03*
X173650000Y-124750000D03*
X173650000Y-124250000D03*
X173650000Y-123750000D03*
X173650000Y-123250000D03*
X173650000Y-122750000D03*
X173650000Y-122250000D03*
X173650000Y-121750000D03*
X173650000Y-121250000D03*
X173650000Y-120750000D03*
X173650000Y-120250000D03*
X173650000Y-119750000D03*
X173650000Y-119250000D03*
X173650000Y-118750000D03*
X173650000Y-118250000D03*
X173650000Y-117750000D03*
X173650000Y-117250000D03*
X173650000Y-116750000D03*
X173650000Y-116250000D03*
X173650000Y-115750000D03*
X173650000Y-115250000D03*
D38*
X176900000Y-113350000D03*
X176900000Y-136650000D03*
D39*
X166900000Y-114297500D03*
X166900000Y-113102500D03*
D40*
X166900000Y-115652500D03*
X166900000Y-116847500D03*
D41*
X139000000Y-124532500D03*
X139000000Y-125667500D03*
D42*
X136575000Y-127250000D03*
X134675000Y-127250000D03*
X135625000Y-129250000D03*
D40*
X135625000Y-114902500D03*
X135625000Y-116097500D03*
X138250000Y-114902500D03*
X138250000Y-116097500D03*
D43*
X137530000Y-120025000D03*
X136260000Y-120025000D03*
X134990000Y-120025000D03*
X133720000Y-120025000D03*
X133720000Y-124975000D03*
X134990000Y-124975000D03*
X136260000Y-124975000D03*
X137530000Y-124975000D03*
D40*
X133000000Y-114902500D03*
X133000000Y-116097500D03*
D22*
X92402500Y-139200000D03*
X93597500Y-139200000D03*
D44*
X153000000Y-148000000D03*
D45*
X153000000Y-152400000D03*
D46*
X147500000Y-146500000D03*
X147500000Y-152500000D03*
X158500000Y-146500000D03*
X158500000Y-152500000D03*
D47*
X153400000Y-141000000D03*
X150600000Y-141000000D03*
D26*
X111208333Y-149000000D03*
X112208333Y-149000000D03*
X113208333Y-149000000D03*
X114208333Y-149000000D03*
D27*
X109908333Y-152875000D03*
X115508333Y-152875000D03*
D26*
X98500000Y-149125000D03*
X99500000Y-149125000D03*
X100500000Y-149125000D03*
X101500000Y-149125000D03*
X102500000Y-149125000D03*
D27*
X97200000Y-153000000D03*
X103800000Y-153000000D03*
D48*
X173560000Y-136100000D03*
X172600000Y-136100000D03*
D49*
X158200000Y-140000000D03*
X158200000Y-134400000D03*
D48*
X171080000Y-143400000D03*
X170120000Y-143400000D03*
D50*
X168020000Y-121700000D03*
X168980000Y-121700000D03*
D22*
X170502500Y-116700000D03*
X171697500Y-116700000D03*
D51*
X175900000Y-142600000D03*
X175900000Y-139800000D03*
D52*
X173300000Y-142175000D03*
X173300000Y-140025000D03*
D22*
X170670000Y-134300000D03*
X171865000Y-134300000D03*
D53*
X171050000Y-140300000D03*
X170400000Y-140300000D03*
X169750000Y-140300000D03*
X169750000Y-142200000D03*
X171050000Y-142200000D03*
M02*
