G04 #@! TF.GenerationSoftware,KiCad,Pcbnew,(6.0.0)*
G04 #@! TF.CreationDate,2022-01-01T11:54:16+05:30*
G04 #@! TF.ProjectId,ESP32_BoardV1,45535033-325f-4426-9f61-726456312e6b,rev?*
G04 #@! TF.SameCoordinates,Original*
G04 #@! TF.FileFunction,Legend,Bot*
G04 #@! TF.FilePolarity,Positive*
%FSLAX46Y46*%
G04 Gerber Fmt 4.6, Leading zero omitted, Abs format (unit mm)*
G04 Created by KiCad (PCBNEW (6.0.0)) date 2022-01-01 11:54:16*
%MOMM*%
%LPD*%
G01*
G04 APERTURE LIST*
G04 Aperture macros list*
%AMRoundRect*
0 Rectangle with rounded corners*
0 $1 Rounding radius*
0 $2 $3 $4 $5 $6 $7 $8 $9 X,Y pos of 4 corners*
0 Add a 4 corners polygon primitive as box body*
4,1,4,$2,$3,$4,$5,$6,$7,$8,$9,$2,$3,0*
0 Add four circle primitives for the rounded corners*
1,1,$1+$1,$2,$3*
1,1,$1+$1,$4,$5*
1,1,$1+$1,$6,$7*
1,1,$1+$1,$8,$9*
0 Add four rect primitives between the rounded corners*
20,1,$1+$1,$2,$3,$4,$5,0*
20,1,$1+$1,$4,$5,$6,$7,0*
20,1,$1+$1,$6,$7,$8,$9,0*
20,1,$1+$1,$8,$9,$2,$3,0*%
G04 Aperture macros list end*
%ADD10C,1.002000*%
%ADD11C,8.702000*%
%ADD12RoundRect,0.051000X0.850000X-0.850000X0.850000X0.850000X-0.850000X0.850000X-0.850000X-0.850000X0*%
%ADD13O,1.802000X1.802000*%
%ADD14O,2.302000X3.602000*%
%ADD15RoundRect,0.051000X0.750000X1.250000X-0.750000X1.250000X-0.750000X-1.250000X0.750000X-1.250000X0*%
%ADD16O,1.602000X2.602000*%
%ADD17C,2.102000*%
%ADD18O,2.102000X1.602000*%
G04 APERTURE END LIST*
%LPC*%
D10*
X91280419Y-96719581D03*
X89000000Y-102225000D03*
X85775000Y-99000000D03*
X89000000Y-95775000D03*
X92225000Y-99000000D03*
X91280419Y-101280419D03*
X86719581Y-96719581D03*
D11*
X89000000Y-99000000D03*
D10*
X86719581Y-101280419D03*
X89000000Y-154225000D03*
X91280419Y-153280419D03*
D11*
X89000000Y-151000000D03*
D10*
X86719581Y-153280419D03*
X89000000Y-147775000D03*
X86719581Y-148719581D03*
X91280419Y-148719581D03*
X85775000Y-151000000D03*
X92225000Y-151000000D03*
X203280419Y-101280419D03*
X204225000Y-99000000D03*
X197775000Y-99000000D03*
X203280419Y-96719581D03*
X198719581Y-101280419D03*
D11*
X201000000Y-99000000D03*
D10*
X201000000Y-95775000D03*
X198719581Y-96719581D03*
X201000000Y-102225000D03*
D12*
X95250000Y-97200000D03*
D13*
X97790000Y-97200000D03*
X100330000Y-97200000D03*
X102870000Y-97200000D03*
X105410000Y-97200000D03*
X107950000Y-97200000D03*
D14*
X140900000Y-97702500D03*
X149100000Y-97702500D03*
D15*
X147000000Y-97702500D03*
D16*
X145000000Y-97702500D03*
X143000000Y-97702500D03*
D10*
X204225000Y-151000000D03*
X201000000Y-154225000D03*
X197775000Y-151000000D03*
X203280419Y-153280419D03*
X203280419Y-148719581D03*
X198719581Y-148719581D03*
D11*
X201000000Y-151000000D03*
D10*
X201000000Y-147775000D03*
X198719581Y-153280419D03*
D17*
X153000000Y-148000000D03*
D18*
X153000000Y-152400000D03*
M02*
