M48
; DRILL file {KiCad (6.0.0)} date Sat Jan  1 11:54:24 2022
; FORMAT={-:-/ absolute / metric / decimal}
; #@! TF.CreationDate,2022-01-01T11:54:24+05:30
; #@! TF.GenerationSoftware,Kicad,Pcbnew,(6.0.0)
; #@! TF.FileFunction,Plated,1,2,PTH
FMAT,2
METRIC
; #@! TA.AperFunction,Plated,PTH,ViaDrill
T1C0.300
; #@! TA.AperFunction,Plated,PTH,ViaDrill
T2C0.400
; #@! TA.AperFunction,Plated,PTH,ViaDrill
T3C0.600
; #@! TA.AperFunction,Plated,PTH,ComponentDrill
T4C0.600
; #@! TA.AperFunction,Plated,PTH,ComponentDrill
T5C0.800
; #@! TA.AperFunction,Plated,PTH,ComponentDrill
T6C1.000
; #@! TA.AperFunction,Plated,PTH,ComponentDrill
T7C1.500
; #@! TA.AperFunction,Plated,PTH,ComponentDrill
T8C4.300
%
G90
G05
T1
X143.0Y-109.073
T2
X92.4Y-141.8
X92.7Y-129.7
X95.3Y-115.0
X98.25Y-124.0
X98.25Y-125.0
X98.25Y-126.0
X98.25Y-127.0
X98.25Y-128.0
X99.1Y-115.0
X99.25Y-124.0
X99.25Y-125.0
X99.25Y-126.0
X99.25Y-127.0
X99.25Y-128.0
X100.25Y-124.0
X100.25Y-125.0
X100.25Y-126.0
X100.25Y-127.0
X100.25Y-128.0
X101.25Y-124.0
X101.25Y-125.0
X101.25Y-126.0
X101.25Y-127.0
X101.25Y-128.0
X102.25Y-124.0
X102.25Y-125.0
X102.25Y-126.0
X102.25Y-127.0
X102.25Y-128.0
X104.9Y-104.5
X107.25Y-122.25
X107.25Y-123.5
X108.5Y-131.5
X111.8Y-110.7
X112.7Y-134.0
X118.6Y-134.3
X128.2Y-123.0
X135.5Y-128.25
X137.5Y-121.75
X143.0Y-130.5
X151.0Y-103.4
X157.5Y-146.0
X157.5Y-147.0
X157.5Y-152.0
X157.5Y-153.0
X158.5Y-146.0
X158.5Y-147.0
X158.5Y-152.0
X158.5Y-153.0
X159.5Y-146.0
X159.5Y-147.0
X159.5Y-152.0
X159.5Y-153.0
X165.1Y-151.7
X165.6Y-114.4
X165.6Y-115.7
X167.4Y-143.6
X168.1Y-136.1
X168.7Y-142.2
X171.7Y-137.2
T3
X92.0Y-135.3
X94.5Y-112.9
X100.1Y-150.9
X105.1Y-148.9
X105.2Y-136.2
X107.25Y-120.75
X119.5Y-142.175
X121.5Y-143.099
X125.75Y-143.0
X132.25Y-125.0
X135.7Y-144.2
X140.0Y-123.2
X140.127Y-142.5
X144.1Y-114.0
X162.3Y-134.5
X163.3Y-115.1
X163.6Y-147.5
X172.0Y-119.25
X172.0Y-125.0
X176.2Y-148.1
X185.15Y-146.67
T4
X85.775Y-99.0
X85.775Y-151.0
X86.72Y-96.72
X86.72Y-101.28
X86.72Y-148.72
X86.72Y-153.28
X89.0Y-95.775
X89.0Y-102.225
X89.0Y-147.775
X89.0Y-154.225
X91.28Y-96.72
X91.28Y-101.28
X91.28Y-148.72
X91.28Y-153.28
X92.225Y-99.0
X92.225Y-151.0
X197.775Y-99.0
X197.775Y-151.0
X198.72Y-96.72
X198.72Y-101.28
X198.72Y-148.72
X198.72Y-153.28
X201.0Y-95.775
X201.0Y-102.225
X201.0Y-147.775
X201.0Y-154.225
X203.28Y-96.72
X203.28Y-101.28
X203.28Y-148.72
X203.28Y-153.28
X204.225Y-99.0
X204.225Y-151.0
T5
X143.0Y-97.703
X145.0Y-97.703
X147.0Y-97.703
T6
X95.25Y-97.2
X97.79Y-97.2
X100.33Y-97.2
X102.87Y-97.2
X105.41Y-97.2
X107.95Y-97.2
T7
X140.9Y-97.703
X149.1Y-97.703
T8
X89.0Y-99.0
X89.0Y-151.0
X201.0Y-99.0
X201.0Y-151.0
T0
M30
